<svg xmlns="http://www.w3.org/2000/svg" xmlns:xlink="http://www.w3.org/1999/xlink" width="1500" zoomAndPan="magnify" viewBox="0 0 1125 577.499988" height="770" preserveAspectRatio="xMidYMid meet" version="1.2"><defs><clipPath id="6b86090459"><path d="M 153 0 L 796 0 L 796 577 L 153 577 Z M 153 0 "/></clipPath><clipPath id="ac1dae4db0"><path d="M 350.671875 685.519531 L 117.070312 37.699219 L 603.464844 -137.695312 L 837.066406 510.128906 Z M 350.671875 685.519531 "/></clipPath><clipPath id="34c6bff1f1"><path d="M 350.671875 685.519531 L 117.070312 37.699219 L 603.464844 -137.695312 L 837.066406 510.128906 Z M 350.671875 685.519531 "/></clipPath></defs><g id="6befef02c1"><g clip-rule="nonzero" clip-path="url(#6b86090459)"><g clip-rule="nonzero" clip-path="url(#ac1dae4db0)"><g clip-rule="nonzero" clip-path="url(#34c6bff1f1)"><path style=" stroke:none;fill-rule:nonzero;fill:#000000;fill-opacity:1;" d="M 252.039062 -2.363281 C 258.671875 12.082031 263.175781 10.324219 242.257812 50.042969 C 242.160156 50.078125 260.628906 62.367188 262.429688 63.570312 C 260.984375 87.007812 260.222656 76.375 265.789062 106.960938 C 258.605469 111.011719 251.414062 115.058594 244.273438 119.167969 C 207.183594 115.734375 217.71875 117.304688 196.527344 112.453125 L 192.632812 97.769531 L 171.164062 90.449219 C 164.59375 63.894531 165.042969 64.136719 170.101562 91.023438 C 170.199219 91.539062 170.007812 91.257812 190.566406 99.597656 L 193.667969 114.171875 C 193.9375 115.4375 193.398438 114.902344 207.636719 119.425781 C 184.828125 133.667969 195.875 130.007812 153.3125 137.449219 C 196.4375 133.523438 184.910156 136.777344 213.753906 121.253906 L 244.609375 125.9375 C 245.910156 126.132812 244.90625 126.492188 268.515625 114.554688 L 286.074219 140.0625 C 296.828125 137.851562 307.554688 135.457031 318.28125 133.132812 C 320.679688 134.074219 343.542969 143.03125 347.785156 144.695312 C 356.769531 170.101562 355.34375 167.769531 358.894531 169.140625 L 391.683594 181.777344 C 389.4375 187.316406 385.570312 192.941406 382.351562 198.015625 L 397.296875 222.117188 L 393.371094 248.507812 C 392.8125 252.273438 390.90625 250.585938 405 264.765625 C 410.273438 269.785156 417.789062 278.039062 424.847656 279.816406 C 435.207031 283.722656 456.117188 300.375 467.394531 296.382812 C 472.496094 296.53125 485.8125 303.5 490.296875 305.941406 C 495.378906 328.746094 490.714844 321.074219 509.257812 339.867188 C 500.765625 347.4375 506.050781 345.246094 488.425781 345.832031 C 463.828125 346.945312 464.179688 346.925781 438.824219 368.515625 C 437.777344 369.394531 432.265625 367.097656 431.027344 366.511719 C 414.589844 359.414062 410.773438 353.328125 389.917969 352.890625 C 388.269531 352.859375 381.246094 352.847656 379.820312 353.386719 C 358.070312 361.605469 369.136719 361.5625 334.339844 349.867188 C 298.667969 353.042969 304.417969 354.089844 296.152344 346.085938 C 287.992188 337.828125 275.121094 323.277344 267.5 314.519531 L 254.222656 318.257812 C 273.339844 314.632812 260.375 310.625 293 349.003906 C 295.089844 351.277344 299.535156 356.933594 302.339844 357.394531 C 302.546875 357.433594 302.820312 357.449219 302.820312 357.449219 C 342.558594 357.792969 323.089844 352.695312 358.132812 366.6875 C 357.675781 375.484375 357.25 392.402344 363.3125 398.523438 C 365.332031 401.253906 359.96875 406.734375 357.40625 408.964844 C 346.53125 441.011719 346.808594 439.679688 346.960938 441.238281 C 347.628906 448.238281 354.238281 461.914062 356.34375 471.042969 C 356.242188 476.820312 338.171875 505.320312 335.09375 510.148438 C 338.734375 505.128906 359.097656 477.121094 359.058594 470.832031 C 357.625 461.472656 351.628906 446.945312 351.542969 440.785156 C 351.9375 439.664062 360.925781 417.734375 362.933594 412.78125 C 377.722656 400.144531 368.042969 394.367188 367.140625 388.445312 C 366.1875 381.679688 366.683594 374.09375 367.480469 367.085938 L 382.144531 362.296875 C 415.054688 361.492188 427.777344 384.382812 442.292969 379.679688 C 445.59375 378.703125 450.695312 373.105469 460.703125 365.96875 C 470.207031 359.332031 470.921875 359.136719 488.726562 358.789062 C 512.097656 358.550781 505.371094 360.996094 514.425781 353.21875 C 518.046875 354.695312 539.847656 363.597656 546.25 366.210938 C 549.019531 383.238281 548.875 382.617188 549.109375 383.292969 C 570.371094 444.941406 566.484375 433.652344 592.703125 460.246094 C 594.960938 456.941406 603.167969 444.941406 607.617188 438.4375 L 627.988281 445.386719 C 630.019531 468.066406 629.820312 467.207031 630.238281 468.058594 C 634.582031 476.902344 635.390625 469.140625 621.574219 509.632812 C 621.363281 510.246094 621.460938 509.671875 620.09375 533.269531 C 619.5 535.011719 616.179688 544.738281 616.179688 544.738281 C 616.707031 543.777344 590.703125 592.324219 590.796875 592.273438 C 590.894531 592.015625 619.003906 546.082031 619.039062 545.804688 C 625.015625 531.070312 623.257812 538.695312 626.417969 511.148438 C 639.738281 478.304688 637.136719 482.660156 638.820312 486.707031 C 642.316406 495.496094 642.226562 494.515625 643.746094 501.097656 C 644.789062 506.097656 656.160156 507.871094 662.316406 508.828125 C 656.339844 526.636719 656.082031 526.027344 657.128906 526.867188 C 698.457031 559.964844 697.648438 560.414062 659.558594 525.515625 L 667.671875 505.792969 C 646.058594 501.328125 649.183594 499.777344 648.34375 496.183594 C 637.515625 454.675781 638.21875 484.628906 636.804688 441.753906 C 636.773438 440.894531 636.535156 441.613281 651.164062 414.402344 L 677.25 425.664062 C 704.363281 393.164062 706.726562 397.648438 705.683594 396.882812 C 711.511719 399.933594 734.828125 402.242188 741.441406 402.894531 C 767.011719 395.734375 791.179688 394.695312 795.425781 395.519531 C 791.449219 394.597656 767.644531 394.523438 741.304688 400.875 C 702.4375 395.296875 707.324219 392.15625 702.488281 394.785156 L 707.460938 379.410156 C 695.15625 338.398438 696.140625 338.484375 704.535156 379.25 C 691.546875 409.863281 702.867188 390.273438 675.988281 419.851562 L 651.066406 408.003906 C 648.078125 406.585938 649.050781 406.265625 647.316406 409.234375 C 647.316406 409.234375 634.515625 431.101562 631.238281 436.707031 C 622.488281 433.160156 607.253906 426.984375 603.730469 425.554688 C 602.769531 426.808594 596.210938 435.316406 591.546875 441.375 C 579.28125 427.441406 580.589844 433.929688 565.136719 379.265625 C 564.710938 375.042969 562.707031 356.453125 562.480469 354.015625 C 560.589844 353.136719 535.34375 341.15625 524.652344 336.097656 C 503.894531 314.480469 508.378906 322.890625 503.460938 299.753906 C 503.042969 297.773438 502.945312 299.644531 515.957031 237.78125 C 548.085938 209.167969 543.421875 214.871094 546.101562 207.207031 C 575.53125 208.917969 562.058594 212.046875 606.523438 191.167969 C 561.328125 206.695312 574.167969 205 548.382812 200.675781 C 552.566406 188.707031 552.082031 195.660156 549.914062 168.347656 L 572.644531 131.546875 L 562.269531 103.867188 L 574.890625 67.753906 C 558.542969 39.238281 558.617188 38.664062 573.761719 67.835938 L 559.636719 103.421875 C 559.378906 104.070312 559.367188 103.523438 568.394531 131.042969 C 543.722656 167.496094 544.152344 166.289062 544.207031 167.816406 C 545.214844 194.582031 546.910156 185.433594 537.875 208.191406 L 507.785156 232.8125 L 492.953125 291.171875 C 484.921875 286.917969 470.996094 279.980469 463.121094 282.582031 C 457.515625 281.648438 442.878906 272.707031 436.117188 269.140625 C 427.605469 264.824219 428.042969 268.628906 408.082031 247.164062 C 412.863281 212.8125 415.378906 224.296875 398.632812 197.992188 C 404.265625 188.402344 411.066406 174.457031 400.457031 170.78125 C 395.980469 169.183594 374.609375 161.398438 365.910156 158.292969 C 362.96875 150.671875 360.003906 143.054688 357.007812 135.457031 C 354.847656 134.683594 321.410156 122.859375 318.980469 121.984375 C 309.355469 124.441406 299.707031 126.824219 290.09375 129.320312 C 269.429688 102.0625 274.355469 112.867188 266.96875 81.695312 L 267.15625 61.078125 L 246.597656 48.804688 C 250.324219 40.589844 257.925781 23.296875 259.179688 14.359375 C 259.199219 11.816406 252.394531 -5.003906 247.691406 -8.960938 C 249.769531 -7.257812 250.890625 -4.722656 252.039062 -2.363281 Z M 648.972656 500.386719 C 648.964844 500.171875 648.964844 500.203125 648.964844 500.171875 C 648.980469 500.257812 648.992188 500.335938 648.972656 500.386719 Z M 467.652344 296.285156 C 467.796875 296.226562 467.945312 296.175781 468.085938 296.113281 C 467.960938 296.199219 467.804688 296.242188 467.652344 296.285156 Z M 462.605469 282.769531 C 462.847656 282.695312 462.375 282.851562 462.210938 282.925781 C 462.347656 282.867188 462.453125 282.800781 462.605469 282.769531 Z M 395.886719 183.386719 C 395.703125 183.335938 395.195312 183.121094 395.773438 183.34375 C 395.773438 183.34375 395.886719 183.386719 395.886719 183.386719 Z M 395.886719 183.386719 "/></g></g></g></g></svg>