<svg xmlns="http://www.w3.org/2000/svg" xmlns:xlink="http://www.w3.org/1999/xlink" width="1500" zoomAndPan="magnify" viewBox="0 0 1125 577.499988" height="770" preserveAspectRatio="xMidYMid meet" version="1.2"><defs><clipPath id="932b034ea6"><path d="M 0.488281 175 L 392 175 L 392 577 L 0.488281 577 Z M 0.488281 175 "/></clipPath><clipPath id="9d7f17797d"><path d="M -61.777344 570.398438 L -7.113281 175.507812 L 446.414062 238.289062 L 391.753906 633.175781 Z M -61.777344 570.398438 "/></clipPath><clipPath id="530874b55c"><path d="M -61.570312 568.910156 L -7.113281 175.507812 L 446.414062 238.289062 L 391.957031 631.691406 Z M -61.570312 568.910156 "/></clipPath><clipPath id="2fa4072c05"><path d="M -61.777344 570.394531 L -7.113281 175.507812 L 446.417969 238.289062 L 391.753906 633.175781 Z M -61.777344 570.394531 "/></clipPath></defs><g id="62e9750059"><g clip-rule="nonzero" clip-path="url(#932b034ea6)"><g clip-rule="nonzero" clip-path="url(#9d7f17797d)"><g clip-rule="nonzero" clip-path="url(#530874b55c)"><g clip-rule="nonzero" clip-path="url(#2fa4072c05)"><path style=" stroke:none;fill-rule:nonzero;fill:#000000;fill-opacity:1;" d="M -5.132812 179.28125 C -4.757812 179.976562 -4.417969 180.890625 -3.96875 181.472656 C -3.46875 182.117188 -2.910156 182.183594 -2.335938 182.710938 C -1.996094 183.023438 -2.03125 183.621094 -1.589844 183.859375 C -1.316406 184.003906 -0.8125 183.65625 -0.511719 183.765625 C -0.00390625 183.945312 0.476562 184.144531 0.96875 184.28125 C 2.355469 184.675781 3.519531 185.703125 4.875 185.976562 C 5.832031 186.171875 5.789062 186.519531 6.53125 187.394531 C 7.011719 187.960938 7.53125 187.929688 8.039062 188.351562 C 8.800781 188.988281 9.144531 190.460938 9.941406 191.113281 C 10.179688 191.308594 10.53125 191.703125 10.769531 191.824219 C 11.230469 192.050781 11.300781 191.859375 11.777344 191.972656 C 12.511719 192.148438 13.109375 192.511719 13.695312 192.980469 C 14.101562 193.304688 14.390625 193.914062 14.808594 194.296875 C 15.210938 194.660156 16.019531 194.527344 16.53125 194.652344 C 17.667969 194.9375 18.027344 195.703125 18.871094 196.496094 C 19.226562 196.828125 19.859375 196.851562 20.304688 197.207031 C 21.0625 197.8125 21.761719 199.296875 22.648438 199.519531 C 23.625 199.761719 23.792969 199.140625 24.476562 200.25 C 25.445312 201.824219 26.523438 203.105469 27.605469 204.503906 C 28.347656 205.460938 28.742188 206.859375 29.589844 207.648438 C 30.292969 208.308594 30.828125 208.699219 31.363281 209.679688 C 32.160156 211.136719 32.933594 211.59375 34.234375 211.925781 C 35.125 212.15625 35.574219 212.636719 36.402344 213.085938 C 37.738281 213.816406 39.3125 213.984375 40.644531 214.761719 C 41.25 215.113281 41.589844 215.609375 42.097656 216.042969 C 42.957031 216.777344 44.273438 216.171875 45.164062 216.816406 C 45.976562 217.410156 46.058594 219.144531 46.820312 219.746094 C 47.472656 220.265625 48.363281 219.707031 49.175781 219.929688 C 51.289062 220.507812 52.347656 222.246094 53.847656 223.851562 C 55.398438 225.507812 57.382812 226.601562 59.253906 227.554688 C 60.507812 228.195312 62.066406 228.0625 63.007812 229.226562 C 63.894531 230.3125 64.929688 230.707031 65.902344 231.621094 C 67.195312 232.824219 68.242188 235.113281 67.96875 238.007812 C 67.75 240.304688 66.28125 243.957031 67.097656 245.617188 C 66.339844 246.71875 65.707031 249.003906 65.402344 250.246094 C 65.238281 250.921875 65.3125 251.585938 65.125 252.3125 C 64.90625 253.140625 64.378906 253.9375 64.183594 254.699219 C 63.863281 255.9375 64.058594 256.441406 64.007812 257.597656 C 63.957031 258.894531 63.402344 260.230469 63.261719 261.542969 C 63.113281 262.949219 63.109375 264.480469 63.160156 265.777344 C 63.230469 267.503906 64.550781 270.824219 63.835938 272.871094 C 63.4375 274.011719 61.902344 275.640625 61.230469 276.574219 C 59.386719 279.121094 57.734375 281.375 56.238281 284.207031 C 55.464844 285.6875 54.691406 287.242188 53.871094 288.664062 C 53.457031 289.378906 52.9375 289.816406 52.570312 290.621094 C 52.378906 291.035156 52.085938 292.550781 51.898438 293.042969 C 51.707031 293.546875 51.234375 294.046875 51.089844 294.582031 C 50.894531 295.3125 51.042969 295.894531 50.890625 296.566406 C 50.574219 297.917969 49.878906 299.601562 49.335938 300.957031 C 47.980469 304.34375 47.601562 307.105469 48.84375 309.296875 C 49.847656 311.074219 51.183594 312.421875 51.957031 314.519531 C 52.503906 315.996094 52.078125 316.316406 51.339844 318.214844 C 50.828125 319.523438 50.460938 320.921875 49.949219 322.25 C 49.121094 324.386719 48.433594 326.085938 48.863281 327.894531 C 49.421875 330.257812 51.304688 329.324219 53.0625 328.757812 C 56.09375 327.777344 58.640625 327.398438 61.753906 325.269531 C 62.75 324.589844 63.773438 323.6875 64.730469 322.898438 C 67.609375 320.535156 66.777344 321.476562 69.160156 322.132812 C 70.621094 322.539062 72.441406 321.601562 74.035156 321.78125 C 75.765625 321.976562 76.816406 322.199219 78.53125 321.835938 C 82.054688 321.089844 83.5625 323.164062 85.390625 326.628906 C 86.894531 329.472656 88.832031 331.28125 88 336.167969 C 87.339844 340.054688 86.039062 344.347656 85.246094 348.351562 C 84.523438 352 84.453125 354.605469 83.015625 358.375 C 82.273438 360.332031 81.378906 362.046875 80.835938 364.070312 C 80.214844 366.386719 79.300781 369.03125 78.757812 371.234375 C 77.972656 374.414062 78.710938 373.492188 79.453125 375.644531 C 80.738281 379.347656 77.554688 382.441406 75.933594 386.832031 C 74.601562 390.433594 73.476562 395.148438 75.246094 396.914062 C 77.796875 399.460938 81.9375 395.691406 85.261719 394.203125 C 87.90625 393.015625 91.78125 393.054688 93.964844 393.726562 C 97.914062 394.949219 101.703125 397.761719 104.730469 401.128906 C 105.886719 402.414062 106.796875 404.046875 108.238281 404.808594 C 108.777344 405.09375 110.203125 405.035156 110.660156 405.425781 C 111.925781 406.515625 112.207031 408.726562 112.058594 411.335938 C 111.578125 419.851562 107.714844 430.378906 110.65625 436.484375 C 113.101562 441.566406 113.121094 448.703125 115.066406 454.09375 C 115.121094 454.246094 115.140625 454.417969 115.191406 454.574219 C 114.503906 454.671875 113.8125 454.75 113.136719 454.898438 C 111.03125 455.359375 108.964844 454.648438 106.789062 454.292969 C 104.703125 453.953125 102.035156 453.300781 100.035156 453.269531 C 97.875 453.242188 96.214844 455.152344 93.878906 454.605469 C 93.820312 460.472656 90.960938 457.117188 88.851562 458.332031 C 88.191406 455.5 89.671875 450.980469 87.820312 448.699219 C 85.796875 446.207031 82.691406 448.273438 80.964844 448.144531 C 79.667969 448.046875 78.664062 446.953125 77.414062 446.617188 C 75.945312 446.226562 75.246094 446.980469 74.011719 447.539062 C 73.523438 447.757812 72.382812 448.335938 71.769531 448.210938 C 68.96875 446.773438 66.808594 448.882812 63.960938 448.117188 C 62.742188 447.785156 61.957031 447.484375 60.707031 447.523438 C 57.339844 447.617188 54.476562 446.839844 50.972656 445.121094 C 49.191406 444.246094 48.046875 444.109375 46.445312 444.570312 C 44.550781 445.117188 43.265625 444.464844 41.1875 443.664062 C 39.738281 443.101562 39.976562 443.878906 38.96875 444.773438 C 38.375 445.304688 37.773438 445.242188 37.117188 445.527344 C 36.460938 445.816406 36.328125 446.234375 35.578125 446.300781 C 35.027344 446.351562 34.792969 445.792969 34.242188 446.113281 C 34.015625 446.246094 33.5 447.175781 33.238281 447.417969 C 33.027344 447.613281 32.648438 447.609375 32.425781 447.859375 C 31.601562 448.785156 31.890625 451.089844 30.984375 451.511719 C 30.777344 451.609375 29.96875 450.953125 29.640625 450.957031 C 29.046875 450.96875 28.238281 451.777344 27.703125 452.074219 C 26.410156 452.785156 25.125 452.875 23.816406 453.414062 C 22.546875 453.9375 21.632812 455.910156 20.601562 457.007812 C 19.761719 457.898438 19.03125 458.414062 18.375 459.53125 C 17.792969 460.519531 17.601562 461.535156 16.667969 461.957031 C 17.214844 461.535156 17.84375 462.132812 18.429688 461.96875 C 19.148438 461.769531 19.441406 460.640625 20.148438 460.328125 C 21.601562 459.679688 22.890625 460.703125 23.765625 458.441406 C 24.085938 457.605469 23.972656 456.867188 24.386719 456.15625 C 25.089844 454.949219 27.015625 454.324219 28.074219 454.148438 C 29.097656 453.976562 29.90625 454.175781 30.625 453.175781 C 31.085938 452.539062 30.882812 451.761719 31.539062 451.582031 C 32.167969 451.40625 33.214844 452.113281 33.996094 451.839844 C 35.148438 451.445312 36.089844 450.722656 37.289062 450.414062 C 38.671875 450.058594 39.085938 449.347656 40.101562 448.351562 C 41.378906 447.101562 43.367188 449.003906 45.042969 449.652344 C 46.507812 450.21875 47.792969 449.9375 49.257812 450.523438 C 50.835938 451.15625 52.527344 452.417969 54.070312 452.691406 C 55.046875 452.867188 55.996094 452.929688 56.96875 453.132812 C 57.976562 453.335938 58.105469 452.582031 58.867188 452.355469 C 61.242188 451.644531 66.097656 455.253906 68.714844 456.46875 C 71.582031 457.800781 74.453125 459.144531 77.320312 460.464844 C 78.457031 460.988281 80.011719 461.070312 80.816406 463.078125 C 81.5 464.785156 80.957031 466.457031 81.292969 468.203125 C 81.992188 466.113281 83.863281 467.882812 85.0625 466.996094 C 85.539062 466.457031 85.949219 465.804688 86.300781 465.042969 C 86.878906 464.738281 87.503906 464.898438 88.179688 465.515625 C 88.746094 465.4375 88.707031 465.25 89.078125 465.171875 C 91.886719 464.582031 94.695312 464.632812 97.308594 463.261719 C 98.664062 462.550781 100.582031 463.910156 101.773438 463.3125 C 102.144531 463.125 102.289062 462.351562 102.632812 462.097656 C 103.277344 461.621094 104.367188 461.722656 105.132812 461.675781 C 105.875 461.632812 106.921875 462.035156 107.621094 461.84375 C 108.054688 461.730469 108.585938 460.839844 109 460.617188 C 110.0625 460.039062 111.285156 459.710938 112.558594 460.179688 C 118.488281 462.363281 124.601562 465.757812 130.554688 468.574219 C 131.683594 469.109375 132.761719 469.40625 133.8125 469.609375 C 137.890625 473.425781 141.808594 477.808594 144.664062 482.214844 C 146.433594 484.945312 148.535156 489.636719 148.90625 492.679688 C 149.371094 496.503906 148.257812 501.023438 151.875 504.4375 C 154.386719 506.8125 157.953125 506.066406 160.429688 504.929688 C 163.445312 503.539062 164.472656 500.089844 168.4375 502.128906 C 170.742188 503.3125 170.316406 504.082031 172.710938 503.546875 C 174.371094 503.175781 176.222656 502.421875 177.9375 501.972656 C 179.4375 501.582031 180.476562 500.722656 181.808594 500.078125 C 184.371094 498.832031 186.640625 499.089844 189.480469 498.691406 C 192.597656 498.253906 195.695312 497.242188 198.78125 496.949219 C 202.660156 496.585938 205.296875 499.167969 208.621094 501.355469 C 212.667969 504.019531 215.304688 506.113281 216.539062 510.28125 C 217.136719 512.304688 217.894531 513.605469 218.996094 515.722656 C 220.007812 517.675781 220.152344 519.753906 221.292969 521.574219 C 223.15625 524.546875 223.542969 523.660156 222.992188 526.832031 C 222.808594 527.886719 222.558594 529.007812 222.492188 530.125 C 222.277344 533.613281 223.304688 536.640625 224.066406 540.179688 C 224.503906 542.230469 224.6875 544.390625 227.074219 545.375 C 228.90625 546.128906 230.039062 545.519531 231.488281 544.800781 C 232.390625 544.351562 233.429688 544.085938 234.316406 543.640625 C 235.59375 542.996094 235.652344 542.527344 237.25 543.378906 C 239.523438 544.589844 241.429688 546.378906 243.542969 547.828125 C 246.148438 549.613281 248.382812 549.515625 250.652344 548.320312 C 251.5625 547.839844 252.679688 547.21875 253.707031 547.015625 C 254.21875 546.917969 254.816406 547.171875 255.355469 547.03125 C 255.75 546.925781 255.941406 546.421875 256.285156 546.253906 C 256.617188 546.089844 257.800781 545.9375 258.066406 545.761719 C 258.582031 545.421875 258.6875 544.847656 259.097656 544.445312 C 259.921875 543.636719 260.882812 542.90625 261.773438 542.160156 C 263.480469 540.722656 264.585938 539.015625 265.851562 537.121094 C 266.316406 536.429688 266.9375 534.785156 267.730469 534.453125 C 269.160156 533.859375 272.804688 535.886719 274.371094 536.195312 C 275.542969 536.429688 276.898438 536.625 278.058594 536.625 C 279.144531 536.625 280.03125 536.136719 281.152344 536.238281 C 282.148438 536.332031 282.699219 536.632812 283.621094 536.410156 C 284.1875 536.269531 284.613281 535.738281 285.226562 535.582031 C 285.769531 535.445312 286.398438 535.625 286.90625 535.515625 C 287.84375 535.308594 289.527344 534.84375 290.09375 534.070312 C 292 535.273438 294.445312 533.976562 296.359375 534.011719 C 298.777344 534.0625 301.359375 535.625 303.117188 537.34375 C 304.449219 538.644531 305.351562 539.949219 306.789062 541.160156 C 308.320312 542.453125 309.039062 544.316406 310.277344 545.917969 C 312.121094 548.304688 314.15625 550.847656 316.449219 552.9375 C 318.679688 554.964844 320.78125 556.472656 322.425781 559.101562 C 323.0625 560.117188 323.039062 561.121094 323.847656 561.980469 C 324.789062 562.976562 326.371094 563.300781 327.328125 564.363281 C 328.378906 565.527344 328.546875 567.039062 329.65625 568.175781 C 330.3125 568.839844 330.929688 569.316406 331.566406 570.097656 C 332.96875 571.808594 333.964844 573.738281 335.324219 575.449219 C 336.167969 576.507812 336.832031 577.117188 337.507812 578.21875 C 338.503906 579.835938 339.328125 580.835938 341.039062 581.988281 C 342.195312 582.765625 342.828125 583.460938 343.789062 584.398438 C 344.9375 585.527344 346.386719 586.191406 347.632812 587.207031 C 349.449219 588.703125 351.160156 590.171875 353.078125 591.554688 C 354.421875 592.523438 353.964844 592.644531 354.699219 593.859375 C 355.371094 594.960938 357.058594 595.996094 358 596.992188 C 358.554688 597.578125 358.914062 598.347656 359.398438 598.820312 C 360.550781 599.945312 361.421875 600.480469 362.285156 601.890625 C 362.671875 602.53125 362.984375 603.488281 363.523438 604.023438 C 364.082031 604.578125 364.777344 605.007812 365.28125 605.539062 C 366.007812 606.3125 366.652344 607.082031 367.199219 607.992188 C 367.554688 608.585938 367.425781 608.644531 367.875 609.226562 C 368.109375 609.535156 368.648438 610.015625 368.945312 610.324219 C 369.949219 611.375 371.4375 611.980469 372.410156 612.988281 C 373.054688 613.65625 373.308594 614.285156 374.0625 614.9375 C 375.234375 615.945312 375.519531 615.941406 376.207031 617.125 C 377.175781 618.800781 378.707031 620.34375 379.796875 622.070312 C 380.183594 622.683594 380.621094 623.296875 381.050781 623.929688 C 381.304688 624.304688 381.265625 624.875 381.546875 625.222656 C 381.992188 625.789062 382.5 625.820312 382.957031 626.273438 C 383.734375 627.035156 384.09375 627.722656 384.929688 628.410156 C 385.6875 629.03125 386.675781 629.558594 387.496094 630.105469 C 388.921875 631.0625 390.386719 631.976562 391.761719 633 C 389.714844 630.542969 387.238281 628.648438 385.417969 626.003906 C 383.863281 623.742188 382.046875 622.007812 380.085938 619.949219 C 377.917969 617.675781 376.273438 615.367188 373.925781 613.289062 C 372.746094 612.242188 372.222656 611.167969 371.355469 609.976562 C 370.28125 608.5 368.960938 607.640625 367.617188 606.351562 C 366.34375 605.136719 365.152344 603.800781 363.921875 602.542969 C 362.378906 600.96875 361.46875 599.074219 359.851562 597.605469 C 358.710938 596.566406 357.660156 596.164062 356.785156 594.859375 C 355.808594 593.394531 355.550781 592.644531 354.171875 591.347656 C 351.933594 589.234375 350.742188 586.789062 348.773438 584.613281 C 346.789062 582.414062 344.964844 580.367188 343.28125 577.992188 C 342.550781 576.960938 341.445312 576.328125 340.691406 575.382812 C 340.289062 574.679688 339.941406 573.964844 339.640625 573.234375 C 339.039062 572.378906 338.339844 571.597656 337.539062 570.886719 C 336.164062 569.453125 334.710938 568.027344 333.375 566.566406 C 332.167969 565.246094 331.789062 563.621094 330.496094 562.429688 C 329.5 561.507812 328.890625 561.414062 328.203125 560.386719 C 327.730469 559.683594 327.449219 559.199219 326.890625 558.519531 C 325.679688 557.050781 323.269531 554.519531 323.042969 552.867188 C 322.914062 551.902344 323.207031 551.960938 322.652344 551.007812 C 321.574219 549.171875 318.914062 548.027344 317.746094 546.003906 C 316.6875 544.167969 316.164062 543.636719 314.429688 542.449219 C 312.582031 541.183594 311.726562 539.332031 310.054688 537.902344 C 309.394531 537.609375 308.824219 537.199219 308.339844 536.671875 C 308.277344 536.1875 308.195312 535.710938 308.09375 535.230469 C 307.761719 534.644531 305.84375 533.144531 305.316406 532.636719 C 304.0625 531.441406 303.816406 530.863281 302.933594 529.472656 C 302.136719 528.21875 300.851562 527.367188 299.835938 526.296875 C 300.679688 525.164062 299.335938 524.007812 298.945312 522.761719 C 298.632812 521.753906 298.96875 519.800781 297.4375 519.5 C 296.773438 519.375 296.417969 520.015625 295.828125 520.125 C 295.300781 520.222656 294.785156 520 294.269531 520.003906 C 292.882812 520.011719 292.339844 520.601562 290.96875 520.847656 C 289.835938 521.050781 288.898438 521.082031 287.773438 521.492188 C 286.679688 521.890625 285.605469 522.308594 284.5625 522.84375 C 283.507812 523.382812 282.976562 524.175781 282 524.714844 C 281.296875 525.105469 280.867188 525.011719 280.097656 525.082031 C 278.488281 525.222656 279 524.917969 277.957031 525.820312 C 277.316406 526.375 277.257812 526.382812 276.554688 526.625 C 275.960938 526.832031 275.097656 526.765625 274.480469 526.949219 C 273.957031 527.109375 273.40625 527.605469 272.867188 527.683594 C 272.023438 527.804688 271.179688 527.464844 270.292969 527.644531 C 267.851562 528.140625 265.5 528.769531 263.238281 529.722656 C 261.113281 530.621094 259 532.035156 256.644531 532.347656 C 256.0625 532.421875 255.589844 532.425781 255.007812 532.558594 C 253.65625 532.863281 252.328125 533.269531 250.972656 533.59375 C 250.492188 533.707031 250.054688 533.902344 249.574219 534.015625 C 248.898438 534.175781 248.039062 534.089844 247.421875 534.355469 C 247.191406 534.457031 247.03125 534.578125 246.898438 534.714844 C 247.710938 532.074219 243.464844 529.25 242.21875 526.886719 C 241.707031 525.105469 241.023438 523.367188 240.164062 521.660156 C 238.65625 520.003906 237.285156 518.269531 236.039062 516.449219 C 234.667969 514.054688 234.308594 512.085938 232.824219 509.839844 C 231.234375 507.429688 230.582031 504.21875 228.9375 502.015625 C 227.832031 500.539062 226.394531 500.203125 225.566406 498.527344 C 224.644531 496.675781 225.3125 495.636719 223.882812 493.613281 C 222.726562 491.976562 221.191406 490.847656 219.574219 489.671875 C 216.355469 487.328125 212.578125 484.585938 209.066406 482.644531 C 205.941406 480.921875 201.960938 480.40625 198.492188 479.949219 C 194.09375 479.371094 189.636719 477.089844 185.414062 476.640625 C 184.125 476.503906 182.9375 477.539062 181.71875 477.273438 C 179.855469 476.867188 178.644531 475.167969 176.871094 474.503906 C 175.054688 476.824219 168.421875 478.515625 165.261719 478.65625 C 161.875 478.804688 161.835938 476.773438 160.03125 474.492188 C 158.1875 472.152344 156 469.894531 153.941406 467.746094 C 149.882812 463.511719 147.648438 459.089844 142.535156 455.707031 C 140.613281 454.433594 138.796875 453.203125 137.039062 451.929688 C 136.863281 450.726562 136.613281 449.566406 136.148438 448.457031 C 137.253906 445.757812 139.394531 444.335938 140.664062 441.675781 C 139.648438 436.546875 135.519531 434.53125 134.445312 429.402344 C 135.648438 427.226562 137.019531 425.882812 137.9375 423.578125 C 138.765625 421.496094 138.917969 419.347656 140.058594 416.980469 C 142.09375 412.757812 143.449219 412.339844 142.222656 409.277344 C 141.316406 407.011719 139.984375 404.386719 138.5625 402.894531 C 136.195312 400.414062 132.824219 399.917969 130.5 397.4375 C 129.964844 396.867188 129.910156 395.449219 129.363281 394.917969 C 128.054688 393.640625 127.859375 395.015625 126.609375 394.554688 C 125.226562 394.042969 124.75 392.515625 123.5625 391.484375 C 120.929688 389.195312 119.117188 385.808594 117.140625 382.09375 C 114.816406 377.722656 111.195312 377.386719 107.976562 374.75 C 106.347656 373.414062 104.636719 371.976562 102.808594 370.996094 C 101.023438 370.042969 99.234375 371.082031 99.808594 366.90625 C 100.34375 363.007812 102.707031 354.082031 104.996094 350.640625 C 104.640625 348.847656 103.296875 348.292969 103.179688 346.257812 C 103.105469 344.925781 104.175781 342.9375 104.222656 341.449219 C 104.378906 336.582031 102.941406 332.414062 103.003906 327.40625 C 103.054688 323.453125 103.121094 318.914062 102 316.058594 C 100.746094 312.851562 98.816406 309.753906 97.160156 307.117188 C 96.328125 305.792969 95.535156 304.539062 94.238281 304.019531 C 92.632812 303.375 91.625 304.734375 90.105469 304.617188 C 88.734375 304.511719 88.625 302.953125 87.460938 302.40625 C 85.730469 301.59375 82.972656 302.535156 81.050781 301.898438 C 79.253906 301.308594 77.558594 301.929688 75.621094 301.554688 C 74.175781 301.023438 72.816406 300.292969 71.550781 299.359375 C 70.15625 299.234375 68.703125 299.339844 67.195312 299.671875 C 65.265625 299.429688 63.324219 295.808594 60.878906 298.207031 C 61.019531 297.976562 61.152344 297.714844 61.265625 297.382812 C 61.585938 296.492188 61.617188 295.503906 61.847656 294.601562 C 62.011719 293.957031 62.242188 293.320312 62.40625 292.679688 C 62.867188 290.867188 63.402344 289.039062 63.851562 287.242188 C 64.042969 286.46875 64.105469 285.898438 64.25 285.152344 C 64.832031 282.136719 66.363281 278.816406 67.433594 275.769531 C 68.570312 272.523438 69.4375 269.339844 70.195312 266.125 C 70.46875 264.949219 70.28125 264.117188 70.496094 263.03125 C 70.636719 262.335938 71.144531 261.40625 71.359375 260.683594 C 71.601562 259.839844 71.65625 258.828125 71.914062 258.007812 C 72.21875 257.027344 72.234375 256.945312 72.808594 255.875 C 73.746094 254.132812 73.410156 254.910156 73.742188 252.886719 C 73.90625 251.921875 73.878906 251.453125 74.316406 250.394531 C 74.917969 248.925781 75.691406 247.855469 76.308594 246.285156 C 76.914062 244.746094 77.425781 243.222656 77.921875 241.683594 C 78.429688 240.105469 78.582031 238.949219 78.910156 237.46875 C 79.304688 235.683594 79.902344 234.710938 80.089844 233.027344 C 80.160156 232.402344 80.03125 231.898438 80.183594 231.207031 C 80.359375 230.4375 80.972656 229.660156 80.945312 228.929688 C 80.882812 227.234375 79.109375 228.691406 78.261719 228.847656 C 77.207031 229.046875 76.359375 228.039062 75.246094 229.671875 C 74.433594 229.011719 73.847656 227.914062 72.84375 227.621094 C 71.726562 227.304688 71.25 227.3125 70.355469 226.4375 C 69.976562 226.066406 68.898438 224.558594 68.421875 224.46875 C 68.011719 224.605469 67.597656 224.761719 67.183594 224.9375 C 66.777344 224.640625 66.488281 224.171875 66.316406 223.527344 C 65.269531 222.269531 63.742188 222.230469 62.867188 220.671875 C 62.042969 219.207031 61.640625 218.859375 60.152344 218.566406 C 58.515625 218.238281 57.851562 215.636719 56.367188 215.316406 C 55.597656 215.152344 55.613281 215.476562 54.777344 215.835938 C 53.34375 216.453125 51.417969 214.890625 50.277344 214.214844 C 49.75 213.902344 49.359375 213.824219 48.796875 213.628906 C 47.976562 213.34375 47.976562 212.660156 47.289062 211.945312 C 46.402344 211.023438 45.015625 211.4375 44.003906 210.683594 C 42.890625 209.851562 41.816406 208.859375 40.726562 207.964844 C 40.203125 207.378906 39.601562 206.949219 38.925781 206.675781 C 38.316406 206.707031 37.730469 206.667969 37.164062 206.5625 C 36.425781 206.152344 36.007812 205.15625 35.191406 204.828125 C 33.3125 204.066406 31.738281 202.953125 30.054688 201.730469 C 28.382812 200.515625 26.375 200.390625 24.800781 198.8125 C 23.832031 197.84375 23.203125 197.929688 22.035156 197.53125 C 20.992188 197.175781 20.777344 196.117188 20.003906 195.296875 C 18.917969 194.128906 17.359375 194.046875 16.171875 193.023438 C 15.21875 192.207031 14.195312 191.480469 13.28125 190.59375 C 12.320312 189.65625 11.730469 188.523438 10.566406 188.011719 C 9.625 187.601562 8.742188 187.546875 7.972656 186.675781 C 6.4375 184.953125 4.609375 184.203125 2.882812 182.796875 C 1.320312 181.527344 0.0234375 180.265625 -1.773438 179.59375 C -3.875 178.8125 -5.230469 176.828125 -7.136719 175.667969 C -6.414062 176.789062 -5.792969 178.066406 -5.132812 179.28125 "/></g></g></g></g></g></svg>