<svg xmlns="http://www.w3.org/2000/svg" xmlns:xlink="http://www.w3.org/1999/xlink" width="1500" zoomAndPan="magnify" viewBox="0 0 1125 577.499988" height="770" preserveAspectRatio="xMidYMid meet" version="1.2"><defs><clipPath id="4c3cb8c7b8"><path d="M 576.085938 108.476562 L 854 108.476562 L 854 424.703125 L 576.085938 424.703125 Z M 576.085938 108.476562 "/></clipPath></defs><g id="8adba4d714"><g clip-rule="nonzero" clip-path="url(#4c3cb8c7b8)"><path style=" stroke:none;fill-rule:nonzero;fill:#a4cccd;fill-opacity:1;" d="M 840.710938 329.160156 C 840.363281 328.832031 839.941406 328.597656 839.472656 328.484375 L 825.890625 325.136719 C 822.949219 323.511719 820 321.886719 817.046875 320.253906 C 818.792969 320.597656 820.535156 320.964844 822.332031 320.832031 C 824.660156 320.789062 826.890625 321.457031 829.15625 321.894531 C 832.507812 322.535156 836.027344 322.976562 839.40625 323.441406 L 839.972656 323.519531 C 840.066406 323.539062 840.167969 323.519531 840.265625 323.527344 C 841.023438 323.839844 841.921875 324.359375 842.6875 324.679688 C 845.097656 325.539062 845.90625 321.921875 843.25 321.636719 C 839.53125 320.8125 835.683594 320.222656 831.953125 319.4375 C 829.691406 318.976562 827.476562 318.324219 825.230469 317.816406 C 822.621094 317.199219 818.828125 316.734375 816.148438 316.3125 C 816.148438 316.3125 809.824219 315.359375 807.71875 315.039062 C 802.511719 312.117188 797.34375 309.171875 792.296875 306.207031 C 790.046875 304.941406 786.828125 303.171875 782.96875 301.066406 C 787.3125 299.921875 791.761719 298.609375 795.898438 297.375 C 796.203125 297.269531 796.503906 297.160156 796.808594 297.035156 C 796.914062 297.1875 797.039062 297.285156 797.191406 297.289062 C 797.636719 297.3125 798.0625 297.457031 798.484375 297.566406 C 799.972656 297.957031 801.460938 298.316406 802.933594 298.769531 C 803.449219 298.921875 803.90625 299.296875 804.386719 299.566406 C 804.617188 299.699219 804.859375 299.785156 805.074219 299.964844 C 805.75 300.511719 806.5 300.726562 807.285156 300.8125 C 808.101562 300.894531 808.941406 300.867188 809.769531 300.886719 C 809.898438 300.894531 810.03125 300.910156 810.164062 300.929688 C 810.824219 301.019531 811.476562 301.128906 812.140625 301.191406 C 812.847656 301.261719 813.589844 301.199219 814.28125 301.351562 C 815.265625 301.566406 816.21875 301.949219 817.199219 302.222656 C 817.875 302.410156 818.578125 302.503906 819.257812 302.671875 C 819.613281 302.761719 819.9375 302.949219 820.292969 303.039062 C 820.480469 303.089844 820.683594 303.039062 820.890625 302.976562 C 821.078125 302.914062 821.253906 302.566406 821.398438 302.0625 C 821.574219 301.441406 821.566406 300.984375 821.441406 300.753906 C 821.246094 300.414062 821.023438 300.164062 820.808594 299.894531 C 820.222656 299.144531 819.410156 299.324219 818.8125 299.082031 C 818.277344 298.957031 817.847656 298.847656 817.414062 298.769531 C 816.296875 298.566406 815.164062 298.429688 814.0625 298.160156 C 813.347656 297.984375 812.675781 297.617188 811.980469 297.332031 C 811.734375 297.234375 811.5 297.097656 811.253906 297.003906 C 810.71875 296.8125 810.144531 296.796875 809.65625 296.429688 C 808.835938 295.8125 807.890625 295.722656 806.972656 295.519531 C 806.640625 295.441406 806.25 295.601562 805.882812 295.664062 C 805.636719 295.707031 805.386719 295.785156 805.144531 295.789062 C 804.777344 295.796875 804.4375 295.699219 804.058594 295.761719 C 802.898438 295.941406 801.84375 295.636719 800.777344 295.351562 C 801.113281 295.234375 801.453125 295.125 801.792969 295.035156 C 804.796875 294.0625 807.882812 293.375 810.894531 292.421875 C 814.59375 291.253906 818.484375 289.992188 822.15625 288.769531 C 822.886719 288.441406 823.734375 288.535156 824.527344 288.441406 C 824.527344 288.441406 826.125 288.285156 826.125 288.285156 C 828.515625 287.875 827.585938 284.457031 825.257812 285.3125 C 820.210938 286.636719 815.121094 288.242188 810.082031 289.625 C 808.167969 290.125 803.699219 291.226562 801.371094 291.8125 C 801.648438 291.554688 801.925781 291.289062 802.210938 291.039062 C 802.613281 290.6875 803.171875 290.492188 803.65625 290.226562 C 803.886719 290.101562 804.089844 289.941406 804.351562 289.851562 C 805.171875 289.574219 805.757812 289.046875 806.238281 288.429688 C 806.738281 287.785156 807.160156 287.054688 807.613281 286.367188 C 807.6875 286.253906 807.773438 286.160156 807.855469 286.054688 C 808.28125 285.539062 808.71875 285.046875 809.121094 284.519531 C 809.550781 283.957031 809.894531 283.296875 810.386719 282.789062 C 811.097656 282.066406 811.921875 281.464844 812.667969 280.777344 C 813.179688 280.296875 813.632812 279.753906 814.140625 279.269531 C 814.40625 279.019531 814.738281 278.839844 815.003906 278.582031 C 815.140625 278.449219 815.210938 278.25 815.265625 278.039062 C 815.316406 277.847656 815.113281 277.511719 814.757812 277.125 C 814.328125 276.644531 813.9375 276.414062 813.667969 276.402344 C 813.277344 276.378906 812.945312 276.441406 812.597656 276.476562 C 811.652344 276.574219 811.375 277.359375 810.851562 277.742188 C 810.464844 278.128906 810.144531 278.4375 809.84375 278.761719 C 809.078125 279.601562 808.363281 280.492188 807.550781 281.285156 C 807.023438 281.796875 806.355469 282.179688 805.742188 282.617188 C 805.527344 282.769531 805.289062 282.894531 805.082031 283.0625 C 804.636719 283.414062 804.3125 283.894531 803.746094 284.109375 C 802.789062 284.476562 802.210938 285.226562 801.550781 285.902344 C 801.308594 286.144531 801.238281 286.5625 801.097656 286.902344 C 801 287.128906 800.9375 287.378906 800.8125 287.589844 C 800.625 287.902344 800.363281 288.144531 800.214844 288.492188 C 799.617188 289.894531 798.414062 290.707031 797.433594 291.742188 C 796.878906 292.324219 796.203125 292.785156 795.648438 293.367188 C 795.628906 293.386719 795.613281 293.429688 795.601562 293.457031 C 790.121094 295.125 783.859375 297.214844 778.78125 298.8125 C 762.363281 289.894531 737.953125 276.824219 723.355469 269 C 727.171875 269.242188 722.492188 269.503906 734.414062 269.484375 C 740.269531 269.359375 746.214844 269.3125 752.183594 269.304688 C 754.179688 270.054688 760.164062 272.3125 760.164062 272.3125 C 762.710938 273.242188 766.25 274.691406 768.828125 275.429688 C 771.03125 276.089844 773.292969 276.597656 775.480469 277.304688 C 779.117188 278.441406 782.765625 279.804688 786.410156 280.902344 C 788.863281 281.949219 789.933594 278.394531 787.402344 277.972656 C 786.578125 277.875 785.539062 277.894531 784.726562 277.796875 C 784.636719 277.753906 784.558594 277.6875 784.46875 277.660156 L 783.933594 277.449219 C 780.757812 276.207031 777.476562 274.878906 774.238281 273.804688 C 772.046875 273.082031 769.773438 272.566406 767.765625 271.402344 C 766.261719 270.410156 764.558594 269.878906 762.871094 269.324219 C 766.242188 269.339844 769.613281 269.359375 772.972656 269.378906 L 786.464844 273.097656 C 786.925781 273.222656 787.410156 273.226562 787.871094 273.109375 L 805.136719 268.691406 C 805.757812 268.535156 805.765625 267.660156 805.152344 267.492188 L 787.964844 262.761719 C 787.507812 262.636719 787.019531 262.628906 786.5625 262.75 L 772.789062 266.269531 C 769.007812 266.144531 765.226562 266.0625 761.445312 266.003906 C 764.042969 265.25 767.707031 264.316406 770.203125 263.378906 C 772.367188 262.597656 774.488281 261.671875 776.667969 260.929688 C 780.277344 259.6875 784.011719 258.617188 787.597656 257.324219 C 787.597656 257.324219 788.035156 257.164062 788.035156 257.164062 C 788.953125 256.832031 789.34375 255.691406 788.816406 254.867188 C 788.355469 254.136719 787.390625 253.914062 786.660156 254.375 C 785.945312 254.789062 785.117188 255.414062 784.40625 255.824219 C 784.308594 255.847656 784.207031 255.832031 784.121094 255.867188 C 784.121094 255.867188 783.566406 256.011719 783.566406 256.011719 C 780.269531 256.902344 776.84375 257.785156 773.597656 258.839844 C 771.40625 259.554688 769.273438 260.5 766.957031 260.75 C 764.621094 260.875 762.480469 261.824219 760.261719 262.472656 C 757.34375 263.410156 754.445312 264.421875 751.585938 265.566406 C 751.390625 265.636719 751.226562 265.742188 751.078125 265.867188 C 744.378906 265.804688 737.683594 265.753906 730.988281 265.601562 C 728 265.484375 725.015625 265.074219 722.035156 264.921875 C 722.070312 264.902344 722.105469 264.886719 722.132812 264.867188 C 723.175781 264.867188 724.273438 264.867188 724.273438 264.867188 C 723.410156 264.859375 722.714844 264.851562 722.160156 264.847656 C 736.589844 257.109375 761.910156 243.554688 778.789062 234.386719 C 783.863281 235.984375 790.128906 238.074219 795.605469 239.742188 C 795.621094 239.777344 795.628906 239.8125 795.65625 239.832031 C 796.210938 240.414062 796.886719 240.875 797.441406 241.449219 C 798.421875 242.476562 799.625 243.296875 800.222656 244.699219 C 800.367188 245.046875 800.640625 245.289062 800.820312 245.601562 C 800.9375 245.8125 801.007812 246.0625 801.105469 246.289062 C 801.25 246.628906 801.320312 247.046875 801.558594 247.289062 C 802.21875 247.957031 802.789062 248.714844 803.753906 249.082031 C 804.324219 249.296875 804.644531 249.785156 805.089844 250.128906 C 805.296875 250.289062 805.535156 250.421875 805.75 250.574219 C 806.363281 251.011719 807.023438 251.386719 807.558594 251.910156 C 808.371094 252.699219 809.085938 253.589844 809.851562 254.429688 C 810.152344 254.753906 810.46875 255.0625 810.859375 255.449219 C 811.382812 255.824219 811.660156 256.609375 812.605469 256.714844 C 812.953125 256.75 813.277344 256.8125 813.675781 256.789062 C 813.9375 256.777344 814.328125 256.539062 814.765625 256.066406 C 815.121094 255.679688 815.324219 255.347656 815.273438 255.152344 C 815.21875 254.941406 815.148438 254.742188 815.011719 254.609375 C 814.746094 254.351562 814.410156 254.179688 814.148438 253.921875 C 813.640625 253.4375 813.195312 252.894531 812.675781 252.414062 C 811.929688 251.726562 811.101562 251.125 810.394531 250.402344 C 809.898438 249.894531 809.558594 249.234375 809.128906 248.671875 C 808.726562 248.144531 808.289062 247.652344 807.863281 247.136719 C 807.78125 247.035156 807.695312 246.9375 807.621094 246.824219 C 807.160156 246.136719 806.742188 245.410156 806.242188 244.761719 C 805.765625 244.136719 805.179688 243.617188 804.359375 243.339844 C 804.09375 243.25 803.894531 243.089844 803.664062 242.964844 C 803.175781 242.699219 802.621094 242.503906 802.21875 242.152344 C 801.933594 241.902344 801.65625 241.636719 801.378906 241.378906 C 803.699219 241.964844 808.175781 243.0625 810.085938 243.566406 C 815.128906 244.941406 820.21875 246.554688 825.265625 247.878906 C 827.59375 248.734375 828.523438 245.316406 826.132812 244.910156 C 826.132812 244.910156 824.535156 244.75 824.535156 244.75 C 823.742188 244.660156 822.894531 244.753906 822.164062 244.421875 C 818.492188 243.199219 814.601562 241.9375 810.902344 240.769531 C 807.890625 239.816406 804.804688 239.125 801.800781 238.160156 C 801.453125 238.066406 801.121094 237.957031 800.785156 237.839844 C 801.851562 237.554688 802.90625 237.25 804.066406 237.429688 C 804.441406 237.484375 804.789062 237.386719 805.152344 237.402344 C 805.386719 237.410156 805.636719 237.484375 805.890625 237.527344 C 806.257812 237.582031 806.648438 237.75 806.980469 237.671875 C 807.898438 237.472656 808.84375 237.378906 809.664062 236.761719 C 810.152344 236.394531 810.726562 236.378906 811.261719 236.1875 C 811.507812 236.097656 811.742188 235.964844 811.984375 235.859375 C 812.679688 235.574219 813.355469 235.207031 814.070312 235.035156 C 815.175781 234.761719 816.308594 234.628906 817.421875 234.421875 C 817.851562 234.347656 818.285156 234.226562 818.820312 234.109375 C 819.417969 233.867188 820.230469 234.046875 820.816406 233.296875 C 821.03125 233.019531 821.253906 232.777344 821.449219 232.4375 C 821.578125 232.199219 821.585938 231.75 821.40625 231.128906 C 821.257812 230.625 821.085938 230.277344 820.898438 230.214844 C 820.691406 230.144531 820.480469 230.101562 820.300781 230.152344 C 819.945312 230.242188 819.617188 230.429688 819.265625 230.519531 C 818.582031 230.6875 817.886719 230.785156 817.207031 230.972656 C 816.226562 231.242188 815.273438 231.625 814.285156 231.839844 C 813.597656 231.992188 812.855469 231.929688 812.144531 232 C 811.484375 232.0625 810.832031 232.171875 810.171875 232.261719 C 810.039062 232.285156 809.914062 232.296875 809.773438 232.304688 C 808.949219 232.324219 808.105469 232.296875 807.292969 232.378906 C 806.507812 232.457031 805.757812 232.679688 805.082031 233.226562 C 804.867188 233.402344 804.625 233.492188 804.394531 233.625 C 803.90625 233.894531 803.449219 234.269531 802.941406 234.421875 C 801.46875 234.867188 799.980469 235.234375 798.492188 235.625 C 798.066406 235.734375 797.644531 235.878906 797.199219 235.902344 C 797.039062 235.910156 796.921875 236.003906 796.816406 236.160156 C 796.519531 236.035156 796.210938 235.921875 795.90625 235.816406 C 791.769531 234.582031 787.320312 233.269531 782.976562 232.125 C 786.832031 230.019531 790.050781 228.25 792.304688 226.984375 C 797.351562 224.019531 802.515625 221.074219 807.722656 218.152344 C 809.832031 217.832031 816.15625 216.878906 816.15625 216.878906 C 818.832031 216.449219 822.628906 215.992188 825.234375 215.375 C 827.480469 214.875 829.699219 214.214844 831.957031 213.753906 C 835.691406 212.976562 839.535156 212.378906 843.253906 211.554688 C 845.910156 211.269531 845.105469 207.652344 842.691406 208.511719 C 841.929688 208.832031 841.03125 209.351562 840.273438 209.664062 C 840.175781 209.671875 840.078125 209.652344 839.980469 209.671875 C 839.980469 209.671875 839.410156 209.75 839.410156 209.75 C 836.03125 210.214844 832.523438 210.660156 829.164062 211.296875 C 826.898438 211.734375 824.667969 212.402344 822.335938 212.359375 C 820.535156 212.226562 818.796875 212.597656 817.054688 212.9375 C 820 211.304688 822.957031 209.671875 825.898438 208.054688 L 839.480469 204.707031 C 839.945312 204.59375 840.371094 204.359375 840.71875 204.03125 L 853.621094 191.75 C 854.085938 191.3125 853.664062 190.539062 853.042969 190.691406 L 835.742188 194.957031 C 835.273438 195.066406 834.851562 195.304688 834.503906 195.628906 L 824.214844 205.429688 C 820.855469 207.164062 817.511719 208.941406 814.191406 210.734375 C 816.085938 208.804688 818.832031 206.199219 820.550781 204.171875 C 822.058594 202.4375 823.449219 200.589844 824.992188 198.878906 C 827.53125 196.03125 830.269531 193.277344 832.765625 190.402344 C 832.765625 190.402344 833.070312 190.046875 833.070312 190.046875 C 833.710938 189.3125 833.488281 188.125 832.625 187.664062 C 831.867188 187.253906 830.917969 187.53125 830.507812 188.289062 C 830.082031 189.003906 829.671875 189.957031 829.246094 190.65625 C 829.171875 190.71875 829.082031 190.761719 829.019531 190.839844 L 828.609375 191.242188 C 826.167969 193.625 823.609375 196.066406 821.292969 198.574219 C 819.738281 200.269531 818.332031 202.128906 816.441406 203.484375 C 814.460938 204.734375 813.0625 206.609375 811.445312 208.253906 C 809.351562 210.5 807.320312 212.796875 805.386719 215.191406 C 805.257812 215.347656 805.160156 215.519531 805.097656 215.699219 C 799.222656 218.914062 793.355469 222.144531 787.4375 225.277344 C 784.964844 226.535156 782.371094 227.582031 779.859375 228.785156 C 781.945312 222.253906 784.628906 214.277344 786.179688 208.519531 C 786.207031 208.402344 786.242188 208.269531 786.277344 208.128906 C 786.839844 207.554688 787.453125 207.019531 788.246094 206.679688 C 788.59375 206.53125 788.835938 206.261719 789.148438 206.082031 C 789.355469 205.964844 789.609375 205.894531 789.835938 205.796875 C 790.175781 205.652344 790.59375 205.582031 790.839844 205.34375 C 791.503906 204.6875 792.261719 204.117188 792.632812 203.152344 C 792.847656 202.582031 793.332031 202.261719 793.679688 201.816406 C 793.839844 201.609375 793.972656 201.375 794.125 201.15625 C 794.5625 200.546875 794.941406 199.886719 795.460938 199.351562 C 796.253906 198.539062 797.144531 197.824219 797.984375 197.0625 C 798.3125 196.761719 798.617188 196.441406 799.007812 196.054688 C 799.382812 195.53125 800.167969 195.253906 800.273438 194.3125 C 800.304688 193.964844 800.367188 193.636719 800.347656 193.242188 C 800.335938 192.976562 800.097656 192.589844 799.625 192.152344 C 799.234375 191.796875 798.902344 191.59375 798.707031 191.644531 C 798.5 191.699219 798.296875 191.769531 798.164062 191.90625 C 797.90625 192.171875 797.734375 192.503906 797.476562 192.769531 C 796.992188 193.277344 796.449219 193.71875 795.96875 194.242188 C 795.28125 194.984375 794.675781 195.8125 793.953125 196.519531 C 793.445312 197.011719 792.785156 197.351562 792.222656 197.78125 C 791.691406 198.1875 791.199219 198.625 790.683594 199.046875 C 790.582031 199.128906 790.484375 199.214844 790.371094 199.289062 C 789.683594 199.75 788.953125 200.164062 788.308594 200.664062 C 788.230469 200.71875 788.160156 200.789062 788.09375 200.84375 C 788.246094 200.253906 788.378906 199.734375 788.480469 199.324219 C 789.859375 194.289062 791.46875 189.207031 792.796875 184.164062 C 793.652344 181.839844 790.234375 180.90625 789.824219 183.296875 C 789.824219 183.296875 789.664062 184.894531 789.664062 184.894531 C 789.574219 185.6875 789.671875 186.53125 789.335938 187.261719 C 788.113281 190.929688 786.847656 194.816406 785.679688 198.511719 C 784.734375 201.476562 784.054688 204.519531 783.101562 207.476562 C 782.917969 207.671875 782.730469 207.867188 782.550781 208.0625 C 782.382812 208.234375 782.222656 208.414062 782.050781 208.589844 C 781.890625 208.082031 781.71875 207.582031 781.613281 207.066406 C 781.328125 205.679688 780.738281 204.351562 780.972656 202.84375 C 781.027344 202.46875 780.929688 202.125 780.945312 201.761719 C 780.953125 201.527344 781.027344 201.277344 781.070312 201.027344 C 781.125 200.65625 781.292969 200.269531 781.214844 199.9375 C 781.015625 199.019531 780.925781 198.074219 780.304688 197.253906 C 779.9375 196.769531 779.921875 196.191406 779.730469 195.65625 C 779.636719 195.414062 779.507812 195.179688 779.402344 194.9375 C 779.117188 194.242188 778.75 193.566406 778.574219 192.851562 C 778.304688 191.75 778.171875 190.617188 777.960938 189.503906 C 777.886719 189.074219 777.769531 188.644531 777.648438 188.109375 C 777.40625 187.511719 777.585938 186.699219 776.835938 186.117188 C 776.558594 185.902344 776.316406 185.679688 775.972656 185.484375 C 775.738281 185.351562 775.285156 185.34375 774.667969 185.527344 C 774.160156 185.671875 773.8125 185.84375 773.75 186.03125 C 773.679688 186.242188 773.640625 186.449219 773.6875 186.628906 C 773.777344 186.984375 773.964844 187.3125 774.054688 187.664062 C 774.222656 188.34375 774.320312 189.039062 774.507812 189.71875 C 774.777344 190.699219 775.160156 191.652344 775.375 192.636719 C 775.53125 193.324219 775.46875 194.066406 775.535156 194.777344 C 775.597656 195.4375 775.710938 196.089844 775.800781 196.75 C 775.820312 196.878906 775.835938 197.003906 775.84375 197.144531 C 775.863281 197.96875 775.835938 198.8125 775.917969 199.625 C 775.996094 200.40625 776.21875 201.15625 776.765625 201.832031 C 776.941406 202.046875 777.03125 202.289062 777.164062 202.519531 C 777.433594 203.003906 777.808594 203.464844 777.960938 203.96875 C 778.40625 205.441406 778.777344 206.929688 779.164062 208.414062 C 779.277344 208.839844 779.421875 209.261719 779.445312 209.707031 C 779.457031 210.0625 779.902344 210.25 780.5 210.394531 C 780.867188 210.484375 781.320312 210.441406 781.621094 210.304688 C 781.683594 210.464844 781.773438 210.617188 781.875 210.753906 C 781.460938 211.65625 781.035156 212.5625 780.730469 213.492188 C 779.0625 219.054688 777.261719 225.1875 775.910156 230.859375 C 773.035156 232.429688 765.824219 236.351562 765.824219 236.351562 C 759.597656 239.753906 736.605469 252.429688 722.632812 260.25 C 722.703125 260.128906 722.769531 260.011719 722.855469 259.886719 C 722.855469 259.886719 722.671875 260.179688 722.632812 260.253906 C 722.542969 260.304688 722.453125 260.359375 722.355469 260.410156 C 723.488281 258.207031 724.53125 255.949219 725.746094 253.789062 C 729.117188 248.011719 732.582031 242.285156 736.035156 236.546875 C 736.222656 236.492188 736.398438 236.402344 736.558594 236.277344 C 739.023438 234.441406 741.410156 232.511719 743.738281 230.511719 C 745.449219 228.957031 747.382812 227.636719 748.707031 225.714844 C 750.132812 223.875 752.058594 222.554688 753.8125 221.066406 C 756.410156 218.859375 758.964844 216.402344 761.445312 214.0625 C 761.445312 214.0625 761.863281 213.664062 761.863281 213.664062 C 761.9375 213.609375 761.988281 213.511719 762.050781 213.441406 C 762.765625 213.046875 763.730469 212.679688 764.46875 212.28125 C 765.242188 211.902344 765.558594 210.964844 765.179688 210.191406 C 764.753906 209.3125 763.578125 209.046875 762.816406 209.652344 L 762.445312 209.941406 C 759.46875 212.316406 756.597656 214.941406 753.652344 217.359375 C 751.878906 218.832031 749.980469 220.144531 748.179688 221.582031 C 746.082031 223.214844 743.371094 225.847656 741.359375 227.664062 C 743.292969 224.414062 745.199219 221.152344 747.074219 217.875 L 757.289062 208 C 757.628906 207.664062 757.878906 207.25 758.011719 206.796875 L 762.972656 189.699219 C 763.15625 189.089844 762.40625 188.636719 761.945312 189.082031 L 749.140625 201.464844 C 748.800781 201.796875 748.550781 202.214844 748.417969 202.664062 L 744.523438 216.089844 C 742.777344 218.957031 741.035156 221.839844 739.28125 224.714844 C 739.691406 222.984375 740.128906 221.261719 740.074219 219.464844 C 740.128906 217.136719 740.886719 214.9375 741.410156 212.691406 C 742.179688 209.375 742.773438 205.886719 743.371094 202.527344 C 743.371094 202.527344 743.46875 201.957031 743.46875 201.957031 C 743.496094 201.867188 743.472656 201.761719 743.488281 201.664062 C 743.828125 200.921875 744.386719 200.046875 744.738281 199.296875 C 745.699219 196.921875 742.113281 195.976562 741.714844 198.609375 C 740.742188 202.28125 739.992188 206.101562 739.058594 209.796875 C 738.511719 212.03125 737.765625 214.21875 737.175781 216.441406 C 736.453125 219.019531 735.832031 222.789062 735.296875 225.449219 C 735.296875 225.449219 734.089844 231.726562 733.6875 233.816406 C 730.550781 238.894531 727.402344 243.9375 724.222656 248.851562 C 716.640625 261.136719 722.167969 252.902344 716.980469 261.859375 C 717.121094 246.011719 717.417969 215.449219 717.488281 195.332031 C 721.332031 191.65625 726.175781 187.171875 730.273438 183.179688 C 730.308594 183.179688 730.34375 183.191406 730.375 183.179688 C 731.15625 182.96875 731.886719 182.601562 732.65625 182.394531 C 734.035156 182.027344 735.328125 181.375 736.84375 181.519531 C 737.21875 181.554688 737.558594 181.4375 737.925781 181.429688 C 738.164062 181.421875 738.421875 181.484375 738.664062 181.511719 C 739.03125 181.546875 739.429688 181.6875 739.761719 181.59375 C 740.664062 181.339844 741.605469 181.199219 742.390625 180.53125 C 742.855469 180.144531 743.433594 180.089844 743.953125 179.867188 C 744.195312 179.761719 744.417969 179.617188 744.664062 179.5 C 745.335938 179.171875 745.992188 178.777344 746.699219 178.554688 C 747.785156 178.21875 748.910156 178.027344 750.015625 177.761719 C 750.445312 177.65625 750.863281 177.519531 751.398438 177.375 C 751.984375 177.101562 752.804688 177.234375 753.347656 176.449219 C 753.546875 176.164062 753.757812 175.902344 753.929688 175.554688 C 754.046875 175.3125 754.027344 174.859375 753.820312 174.253906 C 753.644531 173.753906 753.449219 173.421875 753.261719 173.375 C 753.054688 173.316406 752.839844 173.28125 752.65625 173.339844 C 752.308594 173.441406 751.992188 173.65625 751.644531 173.761719 C 750.976562 173.96875 750.28125 174.101562 749.613281 174.324219 C 748.652344 174.644531 747.722656 175.082031 746.75 175.351562 C 746.066406 175.539062 745.324219 175.519531 744.621094 175.628906 C 743.960938 175.734375 743.3125 175.878906 742.667969 176.003906 C 742.535156 176.03125 742.410156 176.0625 742.277344 176.066406 C 741.449219 176.136719 740.609375 176.15625 739.804688 176.28125 C 739.023438 176.40625 738.289062 176.664062 737.648438 177.25 C 737.441406 177.4375 737.210938 177.539062 736.988281 177.679688 C 736.523438 177.976562 736.085938 178.375 735.578125 178.554688 C 735.222656 178.6875 734.855469 178.796875 734.5 178.921875 C 736.125 177.164062 739.242188 173.777344 740.601562 172.34375 C 744.230469 168.589844 748.089844 164.90625 751.683594 161.125 C 753.546875 159.492188 751.003906 157.03125 749.496094 158.9375 C 749.496094 158.9375 748.589844 160.261719 748.589844 160.261719 C 748.132812 160.914062 747.8125 161.699219 747.164062 162.1875 C 744.328125 164.8125 741.347656 167.617188 738.546875 170.289062 C 736.257812 172.464844 734.171875 174.839844 731.878906 177.003906 C 731.636719 177.261719 731.378906 177.503906 731.113281 177.742188 C 731.378906 176.679688 731.613281 175.601562 732.332031 174.671875 C 732.558594 174.375 732.644531 174.019531 732.824219 173.707031 C 732.941406 173.5 733.136719 173.316406 733.28125 173.125 C 733.511719 172.832031 733.839844 172.566406 733.9375 172.234375 C 734.199219 171.332031 734.574219 170.464844 734.421875 169.449219 C 734.332031 168.851562 734.597656 168.332031 734.6875 167.769531 C 734.730469 167.511719 734.722656 167.242188 734.75 166.976562 C 734.832031 166.234375 734.832031 165.46875 735.027344 164.753906 C 735.320312 163.65625 735.75 162.601562 736.105469 161.527344 C 736.242188 161.109375 736.347656 160.679688 736.5 160.152344 C 736.578125 159.511719 737.128906 158.886719 736.75 158.011719 C 736.613281 157.691406 736.5 157.375 736.300781 157.046875 C 736.160156 156.816406 735.765625 156.59375 735.132812 156.457031 C 734.617188 156.339844 734.226562 156.324219 734.082031 156.464844 C 733.921875 156.617188 733.78125 156.777344 733.734375 156.957031 C 733.644531 157.3125 733.652344 157.691406 733.5625 158.039062 C 733.378906 158.71875 733.128906 159.375 732.96875 160.0625 C 732.734375 161.046875 732.613281 162.0625 732.332031 163.03125 C 732.128906 163.714844 731.71875 164.332031 731.441406 164.984375 C 731.175781 165.59375 730.960938 166.21875 730.722656 166.839844 C 730.675781 166.964844 730.632812 167.082031 730.570312 167.199219 C 730.195312 167.9375 729.765625 168.65625 729.445312 169.414062 C 729.140625 170.136719 728.964844 170.902344 729.125 171.753906 C 729.175781 172.027344 729.140625 172.28125 729.140625 172.546875 C 729.144531 173.101562 729.25 173.6875 729.140625 174.207031 C 728.828125 175.714844 728.429688 177.191406 728.054688 178.679688 C 727.949219 179.109375 727.875 179.546875 727.671875 179.941406 C 727.601562 180.082031 727.628906 180.234375 727.714844 180.402344 C 727.464844 180.601562 727.214844 180.8125 726.976562 181.03125 C 723.90625 184.0625 720.617188 187.324219 717.515625 190.582031 C 717.523438 186.191406 717.515625 182.527344 717.488281 179.9375 C 717.308594 174.089844 717.210938 168.152344 717.140625 162.1875 C 717.878906 160.191406 720.082031 154.1875 720.082031 154.1875 C 720.992188 151.636719 722.410156 148.089844 723.125 145.503906 C 723.765625 143.296875 724.25 141.039062 724.941406 138.839844 C 726.050781 135.191406 727.378906 131.539062 728.4375 127.886719 C 729.457031 125.421875 725.898438 124.386719 725.496094 126.914062 C 725.414062 127.742188 725.433594 128.777344 725.34375 129.589844 C 725.300781 129.679688 725.230469 129.753906 725.210938 129.84375 L 725.003906 130.378906 C 723.785156 133.5625 722.484375 136.851562 721.4375 140.101562 C 720.726562 142.296875 720.242188 144.574219 719.085938 146.589844 C 718.105469 148.101562 717.59375 149.804688 717.050781 151.5 C 717.035156 148.128906 717.023438 144.761719 717.015625 141.40625 L 720.609375 127.902344 C 720.734375 127.441406 720.734375 126.957031 720.609375 126.5 L 716.035156 109.289062 C 715.867188 108.671875 714.992188 108.671875 714.832031 109.289062 L 710.257812 126.5 C 710.132812 126.957031 710.132812 127.441406 710.257812 127.902344 L 713.90625 141.625 C 713.816406 145.402344 713.769531 149.179688 713.746094 152.957031 C 712.960938 150.367188 711.996094 146.714844 711.042969 144.234375 C 710.242188 142.082031 709.292969 139.96875 708.535156 137.796875 C 707.253906 134.207031 706.148438 130.484375 704.828125 126.914062 C 704.828125 126.914062 704.660156 126.476562 704.660156 126.476562 C 704.320312 125.5625 703.171875 125.1875 702.351562 125.71875 C 701.625 126.1875 701.414062 127.152344 701.878906 127.878906 C 702.304688 128.59375 702.9375 129.414062 703.355469 130.117188 C 703.375 130.214844 703.367188 130.3125 703.402344 130.402344 C 703.402344 130.402344 703.554688 130.957031 703.554688 130.957031 C 704.472656 134.242188 705.390625 137.65625 706.476562 140.886719 C 707.210938 143.066406 708.179688 145.191406 708.449219 147.5 C 708.597656 149.832031 709.570312 151.957031 710.238281 154.171875 C 711.203125 157.082031 712.246094 159.964844 713.414062 162.8125 C 713.484375 163 713.585938 163.171875 713.71875 163.3125 C 713.71875 170.003906 713.734375 176.691406 713.636719 183.386719 C 713.554688 186.15625 713.21875 188.929688 713.066406 191.699219 C 708.339844 186.734375 702.625 180.554688 698.320312 176.429688 C 698.230469 176.34375 698.125 176.25 698.023438 176.15625 C 697.785156 175.386719 697.613281 174.59375 697.695312 173.734375 C 697.730469 173.359375 697.613281 173.019531 697.605469 172.652344 C 697.597656 172.414062 697.660156 172.15625 697.6875 171.914062 C 697.722656 171.546875 697.863281 171.152344 697.773438 170.816406 C 697.515625 169.914062 697.375 168.976562 696.707031 168.191406 C 696.320312 167.726562 696.261719 167.152344 696.039062 166.628906 C 695.9375 166.386719 695.789062 166.164062 695.671875 165.921875 C 695.34375 165.25 694.949219 164.59375 694.726562 163.886719 C 694.394531 162.804688 694.199219 161.679688 693.933594 160.574219 C 693.832031 160.144531 693.691406 159.726562 693.546875 159.191406 C 693.273438 158.609375 693.40625 157.789062 692.621094 157.25 C 692.335938 157.046875 692.070312 156.839844 691.722656 156.664062 C 691.480469 156.546875 691.027344 156.566406 690.421875 156.777344 C 689.921875 156.949219 689.589844 157.144531 689.539062 157.332031 C 689.484375 157.539062 689.449219 157.753906 689.507812 157.9375 C 689.609375 158.28125 689.824219 158.601562 689.929688 158.949219 C 690.136719 159.617188 690.269531 160.3125 690.492188 160.976562 C 690.8125 161.9375 691.25 162.867188 691.523438 163.839844 C 691.710938 164.519531 691.6875 165.261719 691.800781 165.964844 C 691.90625 166.625 692.050781 167.269531 692.175781 167.914062 C 692.203125 168.046875 692.230469 168.171875 692.238281 168.304688 C 692.308594 169.128906 692.328125 169.96875 692.453125 170.777344 C 692.46875 170.867188 692.496094 170.964844 692.507812 171.054688 C 692.0625 170.636719 691.667969 170.269531 691.363281 169.984375 C 687.601562 166.359375 683.917969 162.503906 680.128906 158.914062 C 678.492188 157.054688 676.03125 159.59375 677.9375 161.101562 C 677.9375 161.101562 679.265625 162.003906 679.265625 162.003906 C 679.917969 162.464844 680.703125 162.78125 681.191406 163.429688 C 683.820312 166.261719 686.628906 169.242188 689.304688 172.039062 C 691.453125 174.289062 693.789062 176.351562 695.9375 178.609375 C 696.019531 178.867188 696.097656 179.117188 696.179688 179.375 C 696.257812 179.601562 696.339844 179.832031 696.402344 180.066406 C 695.882812 179.964844 695.359375 179.878906 694.851562 179.71875 C 693.488281 179.304688 692.042969 179.179688 690.832031 178.25 C 690.535156 178.019531 690.179688 177.9375 689.867188 177.753906 C 689.660156 177.636719 689.476562 177.441406 689.285156 177.296875 C 688.992188 177.066406 688.726562 176.742188 688.394531 176.644531 C 687.488281 176.378906 686.621094 176.003906 685.597656 176.15625 C 685 176.25 684.480469 175.984375 683.917969 175.894531 C 683.660156 175.851562 683.386719 175.859375 683.125 175.832031 C 682.378906 175.75 681.617188 175.75 680.898438 175.554688 C 679.800781 175.261719 678.746094 174.832031 677.667969 174.476562 C 677.25 174.339844 676.820312 174.234375 676.289062 174.082031 C 675.652344 174.003906 675.023438 173.457031 674.148438 173.832031 C 673.828125 173.96875 673.507812 174.082031 673.183594 174.28125 C 672.953125 174.421875 672.730469 174.816406 672.59375 175.449219 C 672.472656 175.964844 672.460938 176.351562 672.597656 176.5 C 672.75 176.65625 672.910156 176.796875 673.09375 176.84375 C 673.445312 176.9375 673.828125 176.929688 674.175781 177.019531 C 674.859375 177.199219 675.511719 177.449219 676.199219 177.609375 C 677.1875 177.84375 678.203125 177.964844 679.175781 178.25 C 679.855469 178.449219 680.476562 178.859375 681.128906 179.136719 C 681.742188 179.402344 682.367188 179.617188 682.984375 179.851562 C 683.109375 179.902344 683.226562 179.941406 683.347656 180.003906 C 684.082031 180.378906 684.804688 180.8125 685.5625 181.128906 C 686.289062 181.4375 687.050781 181.609375 687.90625 181.449219 C 688.179688 181.402344 688.433594 181.4375 688.699219 181.4375 C 689.253906 181.429688 689.839844 181.324219 690.359375 181.4375 C 691.871094 181.75 693.351562 182.144531 694.839844 182.519531 C 695.269531 182.625 695.707031 182.699219 696.101562 182.902344 C 696.421875 183.054688 696.796875 182.761719 697.214844 182.304688 C 697.464844 182.027344 697.648438 181.609375 697.675781 181.28125 C 697.839844 181.304688 698.023438 181.304688 698.195312 181.277344 C 698.785156 182.074219 699.378906 182.878906 700.046875 183.59375 C 704.125 187.726562 708.636719 192.253906 712.96875 196.164062 C 712.960938 199.441406 712.941406 207.644531 712.941406 207.644531 C 712.933594 215.089844 713.019531 243.597656 713.175781 259.253906 C 710.597656 254.566406 714.054688 259.617188 707.394531 248.824219 C 704.222656 243.910156 701.066406 238.875 697.933594 233.789062 C 697.527344 231.699219 696.320312 225.421875 696.320312 225.421875 C 695.785156 222.769531 695.164062 219 694.441406 216.414062 C 693.851562 214.191406 693.101562 212.003906 692.558594 209.769531 C 691.625 206.074219 690.882812 202.261719 689.902344 198.582031 C 689.507812 195.941406 685.917969 196.894531 686.878906 199.269531 C 687.234375 200.019531 687.789062 200.894531 688.128906 201.636719 C 688.136719 201.734375 688.121094 201.839844 688.148438 201.929688 L 688.246094 202.5 C 688.84375 205.851562 689.4375 209.339844 690.207031 212.664062 C 690.738281 214.90625 691.496094 217.109375 691.542969 219.4375 C 691.480469 221.234375 691.925781 222.957031 692.335938 224.6875 C 690.582031 221.804688 688.839844 218.929688 687.09375 216.0625 L 683.199219 202.636719 C 683.070312 202.179688 682.816406 201.761719 682.476562 201.4375 L 669.671875 189.054688 C 669.214844 188.609375 668.460938 189.0625 668.644531 189.671875 L 673.605469 206.769531 C 673.738281 207.226562 673.988281 207.644531 674.328125 207.96875 L 684.542969 217.84375 C 686.417969 221.128906 688.324219 224.394531 690.257812 227.636719 C 688.246094 225.824219 685.535156 223.1875 683.4375 221.554688 C 681.636719 220.125 679.738281 218.804688 677.964844 217.332031 C 675.019531 214.914062 672.148438 212.289062 669.171875 209.914062 L 668.804688 209.625 C 668.039062 209.019531 666.863281 209.28125 666.4375 210.164062 C 666.058594 210.9375 666.375 211.875 667.148438 212.253906 C 667.878906 212.652344 668.84375 213.027344 669.566406 213.414062 C 669.628906 213.484375 669.679688 213.582031 669.753906 213.636719 C 669.753906 213.636719 670.171875 214.03125 670.171875 214.03125 C 672.65625 216.375 675.207031 218.824219 677.804688 221.039062 C 679.566406 222.527344 681.484375 223.851562 682.910156 225.6875 C 684.238281 227.609375 686.167969 228.929688 687.878906 230.484375 C 690.207031 232.484375 692.59375 234.414062 695.0625 236.25 C 695.21875 236.375 695.394531 236.464844 695.582031 236.519531 C 699.039062 242.253906 702.5 247.976562 705.871094 253.761719 C 707.289062 256.285156 708.476562 258.929688 709.847656 261.472656 C 709.800781 261.441406 709.75 261.414062 709.703125 261.386719 C 709.230469 260.625 708.761719 259.851562 708.761719 259.851562 C 709.125 260.457031 709.421875 260.949219 709.679688 261.375 C 696.027344 253.714844 670.972656 239.902344 664.421875 236.316406 C 664.421875 236.316406 657.214844 232.394531 654.335938 230.824219 C 652.988281 225.152344 651.179688 219.019531 649.519531 213.457031 C 649.207031 212.527344 648.78125 211.625 648.371094 210.71875 C 648.476562 210.582031 648.566406 210.429688 648.628906 210.269531 C 648.925781 210.402344 649.378906 210.441406 649.746094 210.359375 C 650.34375 210.214844 650.789062 210.027344 650.804688 209.671875 C 650.824219 209.226562 650.972656 208.804688 651.082031 208.378906 C 651.472656 206.894531 651.832031 205.40625 652.285156 203.9375 C 652.4375 203.421875 652.8125 202.964844 653.085938 202.484375 C 653.214844 202.253906 653.300781 202.011719 653.480469 201.796875 C 654.03125 201.125 654.246094 200.375 654.328125 199.589844 C 654.414062 198.777344 654.382812 197.9375 654.40625 197.109375 C 654.414062 196.976562 654.425781 196.84375 654.445312 196.714844 C 654.539062 196.054688 654.648438 195.402344 654.710938 194.742188 C 654.78125 194.03125 654.71875 193.289062 654.871094 192.601562 C 655.085938 191.617188 655.46875 190.664062 655.742188 189.6875 C 655.929688 189.011719 656.023438 188.3125 656.191406 187.628906 C 656.28125 187.277344 656.46875 186.949219 656.5625 186.59375 C 656.609375 186.40625 656.5625 186.207031 656.5 186 C 656.433594 185.8125 656.089844 185.636719 655.582031 185.492188 C 654.960938 185.316406 654.511719 185.324219 654.273438 185.449219 C 653.933594 185.644531 653.683594 185.867188 653.410156 186.082031 C 652.660156 186.664062 652.839844 187.476562 652.597656 188.074219 C 652.472656 188.609375 652.363281 189.039062 652.285156 189.46875 C 652.082031 190.589844 651.945312 191.71875 651.671875 192.816406 C 651.5 193.53125 651.132812 194.207031 650.847656 194.902344 C 650.75 195.144531 650.609375 195.378906 650.519531 195.625 C 650.324219 196.15625 650.3125 196.734375 649.941406 197.21875 C 649.324219 198.039062 649.234375 198.984375 649.03125 199.902344 C 648.957031 200.234375 649.113281 200.625 649.175781 200.992188 C 649.21875 201.234375 649.296875 201.484375 649.304688 201.726562 C 649.308594 202.09375 649.210938 202.4375 649.273438 202.8125 C 649.511719 204.316406 648.921875 205.644531 648.636719 207.03125 C 648.53125 207.546875 648.351562 208.046875 648.191406 208.554688 C 648.015625 208.378906 647.855469 208.207031 647.691406 208.027344 C 647.507812 207.832031 647.320312 207.636719 647.140625 207.441406 C 646.1875 204.476562 645.507812 201.441406 644.5625 198.476562 C 643.394531 194.78125 642.128906 190.894531 640.90625 187.226562 C 640.578125 186.5 640.667969 185.652344 640.578125 184.859375 C 640.578125 184.859375 640.417969 183.261719 640.417969 183.261719 C 640.007812 180.875 636.59375 181.804688 637.441406 184.128906 C 638.769531 189.171875 640.382812 194.253906 641.761719 199.289062 C 641.863281 199.691406 642.003906 200.21875 642.148438 200.8125 C 642.078125 200.75 642.011719 200.6875 641.933594 200.628906 C 641.289062 200.128906 640.558594 199.707031 639.867188 199.253906 C 639.757812 199.179688 639.660156 199.09375 639.554688 199.011719 C 639.042969 198.589844 638.546875 198.152344 638.019531 197.75 C 637.457031 197.316406 636.796875 196.976562 636.289062 196.484375 C 635.566406 195.777344 634.960938 194.949219 634.273438 194.207031 C 633.792969 193.691406 633.25 193.242188 632.765625 192.734375 C 632.515625 192.46875 632.332031 192.136719 632.074219 191.875 C 631.945312 191.734375 631.742188 191.664062 631.535156 191.609375 C 631.339844 191.5625 631.003906 191.761719 630.617188 192.117188 C 630.136719 192.546875 629.90625 192.9375 629.894531 193.207031 C 629.871094 193.59375 629.933594 193.929688 629.96875 194.277344 C 630.066406 195.21875 630.851562 195.5 631.234375 196.019531 C 631.625 196.40625 631.929688 196.726562 632.257812 197.027344 C 633.097656 197.789062 633.988281 198.503906 634.78125 199.316406 C 635.292969 199.84375 635.675781 200.511719 636.113281 201.125 C 636.269531 201.339844 636.394531 201.574219 636.558594 201.78125 C 636.914062 202.226562 637.394531 202.554688 637.609375 203.117188 C 637.976562 204.074219 638.730469 204.652344 639.402344 205.3125 C 639.648438 205.554688 640.0625 205.625 640.402344 205.761719 C 640.632812 205.859375 640.882812 205.921875 641.09375 206.046875 C 641.40625 206.234375 641.648438 206.5 641.996094 206.644531 C 642.796875 206.984375 643.402344 207.519531 643.964844 208.097656 C 644 208.234375 644.035156 208.367188 644.0625 208.484375 C 645.617188 214.242188 648.292969 222.226562 650.378906 228.75 C 647.871094 227.546875 645.285156 226.5 642.800781 225.242188 C 636.886719 222.109375 631.011719 218.878906 625.144531 215.664062 C 625.082031 215.484375 624.984375 215.3125 624.851562 215.160156 C 622.921875 212.761719 620.890625 210.464844 618.796875 208.222656 C 617.171875 206.574219 615.773438 204.699219 613.800781 203.449219 C 611.902344 202.101562 610.503906 200.234375 608.945312 198.539062 C 606.632812 196.03125 604.074219 193.589844 601.632812 191.207031 L 601.222656 190.804688 C 601.160156 190.726562 601.070312 190.6875 600.992188 190.625 C 600.570312 189.921875 600.160156 188.96875 599.734375 188.253906 C 599.324219 187.5 598.371094 187.21875 597.613281 187.628906 C 596.753906 188.089844 596.53125 189.277344 597.171875 190.011719 C 597.171875 190.011719 597.476562 190.367188 597.476562 190.367188 C 599.972656 193.242188 602.710938 196 605.25 198.84375 C 606.792969 200.554688 608.183594 202.402344 609.691406 204.136719 C 611.40625 206.164062 614.152344 208.769531 616.050781 210.699219 C 612.722656 208.902344 609.382812 207.128906 606.027344 205.394531 L 595.738281 195.601562 C 595.390625 195.277344 594.964844 195.039062 594.5 194.929688 L 577.195312 190.664062 C 576.578125 190.511719 576.152344 191.277344 576.621094 191.71875 L 589.523438 204.003906 C 589.871094 204.332031 590.292969 204.566406 590.761719 204.679688 L 604.34375 208.027344 C 607.285156 209.652344 610.234375 211.277344 613.1875 212.910156 C 611.441406 212.566406 609.699219 212.199219 607.902344 212.332031 C 605.574219 212.375 603.34375 211.707031 601.078125 211.269531 C 597.726562 210.628906 594.207031 210.1875 590.828125 209.722656 C 590.828125 209.722656 590.257812 209.644531 590.257812 209.644531 C 590.167969 209.625 590.066406 209.644531 589.96875 209.636719 C 589.210938 209.324219 588.3125 208.804688 587.546875 208.484375 C 585.136719 207.625 584.328125 211.242188 586.984375 211.527344 C 590.703125 212.351562 594.550781 212.941406 598.28125 213.726562 C 600.542969 214.1875 602.757812 214.839844 605.003906 215.347656 C 607.613281 215.964844 611.40625 216.429688 614.085938 216.851562 C 614.085938 216.851562 620.410156 217.804688 622.515625 218.125 C 627.722656 221.046875 632.890625 223.992188 637.9375 226.957031 C 640.1875 228.222656 643.40625 229.992188 647.265625 232.097656 C 642.921875 233.242188 638.472656 234.554688 634.335938 235.789062 C 634.03125 235.894531 633.730469 236.003906 633.425781 236.128906 C 633.320312 235.976562 633.195312 235.878906 633.042969 235.875 C 632.597656 235.851562 632.171875 235.707031 631.75 235.597656 C 630.261719 235.207031 628.773438 234.847656 627.300781 234.394531 C 626.792969 234.242188 626.328125 233.867188 625.847656 233.597656 C 625.617188 233.464844 625.375 233.378906 625.160156 233.199219 C 624.484375 232.652344 623.734375 232.4375 622.949219 232.351562 C 622.132812 232.269531 621.292969 232.296875 620.464844 232.277344 C 620.332031 232.269531 620.203125 232.253906 620.070312 232.234375 C 619.410156 232.144531 618.757812 232.035156 618.09375 231.972656 C 617.386719 231.902344 616.640625 231.964844 615.953125 231.8125 C 614.96875 231.597656 614.015625 231.214844 613.035156 230.941406 C 612.359375 230.753906 611.65625 230.660156 610.976562 230.492188 C 610.621094 230.402344 610.296875 230.214844 609.941406 230.125 C 609.753906 230.074219 609.550781 230.125 609.34375 230.1875 C 609.15625 230.25 608.980469 230.597656 608.835938 231.101562 C 608.660156 231.722656 608.667969 232.179688 608.792969 232.410156 C 608.988281 232.75 609.210938 233 609.425781 233.269531 C 610.011719 234.019531 610.824219 233.839844 611.421875 234.082031 C 611.957031 234.207031 612.386719 234.316406 612.820312 234.394531 C 613.9375 234.597656 615.070312 234.734375 616.167969 235.003906 C 616.886719 235.179688 617.558594 235.546875 618.253906 235.832031 C 618.5 235.929688 618.734375 236.066406 618.976562 236.160156 C 619.511719 236.351562 620.089844 236.367188 620.578125 236.734375 C 621.398438 237.351562 622.34375 237.441406 623.261719 237.644531 C 623.59375 237.722656 623.984375 237.5625 624.351562 237.5 C 624.59375 237.457031 624.847656 237.378906 625.089844 237.375 C 625.457031 237.367188 625.796875 237.464844 626.171875 237.402344 C 627.335938 237.222656 628.390625 237.527344 629.453125 237.8125 C 629.121094 237.929688 628.78125 238.039062 628.441406 238.128906 C 625.4375 239.101562 622.351562 239.789062 619.339844 240.742188 C 615.640625 241.910156 611.75 243.171875 608.078125 244.394531 C 607.347656 244.722656 606.5 244.628906 605.707031 244.722656 C 605.707031 244.722656 604.109375 244.878906 604.109375 244.878906 C 601.714844 245.289062 602.648438 248.707031 604.976562 247.851562 C 610.023438 246.527344 615.113281 244.921875 620.152344 243.539062 C 622.066406 243.039062 626.535156 241.9375 628.863281 241.351562 C 628.585938 241.609375 628.308594 241.875 628.023438 242.125 C 627.621094 242.476562 627.0625 242.671875 626.578125 242.9375 C 626.347656 243.0625 626.144531 243.222656 625.882812 243.3125 C 625.0625 243.589844 624.476562 244.117188 623.996094 244.734375 C 623.496094 245.378906 623.074219 246.109375 622.621094 246.796875 C 622.542969 246.910156 622.460938 247.003906 622.378906 247.109375 C 621.953125 247.625 621.515625 248.117188 621.113281 248.644531 C 620.679688 249.214844 620.339844 249.867188 619.847656 250.375 C 619.136719 251.097656 618.3125 251.699219 617.566406 252.386719 C 617.050781 252.867188 616.601562 253.410156 616.09375 253.894531 C 615.828125 254.144531 615.496094 254.324219 615.230469 254.582031 C 615.09375 254.714844 615.023438 254.914062 614.96875 255.125 C 614.917969 255.316406 615.121094 255.652344 615.472656 256.039062 C 615.90625 256.519531 616.292969 256.75 616.566406 256.761719 C 616.957031 256.785156 617.289062 256.722656 617.636719 256.6875 C 618.582031 256.589844 618.859375 255.804688 619.382812 255.421875 C 619.769531 255.035156 620.089844 254.726562 620.390625 254.402344 C 621.152344 253.5625 621.871094 252.671875 622.683594 251.878906 C 623.210938 251.367188 623.878906 250.984375 624.492188 250.546875 C 624.707031 250.394531 624.941406 250.269531 625.152344 250.101562 C 625.597656 249.75 625.921875 249.269531 626.488281 249.054688 C 627.445312 248.6875 628.023438 247.9375 628.683594 247.261719 C 628.925781 247.019531 628.996094 246.601562 629.136719 246.261719 C 629.234375 246.035156 629.296875 245.785156 629.421875 245.574219 C 629.609375 245.261719 629.871094 245.019531 630.019531 244.671875 C 630.617188 243.269531 631.820312 242.457031 632.800781 241.421875 C 633.355469 240.839844 634.03125 240.378906 634.585938 239.804688 C 634.605469 239.785156 634.621094 239.742188 634.632812 239.714844 C 640.113281 238.046875 646.375 235.957031 651.449219 234.359375 C 668.332031 243.527344 693.648438 257.074219 708.082031 264.816406 C 707.527344 264.816406 706.832031 264.824219 705.96875 264.839844 C 705.96875 264.839844 707.066406 264.839844 708.109375 264.839844 C 708.144531 264.859375 708.179688 264.875 708.207031 264.894531 C 705.21875 265.046875 702.234375 265.457031 699.253906 265.574219 C 692.558594 265.726562 685.855469 265.785156 679.160156 265.839844 C 679.015625 265.707031 678.847656 265.601562 678.652344 265.539062 C 675.796875 264.394531 672.90625 263.378906 669.976562 262.441406 C 667.753906 261.796875 665.617188 260.847656 663.285156 260.722656 C 660.96875 260.472656 658.832031 259.527344 656.644531 258.8125 C 653.398438 257.753906 649.96875 256.867188 646.675781 255.984375 C 646.675781 255.984375 646.117188 255.839844 646.117188 255.839844 C 646.027344 255.804688 645.925781 255.8125 645.832031 255.796875 C 645.125 255.394531 644.296875 254.761719 643.582031 254.347656 C 642.851562 253.886719 641.886719 254.101562 641.425781 254.839844 C 640.898438 255.660156 641.289062 256.804688 642.203125 257.136719 L 642.644531 257.296875 C 646.222656 258.582031 649.964844 259.660156 653.570312 260.902344 C 655.753906 261.636719 657.875 262.566406 660.035156 263.351562 C 662.527344 264.285156 666.195312 265.214844 668.796875 265.976562 C 665.015625 266.035156 661.230469 266.117188 657.449219 266.242188 L 643.679688 262.722656 C 643.21875 262.601562 642.734375 262.609375 642.273438 262.734375 L 625.089844 267.464844 C 624.46875 267.628906 624.484375 268.503906 625.101562 268.664062 L 642.371094 273.082031 C 642.832031 273.199219 643.316406 273.191406 643.777344 273.066406 L 657.269531 269.351562 C 660.628906 269.332031 664 269.3125 667.371094 269.296875 C 665.683594 269.851562 663.976562 270.378906 662.476562 271.375 C 660.46875 272.546875 658.1875 273.054688 656.003906 273.777344 C 652.765625 274.851562 649.484375 276.179688 646.304688 277.421875 L 645.769531 277.628906 C 645.679688 277.660156 645.597656 277.726562 645.515625 277.769531 C 644.699219 277.867188 643.664062 277.851562 642.835938 277.941406 C 640.308594 278.367188 641.378906 281.921875 643.832031 280.875 C 647.480469 279.777344 651.125 278.421875 654.761719 277.277344 C 656.957031 276.574219 659.210938 276.0625 661.414062 275.402344 C 663.992188 274.664062 667.53125 273.214844 670.074219 272.285156 C 670.074219 272.285156 676.0625 270.027344 678.054688 269.277344 C 684.027344 269.285156 689.972656 269.332031 695.824219 269.457031 C 707.746094 269.476562 703.078125 269.214844 706.886719 268.972656 C 692.285156 276.796875 667.878906 289.867188 651.457031 298.785156 C 646.382812 297.1875 640.121094 295.097656 634.640625 293.429688 C 634.628906 293.394531 634.621094 293.359375 634.59375 293.339844 C 634.035156 292.753906 633.363281 292.296875 632.804688 291.714844 C 631.824219 290.6875 630.621094 289.867188 630.023438 288.464844 C 629.878906 288.117188 629.609375 287.875 629.425781 287.5625 C 629.308594 287.351562 629.238281 287.101562 629.140625 286.875 C 628.996094 286.535156 628.925781 286.117188 628.691406 285.875 C 628.03125 285.207031 627.460938 284.449219 626.492188 284.082031 C 625.921875 283.867188 625.605469 283.378906 625.160156 283.035156 C 624.949219 282.875 624.714844 282.742188 624.5 282.589844 C 623.886719 282.152344 623.226562 281.777344 622.691406 281.253906 C 621.878906 280.464844 621.160156 279.574219 620.398438 278.734375 C 620.097656 278.410156 619.777344 278.101562 619.386719 277.714844 C 618.867188 277.339844 618.589844 276.554688 617.644531 276.449219 C 617.296875 276.414062 616.96875 276.351562 616.574219 276.375 C 616.308594 276.386719 615.917969 276.625 615.480469 277.097656 C 615.125 277.484375 614.925781 277.816406 614.972656 278.011719 C 615.03125 278.222656 615.097656 278.421875 615.238281 278.554688 C 615.503906 278.8125 615.835938 278.984375 616.101562 279.242188 C 616.609375 279.726562 617.050781 280.269531 617.574219 280.75 C 618.316406 281.4375 619.144531 282.039062 619.855469 282.761719 C 620.347656 283.269531 620.6875 283.929688 621.121094 284.492188 C 621.523438 285.019531 621.960938 285.511719 622.386719 286.027344 C 622.46875 286.128906 622.550781 286.226562 622.628906 286.339844 C 623.085938 287.027344 623.503906 287.753906 624.003906 288.402344 C 624.484375 289.027344 625.066406 289.546875 625.886719 289.824219 C 626.152344 289.914062 626.355469 290.074219 626.582031 290.199219 C 627.070312 290.464844 627.625 290.660156 628.03125 291.011719 C 628.316406 291.261719 628.59375 291.527344 628.871094 291.785156 C 626.550781 291.199219 622.070312 290.101562 620.160156 289.597656 C 615.121094 288.222656 610.03125 286.609375 604.984375 285.285156 C 602.65625 284.429688 601.722656 287.847656 604.113281 288.253906 C 604.113281 288.253906 605.714844 288.414062 605.714844 288.414062 C 606.507812 288.503906 607.355469 288.410156 608.085938 288.742188 C 611.753906 289.964844 615.648438 291.226562 619.347656 292.394531 C 622.355469 293.347656 625.445312 294.039062 628.445312 295.003906 C 628.792969 295.097656 629.128906 295.207031 629.460938 295.324219 C 628.398438 295.609375 627.339844 295.914062 626.179688 295.734375 C 625.804688 295.679688 625.457031 295.777344 625.097656 295.761719 C 624.859375 295.753906 624.609375 295.679688 624.359375 295.636719 C 623.992188 295.582031 623.601562 295.414062 623.269531 295.492188 C 622.351562 295.691406 621.40625 295.785156 620.585938 296.402344 C 620.097656 296.769531 619.519531 296.785156 618.984375 296.976562 C 618.742188 297.066406 618.503906 297.199219 618.261719 297.304688 C 617.566406 297.589844 616.894531 297.957031 616.175781 298.128906 C 615.070312 298.402344 613.9375 298.535156 612.824219 298.742188 C 612.394531 298.816406 611.964844 298.9375 611.429688 299.054688 C 610.832031 299.296875 610.015625 299.117188 609.433594 299.867188 C 609.21875 300.144531 608.996094 300.386719 608.800781 300.726562 C 608.667969 300.964844 608.660156 301.414062 608.84375 302.035156 C 608.988281 302.539062 609.164062 302.886719 609.351562 302.949219 C 609.558594 303.019531 609.765625 303.0625 609.949219 303.011719 C 610.300781 302.921875 610.628906 302.734375 610.984375 302.644531 C 611.664062 302.476562 612.359375 302.378906 613.042969 302.191406 C 614.023438 301.921875 614.972656 301.539062 615.960938 301.324219 C 616.648438 301.171875 617.394531 301.234375 618.101562 301.164062 C 618.761719 301.101562 619.417969 300.992188 620.078125 300.902344 C 620.207031 300.878906 620.335938 300.867188 620.472656 300.859375 C 621.300781 300.839844 622.140625 300.867188 622.953125 300.785156 C 623.742188 300.707031 624.492188 300.484375 625.164062 299.9375 C 625.382812 299.761719 625.625 299.671875 625.855469 299.539062 C 626.339844 299.269531 626.800781 298.894531 627.308594 298.742188 C 628.78125 298.296875 630.269531 297.929688 631.757812 297.539062 C 632.179688 297.429688 632.605469 297.285156 633.050781 297.261719 C 633.210938 297.253906 633.328125 297.160156 633.429688 297.003906 C 633.730469 297.128906 634.035156 297.242188 634.34375 297.347656 C 638.480469 298.582031 642.929688 299.894531 647.273438 301.039062 C 643.414062 303.144531 640.195312 304.914062 637.941406 306.179688 C 632.894531 309.144531 627.730469 312.089844 622.523438 315.011719 C 620.417969 315.332031 614.089844 316.285156 614.089844 316.285156 C 611.414062 316.714844 607.617188 317.171875 605.011719 317.789062 C 602.765625 318.289062 600.546875 318.949219 598.289062 319.410156 C 594.554688 320.1875 590.710938 320.785156 586.992188 321.609375 C 584.335938 321.894531 585.144531 325.511719 587.554688 324.652344 C 588.320312 324.332031 589.21875 323.8125 589.976562 323.5 C 590.070312 323.492188 590.167969 323.511719 590.265625 323.492188 L 590.835938 323.414062 C 594.214844 322.949219 597.726562 322.503906 601.082031 321.867188 C 603.351562 321.429688 605.582031 320.761719 607.910156 320.804688 C 609.710938 320.9375 611.449219 320.566406 613.195312 320.226562 C 610.246094 321.859375 607.292969 323.492188 604.351562 325.109375 L 590.765625 328.457031 C 590.300781 328.570312 589.878906 328.804688 589.53125 329.132812 L 576.558594 341.4375 C 576.097656 341.875 576.515625 342.644531 577.132812 342.492188 L 594.4375 338.226562 C 594.902344 338.117188 595.328125 337.882812 595.675781 337.554688 L 605.964844 327.761719 C 609.320312 326.027344 612.664062 324.25 615.988281 322.457031 C 614.089844 324.386719 611.34375 326.992188 609.628906 329.019531 C 608.121094 330.757812 606.730469 332.601562 605.1875 334.3125 C 602.648438 337.160156 599.910156 339.914062 597.414062 342.789062 C 597.414062 342.789062 597.105469 343.144531 597.105469 343.144531 C 596.46875 343.882812 596.691406 345.070312 597.550781 345.527344 C 598.308594 345.9375 599.261719 345.660156 599.671875 344.902344 C 600.097656 344.1875 600.507812 343.234375 600.929688 342.535156 C 601.007812 342.472656 601.097656 342.429688 601.160156 342.351562 L 601.570312 341.949219 C 604.011719 339.570312 606.570312 337.125 608.882812 334.617188 C 610.441406 332.921875 611.84375 331.0625 613.738281 329.707031 C 615.71875 328.457031 617.113281 326.582031 618.734375 324.9375 C 620.828125 322.691406 622.859375 320.394531 624.789062 318 C 624.921875 317.847656 625.019531 317.671875 625.082031 317.492188 C 630.957031 314.277344 636.824219 311.046875 642.738281 307.914062 C 645.214844 306.660156 647.808594 305.609375 650.316406 304.410156 C 648.230469 310.9375 645.546875 318.914062 644 324.671875 C 643.96875 324.789062 643.9375 324.921875 643.902344 325.0625 C 643.339844 325.636719 642.726562 326.171875 641.933594 326.511719 C 641.585938 326.660156 641.34375 326.929688 641.03125 327.109375 C 640.820312 327.226562 640.570312 327.296875 640.339844 327.394531 C 640 327.539062 639.582031 327.609375 639.339844 327.847656 C 638.671875 328.503906 637.914062 329.074219 637.546875 330.039062 C 637.332031 330.609375 636.84375 330.929688 636.496094 331.375 C 636.335938 331.582031 636.207031 331.820312 636.050781 332.035156 C 635.613281 332.644531 635.238281 333.304688 634.71875 333.839844 C 633.925781 334.652344 633.035156 335.367188 632.195312 336.132812 C 631.867188 336.429688 631.5625 336.75 631.171875 337.136719 C 630.796875 337.660156 630.011719 337.9375 629.90625 338.882812 C 629.871094 339.226562 629.808594 339.554688 629.832031 339.949219 C 629.84375 340.214844 630.082031 340.601562 630.554688 341.039062 C 630.941406 341.394531 631.277344 341.597656 631.472656 341.546875 C 631.679688 341.492188 631.882812 341.421875 632.011719 341.285156 C 632.269531 341.019531 632.445312 340.6875 632.703125 340.421875 C 633.1875 339.914062 633.730469 339.472656 634.210938 338.949219 C 634.898438 338.207031 635.503906 337.382812 636.226562 336.671875 C 636.734375 336.179688 637.394531 335.839844 637.957031 335.410156 C 638.484375 335.007812 638.980469 334.570312 639.492188 334.144531 C 639.597656 334.0625 639.695312 333.976562 639.804688 333.902344 C 640.496094 333.445312 641.222656 333.027344 641.871094 332.527344 C 641.949219 332.472656 642.015625 332.402344 642.085938 332.347656 C 641.933594 332.9375 641.800781 333.457031 641.699219 333.867188 C 640.320312 338.902344 638.707031 343.984375 637.378906 349.027344 C 636.523438 351.351562 639.945312 352.285156 640.355469 349.894531 C 640.355469 349.894531 640.515625 348.296875 640.515625 348.296875 C 640.605469 347.507812 640.507812 346.660156 640.84375 345.929688 C 642.066406 342.261719 643.332031 338.375 644.5 334.679688 C 645.445312 331.714844 646.125 328.671875 647.078125 325.714844 C 647.257812 325.519531 647.445312 325.324219 647.628906 325.128906 C 647.792969 324.957031 647.953125 324.777344 648.128906 324.601562 C 648.289062 325.109375 648.460938 325.609375 648.574219 326.125 C 648.859375 327.511719 649.449219 328.839844 649.210938 330.347656 C 649.15625 330.722656 649.253906 331.070312 649.238281 331.429688 C 649.234375 331.664062 649.15625 331.914062 649.113281 332.164062 C 649.058594 332.535156 648.894531 332.921875 648.96875 333.257812 C 649.171875 334.171875 649.261719 335.117188 649.878906 335.9375 C 650.25 336.421875 650.261719 337 650.457031 337.535156 C 650.546875 337.777344 650.679688 338.011719 650.785156 338.257812 C 651.070312 338.949219 651.4375 339.625 651.609375 340.339844 C 651.882812 341.445312 652.015625 342.574219 652.222656 343.6875 C 652.300781 344.117188 652.417969 344.546875 652.535156 345.082031 C 652.777344 345.679688 652.597656 346.492188 653.347656 347.074219 C 653.625 347.289062 653.871094 347.511719 654.210938 347.707031 C 654.445312 347.839844 654.898438 347.847656 655.519531 347.664062 C 656.023438 347.519531 656.371094 347.347656 656.433594 347.160156 C 656.503906 346.949219 656.546875 346.742188 656.496094 346.5625 C 656.40625 346.207031 656.21875 345.882812 656.128906 345.527344 C 655.960938 344.847656 655.867188 344.152344 655.675781 343.472656 C 655.40625 342.492188 655.023438 341.539062 654.808594 340.554688 C 654.65625 339.867188 654.71875 339.125 654.648438 338.414062 C 654.585938 337.757812 654.476562 337.101562 654.382812 336.445312 C 654.363281 336.3125 654.351562 336.1875 654.34375 336.046875 C 654.320312 335.222656 654.351562 334.382812 654.265625 333.570312 C 654.191406 332.785156 653.96875 332.035156 653.417969 331.359375 C 653.246094 331.144531 653.152344 330.902344 653.023438 330.671875 C 652.75 330.1875 652.375 329.726562 652.222656 329.222656 C 651.777344 327.75 651.410156 326.261719 651.019531 324.777344 C 650.910156 324.351562 650.761719 323.929688 650.742188 323.484375 C 650.726562 323.132812 650.28125 322.945312 649.683594 322.796875 C 649.316406 322.707031 648.863281 322.75 648.566406 322.886719 C 648.503906 322.726562 648.414062 322.574219 648.308594 322.4375 C 648.726562 321.535156 649.148438 320.632812 649.457031 319.699219 C 651.125 314.136719 652.925781 308.003906 654.273438 302.332031 C 657.152344 300.761719 664.359375 296.839844 664.359375 296.839844 C 670.910156 293.261719 695.957031 279.441406 709.617188 271.785156 C 709.359375 272.207031 709.0625 272.699219 708.699219 273.304688 C 708.699219 273.304688 709.171875 272.539062 709.640625 271.769531 C 709.6875 271.742188 709.734375 271.714844 709.785156 271.6875 C 708.414062 274.226562 707.21875 276.878906 705.808594 279.402344 C 702.4375 285.179688 698.972656 290.910156 695.519531 296.644531 C 695.332031 296.699219 695.15625 296.789062 695 296.914062 C 692.53125 298.75 690.144531 300.679688 687.816406 302.679688 C 686.105469 304.234375 684.171875 305.554688 682.847656 307.476562 C 681.421875 309.316406 679.496094 310.636719 677.742188 312.125 C 675.144531 314.332031 672.59375 316.789062 670.109375 319.132812 L 669.691406 319.527344 C 669.617188 319.582031 669.566406 319.679688 669.503906 319.75 C 668.789062 320.144531 667.824219 320.511719 667.085938 320.910156 C 666.3125 321.289062 665.996094 322.226562 666.375 323 C 666.800781 323.882812 667.976562 324.144531 668.742188 323.539062 L 669.109375 323.25 C 672.085938 320.875 674.957031 318.25 677.902344 315.832031 C 679.675781 314.359375 681.574219 313.046875 683.375 311.609375 C 685.472656 309.976562 688.183594 307.347656 690.195312 305.527344 C 688.261719 308.777344 686.355469 312.039062 684.480469 315.320312 L 674.265625 325.195312 C 673.925781 325.527344 673.675781 325.945312 673.542969 326.394531 L 668.582031 343.492188 C 668.398438 344.101562 669.152344 344.554688 669.609375 344.109375 L 682.414062 331.726562 C 682.753906 331.394531 683.007812 330.976562 683.136719 330.527344 L 687.03125 317.101562 C 688.769531 314.234375 690.519531 311.351562 692.273438 308.476562 C 691.863281 310.207031 691.425781 311.929688 691.480469 313.726562 C 691.425781 316.054688 690.667969 318.257812 690.144531 320.5 C 689.375 323.820312 688.78125 327.304688 688.183594 330.664062 L 688.085938 331.234375 C 688.058594 331.324219 688.082031 331.429688 688.066406 331.527344 C 687.726562 332.269531 687.171875 333.144531 686.816406 333.894531 C 685.855469 336.269531 689.445312 337.214844 689.839844 334.582031 C 690.8125 330.910156 691.5625 327.089844 692.496094 323.394531 C 693.042969 321.160156 693.789062 318.972656 694.378906 316.75 C 695.101562 314.171875 695.722656 310.402344 696.257812 307.742188 C 696.257812 307.742188 697.464844 301.464844 697.871094 299.375 C 701.003906 294.296875 704.152344 289.253906 707.332031 284.339844 C 714.058594 273.4375 710.460938 278.699219 713.191406 273.769531 C 713.046875 290.160156 712.773438 318.726562 712.703125 337.859375 C 708.859375 341.535156 704.015625 346.019531 699.921875 350.011719 C 699.886719 350.011719 699.851562 350 699.816406 350.011719 C 699.039062 350.222656 698.308594 350.589844 697.535156 350.796875 C 696.160156 351.164062 694.867188 351.820312 693.351562 351.671875 C 692.976562 351.636719 692.632812 351.757812 692.265625 351.761719 C 692.03125 351.769531 691.773438 351.707031 691.527344 351.679688 C 691.160156 351.644531 690.765625 351.507812 690.429688 351.597656 C 689.527344 351.851562 688.589844 351.992188 687.804688 352.660156 C 687.335938 353.046875 686.761719 353.101562 686.238281 353.324219 C 685.996094 353.429688 685.773438 353.574219 685.53125 353.695312 C 684.855469 354.019531 684.203125 354.414062 683.492188 354.636719 C 682.40625 354.972656 681.28125 355.164062 680.175781 355.429688 C 679.746094 355.535156 679.328125 355.671875 678.792969 355.820312 C 678.210938 356.089844 677.390625 355.957031 676.847656 356.742188 C 676.644531 357.027344 676.4375 357.289062 676.261719 357.636719 C 676.144531 357.882812 676.164062 358.332031 676.375 358.9375 C 676.546875 359.4375 676.742188 359.769531 676.929688 359.820312 C 677.136719 359.875 677.355469 359.910156 677.535156 359.851562 C 677.882812 359.75 678.203125 359.535156 678.550781 359.429688 C 679.21875 359.222656 679.914062 359.089844 680.578125 358.867188 C 681.539062 358.546875 682.46875 358.109375 683.445312 357.839844 C 684.125 357.652344 684.867188 357.671875 685.570312 357.5625 C 686.230469 357.457031 686.878906 357.3125 687.523438 357.1875 C 687.65625 357.160156 687.78125 357.132812 687.914062 357.125 C 688.742188 357.054688 689.582031 357.035156 690.390625 356.910156 C 691.167969 356.785156 691.90625 356.527344 692.542969 355.945312 C 692.753906 355.757812 692.980469 355.652344 693.203125 355.511719 C 693.671875 355.214844 694.109375 354.820312 694.617188 354.636719 C 694.96875 354.507812 695.339844 354.386719 695.691406 354.269531 C 694.066406 356.027344 690.953125 359.414062 689.589844 360.847656 C 685.960938 364.601562 682.101562 368.285156 678.507812 372.070312 C 676.644531 373.699219 679.1875 376.160156 680.699219 374.257812 C 680.699219 374.257812 681.601562 372.929688 681.601562 372.929688 C 682.058594 372.277344 682.378906 371.492188 683.027344 371.007812 C 685.863281 368.382812 688.84375 365.574219 691.648438 362.902344 C 693.933594 360.726562 696.019531 358.351562 698.3125 356.1875 C 698.558594 355.929688 698.816406 355.6875 699.078125 355.449219 C 698.816406 356.511719 698.578125 357.589844 697.863281 358.519531 C 697.632812 358.820312 697.550781 359.171875 697.367188 359.484375 C 697.25 359.695312 697.054688 359.875 696.910156 360.070312 C 696.679688 360.359375 696.355469 360.625 696.257812 360.957031 C 695.992188 361.859375 695.617188 362.726562 695.769531 363.742188 C 695.859375 364.339844 695.597656 364.859375 695.503906 365.421875 C 695.464844 365.679688 695.472656 365.949219 695.441406 366.214844 C 695.359375 366.957031 695.351562 367.722656 695.164062 368.4375 C 694.871094 369.535156 694.441406 370.589844 694.085938 371.664062 C 693.949219 372.082031 693.84375 372.511719 693.691406 373.039062 C 693.613281 373.679688 693.066406 374.304688 693.441406 375.179688 C 693.578125 375.5 693.691406 375.820312 693.894531 376.144531 C 694.03125 376.375 694.429688 376.597656 695.0625 376.734375 C 695.574219 376.851562 695.964844 376.867188 696.109375 376.726562 C 696.269531 376.574219 696.410156 376.414062 696.457031 376.234375 C 696.546875 375.882812 696.542969 375.5 696.632812 375.152344 C 696.8125 374.472656 697.0625 373.820312 697.222656 373.132812 C 697.460938 372.144531 697.578125 371.132812 697.863281 370.160156 C 698.0625 369.476562 698.472656 368.859375 698.753906 368.207031 C 699.015625 367.597656 699.230469 366.972656 699.46875 366.351562 C 699.515625 366.226562 699.558594 366.109375 699.621094 365.992188 C 699.996094 365.257812 700.425781 364.535156 700.746094 363.777344 C 701.054688 363.054688 701.226562 362.289062 701.066406 361.4375 C 701.019531 361.164062 701.054688 360.910156 701.054688 360.644531 C 701.046875 360.089844 700.941406 359.507812 701.054688 358.984375 C 701.367188 357.476562 701.761719 356 702.136719 354.511719 C 702.242188 354.082031 702.324219 353.644531 702.519531 353.25 C 702.589844 353.109375 702.5625 352.957031 702.476562 352.789062 C 702.730469 352.589844 702.980469 352.382812 703.214844 352.160156 C 706.289062 349.132812 709.578125 345.867188 712.675781 342.609375 C 712.671875 347 712.675781 350.664062 712.703125 353.257812 C 712.886719 359.101562 712.984375 365.039062 713.050781 371.007812 C 712.316406 373.007812 710.113281 379.007812 710.113281 379.007812 C 709.199219 381.554688 707.78125 385.101562 707.066406 387.6875 C 706.425781 389.894531 705.941406 392.152344 705.253906 394.351562 C 704.140625 398 702.8125 401.652344 701.753906 405.304688 C 700.734375 407.769531 704.292969 408.804688 704.695312 406.277344 C 704.78125 405.449219 704.757812 404.414062 704.847656 403.601562 C 704.890625 403.511719 704.960938 403.4375 704.980469 403.347656 C 704.980469 403.347656 705.191406 402.8125 705.191406 402.8125 C 706.40625 399.632812 707.707031 396.339844 708.757812 393.089844 C 709.464844 390.894531 709.953125 388.617188 711.105469 386.601562 C 712.085938 385.089844 712.601562 383.386719 713.144531 381.695312 C 713.15625 385.0625 713.171875 388.429688 713.175781 391.785156 L 709.582031 405.289062 C 709.457031 405.75 709.457031 406.234375 709.582031 406.695312 L 714.15625 423.902344 C 714.324219 424.519531 715.199219 424.519531 715.359375 423.902344 L 719.933594 406.695312 C 720.058594 406.234375 720.058594 405.75 719.933594 405.289062 L 716.285156 391.570312 C 716.375 387.789062 716.425781 384.011719 716.445312 380.234375 C 717.230469 382.824219 718.195312 386.476562 719.148438 388.957031 C 719.949219 391.109375 720.902344 393.222656 721.660156 395.394531 C 722.9375 398.984375 724.042969 402.707031 725.363281 406.277344 L 725.53125 406.714844 C 725.871094 407.632812 727.019531 408.007812 727.839844 407.472656 C 728.570312 407.007812 728.777344 406.039062 728.3125 405.3125 C 727.886719 404.597656 727.253906 403.777344 726.839844 403.074219 C 726.816406 402.976562 726.824219 402.882812 726.789062 402.789062 L 726.636719 402.234375 C 725.71875 398.949219 724.800781 395.535156 723.714844 392.304688 C 722.980469 390.125 722.011719 388 721.742188 385.695312 C 721.597656 383.359375 720.621094 381.234375 719.957031 379.019531 C 718.988281 376.109375 717.945312 373.226562 716.777344 370.382812 C 716.710938 370.195312 716.605469 370.019531 716.472656 369.882812 C 716.472656 363.1875 716.457031 356.5 716.554688 349.804688 C 716.640625 347.035156 716.972656 344.261719 717.125 341.492188 C 721.851562 346.457031 727.566406 352.636719 731.871094 356.761719 C 731.960938 356.847656 732.066406 356.945312 732.171875 357.035156 C 732.40625 357.804688 732.582031 358.597656 732.496094 359.457031 C 732.460938 359.832031 732.582031 360.171875 732.585938 360.539062 C 732.59375 360.777344 732.53125 361.035156 732.503906 361.277344 C 732.46875 361.644531 732.332031 362.039062 732.421875 362.375 C 732.675781 363.277344 732.816406 364.214844 733.484375 365 C 733.875 365.464844 733.929688 366.039062 734.152344 366.5625 C 734.253906 366.804688 734.402344 367.027344 734.519531 367.269531 C 734.847656 367.945312 735.242188 368.597656 735.464844 369.304688 C 735.800781 370.386719 735.992188 371.511719 736.257812 372.617188 C 736.363281 373.046875 736.5 373.464844 736.648438 374 C 736.917969 374.582031 736.785156 375.402344 737.570312 375.945312 C 737.855469 376.144531 738.121094 376.351562 738.46875 376.527344 C 738.710938 376.644531 739.164062 376.625 739.769531 376.414062 C 740.269531 376.242188 740.601562 376.046875 740.652344 375.859375 C 740.707031 375.652344 740.742188 375.4375 740.6875 375.257812 C 740.582031 374.910156 740.367188 374.589844 740.261719 374.242188 C 740.054688 373.574219 739.921875 372.882812 739.699219 372.214844 C 739.378906 371.257812 738.941406 370.324219 738.671875 369.351562 C 738.484375 368.671875 738.503906 367.929688 738.390625 367.226562 C 738.289062 366.570312 738.140625 365.921875 738.015625 365.277344 C 737.988281 365.144531 737.960938 365.019531 737.953125 364.886719 C 737.882812 364.0625 737.863281 363.222656 737.738281 362.414062 C 737.726562 362.324219 737.695312 362.226562 737.683594 362.136719 C 738.128906 362.554688 738.523438 362.921875 738.832031 363.207031 C 742.589844 366.832031 746.277344 370.6875 750.066406 374.277344 C 751.699219 376.136719 754.160156 373.597656 752.253906 372.089844 C 752.253906 372.089844 750.925781 371.1875 750.925781 371.1875 C 750.273438 370.726562 749.488281 370.410156 749 369.761719 C 746.375 366.929688 743.566406 363.949219 740.886719 361.152344 C 738.738281 358.902344 736.398438 356.839844 734.253906 354.582031 C 734.171875 354.324219 734.097656 354.074219 734.011719 353.820312 C 733.9375 353.589844 733.851562 353.359375 733.789062 353.125 C 734.3125 353.226562 734.832031 353.3125 735.339844 353.472656 C 736.703125 353.886719 738.148438 354.011719 739.359375 354.945312 C 739.65625 355.171875 740.011719 355.257812 740.324219 355.4375 C 740.535156 355.554688 740.714844 355.75 740.910156 355.894531 C 741.199219 356.125 741.464844 356.449219 741.796875 356.546875 C 742.703125 356.8125 743.570312 357.1875 744.585938 357.035156 C 745.183594 356.945312 745.707031 357.207031 746.269531 357.296875 C 746.527344 357.339844 746.796875 357.332031 747.0625 357.359375 C 747.804688 357.445312 748.570312 357.445312 749.285156 357.636719 C 750.382812 357.929688 751.441406 358.359375 752.519531 358.714844 C 752.9375 358.851562 753.367188 358.957031 753.894531 359.109375 C 754.535156 359.1875 755.160156 359.734375 756.035156 359.359375 C 756.355469 359.222656 756.675781 359.109375 757.003906 358.910156 C 757.230469 358.769531 757.453125 358.375 757.59375 357.742188 C 757.710938 357.226562 757.726562 356.839844 757.585938 356.695312 C 757.433594 356.535156 757.273438 356.394531 757.09375 356.347656 C 756.738281 356.257812 756.355469 356.261719 756.007812 356.171875 C 755.328125 355.992188 754.671875 355.742188 753.984375 355.582031 C 753 355.347656 751.984375 355.226562 751.011719 354.945312 C 750.328125 354.742188 749.710938 354.332031 749.054688 354.054688 C 748.445312 353.789062 747.820312 353.574219 747.199219 353.339844 C 747.074219 353.289062 746.957031 353.25 746.839844 353.1875 C 746.101562 352.8125 745.378906 352.382812 744.621094 352.0625 C 743.898438 351.757812 743.132812 351.582031 742.277344 351.742188 C 742.007812 351.789062 741.75 351.757812 741.484375 351.757812 C 740.929688 351.761719 740.347656 351.867188 739.824219 351.757812 C 738.316406 351.445312 736.835938 351.046875 735.347656 350.671875 C 734.917969 350.570312 734.476562 350.492188 734.082031 350.289062 C 733.761719 350.136719 733.386719 350.429688 732.96875 350.886719 C 732.71875 351.164062 732.539062 351.582031 732.511719 351.910156 C 732.34375 351.886719 732.164062 351.886719 731.988281 351.914062 C 731.398438 351.117188 730.808594 350.3125 730.140625 349.597656 C 726.058594 345.464844 721.546875 340.9375 717.214844 337.027344 C 717.222656 333.75 717.246094 325.546875 717.246094 325.546875 C 717.25 317.699219 717.160156 286.410156 716.980469 271.484375 C 722.054688 280.253906 716.605469 272.128906 724.15625 284.367188 C 727.324219 289.285156 730.480469 294.320312 733.617188 299.402344 C 734.019531 301.492188 735.230469 307.769531 735.230469 307.769531 C 735.765625 310.421875 736.382812 314.195312 737.105469 316.777344 C 737.695312 319 738.449219 321.1875 738.988281 323.421875 C 739.921875 327.117188 740.664062 330.929688 741.644531 334.609375 C 742.042969 337.25 745.628906 336.296875 744.667969 333.921875 C 744.316406 333.171875 743.757812 332.296875 743.417969 331.554688 C 743.410156 331.457031 743.425781 331.351562 743.398438 331.261719 C 743.398438 331.261719 743.300781 330.695312 743.300781 330.695312 C 742.703125 327.339844 742.113281 323.851562 741.339844 320.527344 C 740.8125 318.285156 740.054688 316.082031 740.003906 313.757812 C 740.066406 311.957031 739.621094 310.234375 739.210938 308.507812 C 740.964844 311.386719 742.710938 314.261719 744.453125 317.132812 L 748.347656 330.554688 C 748.480469 331.011719 748.730469 331.429688 749.070312 331.757812 L 761.875 344.136719 C 762.335938 344.582031 763.085938 344.132812 762.90625 343.519531 L 757.941406 326.421875 C 757.808594 325.964844 757.558594 325.546875 757.21875 325.222656 L 747.003906 315.347656 C 745.128906 312.0625 743.222656 308.796875 741.292969 305.554688 C 743.300781 307.367188 746.011719 310.007812 748.109375 311.636719 C 749.910156 313.070312 751.808594 314.386719 753.582031 315.859375 C 756.53125 318.277344 759.402344 320.902344 762.375 323.277344 L 762.746094 323.570312 C 763.507812 324.171875 764.683594 323.910156 765.109375 323.027344 C 765.492188 322.257812 765.171875 321.320312 764.398438 320.9375 C 763.667969 320.539062 762.703125 320.164062 761.980469 319.777344 C 761.917969 319.707031 761.867188 319.609375 761.792969 319.554688 L 761.375 319.160156 C 758.894531 316.820312 756.34375 314.367188 753.742188 312.152344 C 751.984375 310.664062 750.066406 309.339844 748.640625 307.507812 C 747.3125 305.582031 745.378906 304.261719 743.667969 302.707031 C 741.339844 300.707031 738.957031 298.777344 736.488281 296.941406 C 736.328125 296.816406 736.152344 296.726562 735.964844 296.671875 C 732.511719 290.9375 729.046875 285.214844 725.675781 279.429688 C 724.46875 277.269531 723.417969 275.011719 722.285156 272.8125 C 722.375 272.859375 722.464844 272.914062 722.5625 272.964844 C 722.609375 273.039062 722.785156 273.332031 722.785156 273.332031 C 722.707031 273.199219 722.640625 273.089844 722.5625 272.972656 C 736.542969 280.789062 759.527344 293.464844 765.753906 296.867188 C 765.753906 296.867188 772.964844 300.789062 775.84375 302.359375 C 777.191406 308.035156 779 314.164062 780.660156 319.726562 C 780.972656 320.660156 781.398438 321.5625 781.808594 322.464844 C 781.703125 322.601562 781.613281 322.757812 781.550781 322.914062 C 781.25 322.785156 780.800781 322.742188 780.429688 322.824219 C 779.832031 322.972656 779.386719 323.160156 779.375 323.511719 C 779.351562 323.957031 779.207031 324.382812 779.097656 324.804688 C 778.707031 326.289062 778.339844 327.777344 777.894531 329.25 C 777.742188 329.761719 777.363281 330.222656 777.09375 330.699219 C 776.960938 330.929688 776.878906 331.171875 776.699219 331.386719 C 776.148438 332.0625 775.933594 332.8125 775.847656 333.597656 C 775.765625 334.410156 775.792969 335.25 775.773438 336.074219 C 775.765625 336.207031 775.753906 336.339844 775.730469 336.472656 C 775.640625 337.132812 775.53125 337.785156 775.46875 338.445312 C 775.398438 339.152344 775.460938 339.886719 775.308594 340.582031 C 775.089844 341.570312 774.710938 342.519531 774.4375 343.5 C 774.25 344.171875 774.152344 344.875 773.984375 345.554688 C 773.894531 345.910156 773.707031 346.234375 773.617188 346.589844 C 773.570312 346.777344 773.617188 346.976562 773.679688 347.1875 C 773.742188 347.375 774.089844 347.546875 774.597656 347.695312 C 775.214844 347.867188 775.667969 347.859375 775.90625 347.734375 C 776.246094 347.539062 776.496094 347.320312 776.765625 347.101562 C 777.519531 346.519531 777.335938 345.707031 777.582031 345.109375 C 777.707031 344.574219 777.816406 344.144531 777.894531 343.714844 C 778.09375 342.597656 778.234375 341.464844 778.503906 340.367188 C 778.679688 339.652344 779.046875 338.976562 779.332031 338.285156 C 779.429688 338.039062 779.570312 337.804688 779.660156 337.5625 C 779.855469 337.027344 779.867188 336.449219 780.234375 335.964844 C 780.855469 335.144531 780.945312 334.199219 781.148438 333.285156 C 781.222656 332.949219 781.0625 332.5625 781 332.195312 C 780.960938 331.949219 780.882812 331.699219 780.875 331.457031 C 780.867188 331.089844 780.964844 330.75 780.902344 330.375 C 780.667969 328.867188 781.257812 327.539062 781.542969 326.152344 C 781.648438 325.636719 781.828125 325.136719 781.988281 324.632812 C 782.160156 324.804688 782.320312 324.984375 782.488281 325.160156 C 782.667969 325.351562 782.855469 325.546875 783.039062 325.742188 C 783.988281 328.707031 784.671875 331.742188 785.617188 334.707031 C 786.785156 338.402344 788.050781 342.289062 789.273438 345.957031 C 789.601562 346.6875 789.511719 347.535156 789.601562 348.324219 C 789.601562 348.324219 789.761719 349.921875 789.761719 349.921875 C 790.171875 352.3125 793.582031 351.382812 792.734375 349.054688 C 791.40625 344.011719 789.796875 338.929688 788.417969 333.894531 C 788.3125 333.492188 788.175781 332.964844 788.03125 332.375 C 788.097656 332.4375 788.167969 332.5 788.246094 332.554688 C 788.890625 333.054688 789.621094 333.476562 790.308594 333.929688 C 790.421875 334.007812 790.519531 334.089844 790.621094 334.171875 C 791.136719 334.597656 791.628906 335.035156 792.160156 335.4375 C 792.722656 335.867188 793.382812 336.207031 793.890625 336.699219 C 794.613281 337.410156 795.21875 338.234375 795.90625 338.976562 C 796.386719 339.492188 796.929688 339.945312 797.414062 340.449219 C 797.664062 340.714844 797.84375 341.046875 798.101562 341.3125 C 798.234375 341.449219 798.4375 341.519531 798.644531 341.574219 C 798.839844 341.625 799.171875 341.421875 799.5625 341.070312 C 800.042969 340.636719 800.273438 340.25 800.285156 339.976562 C 800.304688 339.589844 800.242188 339.257812 800.210938 338.910156 C 800.113281 337.964844 799.328125 337.6875 798.945312 337.164062 C 798.554688 336.777344 798.25 336.457031 797.921875 336.160156 C 797.082031 335.394531 796.191406 334.679688 795.398438 333.867188 C 794.882812 333.339844 794.5 332.671875 794.0625 332.0625 C 793.910156 331.847656 793.785156 331.609375 793.617188 331.402344 C 793.265625 330.957031 792.785156 330.632812 792.570312 330.070312 C 792.199219 329.109375 791.449219 328.535156 790.773438 327.875 C 790.53125 327.632812 790.113281 327.5625 789.773438 327.421875 C 789.542969 327.324219 789.292969 327.261719 789.085938 327.136719 C 788.773438 326.949219 788.53125 326.6875 788.183594 326.539062 C 787.382812 326.199219 786.777344 325.664062 786.214844 325.089844 C 786.179688 324.949219 786.144531 324.820312 786.117188 324.699219 C 784.558594 318.941406 781.882812 310.957031 779.796875 304.4375 C 782.308594 305.636719 784.894531 306.6875 787.375 307.941406 C 793.292969 311.074219 799.167969 314.304688 805.035156 317.519531 C 805.097656 317.699219 805.195312 317.875 805.324219 318.027344 C 807.257812 320.421875 809.289062 322.722656 811.382812 324.964844 C 813.007812 326.609375 814.40625 328.484375 816.378906 329.734375 C 818.277344 331.082031 819.675781 332.949219 821.230469 334.644531 C 823.546875 337.152344 826.105469 339.597656 828.546875 341.976562 L 828.957031 342.382812 C 829.019531 342.457031 829.109375 342.5 829.183594 342.5625 C 829.609375 343.261719 830.019531 344.214844 830.441406 344.929688 C 830.851562 345.6875 831.804688 345.964844 832.5625 345.554688 C 833.425781 345.097656 833.648438 343.910156 833.007812 343.171875 L 832.703125 342.820312 C 830.207031 339.945312 827.46875 337.1875 824.929688 334.339844 C 823.386719 332.632812 821.996094 330.785156 820.488281 329.046875 C 818.769531 327.019531 816.023438 324.414062 814.128906 322.484375 C 817.457031 324.285156 820.792969 326.054688 824.152344 327.789062 L 834.441406 337.582031 C 834.789062 337.910156 835.210938 338.144531 835.679688 338.257812 L 852.980469 342.519531 C 853.601562 342.671875 854.023438 341.910156 853.558594 341.464844 Z M 840.710938 329.160156 "/></g></g></svg>