<svg xmlns="http://www.w3.org/2000/svg" xmlns:xlink="http://www.w3.org/1999/xlink" width="1500" zoomAndPan="magnify" viewBox="0 0 1125 577.499988" height="770" preserveAspectRatio="xMidYMid meet" version="1.2"><g id="a63510ced2"><path style=" stroke:none;fill-rule:nonzero;fill:#fcbf49;fill-opacity:1;" d="M 867.757812 199.140625 C 863.519531 180.488281 867.132812 146.359375 879.289062 130.480469 C 880.082031 129.445312 881.683594 129.578125 882.3125 130.71875 C 887.304688 139.730469 892.90625 148.402344 899.070312 156.664062 C 899.949219 157.84375 901.804688 157.539062 902.253906 156.136719 C 908.558594 136.535156 914.589844 116.4375 914.320312 96 C 914.296875 94.300781 916.421875 93.523438 917.523438 94.816406 C 931.160156 110.839844 939.378906 131.398438 940.488281 152.382812 C 940.5625 153.78125 942.144531 154.566406 943.308594 153.785156 C 948.867188 150.066406 953.230469 144.585938 955.617188 138.351562 C 956.160156 136.9375 958.109375 136.761719 958.878906 138.074219 C 965.898438 150.035156 967.050781 165.308594 961.867188 178.171875 C 961.324219 179.523438 962.503906 180.925781 963.929688 180.625 C 967.96875 179.773438 971.878906 178.3125 975.484375 176.300781 C 976.558594 175.703125 977.898438 176.3125 978.152344 177.511719 C 980.320312 187.753906 978.257812 199.136719 973.804688 208.582031 C 955.800781 246.8125 895.21875 253.128906 873.585938 214.523438 C 870.890625 209.71875 868.976562 204.503906 867.757812 199.140625 Z M 867.757812 199.140625 "/><path style=" stroke:none;fill-rule:nonzero;fill:#f77f00;fill-opacity:1;" d="M 899.949219 194.808594 C 897.546875 186.871094 898.652344 177.617188 903.769531 171.195312 C 904.539062 170.230469 906.035156 170.347656 906.640625 171.421875 C 908.925781 175.46875 911.929688 179.113281 915.472656 182.132812 C 916.496094 183.007812 918.09375 182.433594 918.304688 181.105469 C 919.15625 175.765625 921.320312 169.675781 923.191406 164.351562 C 923.722656 162.839844 925.855469 162.804688 926.4375 164.300781 C 930.320312 174.332031 931.644531 178.773438 933.003906 187.464844 C 933.210938 188.792969 934.800781 189.382812 935.828125 188.511719 C 937.75 186.886719 939.671875 185.261719 941.589844 183.632812 C 942.496094 182.867188 943.882812 183.222656 944.320312 184.324219 C 947.1875 191.542969 946.242188 200.210938 941.738281 206.570312 C 927.621094 226.503906 905.675781 213.75 899.949219 194.808594 Z M 899.949219 194.808594 "/><path style=" stroke:none;fill-rule:nonzero;fill:#fcbf49;fill-opacity:1;" d="M 677.25 406.007812 C 681.492188 387.355469 677.875 353.230469 665.71875 337.347656 C 664.925781 336.316406 663.328125 336.449219 662.695312 337.585938 C 657.707031 346.597656 652.101562 355.273438 645.941406 363.53125 C 645.058594 364.714844 643.203125 364.410156 642.753906 363.007812 C 636.449219 343.402344 630.417969 323.304688 630.691406 302.867188 C 630.710938 301.171875 628.589844 300.390625 627.488281 301.683594 C 613.847656 317.710938 605.632812 338.265625 604.519531 359.253906 C 604.445312 360.648438 602.867188 361.433594 601.699219 360.652344 C 596.140625 356.933594 591.777344 351.457031 589.390625 345.222656 C 588.847656 343.804688 586.898438 343.632812 586.132812 344.941406 C 579.113281 356.90625 577.960938 372.175781 583.140625 385.042969 C 583.683594 386.390625 582.507812 387.796875 581.078125 387.496094 C 577.039062 386.644531 573.128906 385.179688 569.523438 383.171875 C 568.453125 382.570312 567.109375 383.179688 566.855469 384.382812 C 564.6875 394.625 566.753906 406.003906 571.203125 415.453125 C 589.210938 453.683594 649.789062 459.996094 671.425781 421.394531 C 674.117188 416.589844 676.03125 411.371094 677.25 406.007812 Z M 677.25 406.007812 "/><path style=" stroke:none;fill-rule:nonzero;fill:#f77f00;fill-opacity:1;" d="M 645.058594 401.675781 L 645.0625 401.675781 C 647.460938 393.738281 646.359375 384.484375 641.242188 378.066406 C 640.472656 377.097656 638.976562 377.214844 638.367188 378.292969 C 636.082031 382.339844 633.078125 385.980469 629.539062 389 C 628.511719 389.875 626.914062 389.304688 626.703125 387.972656 C 625.855469 382.632812 623.691406 376.542969 621.816406 371.21875 C 621.285156 369.707031 619.152344 369.675781 618.574219 371.167969 C 614.6875 381.203125 613.363281 385.640625 612.007812 394.332031 C 611.800781 395.660156 610.210938 396.25 609.179688 395.378906 C 607.261719 393.753906 605.339844 392.128906 603.417969 390.503906 C 602.511719 389.738281 601.125 390.089844 600.6875 391.191406 C 597.824219 398.414062 598.765625 407.078125 603.269531 413.4375 C 617.386719 433.371094 639.332031 420.617188 645.058594 401.675781 Z M 645.058594 401.675781 "/></g></svg>