<svg xmlns="http://www.w3.org/2000/svg" xmlns:xlink="http://www.w3.org/1999/xlink" width="1500" zoomAndPan="magnify" viewBox="0 0 1125 577.499988" height="770" preserveAspectRatio="xMidYMid meet" version="1.2"><defs><clipPath id="f1cbcbb0fc"><path d="M 454 233 L 484.566406 233 L 484.566406 311 L 454 311 Z M 454 233 "/></clipPath><clipPath id="6a6d4bdfd8"><path d="M 460 185 L 484.566406 185 L 484.566406 234 L 460 234 Z M 460 185 "/></clipPath><clipPath id="0df3ad64db"><path d="M 461 69.761719 L 484.566406 69.761719 L 484.566406 104 L 461 104 Z M 461 69.761719 "/></clipPath><clipPath id="c4c229b814"><path d="M 0.488281 299 L 67 299 L 67 379.992188 L 0.488281 379.992188 Z M 0.488281 299 "/></clipPath><clipPath id="46bd00ebd5"><path d="M 0.488281 95 L 33 95 L 33 113 L 0.488281 113 Z M 0.488281 95 "/></clipPath><clipPath id="7a7c627e77"><path d="M 0.488281 114 L 46 114 L 46 195 L 0.488281 195 Z M 0.488281 114 "/></clipPath><clipPath id="4722a7c9b6"><path d="M 145 499 L 234 499 L 234 577 L 145 577 Z M 145 499 "/></clipPath><clipPath id="c3d5a51f92"><path d="M 25 531 L 114 531 L 114 577 L 25 577 Z M 25 531 "/></clipPath><clipPath id="b36846dc68"><path d="M 93 517 L 166 517 L 166 577 L 93 577 Z M 93 517 "/></clipPath><clipPath id="20c14626aa"><path d="M 454 433 L 484.566406 433 L 484.566406 511 L 454 511 Z M 454 433 "/></clipPath><clipPath id="003ebc779b"><path d="M 460 510 L 484.566406 510 L 484.566406 559 L 460 559 Z M 460 510 "/></clipPath><clipPath id="e9bb5df345"><path d="M 0.488281 364.246094 L 67 364.246094 L 67 445 L 0.488281 445 Z M 0.488281 364.246094 "/></clipPath><clipPath id="3240dd8697"><path d="M 0.488281 549 L 46 549 L 46 577 L 0.488281 577 Z M 0.488281 549 "/></clipPath></defs><g id="f7fcccdc3e"><path style=" stroke:none;fill-rule:nonzero;fill:#000000;fill-opacity:1;" d="M 233.949219 244.394531 L 204.429688 168.019531 L 145.796875 152.546875 L 175.3125 228.929688 Z M 233.949219 244.394531 "/><path style=" stroke:none;fill-rule:nonzero;fill:#000000;fill-opacity:1;" d="M 285.953125 258.117188 L 256.4375 181.738281 L 213.921875 170.519531 L 243.4375 246.898438 Z M 285.953125 258.117188 "/><path style=" stroke:none;fill-rule:nonzero;fill:#000000;fill-opacity:1;" d="M 25.664062 120.851562 L 55.183594 197.230469 L 113.820312 212.703125 L 84.304688 136.324219 Z M 25.664062 120.851562 "/><path style=" stroke:none;fill-rule:nonzero;fill:#000000;fill-opacity:1;" d="M 249.628906 115.503906 L 264.863281 82.4375 L 243.96875 83.628906 L 228.730469 116.691406 Z M 249.628906 115.503906 "/><path style=" stroke:none;fill-rule:nonzero;fill:#000000;fill-opacity:1;" d="M 219.746094 117.203125 L 234.980469 84.136719 L 206.285156 85.777344 L 191.054688 118.839844 Z M 219.746094 117.203125 "/><path style=" stroke:none;fill-rule:nonzero;fill:#000000;fill-opacity:1;" d="M 114.503906 123.203125 L 129.738281 90.136719 L 108.839844 91.324219 L 93.605469 124.390625 Z M 114.503906 123.203125 "/><path style=" stroke:none;fill-rule:nonzero;fill:#000000;fill-opacity:1;" d="M 152.179688 121.054688 L 167.417969 87.988281 L 138.722656 89.625 L 123.492188 122.691406 Z M 152.179688 121.054688 "/><path style=" stroke:none;fill-rule:nonzero;fill:#000000;fill-opacity:1;" d="M 182.066406 119.355469 L 197.300781 86.289062 L 176.40625 87.476562 L 161.164062 120.542969 Z M 182.066406 119.355469 "/><path style=" stroke:none;fill-rule:nonzero;fill:#000000;fill-opacity:1;" d="M 165.828125 226.425781 L 136.3125 150.042969 L 93.789062 138.828125 L 123.304688 215.203125 Z M 165.828125 226.425781 "/><path style=" stroke:none;fill-rule:nonzero;fill:#000000;fill-opacity:1;" d="M 422.4375 105.65625 L 437.671875 72.59375 L 408.976562 74.226562 L 393.742188 107.289062 Z M 422.4375 105.65625 "/><path style=" stroke:none;fill-rule:nonzero;fill:#000000;fill-opacity:1;" d="M 418.316406 216.226562 L 452.328125 225.203125 L 462.601562 191.417969 L 422.523438 202.390625 Z M 418.316406 216.226562 "/><path style=" stroke:none;fill-rule:nonzero;fill:#000000;fill-opacity:1;" d="M 413.460938 204.875 L 394.734375 210.003906 L 410.625 214.199219 Z M 413.460938 204.875 "/><path style=" stroke:none;fill-rule:nonzero;fill:#000000;fill-opacity:1;" d="M 384.757812 107.804688 L 399.992188 74.738281 L 379.089844 75.929688 L 363.855469 108.996094 Z M 384.757812 107.804688 "/><path style=" stroke:none;fill-rule:nonzero;fill:#000000;fill-opacity:1;" d="M 287.308594 113.355469 L 302.542969 80.289062 L 273.847656 81.925781 L 258.617188 114.992188 Z M 287.308594 113.355469 "/><path style=" stroke:none;fill-rule:nonzero;fill:#000000;fill-opacity:1;" d="M 317.195312 111.652344 L 332.429688 78.585938 L 311.527344 79.78125 L 296.292969 112.84375 Z M 317.195312 111.652344 "/><path style=" stroke:none;fill-rule:nonzero;fill:#000000;fill-opacity:1;" d="M 354.871094 109.507812 L 370.105469 76.441406 L 341.414062 78.074219 L 326.183594 111.140625 Z M 354.871094 109.507812 "/><path style=" stroke:none;fill-rule:nonzero;fill:#000000;fill-opacity:1;" d="M 452.316406 103.953125 L 467.554688 70.886719 L 446.660156 72.078125 L 431.421875 105.144531 Z M 452.316406 103.953125 "/><path style=" stroke:none;fill-rule:nonzero;fill:#000000;fill-opacity:1;" d="M 386.058594 215.9375 L 415.574219 292.3125 L 474.210938 307.785156 L 444.691406 231.402344 Z M 386.058594 215.9375 "/><path style=" stroke:none;fill-rule:nonzero;fill:#000000;fill-opacity:1;" d="M 334.050781 202.214844 L 363.566406 278.59375 L 406.089844 289.816406 L 376.574219 213.433594 Z M 334.050781 202.214844 "/><path style=" stroke:none;fill-rule:nonzero;fill:#000000;fill-opacity:1;" d="M 265.925781 184.242188 L 295.445312 260.617188 L 354.082031 276.089844 L 324.566406 199.714844 Z M 265.925781 184.242188 "/><path style=" stroke:none;fill-rule:nonzero;fill:#000000;fill-opacity:1;" d="M 335.519531 288.011719 L 351.503906 283.632812 L 337.941406 280.050781 Z M 335.519531 288.011719 "/><path style=" stroke:none;fill-rule:nonzero;fill:#000000;fill-opacity:1;" d="M 74.386719 125.488281 L 84.617188 124.902344 L 99.851562 91.839844 L 71.164062 93.476562 L 58.359375 121.261719 Z M 74.386719 125.488281 "/><g clip-rule="nonzero" clip-path="url(#f1cbcbb0fc)"><path style=" stroke:none;fill-rule:nonzero;fill:#000000;fill-opacity:1;" d="M 483.695312 310.289062 L 484.566406 310.519531 L 484.566406 241.925781 L 454.179688 233.90625 Z M 483.695312 310.289062 "/></g><path style=" stroke:none;fill-rule:nonzero;fill:#000000;fill-opacity:1;" d="M 286.375 301.472656 L 326.453125 290.492188 L 330.25 278.023438 L 296.238281 269.050781 Z M 286.375 301.472656 "/><g clip-rule="nonzero" clip-path="url(#6a6d4bdfd8)"><path style=" stroke:none;fill-rule:nonzero;fill:#000000;fill-opacity:1;" d="M 460.019531 227.226562 L 484.566406 233.707031 L 484.566406 185.398438 L 471.671875 188.933594 Z M 460.019531 227.226562 "/></g><g clip-rule="nonzero" clip-path="url(#0df3ad64db)"><path style=" stroke:none;fill-rule:nonzero;fill:#000000;fill-opacity:1;" d="M 476.539062 70.375 L 461.308594 103.441406 L 484.566406 102.117188 L 484.566406 69.917969 Z M 476.539062 70.375 "/></g><g clip-rule="nonzero" clip-path="url(#c4c229b814)"><path style=" stroke:none;fill-rule:nonzero;fill:#000000;fill-opacity:1;" d="M -0.261719 318.203125 L -0.261719 379.988281 L 46.019531 367.308594 L 66.519531 299.910156 Z M -0.261719 318.203125 "/></g><g clip-rule="nonzero" clip-path="url(#46bd00ebd5)"><path style=" stroke:none;fill-rule:nonzero;fill:#000000;fill-opacity:1;" d="M 32.289062 95.6875 L -0.261719 97.542969 L -0.261719 105.792969 L 24.609375 112.355469 Z M 32.289062 95.6875 "/></g><path style=" stroke:none;fill-rule:nonzero;fill:#000000;fill-opacity:1;" d="M 239.808594 254.164062 L 219.875 319.6875 L 277.308594 303.957031 L 288.546875 267.019531 Z M 239.808594 254.164062 "/><path style=" stroke:none;fill-rule:nonzero;fill:#000000;fill-opacity:1;" d="M 62.175781 93.988281 L 41.277344 95.175781 L 32.414062 114.414062 L 50.558594 119.203125 Z M 62.175781 93.988281 "/><g clip-rule="nonzero" clip-path="url(#7a7c627e77)"><path style=" stroke:none;fill-rule:nonzero;fill:#000000;fill-opacity:1;" d="M 16.179688 118.347656 L -0.261719 114.011719 L -0.261719 182.605469 L 45.695312 194.730469 Z M 16.179688 118.347656 "/></g><path style=" stroke:none;fill-rule:nonzero;fill:#000000;fill-opacity:1;" d="M 191.234375 265.75 L 170.730469 333.148438 L 210.808594 322.167969 L 231.3125 254.769531 Z M 191.234375 265.75 "/><path style=" stroke:none;fill-rule:nonzero;fill:#000000;fill-opacity:1;" d="M 75.589844 297.425781 L 55.082031 364.824219 L 95.160156 353.847656 L 115.667969 286.449219 Z M 75.589844 297.425781 "/><path style=" stroke:none;fill-rule:nonzero;fill:#000000;fill-opacity:1;" d="M 124.730469 283.964844 L 104.226562 351.363281 L 161.664062 335.628906 L 182.167969 268.230469 Z M 124.730469 283.964844 "/><g clip-rule="nonzero" clip-path="url(#4722a7c9b6)"><path style=" stroke:none;fill-rule:nonzero;fill:#000000;fill-opacity:1;" d="M 233.949219 499.671875 L 204.429688 576.050781 L 145.796875 591.523438 L 175.3125 515.140625 Z M 233.949219 499.671875 "/></g><path style=" stroke:none;fill-rule:nonzero;fill:#000000;fill-opacity:1;" d="M 285.953125 485.953125 L 256.4375 562.332031 L 213.921875 573.546875 L 243.4375 497.171875 Z M 285.953125 485.953125 "/><g clip-rule="nonzero" clip-path="url(#c3d5a51f92)"><path style=" stroke:none;fill-rule:nonzero;fill:#000000;fill-opacity:1;" d="M 25.664062 623.21875 L 55.183594 546.839844 L 113.820312 531.367188 L 84.304688 607.746094 Z M 25.664062 623.21875 "/></g><g clip-rule="nonzero" clip-path="url(#b36846dc68)"><path style=" stroke:none;fill-rule:nonzero;fill:#000000;fill-opacity:1;" d="M 165.828125 517.644531 L 136.3125 594.027344 L 93.789062 605.242188 L 123.304688 528.867188 Z M 165.828125 517.644531 "/></g><path style=" stroke:none;fill-rule:nonzero;fill:#000000;fill-opacity:1;" d="M 418.316406 527.84375 L 452.328125 518.867188 L 462.601562 552.652344 L 422.523438 541.679688 Z M 418.316406 527.84375 "/><path style=" stroke:none;fill-rule:nonzero;fill:#000000;fill-opacity:1;" d="M 413.460938 539.195312 L 394.734375 534.066406 L 410.625 529.871094 Z M 413.460938 539.195312 "/><path style=" stroke:none;fill-rule:nonzero;fill:#000000;fill-opacity:1;" d="M 386.058594 528.132812 L 415.574219 451.757812 L 474.210938 436.285156 L 444.691406 512.667969 Z M 386.058594 528.132812 "/><path style=" stroke:none;fill-rule:nonzero;fill:#000000;fill-opacity:1;" d="M 334.050781 541.855469 L 363.566406 465.476562 L 406.089844 454.253906 L 376.574219 530.636719 Z M 334.050781 541.855469 "/><path style=" stroke:none;fill-rule:nonzero;fill:#000000;fill-opacity:1;" d="M 265.925781 559.828125 L 295.445312 483.449219 L 354.082031 467.980469 L 324.566406 544.355469 Z M 265.925781 559.828125 "/><path style=" stroke:none;fill-rule:nonzero;fill:#000000;fill-opacity:1;" d="M 335.519531 456.058594 L 351.503906 460.4375 L 337.941406 464.015625 Z M 335.519531 456.058594 "/><g clip-rule="nonzero" clip-path="url(#20c14626aa)"><path style=" stroke:none;fill-rule:nonzero;fill:#000000;fill-opacity:1;" d="M 483.695312 433.78125 L 484.566406 433.550781 L 484.566406 502.144531 L 454.179688 510.164062 Z M 483.695312 433.78125 "/></g><path style=" stroke:none;fill-rule:nonzero;fill:#000000;fill-opacity:1;" d="M 286.375 442.597656 L 326.453125 453.574219 L 330.25 466.046875 L 296.238281 475.019531 Z M 286.375 442.597656 "/><g clip-rule="nonzero" clip-path="url(#003ebc779b)"><path style=" stroke:none;fill-rule:nonzero;fill:#000000;fill-opacity:1;" d="M 460.019531 516.84375 L 484.566406 510.363281 L 484.566406 558.671875 L 471.671875 555.136719 Z M 460.019531 516.84375 "/></g><g clip-rule="nonzero" clip-path="url(#e9bb5df345)"><path style=" stroke:none;fill-rule:nonzero;fill:#000000;fill-opacity:1;" d="M -0.261719 425.867188 L -0.261719 364.082031 L 46.019531 376.761719 L 66.519531 444.160156 Z M -0.261719 425.867188 "/></g><path style=" stroke:none;fill-rule:nonzero;fill:#000000;fill-opacity:1;" d="M 239.808594 489.90625 L 219.875 424.382812 L 277.308594 440.113281 L 288.546875 477.050781 Z M 239.808594 489.90625 "/><g clip-rule="nonzero" clip-path="url(#3240dd8697)"><path style=" stroke:none;fill-rule:nonzero;fill:#000000;fill-opacity:1;" d="M 16.179688 625.722656 L -0.261719 630.054688 L -0.261719 561.464844 L 45.695312 549.339844 Z M 16.179688 625.722656 "/></g><path style=" stroke:none;fill-rule:nonzero;fill:#000000;fill-opacity:1;" d="M 191.234375 478.320312 L 170.730469 410.921875 L 210.808594 421.902344 L 231.3125 489.300781 Z M 191.234375 478.320312 "/><path style=" stroke:none;fill-rule:nonzero;fill:#000000;fill-opacity:1;" d="M 75.589844 446.640625 L 55.082031 379.242188 L 95.160156 390.222656 L 115.667969 457.621094 Z M 75.589844 446.640625 "/><path style=" stroke:none;fill-rule:nonzero;fill:#000000;fill-opacity:1;" d="M 124.730469 460.105469 L 104.226562 392.707031 L 161.664062 408.441406 L 182.167969 475.839844 Z M 124.730469 460.105469 "/></g></svg>