<svg xmlns="http://www.w3.org/2000/svg" xmlns:xlink="http://www.w3.org/1999/xlink" width="1500" zoomAndPan="magnify" viewBox="0 0 1125 577.499988" height="770" preserveAspectRatio="xMidYMid meet" version="1.2"><defs><clipPath id="7594e5c3b4"><path d="M 59 84 L 189 84 L 189 206 L 59 206 Z M 59 84 "/></clipPath><clipPath id="3711d231ea"><path d="M 39.363281 112.273438 L 179.429688 68.082031 L 209.191406 162.414062 L 69.125 206.601562 Z M 39.363281 112.273438 "/></clipPath><clipPath id="98d1d36583"><path d="M 39.363281 112.273438 L 179.429688 68.082031 L 209.191406 162.414062 L 69.125 206.601562 Z M 39.363281 112.273438 "/></clipPath><clipPath id="16c024bc75"><path d="M 104 94 L 115 94 L 115 206 L 104 206 Z M 104 94 "/></clipPath><clipPath id="0b2c22ce64"><path d="M 39.363281 112.273438 L 179.429688 68.082031 L 209.191406 162.414062 L 69.125 206.601562 Z M 39.363281 112.273438 "/></clipPath><clipPath id="1a004e0f21"><path d="M 39.363281 112.273438 L 179.429688 68.082031 L 209.191406 162.414062 L 69.125 206.601562 Z M 39.363281 112.273438 "/></clipPath><clipPath id="695a0e2aa8"><path d="M 38.757812 111.765625 L 178.949219 67.539062 L 208.933594 162.582031 L 68.742188 206.808594 Z M 38.757812 111.765625 "/></clipPath><clipPath id="09263f1b16"><path d="M 69.152344 205.554688 L 59.625 145.753906 L 118.121094 145.101562 L 128.257812 84.199219 L 188.140625 97.464844 L 182.703125 124.175781 L 156.753906 123.707031 L 149.058594 169.152344 C 149.058594 169.152344 111.105469 177.84375 93.019531 175.476562 L 97.363281 197.699219 Z M 69.152344 205.554688 "/></clipPath><clipPath id="b26b7ebbd9"><path d="M 128 84 L 139 84 L 139 192 L 128 192 Z M 128 84 "/></clipPath><clipPath id="72344bddd5"><path d="M 39.363281 112.273438 L 179.429688 68.082031 L 209.191406 162.414062 L 69.125 206.601562 Z M 39.363281 112.273438 "/></clipPath><clipPath id="1592cbc501"><path d="M 39.363281 112.273438 L 179.429688 68.082031 L 209.191406 162.414062 L 69.125 206.601562 Z M 39.363281 112.273438 "/></clipPath><clipPath id="d59abc3b76"><path d="M 38.757812 111.765625 L 178.949219 67.539062 L 208.933594 162.582031 L 68.742188 206.808594 Z M 38.757812 111.765625 "/></clipPath><clipPath id="298813bb31"><path d="M 69.152344 205.554688 L 59.625 145.753906 L 118.121094 145.101562 L 128.257812 84.199219 L 188.140625 97.464844 L 182.703125 124.175781 L 156.753906 123.707031 L 149.058594 169.152344 C 149.058594 169.152344 111.105469 177.84375 93.019531 175.476562 L 97.363281 197.699219 Z M 69.152344 205.554688 "/></clipPath><clipPath id="54f6125b2d"><path d="M 151 84 L 165 84 L 165 171 L 151 171 Z M 151 84 "/></clipPath><clipPath id="af15383282"><path d="M 39.363281 112.273438 L 179.429688 68.082031 L 209.191406 162.414062 L 69.125 206.601562 Z M 39.363281 112.273438 "/></clipPath><clipPath id="ccf3f4a2ce"><path d="M 39.363281 112.273438 L 179.429688 68.082031 L 209.191406 162.414062 L 69.125 206.601562 Z M 39.363281 112.273438 "/></clipPath><clipPath id="5ea8f53c05"><path d="M 38.757812 111.765625 L 178.949219 67.539062 L 208.933594 162.582031 L 68.742188 206.808594 Z M 38.757812 111.765625 "/></clipPath><clipPath id="66da70e33f"><path d="M 69.152344 205.554688 L 59.625 145.753906 L 118.121094 145.101562 L 128.257812 84.199219 L 188.140625 97.464844 L 182.703125 124.175781 L 156.753906 123.707031 L 149.058594 169.152344 C 149.058594 169.152344 111.105469 177.84375 93.019531 175.476562 L 97.363281 197.699219 Z M 69.152344 205.554688 "/></clipPath><clipPath id="5fc99faad4"><path d="M 79 114 L 93 114 L 93 206 L 79 206 Z M 79 114 "/></clipPath><clipPath id="68bce5a330"><path d="M 39.363281 112.273438 L 179.429688 68.082031 L 209.191406 162.414062 L 69.125 206.601562 Z M 39.363281 112.273438 "/></clipPath><clipPath id="5471e6e95d"><path d="M 39.363281 112.273438 L 179.429688 68.082031 L 209.191406 162.414062 L 69.125 206.601562 Z M 39.363281 112.273438 "/></clipPath><clipPath id="2fdced1364"><path d="M 38.757812 111.765625 L 178.949219 67.539062 L 208.933594 162.582031 L 68.742188 206.808594 Z M 38.757812 111.765625 "/></clipPath><clipPath id="4e15beec7b"><path d="M 69.152344 205.554688 L 59.625 145.753906 L 118.121094 145.101562 L 128.257812 84.199219 L 188.140625 97.464844 L 182.703125 124.175781 L 156.753906 123.707031 L 149.058594 169.152344 C 149.058594 169.152344 111.105469 177.84375 93.019531 175.476562 L 97.363281 197.699219 Z M 69.152344 205.554688 "/></clipPath><clipPath id="3bdfb1d5b6"><path d="M 176 84 L 188 84 L 188 150 L 176 150 Z M 176 84 "/></clipPath><clipPath id="410d677665"><path d="M 39.363281 112.273438 L 179.429688 68.082031 L 209.191406 162.414062 L 69.125 206.601562 Z M 39.363281 112.273438 "/></clipPath><clipPath id="266e9e5e59"><path d="M 39.363281 112.273438 L 179.429688 68.082031 L 209.191406 162.414062 L 69.125 206.601562 Z M 39.363281 112.273438 "/></clipPath><clipPath id="42f9370a94"><path d="M 38.757812 111.765625 L 178.949219 67.539062 L 208.933594 162.582031 L 68.742188 206.808594 Z M 38.757812 111.765625 "/></clipPath><clipPath id="df40cc87e5"><path d="M 69.152344 205.554688 L 59.625 145.753906 L 118.121094 145.101562 L 128.257812 84.199219 L 188.140625 97.464844 L 182.703125 124.175781 L 156.753906 123.707031 L 149.058594 169.152344 C 149.058594 169.152344 111.105469 177.84375 93.019531 175.476562 L 97.363281 197.699219 Z M 69.152344 205.554688 "/></clipPath><clipPath id="0ef284fd55"><path d="M 59 136 L 67 136 L 67 202 L 59 202 Z M 59 136 "/></clipPath><clipPath id="604779c24d"><path d="M 39.363281 112.273438 L 179.429688 68.082031 L 209.191406 162.414062 L 69.125 206.601562 Z M 39.363281 112.273438 "/></clipPath><clipPath id="2be3f8c1e3"><path d="M 39.363281 112.273438 L 179.429688 68.082031 L 209.191406 162.414062 L 69.125 206.601562 Z M 39.363281 112.273438 "/></clipPath><clipPath id="4d797cc1f1"><path d="M 38.757812 111.765625 L 178.949219 67.539062 L 208.933594 162.582031 L 68.742188 206.808594 Z M 38.757812 111.765625 "/></clipPath><clipPath id="7777918d47"><path d="M 69.152344 205.554688 L 59.625 145.753906 L 118.121094 145.101562 L 128.257812 84.199219 L 188.140625 97.464844 L 182.703125 124.175781 L 156.753906 123.707031 L 149.058594 169.152344 C 149.058594 169.152344 111.105469 177.84375 93.019531 175.476562 L 97.363281 197.699219 Z M 69.152344 205.554688 "/></clipPath><clipPath id="9c6a67e64a"><path d="M 59 84 L 189 84 L 189 206 L 59 206 Z M 59 84 "/></clipPath><clipPath id="a3aab688a2"><path d="M 39.363281 112.273438 L 179.429688 68.082031 L 209.191406 162.414062 L 69.125 206.601562 Z M 39.363281 112.273438 "/></clipPath><clipPath id="4d7682df6e"><path d="M 39.363281 112.273438 L 179.429688 68.082031 L 209.191406 162.414062 L 69.125 206.601562 Z M 39.363281 112.273438 "/></clipPath><clipPath id="2f9f0931f0"><path d="M 38.757812 111.765625 L 178.949219 67.539062 L 208.933594 162.582031 L 68.742188 206.808594 Z M 38.757812 111.765625 "/></clipPath><clipPath id="a6df7c84ec"><path d="M 69.152344 205.554688 L 59.625 145.753906 L 118.121094 145.101562 L 128.257812 84.199219 L 188.140625 97.464844 L 182.703125 124.175781 L 156.753906 123.707031 L 149.058594 169.152344 C 149.058594 169.152344 111.105469 177.84375 93.019531 175.476562 L 97.363281 197.699219 Z M 69.152344 205.554688 "/></clipPath><filter x="0%" y="0%" width="100%" filterUnits="objectBoundingBox" id="bdc9da6586" height="100%"><feColorMatrix values="0 0 0 0 1 0 0 0 0 1 0 0 0 0 1 0 0 0 1 0" type="matrix" in="SourceGraphic"/></filter><clipPath id="8e4472e65e"><path d="M 5 0.167969 L 114 0.167969 L 114 121.742188 L 5 121.742188 Z M 5 0.167969 "/></clipPath><clipPath id="16471c9f7d"><path d="M -19.636719 28.273438 L 120.429688 -15.917969 L 150.191406 78.414062 L 10.125 122.601562 Z M -19.636719 28.273438 "/></clipPath><clipPath id="62505c85ff"><path d="M -19.636719 28.273438 L 120.429688 -15.917969 L 150.191406 78.414062 L 10.125 122.601562 Z M -19.636719 28.273438 "/></clipPath><clipPath id="bb2640b1ab"><path d="M -20.242188 27.765625 L 119.949219 -16.460938 L 149.933594 78.582031 L 9.742188 122.808594 Z M -20.242188 27.765625 "/></clipPath><clipPath id="63db0af06a"><path d="M 10.152344 121.554688 L 0.625 61.753906 L 59.121094 61.101562 L 69.257812 0.199219 L 129.140625 13.464844 L 123.703125 40.175781 L 97.753906 39.707031 L 90.058594 85.152344 C 90.058594 85.152344 52.105469 93.84375 34.019531 91.476562 L 38.363281 113.699219 Z M 10.152344 121.554688 "/></clipPath><clipPath id="7efe9f11df"><rect x="0" width="130" y="0" height="122"/></clipPath></defs><g id="165ac6e302"><g clip-rule="nonzero" clip-path="url(#7594e5c3b4)"><g clip-rule="nonzero" clip-path="url(#3711d231ea)"><g clip-rule="nonzero" clip-path="url(#98d1d36583)"><path style=" stroke:none;fill-rule:nonzero;fill:#4a7934;fill-opacity:1;" d="M 69.152344 205.554688 L 59.625 145.753906 L 118.121094 145.101562 L 128.257812 84.199219 L 188.140625 97.464844 L 182.703125 124.175781 L 156.753906 123.707031 L 149.058594 169.152344 C 149.058594 169.152344 111.105469 177.84375 93.019531 175.476562 L 97.363281 197.699219 Z M 69.152344 205.554688 "/></g></g></g><g clip-rule="nonzero" clip-path="url(#16c024bc75)"><g clip-rule="nonzero" clip-path="url(#0b2c22ce64)"><g clip-rule="nonzero" clip-path="url(#1a004e0f21)"><g clip-rule="nonzero" clip-path="url(#695a0e2aa8)"><g clip-rule="nonzero" clip-path="url(#09263f1b16)"><path style=" stroke:none;fill-rule:nonzero;fill:#2a2a75;fill-opacity:1;" d="M 105.066406 102.40625 L 114.222656 94.398438 C 113.289062 130.480469 112.339844 167.164062 111.390625 203.847656 L 113.832031 204.238281 L 104.101562 212.746094 L 107.046875 103.21875 Z M 105.066406 102.40625 "/></g></g></g></g></g><g clip-rule="nonzero" clip-path="url(#b26b7ebbd9)"><g clip-rule="nonzero" clip-path="url(#72344bddd5)"><g clip-rule="nonzero" clip-path="url(#1592cbc501)"><g clip-rule="nonzero" clip-path="url(#d59abc3b76)"><g clip-rule="nonzero" clip-path="url(#298813bb31)"><path style=" stroke:none;fill-rule:nonzero;fill:#2a2a75;fill-opacity:1;" d="M 137.917969 183.144531 L 128.183594 191.652344 C 129.109375 155.40625 130.046875 118.664062 130.984375 81.925781 L 128.960938 81.550781 L 138.800781 72.949219 C 137.757812 109.375 136.707031 146.089844 135.652344 182.808594 Z M 137.917969 183.144531 "/></g></g></g></g></g><g clip-rule="nonzero" clip-path="url(#54f6125b2d)"><g clip-rule="nonzero" clip-path="url(#af15383282)"><g clip-rule="nonzero" clip-path="url(#ccf3f4a2ce)"><g clip-rule="nonzero" clip-path="url(#5ea8f53c05)"><g clip-rule="nonzero" clip-path="url(#66da70e33f)"><path style=" stroke:none;fill-rule:nonzero;fill:#2a2a75;fill-opacity:1;" d="M 154.480469 59.417969 L 158.867188 55.585938 L 164.890625 62.472656 C 164.433594 78.5 163.914062 95.265625 163.488281 112.042969 C 163.066406 128.636719 162.746094 145.246094 162.386719 161.492188 L 151.691406 170.84375 C 152.609375 134.214844 153.523438 97.628906 154.480469 59.417969 Z M 154.480469 59.417969 "/></g></g></g></g></g><g clip-rule="nonzero" clip-path="url(#5fc99faad4)"><g clip-rule="nonzero" clip-path="url(#68bce5a330)"><g clip-rule="nonzero" clip-path="url(#5471e6e95d)"><g clip-rule="nonzero" clip-path="url(#2fdced1364)"><g clip-rule="nonzero" clip-path="url(#4e15beec7b)"><path style=" stroke:none;fill-rule:nonzero;fill:#2a2a75;fill-opacity:1;" d="M 86.929688 227.496094 L 79.046875 218.472656 C 79.835938 186.902344 80.621094 155.660156 81.429688 123.234375 L 91.164062 114.726562 C 93.679688 123.347656 90.175781 224.164062 86.929688 227.496094 Z M 86.929688 227.496094 "/></g></g></g></g></g><g clip-rule="nonzero" clip-path="url(#3bdfb1d5b6)"><g clip-rule="nonzero" clip-path="url(#410d677665)"><g clip-rule="nonzero" clip-path="url(#266e9e5e59)"><g clip-rule="nonzero" clip-path="url(#42f9370a94)"><g clip-rule="nonzero" clip-path="url(#df40cc87e5)"><path style=" stroke:none;fill-rule:nonzero;fill:#2a2a75;fill-opacity:1;" d="M 186.839844 140.398438 L 176.585938 149.363281 C 177.183594 125.816406 177.792969 101.730469 178.390625 78.28125 C 183.734375 81.082031 187.75 87.46875 187.625 94.558594 C 187.351562 109.992188 187.09375 125.433594 186.839844 140.398438 Z M 186.839844 140.398438 "/></g></g></g></g></g><g clip-rule="nonzero" clip-path="url(#0ef284fd55)"><g clip-rule="nonzero" clip-path="url(#604779c24d)"><g clip-rule="nonzero" clip-path="url(#2be3f8c1e3)"><g clip-rule="nonzero" clip-path="url(#4d797cc1f1)"><g clip-rule="nonzero" clip-path="url(#7777918d47)"><path style=" stroke:none;fill-rule:nonzero;fill:#2a2a75;fill-opacity:1;" d="M 56.179688 144.855469 C 59.511719 141.941406 62.273438 139.5 65.070312 137.105469 C 65.398438 136.820312 65.761719 136.601562 66.167969 136.445312 L 64.488281 201.707031 C 60.757812 197.414062 54.652344 193.714844 55.269531 184.90625 C 56.207031 171.695312 55.933594 158.296875 56.179688 144.855469 Z M 56.179688 144.855469 "/></g></g></g></g></g><g clip-rule="nonzero" clip-path="url(#9c6a67e64a)"><g clip-rule="nonzero" clip-path="url(#a3aab688a2)"><g clip-rule="nonzero" clip-path="url(#4d7682df6e)"><g clip-rule="nonzero" clip-path="url(#2f9f0931f0)"><g clip-rule="nonzero" clip-path="url(#a6df7c84ec)"><g mask="url(#86ad4fe8a6)" transform="matrix(1,0,0,1,59,84)"><g clip-path="url(#7efe9f11df)"><g clip-rule="nonzero" clip-path="url(#8e4472e65e)"><g clip-rule="nonzero" clip-path="url(#16471c9f7d)"><g clip-rule="nonzero" clip-path="url(#62505c85ff)"><g clip-rule="nonzero" clip-path="url(#bb2640b1ab)"><g clip-rule="nonzero" clip-path="url(#63db0af06a)"><path style=" stroke:none;fill-rule:nonzero;fill:#ffffff;fill-opacity:1;" d="M 66.148438 47.84375 C 66.339844 47.621094 66.71875 47.375 66.679688 47.183594 C 66.484375 46.289062 67.199219 46.101562 67.726562 45.757812 C 68.09375 45.519531 68.457031 45.28125 68.925781 44.976562 C 67.824219 44.25 68.917969 43.742188 68.820312 43.117188 L 68.269531 43.328125 L 68.898438 41.675781 C 68.765625 41.65625 68.636719 41.652344 68.503906 41.664062 C 68.371094 41.679688 68.242188 41.707031 68.117188 41.753906 C 67.992188 41.800781 67.875 41.859375 67.769531 41.9375 C 67.660156 42.011719 67.558594 42.097656 67.472656 42.199219 C 67.386719 42.300781 67.3125 42.410156 67.253906 42.527344 C 67.195312 42.648438 67.152344 42.773438 67.125 42.902344 C 67.097656 43.03125 67.085938 43.164062 67.09375 43.296875 C 67.097656 43.429688 67.121094 43.558594 67.160156 43.683594 C 67.234375 43.855469 67.277344 44.03125 67.285156 44.214844 C 67.296875 44.398438 67.273438 44.578125 67.21875 44.757812 C 67.164062 44.933594 67.078125 45.09375 66.964844 45.238281 C 66.851562 45.382812 66.714844 45.503906 66.558594 45.601562 C 66.398438 45.140625 66.273438 44.667969 66.183594 44.1875 C 66.085938 43.164062 66.058594 42.136719 65.988281 41.117188 C 65.941406 40.480469 65.769531 40.304688 65.214844 40.257812 C 65.273438 40.507812 65.296875 40.757812 65.285156 41.011719 C 65.253906 41.226562 65.140625 41.382812 64.949219 41.488281 C 64.195312 41.714844 63.734375 42.328125 64.175781 42.894531 C 64.683594 43.597656 64.851562 44.375 64.675781 45.222656 C 64.648438 45.402344 64.6875 45.5625 64.789062 45.710938 C 65.3125 46.226562 65.140625 46.703125 64.847656 47.183594 Z M 50.738281 40.074219 C 50.78125 39.941406 50.777344 39.75 50.875 39.683594 C 51.695312 39.128906 51.074219 38.726562 50.589844 38.140625 L 49.929688 39.667969 Z M 59.496094 44.488281 C 59.972656 44.09375 60.191406 43.671875 59.585938 43.042969 L 58.683594 44.082031 Z M 70.203125 49.886719 C 70.546875 49.476562 70.996094 49.089844 70.351562 48.285156 L 69.554688 49.558594 Z M 56.902344 43.179688 L 56.71875 41.976562 L 56.445312 41.933594 L 55.761719 42.613281 Z M 97.613281 36.269531 C 96.824219 36.675781 96.5 37.042969 96.511719 37.703125 C 96.527344 38.484375 96.429688 39.261719 96.378906 40.042969 L 96.046875 40.003906 C 96.089844 39.230469 96.09375 38.453125 96.050781 37.679688 C 96.007812 37.375 96.050781 37.085938 96.171875 36.808594 C 96.289062 36.527344 96.472656 36.300781 96.71875 36.121094 C 96.964844 35.941406 97.238281 35.835938 97.542969 35.808594 C 97.84375 35.78125 98.132812 35.832031 98.40625 35.960938 L 98.441406 37.820312 C 99.472656 37.613281 99.574219 37.269531 99.480469 36.4375 C 99.339844 35.109375 98.683594 33.726562 99.519531 32.449219 C 99.617188 32.304688 99.574219 32.074219 99.601562 31.882812 L 99.277344 31.777344 L 98.585938 33.414062 L 98.355469 33.3125 L 98.714844 31.691406 L 97.210938 31.660156 C 97.601562 30.535156 97.746094 29.378906 97.636719 28.1875 L 98.136719 27.40625 C 96.25 27.871094 95.621094 28.5 95.8125 29.503906 L 96.824219 28.464844 L 97.035156 28.628906 C 96.742188 29.070312 96.550781 29.738281 96.125 29.902344 C 94.90625 30.359375 94.742188 30.523438 94.554688 31.777344 C 94.484375 32.527344 94.21875 33.199219 93.753906 33.796875 C 92.90625 34.59375 91.996094 35.316406 91.027344 35.964844 C 90.171875 36.617188 90.089844 36.992188 90.5625 38.007812 C 90.816406 38.4375 90.925781 38.902344 90.890625 39.398438 C 90.855469 39.894531 90.683594 40.335938 90.375 40.726562 C 90.203125 40.945312 90.058594 41.488281 90.136719 41.539062 C 90.742188 41.941406 90.519531 42.480469 90.625 42.976562 C 90.789062 43.230469 91.023438 43.378906 91.320312 43.425781 C 91.792969 43.082031 92.234375 42.707031 92.652344 42.296875 L 91.496094 41.839844 L 91.484375 41.5625 C 91.855469 41.472656 92.21875 41.363281 92.574219 41.226562 C 92.839844 41.109375 93.207031 40.933594 93.253906 40.71875 C 93.390625 40.078125 93.429688 39.433594 93.375 38.78125 C 93.246094 38.410156 93.042969 38.078125 92.773438 37.789062 C 92.628906 37.574219 92.292969 37.28125 92.34375 37.175781 C 92.480469 36.914062 92.773438 36.570312 93.023438 36.566406 C 93.636719 36.59375 94.242188 36.675781 94.839844 36.808594 L 95.066406 37.761719 L 94.261719 38.132812 L 94.835938 39.402344 L 95.824219 39.902344 C 94.527344 40.152344 94.496094 40.203125 94.621094 41.285156 C 94.648438 41.457031 94.636719 41.625 94.582031 41.789062 C 94.246094 42.589844 94.742188 43.238281 95.027344 43.929688 L 95.28125 43.949219 L 95.613281 40.464844 L 96.492188 40.851562 Z M 76.699219 2.003906 C 76.824219 2.539062 77.042969 3.117188 76.203125 3.265625 L 76.210938 3.261719 L 74.980469 4.597656 C 75.085938 4.679688 75.195312 4.753906 75.3125 4.824219 C 75.652344 5.015625 76.285156 5.199219 76.292969 5.378906 C 76.332031 6.429688 77.273438 7.023438 77.695312 7.867188 C 77.792969 8.074219 78.308594 8.109375 78.632812 8.222656 C 78.738281 7.539062 79.121094 6.761719 78.875 6.195312 C 78.617188 5.71875 78.566406 5.214844 78.710938 4.695312 C 78.84375 4.152344 78.929688 3.605469 78.972656 3.050781 C 79.097656 1.886719 78.566406 0.574219 79.660156 -0.378906 C 79.722656 -0.429688 79.472656 -0.949219 79.257812 -1.09375 C 79.085938 -1.207031 78.742188 -1.105469 78.484375 -1.054688 C 77.855469 -0.929688 77.652344 -1.164062 77.753906 -1.746094 C 77.796875 -1.992188 77.796875 -2.238281 77.75 -2.480469 M 104.402344 16.289062 C 105.132812 16.398438 105.167969 16.84375 104.953125 17.40625 C 104.867188 17.585938 104.824219 17.777344 104.828125 17.980469 C 104.886719 18.152344 104.976562 18.308594 105.097656 18.445312 C 105.222656 18.355469 105.433594 18.289062 105.464844 18.167969 C 105.625 17.574219 105.722656 16.957031 105.875 16.359375 C 106.019531 15.746094 106.21875 15.152344 106.472656 14.578125 C 107.144531 17.164062 107.480469 18.441406 103.804688 19.640625 C 104.664062 20.976562 104.019531 22.210938 103.824219 23.710938 L 103.40625 23.058594 C 103.316406 23.171875 103.214844 23.238281 103.222656 23.300781 C 103.296875 23.921875 103.433594 24.539062 103.457031 25.160156 C 103.421875 25.550781 103.355469 25.9375 103.257812 26.316406 C 103.242188 26.433594 103.355469 26.574219 103.410156 26.703125 L 103.660156 26.757812 C 103.449219 27.082031 103.257812 27.417969 103.082031 27.761719 C 102.992188 28.011719 102.945312 28.273438 102.941406 28.539062 C 102.914062 29.179688 102.941406 29.828125 102.878906 30.464844 C 102.863281 30.636719 102.617188 30.773438 102.480469 30.925781 C 102.304688 30.75 102.023438 30.589844 101.976562 30.390625 C 101.808594 29.703125 101.703125 29.007812 101.660156 28.304688 C 101.648438 28.097656 101.992188 27.90625 102.140625 27.6875 C 102.328125 27.410156 102.640625 27.117188 102.632812 26.824219 C 102.578125 26.109375 102.472656 25.40625 102.316406 24.707031 C 102.265625 24.417969 102.15625 24.132812 102.074219 23.84375 C 101.824219 24.082031 101.601562 24.347656 101.414062 24.640625 C 101.292969 24.875 101.375 25.214844 101.273438 25.46875 C 101.171875 25.667969 101.011719 25.789062 100.789062 25.820312 C 100.574219 25.746094 100.429688 25.601562 100.351562 25.390625 C 99.992188 24.339844 100.152344 24.035156 101.152344 23.503906 C 101.394531 23.359375 101.578125 23.15625 101.703125 22.902344 C 102.050781 22.265625 102.347656 21.601562 102.59375 20.917969 C 102.65625 20.597656 102.574219 20.316406 102.34375 20.078125 C 102.171875 19.9375 101.757812 20.003906 101.476562 20.0625 C 101.210938 20.175781 100.9375 20.265625 100.652344 20.328125 C 102.171875 19.34375 102.5 17.65625 103.207031 16.222656 C 103.46875 15.511719 103.550781 14.785156 103.460938 14.035156 C 103.417969 13.824219 103.453125 13.628906 103.570312 13.449219 C 103.6875 13.269531 103.851562 13.15625 104.0625 13.109375 C 104.105469 13.101562 104.148438 13.09375 104.195312 13.09375 C 104.269531 13.679688 104.140625 14.363281 104.441406 14.699219 C 105.003906 15.339844 104.300781 15.667969 104.402344 16.296875 Z M 103.320312 17.523438 L 103.0625 17.46875 L 102.738281 19.058594 L 103.15625 19.140625 Z M 70.359375 42.054688 C 70.734375 41.777344 71.101562 41.492188 71.484375 41.222656 C 72.238281 40.6875 72.242188 40.691406 72.632812 40.964844 C 71.929688 41.652344 71.789062 41.730469 73.285156 42.800781 C 72.863281 42.921875 72.03125 42.410156 72.210938 43.304688 C 72.320312 43.792969 72.503906 44.253906 72.765625 44.679688 C 73.070312 45.210938 73.53125 45.269531 73.921875 44.824219 C 74.246094 44.570312 74.449219 44.238281 74.539062 43.835938 C 74.625 43.429688 74.574219 43.042969 74.382812 42.675781 C 74.363281 42.640625 74.410156 42.574219 74.433594 42.484375 L 75.109375 42.261719 L 75.144531 42 L 73.859375 41.585938 L 74.996094 38.453125 L 74.835938 38.355469 L 73.742188 39.472656 L 73.3125 37.429688 L 72.375 36.875 C 71.570312 38.480469 70.011719 39.824219 70.113281 41.875 Z M 63.628906 29.898438 C 63.523438 28.570312 62.617188 27.605469 61.832031 26.597656 C 61.699219 26.425781 61.300781 26.4375 61.019531 26.371094 C 61.074219 26.621094 61.167969 26.859375 61.304688 27.074219 C 62.066406 27.894531 62.078125 28.285156 61.304688 28.980469 C 61.183594 29.09375 61.085938 29.230469 61.015625 29.382812 C 60.699219 30.042969 60.363281 30.695312 60.109375 31.378906 C 60.042969 31.660156 60.074219 31.9375 60.195312 32.203125 C 60.484375 32.941406 60.808594 33.671875 61.15625 34.390625 C 61.28125 34.695312 61.472656 34.949219 61.734375 35.152344 C 62.011719 35.328125 62.308594 35.367188 62.621094 35.273438 C 62.894531 35.074219 63.046875 34.808594 63.078125 34.472656 C 63.183594 33.425781 63.179688 32.363281 63.304688 31.316406 C 63.339844 31.007812 63.65625 30.742188 63.933594 30.324219 C 63.78125 30.21875 63.679688 30.078125 63.625 29.902344 Z M 76.304688 25.359375 C 76.269531 25.585938 76.265625 25.8125 76.296875 26.042969 C 76.519531 25.925781 76.910156 25.847656 76.941406 25.683594 C 77.253906 24.152344 77.515625 22.609375 77.773438 21.066406 C 77.886719 20.351562 77.96875 19.625 78.027344 18.902344 C 78.03125 18.546875 78.007812 18.195312 77.960938 17.84375 C 76.519531 17.691406 75.976562 18.34375 76.273438 19.625 C 76.402344 20.066406 76.382812 20.5 76.214844 20.929688 C 75.925781 21.472656 75.355469 21.863281 75.039062 22.398438 C 74.917969 22.742188 74.941406 23.078125 75.109375 23.402344 C 75.355469 23.777344 75.644531 24.113281 75.972656 24.417969 L 76.78125 24.527344 C 76.597656 24.792969 76.4375 25.070312 76.304688 25.367188 Z M 59.753906 25.558594 C 60.441406 25.875 60.636719 25.242188 60.792969 24.875 C 61.027344 24.1875 61.367188 23.554688 61.816406 22.980469 C 62.109375 22.539062 62.429688 22.117188 62.769531 21.710938 C 63.042969 21.496094 63.226562 21.21875 63.320312 20.882812 C 63.410156 20.546875 63.390625 20.214844 63.261719 19.890625 M 83.148438 -2.363281 C 83.234375 -1.527344 83.335938 -0.785156 82.585938 -0.21875 C 82.460938 -0.121094 82.4375 0.136719 82.429688 0.328125 C 82.414062 0.824219 82.4375 1.324219 82.445312 1.851562 C 82.632812 1.929688 82.796875 2.039062 82.941406 2.183594 C 83.085938 2.324219 83.195312 2.492188 83.273438 2.679688 C 83.351562 2.867188 83.390625 3.0625 83.390625 3.265625 C 83.390625 3.46875 83.351562 3.664062 83.273438 3.851562 L 83.269531 3.867188 C 83.140625 4.378906 82.894531 4.933594 83.511719 5.410156 C 83.816406 5.152344 84.03125 4.835938 84.148438 4.453125 C 84.269531 4.074219 84.28125 3.691406 84.179688 3.304688 C 84.132812 3.082031 84.117188 2.859375 84.128906 2.632812 C 84.28125 1.105469 84.449219 -0.417969 84.601562 -1.941406 C 84.609375 -2.019531 84.550781 -2.109375 84.554688 -2.191406 M 106.207031 13.003906 C 106.195312 13.035156 106.261719 13.097656 106.316406 13.191406 C 106.425781 13.214844 106.539062 13.210938 106.648438 13.179688 C 106.757812 13.152344 106.855469 13.097656 106.941406 13.023438 C 107.027344 12.945312 107.089844 12.855469 107.132812 12.75 C 107.175781 12.640625 107.191406 12.53125 107.179688 12.417969 M 65.003906 23.945312 C 65.210938 23.703125 65.394531 23.441406 65.554688 23.164062 C 65.792969 22.636719 65.824219 21.765625 66.21875 21.609375 C 67.105469 21.257812 66.878906 20.5 67.324219 19.832031 L 66.457031 20.285156 L 66.183594 20.179688 C 66.21875 19.816406 66.308594 19.464844 66.449219 19.128906 C 66.707031 18.714844 66.625 18.421875 66.15625 18.40625 C 65.625 18.324219 65.121094 18.417969 64.652344 18.6875 C 64.394531 18.976562 64.238281 19.316406 64.1875 19.703125 C 64.136719 20.089844 64.199219 20.457031 64.375 20.804688 C 64.585938 20.5625 64.679688 20.355469 64.84375 20.292969 C 65.125 20.21875 65.410156 20.175781 65.703125 20.164062 C 65.675781 20.40625 65.742188 20.71875 65.609375 20.875 C 65.238281 21.261719 64.84375 21.621094 64.421875 21.957031 C 65.507812 22.460938 64.492188 23.273438 65.011719 23.949219 Z M 90.601562 59.152344 C 90.753906 59.332031 91.101562 59.367188 91.355469 59.46875 C 91.414062 59.199219 91.582031 58.90625 91.511719 58.667969 C 91.304688 57.949219 90.90625 57.269531 90.757812 56.554688 C 90.574219 55.636719 90.570312 54.695312 90.460938 53.765625 C 90.40625 53.53125 90.324219 53.308594 90.21875 53.09375 L 89.792969 53.371094 C 89.578125 53.84375 89.433594 54.332031 89.363281 54.84375 C 89.289062 55.355469 89.285156 55.867188 89.359375 56.378906 C 89.429688 56.890625 89.570312 57.382812 89.78125 57.855469 C 89.992188 58.324219 90.265625 58.757812 90.597656 59.152344 Z M 87.054688 15.414062 C 86.765625 14.65625 86.691406 13.839844 86.4375 13.074219 C 86.140625 12.171875 85.742188 11.304688 85.316406 10.226562 C 84.722656 10.828125 84.640625 11.230469 84.898438 11.789062 C 85.554688 12.933594 85.9375 14.164062 86.050781 15.480469 C 86.105469 16.328125 86.214844 17.171875 86.378906 18.003906 C 86.929688 17.082031 87.425781 16.414062 87.050781 15.414062 Z M 69.144531 19.488281 C 69.226562 19.140625 69.261719 18.785156 69.25 18.425781 C 69.21875 18.203125 68.925781 18.015625 68.78125 17.792969 C 68.695312 17.664062 68.585938 17.433594 68.644531 17.355469 C 69.128906 16.6875 68.5 16.164062 68.261719 15.625 C 68.1875 15.460938 67.609375 15.367188 67.324219 15.433594 C 67.1875 15.464844 67.105469 15.953125 67.148438 16.21875 C 67.195312 16.53125 67.496094 16.832031 67.519531 17.136719 C 67.570312 17.851562 67.519531 18.5625 67.511719 19.378906 L 68.089844 19.164062 Z M 72.878906 22.917969 C 72.398438 23.496094 71.882812 24.050781 71.449219 24.660156 C 71.28125 24.945312 71.203125 25.25 71.21875 25.582031 C 71.242188 26.074219 71.292969 26.5625 71.375 27.050781 C 72.292969 26.820312 71.910156 27.925781 72.632812 28.480469 L 72.902344 24.769531 L 72.296875 25.371094 C 72.242188 24.933594 72.292969 24.511719 72.453125 24.101562 C 72.617188 23.722656 72.800781 23.351562 73.003906 22.988281 Z M 77.390625 37.492188 C 76.601562 38.675781 75.191406 39.636719 76.300781 41.457031 C 77.800781 40.144531 78.273438 38.445312 77.386719 37.492188 Z M 98.039062 50.183594 C 97.992188 50.464844 97.851562 50.863281 97.628906 50.949219 C 97.253906 51.121094 96.945312 51.375 96.707031 51.714844 C 96.464844 52.050781 96.328125 52.425781 96.289062 52.839844 C 96.671875 52.445312 97.109375 52.121094 97.59375 51.863281 C 99.285156 51.304688 99.667969 49.957031 98.203125 48.398438 C 98.148438 48.992188 98.136719 49.597656 98.035156 50.179688 Z M 70.640625 34.335938 C 70.644531 34.203125 70.480469 33.9375 70.421875 33.941406 C 70.238281 33.953125 69.925781 34.042969 69.914062 34.140625 C 69.753906 34.738281 69.738281 35.339844 69.871094 35.941406 C 70.433594 37.238281 70.867188 37.320312 71.722656 36.507812 C 70.613281 35.664062 70.621094 35.664062 70.644531 34.335938 Z M 78.886719 25.652344 C 78.714844 26.023438 78.484375 26.359375 78.199219 26.652344 C 77.765625 26.96875 77.589844 27.242188 77.84375 27.777344 C 78.113281 28.351562 78.007812 28.722656 77.191406 28.433594 L 77.1875 29.582031 C 78.296875 29.328125 79.183594 27.171875 78.886719 25.652344 Z M 76.769531 42.035156 C 76.011719 42.820312 76.667969 44 76.070312 44.832031 L 76.292969 44.960938 L 78.1875 43.457031 L 77.976562 43.199219 L 77.148438 43.503906 L 77.027344 42.121094 Z M 86.429688 46.398438 C 86.453125 46.21875 86.234375 45.996094 86.128906 45.796875 C 85.925781 45.929688 85.636719 46.023438 85.53125 46.210938 C 85.355469 46.558594 85.230469 46.921875 85.152344 47.304688 C 85.105469 47.597656 85.074219 47.894531 85.066406 48.191406 C 85.457031 48.066406 85.777344 47.835938 86.027344 47.511719 C 86.277344 47.183594 86.414062 46.8125 86.429688 46.402344 Z M 112.078125 16.449219 L 111.507812 15.65625 L 105.101562 29.199219 C 103.71875 30.195312 103.546875 31.136719 104.84375 32.046875 C 104.769531 31.613281 104.753906 31.179688 104.789062 30.742188 C 104.9375 30.261719 105.128906 29.796875 105.351562 29.347656 Z M 103.820312 33.226562 C 104.15625 32.851562 104.882812 32.734375 104.566406 31.960938 C 103.714844 32.109375 103.25 31.777344 102.878906 30.78125 C 95.375 44.015625 95.375 44.015625 96.835938 45.980469 Z M 72.585938 26.4375 C 72.539062 26.054688 72.351562 25.765625 72.019531 25.570312 C 71.761719 25.457031 71.359375 25.691406 71.0625 25.757812 L 72.003906 27.222656 C 65.230469 39.722656 65.601562 39.46875 65.605469 39.195312 Z M 71.59375 16.515625 L 72.625 16.648438 L 73.425781 15.058594 C 65.03125 27.570312 65.09375 28.652344 64.613281 29.269531 Z M 72.320312 24.203125 L 72.363281 21.710938 C 64.207031 35.074219 64.480469 35.90625 65.335938 36.957031 Z M 97.148438 -1.117188 L 98.472656 1.039062 C 99.3125 -0.34375 97.835938 -0.519531 97.429688 -1.25 Z M 91.660156 8.191406 C 91.671875 8.339844 91.742188 8.449219 91.871094 8.523438 C 92.007812 8.550781 92.132812 8.519531 92.238281 8.425781 C 92.410156 8.089844 92.480469 7.738281 92.445312 7.363281 C 92.414062 6.988281 92.28125 6.652344 92.050781 6.355469 C 91.898438 7.050781 91.761719 7.617188 91.660156 8.195312 Z M 79.753906 7.761719 C 79.855469 8.183594 80.007812 8.589844 80.203125 8.980469 C 80.230469 9.035156 80.585938 8.953125 80.789062 8.929688 L 80.410156 7.449219 C 80.097656 7.597656 79.738281 7.710938 79.75 7.761719 Z M 113.378906 25.992188 L 112.480469 24.058594 C 111.996094 25.628906 112.171875 26.03125 113.378906 25.992188 Z M 99.992188 9.449219 C 99.386719 10.203125 100.070312 10.800781 100.320312 11.457031 C 101.226562 10.636719 100.035156 10.136719 99.988281 9.445312 Z M 80.882812 4.625 C 80.738281 4.738281 80.648438 4.890625 80.621094 5.078125 C 80.691406 5.242188 80.816406 5.34375 80.992188 5.378906 C 81.195312 5.386719 81.363281 5.3125 81.492188 5.15625 C 81.714844 4.734375 81.863281 4.273438 82.113281 3.640625 C 81.609375 4.046875 81.234375 4.320312 80.886719 4.625 Z M 102.140625 43.636719 C 102.425781 44.359375 102.699219 45.082031 103.003906 45.792969 C 103.035156 45.871094 103.253906 45.917969 103.375 45.90625 C 103.476562 45.847656 103.519531 45.757812 103.511719 45.644531 C 103.148438 44.933594 102.761719 44.238281 102.375 43.527344 Z M 78.832031 9.574219 C 79.113281 9.550781 79.394531 9.542969 79.675781 9.550781 C 79.453125 9.320312 79.238281 9.082031 79.003906 8.863281 C 78.890625 8.789062 78.769531 8.734375 78.640625 8.695312 L 77.851562 9.816406 C 78.175781 9.71875 78.503906 9.636719 78.835938 9.574219 Z M 78.664062 51.59375 C 78.601562 51.464844 78.5 51.382812 78.359375 51.351562 C 78.214844 51.363281 78.109375 51.4375 78.039062 51.5625 C 77.898438 51.941406 77.792969 52.339844 77.652344 52.824219 C 78.355469 52.71875 78.851562 52.058594 78.667969 51.597656 Z M 79.207031 31.472656 C 78.195312 32.117188 78.191406 32.507812 79.304688 33.195312 Z M 92.507812 8.648438 L 92.398438 10.621094 C 92.816406 10.441406 93.035156 10.125 93.0625 9.671875 C 93.085938 9.21875 92.90625 8.878906 92.511719 8.652344 Z M 72.398438 18.199219 L 72.421875 19.960938 C 73.28125 19.300781 73.222656 18.628906 72.398438 18.199219 Z M 79.699219 1.839844 L 79.9375 1.984375 C 80.335938 1.484375 81.289062 1.304688 80.816406 0.132812 Z M 76.132812 15.332031 C 76.28125 14.96875 76.429688 14.609375 76.546875 14.242188 C 76.425781 14.164062 76.292969 14.097656 76.15625 14.046875 C 75.960938 14.382812 75.789062 14.730469 75.613281 15.078125 Z M 73.265625 34.613281 C 72.15625 35.769531 72.15625 35.769531 72.382812 36.371094 Z M 74.601562 34.160156 C 74.898438 34.105469 75.292969 34.136719 75.460938 33.964844 C 75.652344 33.773438 75.644531 33.398438 75.71875 33.101562 L 75.492188 33.011719 L 74.476562 33.820312 Z M 76.207031 3.261719 C 76.136719 3.015625 76.066406 2.558594 76 2.554688 C 75.628906 2.5625 75.265625 2.605469 74.902344 2.683594 L 74.917969 3.050781 L 76.214844 3.257812 Z M 99.933594 8.253906 C 100.003906 8.40625 100.113281 8.523438 100.265625 8.597656 C 100.324219 8.625 100.523438 8.492188 100.570312 8.390625 C 100.742188 8.007812 100.246094 7.402344 99.730469 7.335938 C 99.777344 7.644531 99.847656 7.953125 99.933594 8.257812 Z M 66.09375 30.347656 C 65.878906 30.5625 65.707031 30.808594 65.570312 31.082031 C 65.519531 31.246094 65.71875 31.492188 65.804688 31.703125 C 65.9375 31.566406 66.148438 31.453125 66.195312 31.289062 C 66.246094 30.996094 66.265625 30.699219 66.257812 30.402344 Z M 104.125 33.945312 L 103.851562 32.246094 L 103.566406 32.253906 L 103.664062 33.964844 Z M 111.003906 20.871094 L 111.4375 19.089844 L 111.113281 19 L 110.714844 20.78125 Z M 100.441406 27.238281 C 100.433594 27.007812 100.394531 26.78125 100.316406 26.5625 C 100.152344 26.628906 99.886719 26.65625 99.851562 26.765625 C 99.816406 27.058594 99.824219 27.347656 99.882812 27.632812 C 100.1875 27.425781 100.429688 27.351562 100.441406 27.238281 Z M 81.777344 50.070312 C 82.292969 49.929688 82.882812 49.886719 83.046875 49.308594 L 82.882812 49.089844 L 81.644531 49.859375 Z M 112.425781 20.511719 L 112.808594 19.332031 L 112.582031 19.25 L 112.023438 20.355469 Z M 92.933594 35.449219 L 93.199219 36.324219 L 94.46875 35.984375 C 94.289062 36.382812 94.140625 36.792969 94.027344 37.214844 C 94.027344 37.484375 94.074219 37.746094 94.171875 38 C 94.410156 37.90625 94.632812 37.789062 94.84375 37.640625 C 94.988281 37.453125 95.097656 37.242188 95.171875 37.015625 L 95.78125 37.992188 C 96.101562 37.648438 96.355469 37.355469 96.632812 37.082031 C 97.136719 36.589844 97.664062 36.125 98.152344 35.621094 C 98.425781 35.339844 98.167969 34.296875 97.773438 34.105469 C 97.167969 33.808594 97.066406 34.316406 96.925781 34.652344 C 96.734375 35.109375 96.609375 35.59375 96.441406 36.105469 C 96.277344 35.984375 96.144531 35.835938 96.039062 35.664062 C 95.9375 35.488281 95.871094 35.300781 95.839844 35.101562 C 95.8125 34.902344 95.820312 34.703125 95.871094 34.507812 C 95.921875 34.308594 96.003906 34.132812 96.125 33.96875 L 96.152344 33.9375 L 94.507812 33.109375 C 94.613281 33.34375 94.671875 33.46875 94.726562 33.589844 C 95.179688 34.628906 94.960938 34.902344 93.835938 34.765625 C 93.632812 34.765625 93.429688 34.792969 93.230469 34.84375 Z M 102.191406 17.085938 C 102.492188 17.300781 102.730469 17.574219 102.902344 17.90625 C 103.070312 18.242188 103.152344 18.59375 103.148438 18.964844 C 103.148438 19.222656 103.464844 19.496094 103.632812 19.761719 C 103.714844 19.476562 103.800781 19.199219 103.871094 18.910156 C 103.875 18.824219 103.863281 18.738281 103.828125 18.65625 C 103.59375 17.664062 103.613281 16.78125 104.652344 16.226562 C 104.757812 16.171875 104.683594 15.734375 104.609375 15.5 C 104.496094 15.199219 104.355469 14.910156 104.191406 14.636719 C 104.0625 14.394531 103.917969 14.160156 103.777344 13.921875 Z M 90.203125 40.863281 L 90.875 42.441406 C 91.5625 42.390625 91.792969 41.9375 91.363281 41.191406 C 91.121094 40.820312 90.863281 40.460938 90.585938 40.113281 Z M 106.59375 24.136719 C 106.601562 23.578125 106.617188 23.019531 106.617188 22.460938 C 106.628906 22.195312 106.605469 21.9375 106.546875 21.679688 C 106.53125 21.632812 106.09375 21.570312 106.007812 21.660156 C 105.773438 21.855469 105.636719 22.105469 105.601562 22.410156 C 105.71875 23.015625 105.875 23.609375 106.078125 24.191406 Z M 97.8125 28.269531 C 97.8125 28.636719 97.855469 28.996094 97.9375 29.351562 C 98.078125 29.574219 98.261719 29.765625 98.476562 29.917969 C 98.640625 29.660156 99.003906 29.328125 98.925781 29.164062 C 98.675781 28.777344 98.378906 28.429688 98.03125 28.125 Z M 93.160156 43.71875 L 93.160156 41.878906 C 92.117188 42.34375 92.097656 42.738281 93.15625 43.714844 Z M 99.382812 26.269531 L 99.917969 24.996094 C 98.917969 25.175781 98.777344 25.527344 99.386719 26.269531 Z M 106.765625 24.855469 L 105.328125 25.152344 C 106.222656 25.699219 106.671875 25.535156 106.765625 24.855469 Z M 100.980469 27.648438 C 101.21875 27.554688 101.441406 27.4375 101.652344 27.292969 C 101.699219 27.253906 101.539062 26.988281 101.46875 26.820312 L 100.710938 27.078125 Z M 82.558594 69.007812 L 83.738281 65.996094 C 82.777344 66.386719 82.285156 67.625 82.558594 69.007812 Z M 60.03125 44.84375 C 59.863281 45.078125 59.503906 45.363281 59.554688 45.542969 C 59.828125 46.414062 59.140625 46.667969 58.644531 47.0625 C 58.304688 47.332031 57.960938 47.601562 57.523438 47.953125 C 58.691406 48.574219 57.644531 49.183594 57.800781 49.792969 L 58.328125 49.535156 L 57.855469 51.234375 C 57.988281 51.246094 58.117188 51.234375 58.25 51.210938 C 58.378906 51.183594 58.503906 51.144531 58.625 51.085938 C 58.746094 51.03125 58.855469 50.960938 58.957031 50.875 C 59.058594 50.789062 59.148438 50.691406 59.226562 50.582031 C 59.304688 50.476562 59.367188 50.359375 59.414062 50.234375 C 59.460938 50.113281 59.492188 49.984375 59.507812 49.851562 C 59.523438 49.71875 59.523438 49.585938 59.503906 49.457031 C 59.484375 49.324219 59.453125 49.195312 59.402344 49.074219 C 59.3125 48.914062 59.253906 48.742188 59.226562 48.558594 C 59.199219 48.375 59.207031 48.191406 59.246094 48.011719 C 59.285156 47.832031 59.351562 47.664062 59.453125 47.507812 C 59.554688 47.355469 59.679688 47.222656 59.828125 47.109375 C 60.03125 47.554688 60.199219 48.015625 60.328125 48.484375 C 60.523438 49.492188 60.636719 50.511719 60.808594 51.519531 C 60.914062 52.152344 61.101562 52.3125 61.660156 52.308594 C 61.578125 52.066406 61.53125 51.816406 61.519531 51.5625 C 61.53125 51.347656 61.628906 51.179688 61.808594 51.058594 C 62.542969 50.761719 62.941406 50.109375 62.449219 49.585938 C 61.878906 48.933594 61.640625 48.175781 61.734375 47.3125 C 61.746094 47.132812 61.695312 46.976562 61.578125 46.839844 C 61.007812 46.375 61.136719 45.886719 61.378906 45.378906 Z M 82.519531 53.671875 C 82.070312 54.050781 81.59375 54.394531 81.09375 54.703125 C 80.339844 55.105469 79.972656 55.738281 80.273438 56.421875 C 80.636719 57.246094 81 58.070312 81.417969 58.867188 C 81.628906 59.140625 81.875 59.382812 82.152344 59.585938 C 82.214844 58.800781 82.503906 58.121094 82.257812 57.710938 C 81.527344 56.492188 82.269531 55.839844 82.933594 55.082031 C 83.058594 54.9375 83.042969 54.652344 83.027344 54.433594 C 82.992188 54.21875 82.9375 54.007812 82.863281 53.800781 Z M 76.09375 51.144531 C 76.066406 51.28125 76.085938 51.472656 75.996094 51.546875 C 75.234375 52.175781 75.886719 52.515625 76.425781 53.054688 L 76.941406 51.476562 Z M 66.960938 47.5625 C 66.523438 48 66.347656 48.4375 67.007812 49.011719 L 67.808594 47.894531 Z M 55.800781 43.183594 C 55.503906 43.625 55.085938 44.050781 55.804688 44.789062 L 56.476562 43.441406 Z M 69.667969 48.625 L 69.957031 49.808594 L 70.234375 49.824219 L 70.851562 49.089844 Z M 8.457031 111.507812 L 9.179688 112.335938 L 9.050781 112.402344 L 10.171875 113.195312 C 11.089844 113.035156 11.273438 112.644531 10.78125 111.609375 C 10.699219 111.398438 10.714844 111.199219 10.835938 111.003906 C 11.421875 110.238281 11.546875 109.105469 12.71875 108.78125 C 12.847656 108.707031 12.914062 108.59375 12.917969 108.441406 C 12.882812 107.339844 13.847656 106.472656 13.550781 105.296875 C 13.507812 105.125 13.863281 104.875 14.050781 104.679688 C 14.140625 104.585938 14.363281 104.535156 14.359375 104.460938 C 14.332031 103.417969 14.785156 102.941406 15.71875 103.246094 L 16.554688 102.070312 L 16.066406 101.582031 C 16.453125 101.472656 16.820312 101.523438 17.164062 101.734375 C 17.269531 101.816406 17.074219 102.273438 16.992188 102.550781 C 16.933594 102.730469 16.867188 102.90625 16.789062 103.082031 C 17.046875 103.304688 17.320312 103.5 17.613281 103.667969 C 17.867188 103.808594 18.140625 103.863281 18.429688 103.828125 C 18.878906 103.648438 19.308594 103.433594 19.722656 103.183594 C 19.707031 102.351562 19.679688 101.40625 19.675781 100.460938 C 19.675781 100.207031 19.777344 99.960938 19.78125 99.707031 C 19.820312 99.046875 19.816406 98.386719 19.777344 97.726562 C 19.71875 97.074219 19.074219 96.898438 17.984375 97.191406 L 16.507812 95.21875 C 15.929688 95.953125 16.246094 96.722656 16.28125 97.359375 L 15.335938 97.839844 L 15.46875 99.578125 C 16.214844 99.917969 16.21875 100.511719 15.3125 101.507812 L 14.898438 101.207031 L 14.035156 102.207031 L 13.925781 103.476562 L 13.152344 102.074219 C 13.464844 101.464844 14.496094 101.203125 14.0625 100.394531 C 13.464844 100.613281 12.90625 100.769531 12.398438 101.019531 C 12.003906 101.15625 11.683594 101.394531 11.4375 101.734375 C 11.378906 101.929688 11.269531 102.082031 11.097656 102.195312 C 10.929688 102.308594 10.746094 102.355469 10.542969 102.335938 C 9.898438 102.347656 9.21875 102.441406 9.597656 103.375 C 9.628906 103.519531 9.609375 103.652344 9.53125 103.78125 C 8.804688 105.058594 8.519531 106.429688 8.675781 107.894531 C 8.695312 108.0625 8.417969 108.226562 8.335938 108.417969 C 8.128906 108.90625 7.753906 109.429688 7.820312 109.90625 M 36.359375 58.984375 L 32.199219 65.855469 L 31.289062 66.988281 L 31.058594 66.84375 M 54.148438 90.160156 L 55.257812 88.71875 C 55.144531 88.644531 55.03125 88.578125 54.910156 88.519531 C 54.554688 88.363281 53.90625 88.234375 53.882812 88.058594 C 53.742188 87.011719 52.75 86.511719 52.253906 85.707031 C 52.136719 85.511719 51.621094 85.527344 51.285156 85.445312 C 51.242188 86.136719 50.9375 86.945312 51.230469 87.484375 C 51.53125 87.9375 51.632812 88.429688 51.535156 88.964844 C 51.453125 89.515625 51.417969 90.070312 51.429688 90.625 C 51.410156 91.796875 52.0625 93.058594 51.058594 94.105469 C 51.007812 94.160156 51.304688 94.652344 51.535156 94.777344 C 51.714844 94.875 52.046875 94.742188 52.296875 94.667969 C 52.914062 94.480469 53.136719 94.703125 53.089844 95.289062 C 53.066406 95.535156 53.085938 95.777344 53.15625 96.015625 C 53.402344 96.773438 53.6875 97.523438 53.9375 98.273438 C 53.96875 98.394531 53.941406 98.496094 53.859375 98.585938 C 53.34375 99.011719 53.601562 99.363281 54 99.71875 C 54.234375 99.945312 54.507812 100.089844 54.824219 100.152344 C 55.140625 100.214844 55.449219 100.183594 55.75 100.0625 C 56.296875 99.859375 56.335938 99.4375 56.238281 98.945312 C 56.171875 98.609375 55.996094 98.171875 56.136719 97.949219 C 56.589844 97.261719 56.582031 96.832031 55.621094 96.613281 C 55.535156 96.59375 55.390625 96.425781 55.410156 96.363281 C 55.613281 95.628906 55.0625 95.09375 54.8125 94.472656 C 54.417969 93.480469 54.117188 92.460938 53.78125 91.453125 C 53.605469 90.933594 53.335938 90.375 54.152344 90.152344 Z M 36.527344 130.421875 C 36.957031 129.855469 37.300781 129.238281 37.5625 128.570312 C 36.441406 128.054688 36.449219 128.011719 36.960938 127.082031 C 37.269531 126.527344 37.464844 125.917969 37.71875 125.332031 C 37.851562 125.023438 37.902344 124.59375 38.152344 124.4375 C 38.933594 123.941406 39.695312 123.476562 39.699219 122.398438 L 40.871094 123.410156 L 41.015625 123.261719 C 40.339844 122.691406 40.371094 122.707031 40.710938 121.863281 C 40.863281 121.476562 41.339844 121.066406 40.699219 120.59375 C 39.804688 119.933594 39.015625 120.109375 38.929688 121.25 C 38.859375 122.25 38.238281 122.859375 37.835938 123.632812 C 37.597656 124.023438 37.277344 124.332031 36.878906 124.558594 C 36.476562 124.78125 36.046875 124.894531 35.589844 124.898438 C 34.753906 124.957031 34.734375 125.324219 34.601562 125.847656 C 34.472656 126.566406 34.25 127.25 33.925781 127.902344 M 26.945312 72.980469 C 26.660156 73.648438 26.429688 74.335938 26.246094 75.039062 C 26.214844 75.367188 26.320312 75.636719 26.570312 75.851562 C 26.757812 75.976562 27.164062 75.875 27.4375 75.789062 C 27.691406 75.652344 27.957031 75.539062 28.230469 75.445312 C 26.808594 76.570312 26.640625 78.28125 26.070312 79.773438 C 25.878906 80.503906 25.859375 81.238281 26.019531 81.972656 C 26.082031 82.179688 26.066406 82.378906 25.964844 82.566406 C 25.867188 82.757812 25.714844 82.886719 25.507812 82.949219 C 25.464844 82.960938 25.417969 82.972656 25.375 82.980469 C 25.246094 82.398438 25.3125 81.710938 24.984375 81.402344 C 24.363281 80.8125 25.023438 80.421875 24.867188 79.804688 C 24.136719 79.765625 24.054688 79.324219 24.21875 78.746094 C 24.289062 78.554688 24.3125 78.363281 24.289062 78.164062 C 24.214844 77.996094 24.109375 77.847656 23.976562 77.722656 C 23.859375 77.824219 23.660156 77.910156 23.640625 78.03125 C 23.535156 78.640625 23.492188 79.261719 23.398438 79.875 C 23.308594 80.496094 23.164062 81.105469 22.96875 81.703125 M 27.4375 72.332031 L 25.15625 76.414062 L 25.832031 78.472656 L 26.09375 78.503906 L 26.269531 76.886719 L 25.847656 76.847656 Z M 57.980469 44.84375 C 57.632812 45.15625 57.292969 45.472656 56.941406 45.78125 C 56.238281 46.382812 56.238281 46.378906 55.816406 46.144531 C 56.453125 45.394531 56.585938 45.300781 55 44.378906 C 55.410156 44.222656 56.28125 44.648438 56.023438 43.777344 C 55.871094 43.300781 55.644531 42.859375 55.347656 42.457031 C 54.992188 41.960938 54.527344 41.945312 54.179688 42.421875 C 53.882812 42.707031 53.710938 43.054688 53.660156 43.464844 C 53.613281 43.875 53.699219 44.253906 53.921875 44.601562 C 53.945312 44.636719 53.90625 44.707031 53.886719 44.800781 L 53.238281 45.082031 L 53.226562 45.347656 L 54.546875 45.644531 L 53.707031 48.871094 L 53.871094 48.949219 L 54.855469 47.738281 L 55.472656 49.730469 L 56.460938 50.195312 C 57.113281 48.519531 58.542969 47.039062 58.25 45.007812 Z M 65.808594 56.324219 C 66.039062 57.640625 67.027344 58.511719 67.902344 59.441406 C 68.050781 59.597656 68.453125 59.546875 68.734375 59.59375 C 68.660156 59.347656 68.542969 59.121094 68.382812 58.917969 C 67.550781 58.171875 67.503906 57.785156 68.207031 57.019531 C 68.320312 56.894531 68.40625 56.75 68.460938 56.589844 C 68.714844 55.902344 68.988281 55.222656 69.179688 54.519531 C 69.21875 54.230469 69.164062 53.960938 69.015625 53.710938 C 68.660156 53 68.269531 52.300781 67.855469 51.617188 C 67.703125 51.324219 67.488281 51.089844 67.210938 50.914062 C 66.917969 50.761719 66.617188 50.75 66.3125 50.871094 C 66.0625 51.097656 65.933594 51.378906 65.933594 51.71875 C 65.921875 52.769531 66.027344 53.828125 66.003906 54.878906 C 65.996094 55.1875 65.707031 55.484375 65.46875 55.925781 C 63.90625 62.117188 64.167969 62.28125 64.203125 62.472656 Z M 53.605469 62.019531 C 53.621094 61.789062 53.601562 61.5625 53.550781 61.339844 C 53.339844 61.476562 52.960938 61.589844 52.945312 61.757812 C 52.773438 63.3125 52.652344 64.871094 52.542969 66.433594 C 52.496094 67.152344 52.480469 67.882812 52.492188 68.609375 C 52.523438 68.964844 52.578125 69.3125 52.65625 69.660156 C 54.105469 69.675781 54.585938 68.972656 54.171875 67.730469 C 54 67.300781 53.980469 66.867188 54.105469 66.421875 C 54.34375 65.855469 54.875 65.414062 55.140625 64.855469 C 55.230469 64.5 55.175781 64.167969 54.976562 63.859375 C 54.699219 63.511719 54.382812 63.203125 54.023438 62.933594 L 53.207031 62.894531 C 52.855469 63.222656 52.558594 63.597656 52.316406 64.015625 C 52.074219 64.433594 51.902344 64.875 51.792969 65.34375 C 51.683594 65.816406 51.648438 66.289062 51.683594 66.769531 C 51.71875 67.25 51.824219 67.71875 51.996094 68.167969 Z M 40.746094 133.054688 C 40.625 132.117188 40.464844 131.175781 40.414062 130.238281 C 40.375 129.554688 40.253906 128.792969 41.097656 128.394531 C 41.554688 128.179688 41.976562 127.898438 42.414062 127.648438 C 42.046875 127.554688 41.6875 127.574219 41.332031 127.703125 C 40.976562 127.835938 40.691406 128.054688 40.472656 128.367188 C 40.191406 128.707031 39.824219 128.921875 39.402344 128.363281 C 40.175781 128.0625 39.886719 127.578125 39.5625 127.214844 C 39.304688 127.035156 39.03125 127.003906 38.742188 127.117188 C 38.574219 127.234375 38.4375 127.375 38.332031 127.542969 C 38.222656 127.714844 38.148438 127.898438 38.113281 128.097656 C 38.078125 128.292969 38.082031 128.492188 38.125 128.6875 C 38.167969 128.886719 38.246094 129.066406 38.363281 129.230469 C 38.488281 129.488281 38.589844 129.753906 38.660156 130.03125 C 38.828125 130.894531 39.066406 131.742188 39.371094 132.566406 M 68.25 73.003906 L 67.839844 70.269531 L 68.101562 70.109375 C 68.628906 70.492188 69.152344 70.890625 69.695312 71.253906 C 69.898438 71.390625 70.253906 71.585938 70.371094 71.515625 C 70.601562 71.355469 70.726562 71.132812 70.746094 70.851562 C 70.757812 70.054688 70.40625 69.835938 69.402344 69.90625 L 68.414062 68.703125 C 68.621094 68.535156 68.808594 68.347656 68.980469 68.144531 C 69.054688 67.996094 69.101562 67.835938 69.117188 67.671875 C 69.132812 67.503906 69.117188 67.339844 69.066406 67.179688 C 69.019531 67.023438 68.941406 66.878906 68.835938 66.746094 C 68.730469 66.617188 68.605469 66.511719 68.460938 66.433594 C 67.742188 66.179688 67.609375 66.828125 67.484375 67.210938 C 67.316406 67.917969 67.035156 68.578125 66.644531 69.191406 C 66.394531 69.65625 66.121094 70.105469 65.820312 70.542969 C 65.566406 70.78125 65.410156 71.074219 65.351562 71.417969 C 65.289062 71.761719 65.339844 72.089844 65.496094 72.402344 C 66.304688 71.996094 65.992188 70.757812 67.023438 70.730469 L 67.796875 73.078125 Z M 47.332031 99.078125 C 47.40625 98.785156 47.5 98.492188 47.546875 98.195312 C 47.726562 97.613281 47.800781 97.015625 47.765625 96.40625 C 47.59375 95.582031 47.429688 94.855469 48.121094 94.21875 C 48.238281 94.113281 48.238281 93.851562 48.226562 93.664062 C 48.195312 93.167969 48.128906 92.671875 48.070312 92.144531 C 47.878906 92.085938 47.703125 91.988281 47.546875 91.859375 C 47.390625 91.730469 47.265625 91.574219 47.171875 91.394531 C 47.074219 91.214844 47.019531 91.023438 47 90.824219 C 46.980469 90.621094 47.003906 90.421875 47.0625 90.226562 L 47.066406 90.21875 C 47.144531 89.695312 47.339844 89.121094 46.683594 88.703125 C 46.40625 88.988281 46.222656 89.324219 46.136719 89.714844 C 46.050781 90.105469 46.078125 90.488281 46.214844 90.863281 C 46.28125 91.082031 46.320312 91.304688 46.332031 91.53125 C 46.320312 93.0625 46.296875 94.59375 46.28125 96.128906 C 46.28125 96.210938 46.347656 96.292969 46.351562 96.375 C 46.417969 96.917969 46.425781 97.460938 46.382812 98.007812 C 46.253906 98.839844 46.394531 99.050781 47.339844 99.082031 Z M 18.746094 86.449219 L 19.71875 89.824219 L 20.210938 89.839844 C 20.277344 89.546875 20.3125 89.25 20.308594 88.949219 C 20.226562 88.257812 20.15625 87.726562 20.9375 87.238281 C 22.382812 86.335938 22.945312 84.804688 23.378906 83.253906 C 23.390625 83.21875 23.316406 83.164062 23.253906 83.078125 C 23.054688 83.054688 22.878906 83.109375 22.722656 83.234375 C 22.566406 83.355469 22.476562 83.519531 22.457031 83.71875 C 22.449219 83.789062 22.449219 83.855469 22.464844 83.925781 C 22.425781 84.269531 22.296875 84.570312 22.078125 84.839844 C 21.859375 85.160156 21.496094 85.394531 21.304688 85.726562 C 20.933594 86.378906 20.417969 86.53125 19.492188 86.234375 L 20.378906 84.957031 C 19.78125 85.042969 19.273438 84.972656 19.058594 85.175781 M 45.152344 116.574219 C 44.808594 116.808594 44.515625 117.09375 44.277344 117.4375 C 43.96875 118.171875 43.488281 119.019531 43.667969 119.71875 C 43.878906 120.550781 44.34375 121.292969 43.886719 122.132812 C 43.859375 122.210938 43.871094 122.285156 43.925781 122.351562 C 44.625 122.707031 44.285156 122.875 43.828125 123.003906 C 43.246094 123.164062 43.242188 123.457031 43.480469 123.972656 C 43.597656 124.242188 43.785156 124.433594 44.054688 124.554688 C 44.320312 124.675781 44.59375 124.6875 44.871094 124.59375 C 44.789062 124.324219 44.605469 124.050781 44.671875 123.871094 C 44.851562 123.507812 45.0625 123.164062 45.300781 122.835938 C 45.65625 122.238281 46.105469 121.671875 45.460938 120.921875 C 45.152344 120.488281 44.882812 120.03125 44.65625 119.546875 C 44.53125 119.390625 44.472656 119.210938 44.476562 119.007812 C 44.480469 118.808594 44.546875 118.632812 44.675781 118.476562 C 44.992188 117.910156 45.238281 117.3125 45.414062 116.6875 Z M 63.382812 68.523438 C 63.199219 68.789062 63.042969 69.066406 62.910156 69.355469 C 62.722656 69.902344 62.769531 70.773438 62.390625 70.964844 C 61.546875 71.398438 61.835938 72.132812 61.457031 72.839844 L 62.28125 72.308594 L 62.558594 72.390625 C 62.558594 72.753906 62.503906 73.113281 62.390625 73.460938 C 62.175781 73.894531 62.28125 74.179688 62.75 74.152344 C 63.289062 74.1875 63.78125 74.046875 64.222656 73.734375 C 64.453125 73.417969 64.578125 73.066406 64.589844 72.679688 C 64.605469 72.289062 64.507812 71.929688 64.300781 71.597656 C 64.117188 71.855469 64.039062 72.074219 63.882812 72.148438 C 63.609375 72.25 63.328125 72.320312 63.039062 72.359375 C 63.042969 72.117188 62.945312 71.808594 63.066406 71.640625 C 63.398438 71.222656 63.761719 70.828125 64.144531 70.457031 C 63.023438 70.050781 63.953125 69.152344 63.382812 68.527344 Z M 55.648438 100.824219 C 55.257812 100.714844 54.863281 100.667969 54.457031 100.6875 C 53.730469 100.84375 52.667969 102.835938 52.808594 103.613281 C 52.929688 104.269531 53.441406 104.980469 52.414062 105.457031 C 53.429688 105.941406 53.648438 105.4375 53.734375 104.800781 L 54.589844 105.042969 C 54.042969 103.710938 54.042969 103.710938 54.609375 102.875 L 53.789062 102.199219 C 55.34375 102.230469 55.804688 101.921875 55.648438 100.824219 Z M 42.226562 79.066406 C 42.582031 79.792969 42.730469 80.601562 43.054688 81.34375 C 43.4375 82.207031 43.914062 83.042969 44.433594 84.074219 C 44.972656 83.421875 45.011719 83.011719 44.707031 82.480469 C 43.949219 81.398438 43.449219 80.210938 43.21875 78.910156 C 43.085938 78.070312 42.898438 77.246094 42.65625 76.429688 C 42.191406 77.394531 41.761719 78.113281 42.226562 79.066406 Z M 21.824219 91.667969 C 22.082031 91.410156 22.300781 91.125 22.480469 90.808594 L 19.167969 92.398438 L 18.957031 94.019531 C 19.945312 93.304688 20.082031 94.273438 20.445312 95.03125 L 21.890625 92.921875 C 21.160156 92.429688 21.285156 92.054688 21.824219 91.667969 Z M 59.675781 73.351562 C 59.628906 73.707031 59.625 74.0625 59.671875 74.417969 C 59.722656 74.636719 60.03125 74.796875 60.195312 75.003906 C 60.289062 75.125 60.421875 75.34375 60.375 75.425781 C 59.953125 76.136719 60.628906 76.597656 60.914062 77.113281 C 61 77.273438 61.585938 77.308594 61.867188 77.21875 C 62 77.175781 62.035156 76.683594 61.96875 76.417969 C 61.894531 76.109375 61.566406 75.839844 61.515625 75.535156 C 61.398438 74.832031 61.382812 74.117188 61.316406 73.304688 L 60.761719 73.574219 Z M 52.578125 111.113281 C 52.445312 110.683594 52.53125 110.207031 52.433594 109.765625 C 52.324219 109.488281 52.175781 109.234375 51.992188 109.003906 C 51.757812 109.179688 51.417969 109.308594 51.304688 109.542969 C 51.109375 110.003906 51.078125 110.480469 51.203125 110.96875 C 51.328125 111.453125 51.585938 111.855469 51.980469 112.167969 C 52.238281 112.402344 52.394531 112.699219 52.445312 113.046875 C 52.453125 113.664062 52.417969 114.28125 52.339844 114.890625 C 53.554688 114.355469 52.667969 113.019531 53.351562 112.519531 C 53.050781 112.074219 52.792969 111.605469 52.578125 111.113281 Z M 6.96875 107.269531 C 7.152344 106.402344 7.21875 105.507812 7.339844 104.625 C 7.375 104.382812 7.34375 104.050781 7.496094 103.921875 C 8.101562 103.410156 8.0625 102.800781 7.882812 101.914062 L 6.226562 104.621094 L 6.503906 104.65625 C 6.523438 104.921875 6.667969 105.300781 6.539062 105.429688 C 5.546875 106.414062 6.230469 107.640625 6.121094 108.75 C 6.113281 108.828125 6.234375 108.925781 6.300781 109.011719 C 6.566406 108.445312 6.789062 107.863281 6.96875 107.261719 Z M 55.644531 70.285156 C 56.070312 69.667969 56.53125 69.066406 56.902344 68.417969 C 57.046875 68.121094 57.09375 67.808594 57.050781 67.480469 C 56.984375 66.992188 56.886719 66.507812 56.761719 66.03125 C 55.867188 66.347656 56.144531 65.207031 55.371094 64.71875 L 55.449219 68.441406 L 55.996094 67.785156 C 56.09375 68.210938 56.082031 68.640625 55.964844 69.0625 C 55.835938 69.457031 55.6875 69.84375 55.519531 70.222656 Z M 49.800781 56.191406 C 50.472656 54.941406 51.789062 53.855469 50.519531 52.140625 C 49.136719 53.589844 48.828125 55.320312 49.800781 56.191406 Z M 13.566406 112.28125 C 13.714844 112.5 13.882812 112.703125 14.070312 112.890625 C 14.304688 113.085938 14.59375 113.375 14.839844 113.367188 C 15.203125 113.269531 15.5 113.070312 15.730469 112.769531 C 15.960938 112.464844 16.070312 112.125 16.070312 111.746094 C 15.949219 111.453125 15.75 111.238281 15.46875 111.09375 C 15.382812 111.046875 15.050781 111.324219 14.898438 111.507812 C 14.730469 111.757812 14.589844 112.023438 14.476562 112.300781 L 13.875 111.484375 Z M 13.753906 114.921875 L 12.667969 114.394531 M 56.808594 58.703125 C 56.816406 58.835938 57.003906 59.082031 57.0625 59.074219 C 57.246094 59.050781 57.546875 58.929688 57.550781 58.835938 C 57.65625 58.226562 57.613281 57.625 57.425781 57.035156 C 56.75 55.796875 56.308594 55.753906 55.535156 56.644531 C 56.714844 57.382812 56.710938 57.382812 56.8125 58.707031 Z M 49.40625 68.121094 C 49.542969 67.734375 49.742188 67.382812 50 67.0625 C 50.398438 66.703125 50.550781 66.417969 50.246094 65.90625 C 49.921875 65.367188 49.992188 64.980469 50.835938 65.195312 L 50.734375 64.050781 C 49.652344 64.402344 48.96875 66.632812 49.40625 68.121094 Z M 49.996094 51.609375 C 50.675781 50.753906 49.914062 49.640625 50.433594 48.757812 L 50.199219 48.652344 L 48.453125 50.324219 L 48.6875 50.5625 L 49.480469 50.179688 L 49.730469 51.550781 Z M 41.433594 117.253906 C 41.855469 116.480469 42.308594 115.71875 42.695312 114.925781 C 42.839844 114.609375 42.898438 114.28125 42.867188 113.9375 C 42.851562 113.742188 42.605469 113.546875 42.460938 113.355469 C 42.320312 113.519531 42.203125 113.699219 42.109375 113.894531 C 42.035156 114.117188 42.085938 114.375 42.019531 114.605469 C 41.765625 115.484375 41.484375 116.355469 41.214844 117.234375 Z M 22.804688 107.175781 L 23.699219 106.464844 L 23.824219 106.589844 L 23.558594 107.457031 C 24.984375 106.707031 23.917969 105.875 23.496094 105.011719 L 22.6875 107.070312 Z M 19.890625 119.261719 L 19.894531 119.269531 M 14.597656 93.226562 C 13.351562 94.125 13.394531 94.988281 14.6875 96.089844 Z M 85.035156 73.40625 C 85.210938 73.378906 85.367188 73.308594 85.496094 73.1875 C 85.628906 73.066406 85.714844 72.917969 85.753906 72.742188 C 85.792969 72.570312 85.777344 72.398438 85.710938 72.234375 C 85.640625 72.070312 85.53125 71.9375 85.382812 71.839844 C 85.285156 71.757812 84.890625 71.792969 84.847656 71.878906 C 84.609375 72.355469 84.433594 72.863281 84.152344 73.589844 C 84.605469 73.5 84.824219 73.46875 85.03125 73.410156 Z M 61.378906 53.394531 C 61.460938 53.773438 61.675781 54.042969 62.023438 54.207031 C 62.292969 54.296875 62.671875 54.027344 62.957031 53.933594 L 61.886719 52.566406 C 61.699219 52.84375 61.351562 53.128906 61.375 53.402344 Z M 63.285156 63.183594 L 62.25 63.148438 L 61.597656 64.804688 C 63.023438 64.921875 62.863281 63.847656 63.28125 63.191406 Z M 61.851562 55.597656 L 62.039062 58.082031 C 63.148438 57.375 62.796875 56.570312 61.847656 55.605469 Z M 39.476562 83.113281 L 37.960938 81.085938 C 37.25 82.539062 38.742188 82.582031 39.214844 83.269531 Z M 38.308594 86.6875 C 38.28125 86.539062 38.203125 86.433594 38.066406 86.371094 C 37.925781 86.359375 37.808594 86.402344 37.710938 86.507812 C 37.570312 86.855469 37.535156 87.214844 37.605469 87.585938 C 37.671875 87.953125 37.835938 88.273438 38.09375 88.550781 C 38.175781 87.84375 38.265625 87.265625 38.308594 86.6875 Z M 25.773438 102.28125 C 25.316406 102.496094 24.878906 102.75 24.464844 103.042969 C 24.304688 103.171875 24.335938 103.53125 24.332031 103.789062 C 24.328125 103.820312 24.710938 103.949219 24.757812 103.898438 C 25.195312 103.441406 25.597656 102.949219 26.011719 102.46875 Z M 50.199219 86.007812 C 50.058594 85.59375 49.875 85.203125 49.644531 84.832031 C 49.613281 84.78125 49.265625 84.894531 49.058594 84.9375 L 49.574219 86.378906 C 49.875 86.203125 50.21875 86.058594 50.199219 86.007812 Z M 51.085938 115.660156 C 51.320312 115.550781 51.746094 115.464844 51.757812 115.332031 C 51.734375 114.992188 51.652344 114.664062 51.515625 114.351562 L 50.761719 114.597656 Z M 29.894531 86.207031 C 30.421875 85.398438 29.6875 84.867188 29.378906 84.238281 C 28.558594 85.140625 29.789062 85.527344 29.894531 86.207031 Z M 19.296875 106.253906 C 19.480469 105.890625 19.617188 105.511719 19.714844 105.117188 C 19.746094 104.925781 19.496094 104.683594 19.375 104.460938 C 19.214844 104.632812 18.941406 104.785156 18.925781 104.976562 C 18.925781 105.386719 18.960938 105.796875 19.039062 106.203125 Z M 49.367188 89.238281 C 49.503906 89.109375 49.578125 88.953125 49.585938 88.765625 C 49.5 88.605469 49.371094 88.515625 49.191406 88.496094 C 48.988281 88.507812 48.828125 88.597656 48.710938 88.765625 C 48.53125 89.207031 48.425781 89.675781 48.234375 90.332031 C 48.703125 89.882812 49.046875 89.574219 49.363281 89.238281 Z M 69.613281 86.953125 C 69.488281 87.101562 69.234375 87.269531 69.261719 87.398438 C 69.363281 87.792969 69.496094 88.179688 69.660156 88.554688 C 69.824219 88.488281 70.132812 88.421875 70.128906 88.351562 C 70.097656 87.988281 70.039062 87.628906 69.957031 87.273438 Z M 50.953125 84.117188 C 50.675781 84.167969 50.398438 84.199219 50.113281 84.21875 C 50.355469 84.429688 50.597656 84.640625 50.847656 84.839844 C 50.964844 84.902344 51.09375 84.949219 51.222656 84.972656 L 51.90625 83.785156 C 51.59375 83.910156 51.273438 84.023438 50.949219 84.117188 Z M 47.546875 42.476562 C 47.691406 42.449219 47.792969 42.367188 47.847656 42.234375 M 48.542969 62.34375 C 49.492188 61.609375 49.457031 61.222656 48.289062 60.640625 Z M 37.417969 86.308594 L 37.339844 84.328125 C 36.9375 84.546875 36.746094 84.882812 36.761719 85.34375 C 36.78125 85.800781 37 86.121094 37.417969 86.308594 Z M 34.050781 91.664062 C 34.054688 91.785156 34.242188 91.910156 34.339844 92.03125 C 34.457031 91.929688 34.652344 91.84375 34.679688 91.726562 C 34.765625 91.253906 34.792969 90.769531 34.851562 90.191406 C 34.570312 90.320312 34.355469 90.519531 34.207031 90.792969 C 34.054688 91.0625 34.003906 91.351562 34.050781 91.660156 Z M 44.898438 129.589844 L 45.5625 127.1875 L 45.105469 127.0625 L 44.628906 129.507812 Z M 38.902344 125.203125 C 38.789062 125.480469 38.695312 125.769531 38.625 126.0625 L 39.535156 126.003906 L 39.445312 124.503906 C 39.242188 124.71875 39.0625 124.953125 38.902344 125.203125 Z M 47.339844 99.070312 C 47.101562 99.273438 46.894531 99.503906 46.710938 99.753906 C 46.632812 99.960938 46.636719 100.164062 46.730469 100.363281 C 46.828125 100.503906 46.960938 100.59375 47.128906 100.632812 C 47.316406 100.515625 47.4375 100.351562 47.496094 100.140625 C 47.476562 99.78125 47.421875 99.425781 47.332031 99.074219 Z M 56.558594 74.9375 L 56.371094 73.1875 C 55.578125 73.921875 55.699219 74.585938 56.558594 74.9375 Z M 50.808594 91.90625 L 50.558594 91.78125 C 50.207031 92.316406 49.277344 92.585938 49.855469 93.710938 Z M 53.109375 78.140625 C 52.996094 78.515625 52.878906 78.890625 52.796875 79.265625 C 52.929688 79.335938 53.066406 79.386719 53.207031 79.429688 C 53.371094 79.074219 53.507812 78.710938 53.648438 78.347656 Z M 54.171875 58.671875 C 55.171875 57.417969 55.171875 57.417969 54.890625 56.84375 Z M 52.886719 59.242188 C 52.597656 59.328125 52.203125 59.332031 52.050781 59.519531 C 51.878906 59.726562 51.921875 60.101562 51.875 60.40625 L 52.105469 60.476562 L 53.042969 59.578125 Z M 19.890625 119.261719 C 21.003906 119.113281 21.609375 118.597656 21.414062 117.738281 L 19.894531 119.273438 Z M 54.152344 90.15625 C 54.246094 90.394531 54.359375 90.84375 54.425781 90.839844 C 54.792969 90.796875 55.152344 90.722656 55.503906 90.609375 L 55.457031 90.246094 L 54.144531 90.160156 Z M 30.0625 87.390625 C 29.984375 87.242188 29.863281 87.140625 29.703125 87.078125 C 29.644531 87.054688 29.457031 87.207031 29.421875 87.3125 C 29.285156 87.710938 29.835938 88.265625 30.355469 88.285156 C 30.277344 87.980469 30.179688 87.683594 30.0625 87.390625 Z M 88.4375 65.210938 L 87.769531 66.914062 C 88.839844 66.335938 88.957031 65.828125 88.4375 65.210938 Z M 61.710938 62.25 C 61.902344 62.019531 62.050781 61.761719 62.160156 61.476562 C 62.191406 61.3125 61.976562 61.078125 61.871094 60.878906 C 61.75 61.027344 61.550781 61.164062 61.523438 61.328125 C 61.5 61.625 61.503906 61.921875 61.542969 62.214844 Z M 22.53125 98.957031 L 23.40625 98.0625 C 22.996094 98.023438 22.613281 97.882812 22.460938 98 C 22.269531 98.152344 22.261719 98.515625 22.175781 98.789062 Z M 23.382812 95.808594 L 23.648438 97.171875 L 24.332031 96.433594 L 23.601562 95.753906 Z M 17.378906 94.140625 L 18.03125 92.742188 L 17.699219 92.59375 L 17.136719 94.027344 Z M 24.652344 96.742188 L 23.847656 98.078125 C 24.699219 97.949219 24.914062 97.535156 24.652344 96.746094 Z M 21.09375 84.769531 C 21.917969 84.472656 21.992188 84.121094 21.292969 83.59375 Z M 21.09375 84.769531 "/></g></g></g></g></g></g><mask id="86ad4fe8a6"><g filter="url(#bdc9da6586)"><rect x="0" width="1125" y="0" height="577.499988" style="fill:#000000;fill-opacity:0.1;stroke:none;"/></g></mask></g></g></g></g></g></g></g></svg>