<svg xmlns="http://www.w3.org/2000/svg" xmlns:xlink="http://www.w3.org/1999/xlink" width="1500" zoomAndPan="magnify" viewBox="0 0 1125 577.499988" height="770" preserveAspectRatio="xMidYMid meet" version="1.2"><defs><clipPath id="415b603389"><path d="M 369 107 L 494 107 L 494 234 L 369 234 Z M 369 107 "/></clipPath><clipPath id="480ccfe61f"><path d="M 461.257812 85.65625 L 511.503906 223.667969 L 418.554688 257.503906 L 368.3125 119.492188 Z M 461.257812 85.65625 "/></clipPath><clipPath id="1fa176e33d"><path d="M 461.257812 85.65625 L 511.503906 223.667969 L 418.554688 257.503906 L 368.3125 119.492188 Z M 461.257812 85.65625 "/></clipPath><clipPath id="73b1c48dc1"><path d="M 369 150 L 483 150 L 483 165 L 369 165 Z M 369 150 "/></clipPath><clipPath id="ebc33e211a"><path d="M 461.257812 85.65625 L 511.503906 223.667969 L 418.554688 257.503906 L 368.3125 119.492188 Z M 461.257812 85.65625 "/></clipPath><clipPath id="192945df71"><path d="M 461.257812 85.65625 L 511.503906 223.667969 L 418.554688 257.503906 L 368.3125 119.492188 Z M 461.257812 85.65625 "/></clipPath><clipPath id="c25e8b36a3"><path d="M 461.734375 85.027344 L 512.027344 223.160156 L 418.375 257.253906 L 368.085938 119.125 Z M 461.734375 85.027344 "/></clipPath><clipPath id="b4282ec542"><path d="M 369.359375 119.476562 L 428.6875 107.355469 L 431.886719 165.765625 L 493.171875 173.242188 L 482.527344 233.648438 L 455.605469 229.378906 L 454.945312 203.429688 L 409.203125 197.722656 C 409.203125 197.722656 398.871094 160.1875 400.445312 142.011719 L 378.433594 147.316406 Z M 369.359375 119.476562 "/></clipPath><clipPath id="93202e9317"><path d="M 385 173 L 494 173 L 494 188 L 385 188 Z M 385 173 "/></clipPath><clipPath id="5cbe75156d"><path d="M 461.257812 85.65625 L 511.503906 223.667969 L 418.554688 257.503906 L 368.3125 119.492188 Z M 461.257812 85.65625 "/></clipPath><clipPath id="e70fc98024"><path d="M 461.257812 85.65625 L 511.503906 223.667969 L 418.554688 257.503906 L 368.3125 119.492188 Z M 461.257812 85.65625 "/></clipPath><clipPath id="11d95fe2b5"><path d="M 461.734375 85.027344 L 512.027344 223.160156 L 418.375 257.253906 L 368.085938 119.125 Z M 461.734375 85.027344 "/></clipPath><clipPath id="c9ea34b974"><path d="M 369.359375 119.476562 L 428.6875 107.355469 L 431.886719 165.765625 L 493.171875 173.242188 L 482.527344 233.648438 L 455.605469 229.378906 L 454.945312 203.429688 L 409.203125 197.722656 C 409.203125 197.722656 398.871094 160.1875 400.445312 142.011719 L 378.433594 147.316406 Z M 369.359375 119.476562 "/></clipPath><clipPath id="c829b7fa24"><path d="M 407 198 L 494 198 L 494 211 L 407 211 Z M 407 198 "/></clipPath><clipPath id="8a0f1e5dbb"><path d="M 461.257812 85.65625 L 511.503906 223.667969 L 418.554688 257.503906 L 368.3125 119.492188 Z M 461.257812 85.65625 "/></clipPath><clipPath id="5392981781"><path d="M 461.257812 85.65625 L 511.503906 223.667969 L 418.554688 257.503906 L 368.3125 119.492188 Z M 461.257812 85.65625 "/></clipPath><clipPath id="fa1e75b7cc"><path d="M 461.734375 85.027344 L 512.027344 223.160156 L 418.375 257.253906 L 368.085938 119.125 Z M 461.734375 85.027344 "/></clipPath><clipPath id="ca218883d8"><path d="M 369.359375 119.476562 L 428.6875 107.355469 L 431.886719 165.765625 L 493.171875 173.242188 L 482.527344 233.648438 L 455.605469 229.378906 L 454.945312 203.429688 L 409.203125 197.722656 C 409.203125 197.722656 398.871094 160.1875 400.445312 142.011719 L 378.433594 147.316406 Z M 369.359375 119.476562 "/></clipPath><clipPath id="73f573090d"><path d="M 369 128 L 462 128 L 462 141 L 369 141 Z M 369 128 "/></clipPath><clipPath id="1efdc5c37a"><path d="M 461.257812 85.65625 L 511.503906 223.667969 L 418.554688 257.503906 L 368.3125 119.492188 Z M 461.257812 85.65625 "/></clipPath><clipPath id="b6a0bf7bd2"><path d="M 461.257812 85.65625 L 511.503906 223.667969 L 418.554688 257.503906 L 368.3125 119.492188 Z M 461.257812 85.65625 "/></clipPath><clipPath id="48af99a6c7"><path d="M 461.734375 85.027344 L 512.027344 223.160156 L 418.375 257.253906 L 368.085938 119.125 Z M 461.734375 85.027344 "/></clipPath><clipPath id="9555c215c1"><path d="M 369.359375 119.476562 L 428.6875 107.355469 L 431.886719 165.765625 L 493.171875 173.242188 L 482.527344 233.648438 L 455.605469 229.378906 L 454.945312 203.429688 L 409.203125 197.722656 C 409.203125 197.722656 398.871094 160.1875 400.445312 142.011719 L 378.433594 147.316406 Z M 369.359375 119.476562 "/></clipPath><clipPath id="8939ded9e2"><path d="M 430 223 L 494 223 L 494 234 L 430 234 Z M 430 223 "/></clipPath><clipPath id="eab6ae3de0"><path d="M 461.257812 85.65625 L 511.503906 223.667969 L 418.554688 257.503906 L 368.3125 119.492188 Z M 461.257812 85.65625 "/></clipPath><clipPath id="e32563169d"><path d="M 461.257812 85.65625 L 511.503906 223.667969 L 418.554688 257.503906 L 368.3125 119.492188 Z M 461.257812 85.65625 "/></clipPath><clipPath id="32c468e415"><path d="M 461.734375 85.027344 L 512.027344 223.160156 L 418.375 257.253906 L 368.085938 119.125 Z M 461.734375 85.027344 "/></clipPath><clipPath id="8fee162b66"><path d="M 369.359375 119.476562 L 428.6875 107.355469 L 431.886719 165.765625 L 493.171875 173.242188 L 482.527344 233.648438 L 455.605469 229.378906 L 454.945312 203.429688 L 409.203125 197.722656 C 409.203125 197.722656 398.871094 160.1875 400.445312 142.011719 L 378.433594 147.316406 Z M 369.359375 119.476562 "/></clipPath><clipPath id="2dcf321eab"><path d="M 373 107 L 439 107 L 439 115 L 373 115 Z M 373 107 "/></clipPath><clipPath id="a3c53eda59"><path d="M 461.257812 85.65625 L 511.503906 223.667969 L 418.554688 257.503906 L 368.3125 119.492188 Z M 461.257812 85.65625 "/></clipPath><clipPath id="5a626f4411"><path d="M 461.257812 85.65625 L 511.503906 223.667969 L 418.554688 257.503906 L 368.3125 119.492188 Z M 461.257812 85.65625 "/></clipPath><clipPath id="fc87939143"><path d="M 461.734375 85.027344 L 512.027344 223.160156 L 418.375 257.253906 L 368.085938 119.125 Z M 461.734375 85.027344 "/></clipPath><clipPath id="ba8f3906d0"><path d="M 369.359375 119.476562 L 428.6875 107.355469 L 431.886719 165.765625 L 493.171875 173.242188 L 482.527344 233.648438 L 455.605469 229.378906 L 454.945312 203.429688 L 409.203125 197.722656 C 409.203125 197.722656 398.871094 160.1875 400.445312 142.011719 L 378.433594 147.316406 Z M 369.359375 119.476562 "/></clipPath><clipPath id="a6cc2971f8"><path d="M 369 107 L 494 107 L 494 234 L 369 234 Z M 369 107 "/></clipPath><clipPath id="2387466937"><path d="M 461.257812 85.65625 L 511.503906 223.667969 L 418.554688 257.503906 L 368.3125 119.492188 Z M 461.257812 85.65625 "/></clipPath><clipPath id="13153a9df1"><path d="M 461.257812 85.65625 L 511.503906 223.667969 L 418.554688 257.503906 L 368.3125 119.492188 Z M 461.257812 85.65625 "/></clipPath><clipPath id="a84b9a0b18"><path d="M 461.734375 85.027344 L 512.027344 223.160156 L 418.375 257.253906 L 368.085938 119.125 Z M 461.734375 85.027344 "/></clipPath><clipPath id="6021602b58"><path d="M 369.359375 119.476562 L 428.6875 107.355469 L 431.886719 165.765625 L 493.171875 173.242188 L 482.527344 233.648438 L 455.605469 229.378906 L 454.945312 203.429688 L 409.203125 197.722656 C 409.203125 197.722656 398.871094 160.1875 400.445312 142.011719 L 378.433594 147.316406 Z M 369.359375 119.476562 "/></clipPath><filter x="0%" y="0%" width="100%" filterUnits="objectBoundingBox" id="4dc1cc8270" height="100%"><feColorMatrix values="0 0 0 0 1 0 0 0 0 1 0 0 0 0 1 0 0 0 1 0" type="matrix" in="SourceGraphic"/></filter><clipPath id="0f558ba2f6"><path d="M 0.289062 7 L 124.261719 7 L 124.261719 112 L 0.289062 112 Z M 0.289062 7 "/></clipPath><clipPath id="9767560c67"><path d="M 92.257812 -21.34375 L 142.503906 116.667969 L 49.554688 150.503906 L -0.6875 12.492188 Z M 92.257812 -21.34375 "/></clipPath><clipPath id="9b715d734e"><path d="M 92.257812 -21.34375 L 142.503906 116.667969 L 49.554688 150.503906 L -0.6875 12.492188 Z M 92.257812 -21.34375 "/></clipPath><clipPath id="1f00c9ee60"><path d="M 92.734375 -21.972656 L 143.027344 116.160156 L 49.375 150.253906 L -0.914062 12.125 Z M 92.734375 -21.972656 "/></clipPath><clipPath id="82c96324f8"><path d="M 0.359375 12.476562 L 59.6875 0.355469 L 62.886719 58.765625 L 124.171875 66.242188 L 113.527344 126.648438 L 86.605469 122.378906 L 85.945312 96.429688 L 40.203125 90.722656 C 40.203125 90.722656 29.871094 53.1875 31.445312 35.011719 L 9.433594 40.316406 Z M 0.359375 12.476562 "/></clipPath><clipPath id="c36016e9c7"><rect x="0" width="125" y="0" height="127"/></clipPath></defs><g id="e01440cdfa"><g clip-rule="nonzero" clip-path="url(#415b603389)"><g clip-rule="nonzero" clip-path="url(#480ccfe61f)"><g clip-rule="nonzero" clip-path="url(#1fa176e33d)"><path style=" stroke:none;fill-rule:nonzero;fill:#4a7934;fill-opacity:1;" d="M 369.359375 119.476562 L 428.6875 107.355469 L 431.886719 165.765625 L 493.171875 173.242188 L 482.527344 233.648438 L 455.605469 229.378906 L 454.945312 203.429688 L 409.203125 197.722656 C 409.203125 197.722656 398.871094 160.1875 400.445312 142.011719 L 378.433594 147.316406 Z M 369.359375 119.476562 "/></g></g></g><g clip-rule="nonzero" clip-path="url(#73b1c48dc1)"><g clip-rule="nonzero" clip-path="url(#ebc33e211a)"><g clip-rule="nonzero" clip-path="url(#192945df71)"><g clip-rule="nonzero" clip-path="url(#c25e8b36a3)"><g clip-rule="nonzero" clip-path="url(#b4282ec542)"><path style=" stroke:none;fill-rule:nonzero;fill:#2a2a75;fill-opacity:1;" d="M 473.972656 150.867188 L 482.371094 159.667969 C 446.285156 160.304688 409.59375 160.953125 372.902344 161.601562 L 372.621094 164.058594 L 363.699219 154.707031 L 473.25 152.882812 Z M 473.972656 150.867188 "/></g></g></g></g></g><g clip-rule="nonzero" clip-path="url(#93202e9317)"><g clip-rule="nonzero" clip-path="url(#5cbe75156d)"><g clip-rule="nonzero" clip-path="url(#e70fc98024)"><g clip-rule="nonzero" clip-path="url(#11d95fe2b5)"><g clip-rule="nonzero" clip-path="url(#c9ea34b974)"><path style=" stroke:none;fill-rule:nonzero;fill:#2a2a75;fill-opacity:1;" d="M 394.742188 187.199219 L 385.820312 177.847656 C 422.070312 177.195312 458.816406 176.53125 495.5625 175.867188 L 495.847656 173.832031 L 504.871094 183.285156 C 468.4375 183.832031 431.707031 184.378906 394.976562 184.925781 Z M 394.742188 187.199219 "/></g></g></g></g></g><g clip-rule="nonzero" clip-path="url(#c829b7fa24)"><g clip-rule="nonzero" clip-path="url(#8a0f1e5dbb)"><g clip-rule="nonzero" clip-path="url(#5392981781)"><g clip-rule="nonzero" clip-path="url(#fa1e75b7cc)"><g clip-rule="nonzero" clip-path="url(#ca218883d8)"><path style=" stroke:none;fill-rule:nonzero;fill:#2a2a75;fill-opacity:1;" d="M 519.070312 198.363281 L 523.09375 202.578125 L 516.472656 208.894531 C 500.441406 209.136719 483.671875 209.347656 466.886719 209.652344 C 450.292969 209.953125 433.683594 210.355469 417.4375 210.707031 L 407.632812 200.425781 C 444.265625 199.75 480.855469 199.070312 519.070312 198.363281 Z M 519.070312 198.363281 "/></g></g></g></g></g><g clip-rule="nonzero" clip-path="url(#73f573090d)"><g clip-rule="nonzero" clip-path="url(#1efdc5c37a)"><g clip-rule="nonzero" clip-path="url(#b6a0bf7bd2)"><g clip-rule="nonzero" clip-path="url(#48af99a6c7)"><g clip-rule="nonzero" clip-path="url(#9555c215c1)"><path style=" stroke:none;fill-rule:nonzero;fill:#2a2a75;fill-opacity:1;" d="M 348.214844 138.195312 L 356.882812 129.921875 C 388.460938 129.339844 419.707031 128.761719 452.136719 128.160156 L 461.0625 137.515625 C 452.554688 140.402344 351.683594 141.292969 348.214844 138.195312 Z M 348.214844 138.195312 "/></g></g></g></g></g><g clip-rule="nonzero" clip-path="url(#8939ded9e2)"><g clip-rule="nonzero" clip-path="url(#eab6ae3de0)"><g clip-rule="nonzero" clip-path="url(#e32563169d)"><g clip-rule="nonzero" clip-path="url(#32c468e415)"><g clip-rule="nonzero" clip-path="url(#8fee162b66)"><path style=" stroke:none;fill-rule:nonzero;fill:#2a2a75;fill-opacity:1;" d="M 439.578125 234.214844 L 430.175781 224.359375 C 453.726562 223.933594 477.816406 223.496094 501.265625 223.070312 C 498.699219 228.53125 492.496094 232.824219 485.410156 233.007812 C 469.976562 233.40625 454.539062 233.820312 439.578125 234.214844 Z M 439.578125 234.214844 "/></g></g></g></g></g><g clip-rule="nonzero" clip-path="url(#2dcf321eab)"><g clip-rule="nonzero" clip-path="url(#a3c53eda59)"><g clip-rule="nonzero" clip-path="url(#5a626f4411)"><g clip-rule="nonzero" clip-path="url(#fc87939143)"><g clip-rule="nonzero" clip-path="url(#ba8f3906d0)"><path style=" stroke:none;fill-rule:nonzero;fill:#2a2a75;fill-opacity:1;" d="M 429.4375 103.875 C 432.492188 107.078125 435.050781 109.726562 437.566406 112.421875 C 437.867188 112.734375 438.101562 113.089844 438.273438 113.488281 L 373 114.652344 C 377.128906 110.734375 380.558594 104.476562 389.382812 104.707031 C 402.621094 105.070312 415.996094 104.214844 429.4375 103.875 Z M 429.4375 103.875 "/></g></g></g></g></g><g clip-rule="nonzero" clip-path="url(#a6cc2971f8)"><g clip-rule="nonzero" clip-path="url(#2387466937)"><g clip-rule="nonzero" clip-path="url(#13153a9df1)"><g clip-rule="nonzero" clip-path="url(#a84b9a0b18)"><g clip-rule="nonzero" clip-path="url(#6021602b58)"><g mask="url(#8e20186ca6)" transform="matrix(1,0,0,1,369,107)"><g clip-path="url(#c36016e9c7)"><g clip-rule="nonzero" clip-path="url(#0f558ba2f6)"><g clip-rule="nonzero" clip-path="url(#9767560c67)"><g clip-rule="nonzero" clip-path="url(#9b715d734e)"><g clip-rule="nonzero" clip-path="url(#1f00c9ee60)"><g clip-rule="nonzero" clip-path="url(#82c96324f8)"><path style=" stroke:none;fill-rule:nonzero;fill:#ffffff;fill-opacity:1;" d="M 76.441406 65.210938 C 76.667969 65.390625 76.933594 65.761719 77.121094 65.714844 C 78.007812 65.480469 78.222656 66.183594 78.589844 66.695312 C 78.84375 67.054688 79.097656 67.40625 79.421875 67.859375 C 80.101562 66.730469 80.65625 67.800781 81.277344 67.675781 L 81.039062 67.132812 L 82.71875 67.691406 C 82.734375 67.558594 82.730469 67.425781 82.710938 67.296875 C 82.695312 67.164062 82.660156 67.039062 82.609375 66.914062 C 82.554688 66.792969 82.492188 66.679688 82.410156 66.574219 C 82.332031 66.464844 82.238281 66.371094 82.132812 66.289062 C 82.03125 66.207031 81.917969 66.140625 81.796875 66.085938 C 81.675781 66.03125 81.550781 65.992188 81.417969 65.972656 C 81.289062 65.949219 81.15625 65.945312 81.023438 65.957031 C 80.890625 65.96875 80.761719 65.996094 80.636719 66.039062 C 80.472656 66.121094 80.296875 66.171875 80.113281 66.191406 C 79.929688 66.207031 79.75 66.195312 79.570312 66.144531 C 79.390625 66.097656 79.226562 66.019531 79.078125 65.914062 C 78.925781 65.804688 78.800781 65.675781 78.695312 65.523438 C 79.152344 65.34375 79.617188 65.199219 80.09375 65.089844 C 81.109375 64.945312 82.136719 64.875 83.148438 64.757812 C 83.785156 64.683594 83.953125 64.507812 83.976562 63.949219 C 83.730469 64.019531 83.480469 64.050781 83.226562 64.050781 C 83.011719 64.027344 82.847656 63.921875 82.738281 63.738281 C 82.476562 62.992188 81.84375 62.558594 81.296875 63.023438 C 80.617188 63.5625 79.847656 63.765625 78.992188 63.628906 C 78.8125 63.609375 78.652344 63.652344 78.507812 63.761719 C 78.015625 64.308594 77.535156 64.15625 77.039062 63.886719 Z M 83.527344 49.476562 C 83.664062 49.515625 83.855469 49.503906 83.925781 49.597656 C 84.515625 50.390625 84.890625 49.753906 85.453125 49.246094 L 83.902344 48.652344 Z M 79.5 58.421875 C 79.917969 58.878906 80.347656 59.078125 80.945312 58.445312 L 79.871094 57.589844 Z M 74.574219 69.351562 C 75 69.675781 75.40625 70.109375 76.179688 69.429688 L 74.875 68.691406 Z M 80.695312 55.769531 L 81.890625 55.535156 L 81.917969 55.261719 L 81.214844 54.609375 Z M 89.371094 96.140625 C 88.929688 95.375 88.550781 95.066406 87.890625 95.105469 C 87.113281 95.152344 86.328125 95.09375 85.546875 95.074219 L 85.570312 94.742188 C 86.347656 94.75 87.121094 94.71875 87.894531 94.640625 C 88.195312 94.589844 88.488281 94.617188 88.769531 94.722656 C 89.054688 94.832031 89.292969 95.003906 89.480469 95.242188 C 89.671875 95.480469 89.785156 95.75 89.828125 96.050781 C 89.871094 96.351562 89.832031 96.644531 89.710938 96.921875 L 87.859375 97.039062 C 88.113281 98.058594 88.457031 98.144531 89.285156 98.015625 C 90.605469 97.816406 91.957031 97.101562 93.269531 97.882812 C 93.417969 97.972656 93.648438 97.921875 93.839844 97.9375 L 93.929688 97.609375 L 92.265625 96.992188 L 92.355469 96.753906 L 93.992188 97.042969 L 93.957031 95.539062 C 95.101562 95.882812 96.261719 95.972656 97.445312 95.8125 L 98.25 96.28125 C 97.703125 94.417969 97.042969 93.816406 96.050781 94.046875 L 97.132812 95.015625 L 96.980469 95.234375 C 96.527344 94.957031 95.847656 94.796875 95.667969 94.378906 C 95.160156 93.179688 94.988281 93.023438 93.726562 92.890625 C 92.972656 92.855469 92.289062 92.617188 91.671875 92.179688 C 90.839844 91.367188 90.078125 90.488281 89.390625 89.550781 C 88.699219 88.722656 88.320312 88.65625 87.328125 89.175781 C 86.910156 89.445312 86.453125 89.574219 85.953125 89.5625 C 85.457031 89.550781 85.003906 89.398438 84.601562 89.105469 C 84.378906 88.941406 83.828125 88.820312 83.78125 88.902344 C 83.402344 89.527344 82.855469 89.324219 82.367188 89.453125 C 82.121094 89.628906 81.980469 89.867188 81.945312 90.167969 C 82.3125 90.625 82.707031 91.050781 83.136719 91.449219 L 83.539062 90.273438 L 83.816406 90.25 C 83.921875 90.617188 84.050781 90.976562 84.199219 91.328125 C 84.328125 91.582031 84.519531 91.945312 84.738281 91.980469 C 85.382812 92.089844 86.027344 92.101562 86.675781 92.015625 C 87.042969 91.871094 87.367188 91.65625 87.640625 91.371094 C 87.851562 91.21875 88.128906 90.871094 88.234375 90.917969 C 88.503906 91.042969 88.859375 91.320312 88.875 91.570312 C 88.875 92.183594 88.820312 92.792969 88.710938 93.398438 L 87.769531 93.664062 L 87.363281 92.875 L 86.117188 93.503906 L 85.664062 94.515625 C 85.359375 93.226562 85.308594 93.199219 84.230469 93.371094 C 84.058594 93.40625 83.894531 93.402344 83.726562 93.355469 C 82.910156 93.050781 82.28125 93.578125 81.605469 93.890625 L 81.597656 94.148438 L 85.09375 94.328125 L 84.746094 95.222656 Z M 122.691406 73.757812 C 122.164062 73.902344 121.597656 74.148438 121.414062 73.316406 L 121.414062 73.324219 L 120.03125 72.152344 C 119.953125 72.261719 119.878906 72.375 119.816406 72.492188 C 119.640625 72.839844 119.484375 73.480469 119.304688 73.496094 C 118.253906 73.585938 117.703125 74.550781 116.878906 75.007812 C 116.679688 75.113281 116.664062 75.632812 116.566406 75.960938 C 117.253906 76.035156 118.046875 76.382812 118.597656 76.109375 C 119.066406 75.835938 119.566406 75.761719 120.09375 75.886719 C 120.640625 75.992188 121.191406 76.054688 121.746094 76.074219 C 122.914062 76.148438 124.207031 75.558594 125.203125 76.613281 C 125.253906 76.671875 125.765625 76.398438 125.898438 76.175781 C 126.003906 76.003906 125.890625 75.660156 125.828125 75.40625 C 125.671875 74.785156 125.902344 74.570312 126.488281 74.644531 C 126.734375 74.679688 126.976562 74.667969 127.21875 74.613281 M 109.628906 102.054688 C 109.550781 102.789062 109.105469 102.84375 108.535156 102.652344 C 108.351562 102.574219 108.160156 102.542969 107.957031 102.554688 C 107.789062 102.621094 107.636719 102.71875 107.503906 102.84375 C 107.597656 102.964844 107.675781 103.171875 107.796875 103.199219 C 108.398438 103.332031 109.019531 103.40625 109.621094 103.527344 C 110.238281 103.648438 110.839844 103.824219 111.429688 104.050781 C 108.875 104.835938 107.613281 105.226562 106.253906 101.601562 C 104.957031 102.523438 103.695312 101.929688 102.191406 101.800781 L 102.824219 101.355469 C 102.703125 101.269531 102.632812 101.171875 102.570312 101.183594 C 101.957031 101.28125 101.34375 101.445312 100.722656 101.496094 C 100.332031 101.476562 99.945312 101.429688 99.5625 101.347656 C 99.445312 101.339844 99.308594 101.457031 99.179688 101.515625 L 99.136719 101.769531 C 98.804688 101.574219 98.460938 101.394531 98.109375 101.238281 C 97.855469 101.15625 97.59375 101.121094 97.328125 101.132812 C 96.683594 101.128906 96.039062 101.183594 95.398438 101.152344 C 95.226562 101.144531 95.078125 100.90625 94.917969 100.773438 C 95.089844 100.589844 95.238281 100.304688 95.4375 100.246094 C 96.113281 100.050781 96.804688 99.914062 97.503906 99.835938 C 97.710938 99.816406 97.917969 100.152344 98.140625 100.292969 C 98.429688 100.46875 98.734375 100.765625 99.027344 100.746094 C 99.738281 100.660156 100.4375 100.527344 101.125 100.339844 C 101.414062 100.273438 101.695312 100.152344 101.980469 100.058594 C 101.730469 99.820312 101.453125 99.609375 101.15625 99.433594 C 100.914062 99.320312 100.578125 99.421875 100.324219 99.328125 C 100.117188 99.238281 99.992188 99.082031 99.949219 98.859375 C 100.015625 98.644531 100.152344 98.492188 100.359375 98.40625 C 101.394531 98 101.707031 98.144531 102.277344 99.121094 C 102.433594 99.359375 102.644531 99.535156 102.902344 99.648438 C 103.554688 99.964844 104.230469 100.234375 104.921875 100.449219 C 105.25 100.496094 105.523438 100.402344 105.75 100.164062 C 105.886719 99.988281 105.800781 99.574219 105.730469 99.296875 C 105.609375 99.035156 105.507812 98.765625 105.429688 98.488281 C 106.480469 99.960938 108.179688 100.214844 109.644531 100.859375 C 110.363281 101.085938 111.09375 101.140625 111.839844 101.019531 C 112.046875 100.964844 112.246094 100.992188 112.429688 101.101562 C 112.617188 101.210938 112.734375 101.367188 112.789062 101.574219 C 112.800781 101.621094 112.808594 101.664062 112.8125 101.710938 C 112.230469 101.808594 111.539062 101.710938 111.21875 102.023438 C 110.601562 102.613281 110.242188 101.929688 109.621094 102.058594 Z M 108.347656 101.027344 L 108.390625 100.769531 L 106.789062 100.515625 L 106.726562 100.933594 Z M 82.402344 69.167969 C 82.699219 69.527344 83 69.886719 83.285156 70.253906 C 83.851562 70.984375 83.847656 70.988281 83.59375 71.390625 C 82.875 70.71875 82.792969 70.582031 81.789062 72.121094 C 81.648438 71.707031 82.121094 70.851562 81.234375 71.070312 C 80.753906 71.203125 80.300781 71.40625 79.886719 71.683594 C 79.371094 72.015625 79.332031 72.476562 79.792969 72.847656 C 80.0625 73.160156 80.402344 73.347656 80.808594 73.417969 C 81.214844 73.488281 81.597656 73.417969 81.957031 73.214844 C 81.992188 73.195312 82.0625 73.234375 82.15625 73.257812 L 82.402344 73.917969 L 82.667969 73.945312 L 83.027344 72.640625 L 86.207031 73.640625 L 86.292969 73.480469 L 85.132812 72.433594 L 87.152344 71.917969 L 87.667969 70.953125 C 86.027344 70.21875 84.621094 68.722656 82.574219 68.910156 Z M 94.257812 61.914062 C 95.578125 61.75 96.503906 60.800781 97.476562 59.976562 C 97.640625 59.835938 97.613281 59.433594 97.667969 59.152344 C 97.417969 59.21875 97.1875 59.324219 96.976562 59.46875 C 96.191406 60.265625 95.800781 60.292969 95.074219 59.550781 C 94.953125 59.433594 94.8125 59.34375 94.65625 59.277344 C 93.984375 58.992188 93.320312 58.683594 92.625 58.460938 C 92.339844 58.410156 92.066406 58.449219 91.804688 58.582031 C 91.082031 58.902344 90.363281 59.257812 89.660156 59.636719 C 89.359375 59.777344 89.117188 59.980469 88.925781 60.25 C 88.761719 60.535156 88.734375 60.832031 88.839844 61.140625 C 89.050781 61.40625 89.324219 61.546875 89.664062 61.5625 C 90.714844 61.621094 91.773438 61.574219 92.824219 61.648438 C 93.136719 61.671875 93.414062 61.980469 93.84375 62.234375 C 93.941406 62.082031 94.078125 61.972656 94.25 61.910156 Z M 99.34375 74.378906 C 99.117188 74.351562 98.886719 74.359375 98.660156 74.402344 C 98.789062 74.621094 98.882812 75.003906 99.046875 75.027344 C 100.589844 75.273438 102.144531 75.472656 103.699219 75.660156 C 104.417969 75.742188 105.144531 75.792969 105.867188 75.820312 C 106.222656 75.808594 106.574219 75.769531 106.925781 75.707031 C 107.011719 74.261719 106.335938 73.746094 105.074219 74.097656 C 104.636719 74.246094 104.199219 74.246094 103.765625 74.097656 C 103.210938 73.832031 102.792969 73.28125 102.246094 72.984375 C 101.898438 72.878906 101.5625 72.917969 101.246094 73.101562 C 100.882812 73.363281 100.558594 73.664062 100.269531 74.007812 L 100.195312 74.820312 C 99.921875 74.644531 99.636719 74.5 99.335938 74.382812 Z M 98.421875 57.851562 C 98.136719 58.554688 98.777344 58.71875 99.152344 58.863281 C 99.847656 59.066406 100.496094 59.378906 101.089844 59.800781 C 101.542969 60.074219 101.976562 60.375 102.398438 60.699219 C 102.625 60.964844 102.910156 61.132812 103.25 61.210938 C 103.589844 61.289062 103.921875 61.253906 104.238281 61.113281 M 127.335938 80.007812 C 126.503906 80.132812 125.769531 80.265625 125.167969 79.542969 C 125.066406 79.417969 124.808594 79.410156 124.617188 79.410156 C 124.121094 79.414062 123.621094 79.460938 123.097656 79.488281 C 123.027344 79.679688 122.925781 79.851562 122.789062 80 C 122.648438 80.152344 122.488281 80.269531 122.304688 80.355469 C 122.121094 80.441406 121.925781 80.488281 121.722656 80.5 C 121.519531 80.507812 121.324219 80.476562 121.132812 80.40625 L 121.117188 80.402344 C 120.601562 80.296875 120.039062 80.074219 119.585938 80.710938 C 119.855469 81.003906 120.183594 81.203125 120.570312 81.308594 C 120.957031 81.410156 121.339844 81.402344 121.722656 81.285156 C 121.941406 81.230469 122.164062 81.207031 122.390625 81.207031 C 123.921875 81.292969 125.449219 81.390625 126.980469 81.480469 C 127.058594 81.484375 127.144531 81.421875 127.230469 81.421875 M 112.988281 103.714844 C 112.957031 103.703125 112.894531 103.773438 112.808594 103.832031 C 112.789062 103.945312 112.796875 104.054688 112.832031 104.164062 C 112.867188 104.273438 112.921875 104.367188 113.003906 104.449219 C 113.082031 104.53125 113.175781 104.59375 113.285156 104.628906 C 113.390625 104.667969 113.503906 104.679688 113.617188 104.664062 M 100.261719 63.03125 C 100.515625 63.226562 100.785156 63.398438 101.070312 63.542969 C 101.605469 63.761719 102.476562 63.753906 102.648438 64.140625 C 103.039062 65.011719 103.789062 64.753906 104.472656 65.164062 L 103.984375 64.320312 L 104.078125 64.042969 C 104.441406 64.0625 104.796875 64.132812 105.140625 64.261719 C 105.5625 64.5 105.851562 64.40625 105.851562 63.941406 C 105.910156 63.402344 105.792969 62.90625 105.503906 62.449219 C 105.199219 62.203125 104.855469 62.0625 104.46875 62.027344 C 104.078125 61.996094 103.714844 62.074219 103.375 62.261719 C 103.625 62.460938 103.839844 62.546875 103.90625 62.710938 C 103.992188 62.988281 104.046875 63.269531 104.074219 63.558594 C 103.832031 63.546875 103.519531 63.625 103.359375 63.5 C 102.957031 63.144531 102.578125 62.765625 102.226562 62.363281 C 101.769531 63.464844 100.910156 62.488281 100.261719 63.035156 Z M 66.203125 90.132812 C 66.03125 90.292969 66.011719 90.644531 65.921875 90.898438 C 66.195312 90.949219 66.492188 91.105469 66.730469 91.023438 C 67.4375 90.78125 68.101562 90.355469 68.808594 90.179688 C 69.714844 89.953125 70.65625 89.910156 71.582031 89.761719 C 71.8125 89.695312 72.03125 89.605469 72.238281 89.488281 L 71.945312 89.074219 C 71.464844 88.882812 70.96875 88.757812 70.453125 88.707031 C 69.941406 88.65625 69.429688 88.675781 68.921875 88.769531 C 68.414062 88.863281 67.929688 89.027344 67.464844 89.257812 C 67.003906 89.488281 66.585938 89.78125 66.207031 90.132812 Z M 109.746094 84.683594 C 110.492188 84.363281 111.300781 84.253906 112.058594 83.96875 C 112.945312 83.632812 113.796875 83.199219 114.855469 82.726562 C 114.230469 82.15625 113.824219 82.09375 113.273438 82.375 C 112.160156 83.078125 110.945312 83.515625 109.636719 83.6875 C 108.792969 83.777344 107.957031 83.925781 107.128906 84.125 C 108.078125 84.632812 108.765625 85.101562 109.746094 84.683594 Z M 104.898438 66.96875 C 105.25 67.035156 105.605469 67.054688 105.964844 67.027344 C 106.183594 66.988281 106.359375 66.6875 106.574219 66.535156 C 106.699219 66.445312 106.925781 66.324219 107.003906 66.378906 C 107.695312 66.835938 108.191406 66.183594 108.714844 65.921875 C 108.878906 65.839844 108.945312 65.257812 108.867188 64.972656 C 108.832031 64.839844 108.339844 64.78125 108.078125 64.835938 C 107.765625 64.894531 107.480469 65.207031 107.175781 65.246094 C 106.464844 65.324219 105.75 65.304688 104.933594 65.335938 L 105.175781 65.90625 Z M 101.632812 70.851562 C 101.035156 70.394531 100.457031 69.90625 99.828125 69.5 C 99.539062 69.34375 99.230469 69.28125 98.902344 69.308594 C 98.410156 69.351562 97.921875 69.425781 97.441406 69.527344 C 97.710938 70.4375 96.589844 70.101562 96.0625 70.847656 L 99.785156 70.957031 L 99.15625 70.375 C 99.589844 70.300781 100.015625 70.335938 100.429688 70.476562 C 100.820312 70.625 101.199219 70.792969 101.566406 70.980469 Z M 87.269531 75.992188 C 86.050781 75.257812 85.03125 73.890625 83.257812 75.074219 C 84.636719 76.515625 86.355469 76.914062 87.269531 75.988281 Z M 75.492188 97.175781 C 75.207031 97.136719 74.800781 97.015625 74.707031 96.796875 C 74.519531 96.429688 74.25 96.132812 73.902344 95.910156 C 73.554688 95.683594 73.171875 95.5625 72.761719 95.542969 C 73.171875 95.90625 73.515625 96.328125 73.789062 96.804688 C 74.425781 98.46875 75.785156 98.789062 77.28125 97.257812 C 76.683594 97.234375 76.082031 97.246094 75.492188 97.171875 Z M 90.128906 69.113281 C 90.261719 69.109375 90.519531 68.933594 90.511719 68.875 C 90.496094 68.691406 90.390625 68.382812 90.292969 68.375 C 89.6875 68.242188 89.089844 68.253906 88.488281 68.414062 C 87.222656 69.03125 87.15625 69.46875 88.007812 70.285156 C 88.800781 69.144531 88.800781 69.148438 90.128906 69.113281 Z M 99.164062 76.972656 C 98.785156 76.816406 98.441406 76.601562 98.132812 76.328125 C 97.796875 75.910156 97.519531 75.742188 96.992188 76.023438 C 96.433594 76.316406 96.058594 76.230469 96.3125 75.398438 L 95.164062 75.445312 C 95.464844 76.542969 97.65625 77.335938 99.164062 76.972656 Z M 82.707031 75.566406 C 81.886719 74.847656 80.734375 75.554688 79.878906 74.992188 L 79.761719 75.222656 L 81.347656 77.046875 L 81.59375 76.828125 L 81.25 76.011719 L 82.628906 75.832031 Z M 78.765625 85.410156 C 78.949219 85.425781 79.15625 85.199219 79.355469 85.085938 C 79.210938 84.886719 79.105469 84.601562 78.910156 84.503906 C 78.558594 84.347656 78.1875 84.238281 77.804688 84.175781 C 77.511719 84.140625 77.214844 84.121094 76.914062 84.125 C 77.058594 84.511719 77.296875 84.824219 77.636719 85.058594 C 77.976562 85.292969 78.351562 85.410156 78.761719 85.410156 Z M 109.804688 109.730469 L 110.570312 109.128906 L 96.761719 103.316406 C 95.703125 101.980469 94.757812 101.847656 93.90625 103.179688 C 94.335938 103.089844 94.765625 103.054688 95.203125 103.070312 C 95.691406 103.199219 96.164062 103.367188 96.625 103.574219 Z M 92.683594 102.210938 C 93.070312 102.53125 93.21875 103.253906 93.976562 102.902344 C 93.792969 102.058594 94.105469 101.582031 95.082031 101.164062 C 81.535156 94.246094 81.535156 94.246094 79.636719 95.789062 Z M 98.105469 70.710938 C 98.484375 70.648438 98.765625 70.445312 98.945312 70.105469 C 99.046875 69.84375 98.796875 69.453125 98.71875 69.160156 L 97.296875 70.164062 C 84.511719 63.941406 84.785156 64.300781 85.054688 64.289062 Z M 107.972656 69.289062 L 107.886719 70.324219 L 109.507812 71.054688 C 96.644531 63.210938 95.5625 63.320312 94.925781 62.867188 Z M 100.328125 70.347656 L 102.816406 70.28125 C 89.113281 62.71875 88.292969 63.027344 87.277344 63.925781 Z M 126.703125 94.050781 L 124.605469 95.46875 C 126.023438 96.25 126.136719 94.765625 126.847656 94.324219 Z M 117.164062 88.972656 C 117.015625 88.992188 116.910156 89.066406 116.839844 89.195312 C 116.820312 89.335938 116.859375 89.457031 116.957031 89.558594 C 117.296875 89.71875 117.652344 89.773438 118.027344 89.722656 C 118.398438 89.671875 118.726562 89.527344 119.015625 89.285156 C 118.3125 89.164062 117.742188 89.050781 117.160156 88.972656 Z M 117.074219 77.058594 C 116.65625 77.179688 116.257812 77.347656 115.875 77.5625 C 115.824219 77.589844 115.921875 77.945312 115.953125 78.144531 L 117.414062 77.699219 C 117.253906 77.394531 117.125 77.042969 117.074219 77.058594 Z M 100.328125 111.445312 L 102.214844 110.464844 C 100.625 110.046875 100.234375 110.242188 100.328125 111.445312 Z M 116.269531 97.351562 C 115.488281 96.78125 114.921875 97.488281 114.277344 97.765625 C 115.136719 98.636719 115.585938 97.425781 116.273438 97.351562 Z M 120.257812 78.050781 C 120.136719 77.910156 119.980469 77.828125 119.792969 77.808594 C 119.632812 77.886719 119.535156 78.015625 119.507812 78.191406 C 119.507812 78.394531 119.589844 78.558594 119.753906 78.683594 C 120.183594 78.886719 120.652344 79.015625 121.292969 79.238281 C 120.867188 78.75 120.578125 78.386719 120.257812 78.054688 Z M 82.207031 100.988281 C 81.5 101.300781 80.789062 101.605469 80.089844 101.941406 C 80.015625 101.976562 79.976562 102.199219 79.992188 102.320312 C 80.058594 102.414062 80.148438 102.457031 80.261719 102.445312 C 80.953125 102.050781 81.636719 101.632812 82.324219 101.214844 Z M 115.226562 76.21875 C 115.257812 76.496094 115.277344 76.777344 115.28125 77.058594 C 115.503906 76.824219 115.734375 76.601562 115.941406 76.359375 C 116.007812 76.242188 116.058594 76.117188 116.09375 75.988281 L 114.941406 75.25 C 115.050781 75.566406 115.144531 75.890625 115.226562 76.222656 Z M 73.234375 77.878906 C 73.363281 77.808594 73.4375 77.707031 73.46875 77.566406 C 73.445312 77.421875 73.371094 77.316406 73.238281 77.253906 C 72.855469 77.128906 72.453125 77.039062 71.960938 76.921875 C 72.101562 77.617188 72.78125 78.085938 73.230469 77.882812 Z M 93.359375 77.546875 C 92.671875 76.5625 92.285156 76.574219 91.644531 77.71875 Z M 116.746094 89.839844 L 114.765625 89.816406 C 114.964844 90.222656 115.292969 90.429688 115.746094 90.4375 C 116.199219 90.445312 116.53125 90.246094 116.738281 89.84375 Z M 106.324219 70.164062 L 104.566406 70.265625 C 105.265625 71.09375 105.933594 71.007812 106.328125 70.164062 Z M 122.988281 76.746094 L 122.851562 76.992188 C 123.371094 77.367188 123.59375 78.3125 124.742188 77.789062 Z M 109.355469 73.773438 C 109.722656 73.902344 110.085938 74.035156 110.460938 74.140625 C 110.535156 74.011719 110.59375 73.878906 110.640625 73.738281 C 110.296875 73.558594 109.9375 73.402344 109.582031 73.242188 Z M 89.964844 71.746094 C 88.761719 70.6875 88.761719 70.6875 88.171875 70.941406 Z M 90.476562 73.0625 C 90.546875 73.355469 90.527344 73.75 90.707031 73.910156 C 90.910156 74.09375 91.285156 74.070312 91.582031 74.132812 L 91.660156 73.902344 L 90.8125 72.921875 Z M 121.414062 73.320312 C 121.660156 73.238281 122.113281 73.148438 122.113281 73.082031 C 122.089844 72.714844 122.03125 72.351562 121.9375 71.992188 L 121.570312 72.023438 L 121.417969 73.324219 Z M 117.464844 97.242188 C 117.3125 97.316406 117.199219 97.433594 117.132812 97.589844 C 117.105469 97.644531 117.25 97.839844 117.351562 97.882812 C 117.742188 98.039062 118.328125 97.515625 118.371094 96.996094 C 118.0625 97.0625 117.757812 97.140625 117.457031 97.242188 Z M 93.914062 64.394531 C 93.691406 64.191406 93.4375 64.027344 93.160156 63.90625 C 92.992188 63.859375 92.753906 64.070312 92.546875 64.164062 C 92.691406 64.292969 92.8125 64.496094 92.980469 64.535156 C 93.273438 64.574219 93.570312 64.582031 93.867188 64.5625 Z M 91.976562 102.546875 L 93.664062 102.199219 L 93.644531 101.914062 L 91.9375 102.085938 Z M 105.339844 108.851562 L 107.136719 109.207031 L 107.210938 108.878906 L 105.414062 108.558594 Z M 98.515625 98.574219 C 98.746094 98.558594 98.972656 98.507812 99.1875 98.417969 C 99.113281 98.261719 99.074219 97.996094 98.960938 97.964844 C 98.671875 97.941406 98.382812 97.964844 98.097656 98.035156 C 98.320312 98.332031 98.402344 98.566406 98.515625 98.574219 Z M 74.894531 80.921875 C 75.058594 81.429688 75.128906 82.019531 75.710938 82.160156 L 75.921875 81.984375 L 75.097656 80.78125 Z M 105.757812 110.253906 L 106.957031 110.585938 L 107.027344 110.355469 L 105.898438 109.847656 Z M 89.988281 91.433594 L 89.125 91.734375 L 89.519531 92.988281 C 89.113281 92.828125 88.695312 92.699219 88.269531 92.601562 C 88 92.613281 87.738281 92.671875 87.492188 92.78125 C 87.59375 93.015625 87.722656 93.230469 87.878906 93.433594 C 88.074219 93.570312 88.289062 93.671875 88.519531 93.738281 L 87.570312 94.386719 C 87.925781 94.691406 88.234375 94.933594 88.515625 95.199219 C 89.03125 95.679688 89.519531 96.1875 90.042969 96.652344 C 90.335938 96.914062 91.367188 96.609375 91.542969 96.207031 C 91.808594 95.589844 91.296875 95.511719 90.957031 95.386719 C 90.492188 95.214844 90.003906 95.109375 89.484375 94.964844 C 89.597656 94.796875 89.738281 94.65625 89.910156 94.546875 C 90.078125 94.433594 90.261719 94.359375 90.460938 94.320312 C 90.660156 94.285156 90.859375 94.285156 91.054688 94.324219 C 91.253906 94.367188 91.4375 94.445312 91.605469 94.558594 L 91.636719 94.582031 L 92.394531 92.902344 C 92.160156 93.019531 92.042969 93.085938 91.921875 93.144531 C 90.90625 93.640625 90.621094 93.433594 90.710938 92.304688 C 90.699219 92.097656 90.664062 91.898438 90.605469 91.703125 Z M 108.738281 99.878906 C 108.535156 100.191406 108.269531 100.441406 107.945312 100.625 C 107.621094 100.808594 107.273438 100.910156 106.898438 100.921875 C 106.644531 100.929688 106.382812 101.257812 106.125 101.4375 C 106.414062 101.507812 106.695312 101.582031 106.984375 101.640625 C 107.074219 101.640625 107.15625 101.621094 107.238281 101.585938 C 108.21875 101.304688 109.101562 101.289062 109.699219 102.300781 C 109.761719 102.40625 110.195312 102.3125 110.425781 102.230469 C 110.722656 102.101562 111.003906 101.949219 111.269531 101.773438 C 111.507812 101.632812 111.734375 101.476562 111.964844 101.328125 Z M 84.457031 88.941406 L 82.914062 89.679688 C 82.992188 90.363281 83.457031 90.574219 84.179688 90.113281 C 84.542969 89.855469 84.890625 89.582031 85.226562 89.289062 Z M 101.886719 104.585938 C 102.445312 104.570312 103 104.5625 103.558594 104.539062 C 103.824219 104.539062 104.082031 104.503906 104.335938 104.433594 C 104.382812 104.414062 104.421875 103.972656 104.332031 103.894531 C 104.125 103.664062 103.871094 103.542969 103.5625 103.519531 C 102.964844 103.664062 102.378906 103.847656 101.804688 104.074219 Z M 97.371094 95.992188 C 97.007812 96.011719 96.648438 96.066406 96.296875 96.164062 C 96.078125 96.316406 95.898438 96.503906 95.757812 96.730469 C 96.015625 96.882812 96.367188 97.230469 96.527344 97.144531 C 96.902344 96.878906 97.234375 96.566406 97.527344 96.207031 Z M 81.738281 92.015625 L 83.574219 91.9375 C 83.0625 90.914062 82.667969 90.914062 81.738281 92.015625 Z M 99.4375 97.476562 L 100.734375 97.953125 C 100.511719 96.960938 100.152344 96.839844 99.441406 97.476562 Z M 101.175781 104.789062 L 100.8125 103.367188 C 100.304688 104.285156 100.488281 104.726562 101.171875 104.789062 Z M 98.132812 99.132812 C 98.234375 99.363281 98.359375 99.582031 98.515625 99.789062 C 98.554688 99.832031 98.816406 99.660156 98.976562 99.585938 L 98.691406 98.835938 Z M 56.007812 82.527344 L 59.066406 83.574219 C 58.636719 82.632812 57.378906 82.195312 56.007812 82.527344 Z M 79.171875 58.96875 C 78.925781 58.8125 78.628906 58.464844 78.449219 58.523438 C 77.589844 58.835938 77.308594 58.160156 76.890625 57.679688 C 76.605469 57.351562 76.320312 57.023438 75.953125 56.601562 C 75.382812 57.792969 74.730469 56.773438 74.125 56.957031 L 74.410156 57.472656 L 72.6875 57.074219 C 72.6875 57.207031 72.699219 57.335938 72.730469 57.464844 C 72.761719 57.59375 72.808594 57.71875 72.871094 57.835938 C 72.933594 57.953125 73.007812 58.0625 73.097656 58.160156 C 73.1875 58.257812 73.289062 58.34375 73.398438 58.414062 C 73.511719 58.488281 73.628906 58.546875 73.753906 58.589844 C 73.882812 58.628906 74.011719 58.65625 74.144531 58.664062 C 74.277344 58.675781 74.40625 58.667969 74.539062 58.644531 C 74.667969 58.621094 74.792969 58.578125 74.914062 58.523438 C 75.074219 58.425781 75.242188 58.363281 75.421875 58.328125 C 75.605469 58.292969 75.785156 58.289062 75.96875 58.320312 C 76.152344 58.351562 76.320312 58.414062 76.480469 58.507812 C 76.640625 58.601562 76.777344 58.71875 76.894531 58.863281 C 76.460938 59.085938 76.007812 59.273438 75.542969 59.425781 C 74.546875 59.664062 73.535156 59.824219 72.53125 60.035156 C 71.90625 60.171875 71.753906 60.363281 71.785156 60.921875 C 72.023438 60.828125 72.269531 60.773438 72.523438 60.746094 C 72.738281 60.753906 72.910156 60.84375 73.039062 61.015625 C 73.363281 61.738281 74.035156 62.109375 74.535156 61.59375 C 75.164062 60.992188 75.910156 60.722656 76.777344 60.777344 C 76.957031 60.78125 77.109375 60.722656 77.242188 60.601562 C 77.683594 60.011719 78.175781 60.121094 78.691406 60.339844 Z M 71.332031 81.820312 C 70.929688 81.390625 70.566406 80.929688 70.234375 80.441406 C 69.800781 79.707031 69.152344 79.367188 68.484375 79.699219 C 67.675781 80.097656 66.871094 80.496094 66.089844 80.949219 C 65.824219 81.171875 65.597656 81.425781 65.402344 81.710938 C 66.191406 81.738281 66.882812 82 67.28125 81.734375 C 68.464844 80.949219 69.152344 81.664062 69.9375 82.296875 C 70.085938 82.417969 70.371094 82.386719 70.585938 82.359375 C 70.800781 82.316406 71.011719 82.253906 71.214844 82.167969 Z M 73.574219 75.292969 C 73.4375 75.269531 73.246094 75.296875 73.167969 75.210938 C 72.503906 74.476562 72.195312 75.144531 71.679688 75.703125 L 73.28125 76.152344 Z M 76.753906 66.011719 C 76.296875 65.59375 75.851562 65.433594 75.308594 66.121094 L 76.460938 66.871094 Z M 80.644531 54.671875 C 80.191406 54.394531 79.746094 53.992188 79.042969 54.746094 L 80.414062 55.359375 Z M 75.8125 68.761719 L 74.640625 69.101562 L 74.636719 69.378906 L 75.398438 69.964844 Z M 10.324219 10.347656 L 9.527344 11.101562 L 9.457031 10.980469 L 8.710938 12.132812 C 8.910156 13.042969 9.3125 13.207031 10.324219 12.671875 C 10.53125 12.582031 10.730469 12.589844 10.929688 12.699219 C 11.722656 13.253906 12.855469 13.332031 13.230469 14.484375 C 13.3125 14.609375 13.429688 14.671875 13.582031 14.671875 C 14.679688 14.585938 15.589844 15.511719 16.75 15.164062 C 16.917969 15.113281 17.183594 15.460938 17.390625 15.640625 C 17.484375 15.722656 17.546875 15.945312 17.621094 15.9375 C 18.664062 15.863281 19.15625 16.292969 18.890625 17.242188 L 20.105469 18.023438 L 20.570312 17.515625 C 20.695312 17.898438 20.660156 18.265625 20.464844 18.621094 C 20.390625 18.726562 19.921875 18.554688 19.644531 18.484375 C 19.460938 18.433594 19.28125 18.375 19.105469 18.304688 C 18.894531 18.570312 18.710938 18.851562 18.554688 19.152344 C 18.421875 19.414062 18.382812 19.6875 18.429688 19.976562 C 18.628906 20.414062 18.863281 20.835938 19.128906 21.242188 C 19.960938 21.1875 20.902344 21.117188 21.847656 21.074219 C 22.101562 21.0625 22.351562 21.15625 22.605469 21.148438 C 23.265625 21.15625 23.925781 21.125 24.582031 21.058594 C 25.234375 20.96875 25.382812 20.316406 25.042969 19.242188 L 26.945312 17.679688 C 26.1875 17.136719 25.433594 17.484375 24.800781 17.546875 L 24.277344 16.625 L 22.546875 16.832031 C 22.238281 17.59375 21.648438 17.625 20.609375 16.757812 L 20.894531 16.335938 L 19.859375 15.515625 L 18.585938 15.460938 L 19.953125 14.625 C 20.574219 14.910156 20.878906 15.933594 21.667969 15.460938 C 21.425781 14.875 21.242188 14.324219 20.972656 13.828125 C 20.820312 13.4375 20.566406 13.128906 20.21875 12.898438 C 20.019531 12.851562 19.863281 12.746094 19.742188 12.582031 C 19.621094 12.417969 19.566406 12.234375 19.578125 12.03125 C 19.535156 11.390625 19.414062 10.714844 18.5 11.128906 C 18.355469 11.171875 18.21875 11.152344 18.089844 11.082031 C 16.78125 10.414062 15.398438 10.1875 13.941406 10.40625 C 13.777344 10.433594 13.597656 10.164062 13.402344 10.089844 C 12.90625 9.90625 12.367188 9.554688 11.894531 9.640625 M 64.011719 35.9375 L 56.964844 32.078125 L 55.796875 31.21875 L 55.929688 30.984375 M 33.636719 55.0625 L 35.128906 56.113281 C 35.199219 55.996094 35.257812 55.875 35.3125 55.753906 C 35.453125 55.390625 35.550781 54.738281 35.726562 54.707031 C 36.765625 54.523438 37.222656 53.511719 38.007812 52.980469 C 38.195312 52.851562 38.160156 52.335938 38.226562 52 C 37.535156 51.988281 36.710938 51.71875 36.1875 52.035156 C 35.746094 52.355469 35.257812 52.476562 34.71875 52.402344 C 34.164062 52.347656 33.609375 52.335938 33.054688 52.367188 C 31.886719 52.402344 30.65625 53.105469 29.566406 52.152344 C 29.503906 52.101562 29.027344 52.417969 28.914062 52.65625 C 28.824219 52.835938 28.96875 53.164062 29.054688 53.414062 C 29.269531 54.019531 29.058594 54.253906 28.472656 54.230469 C 28.222656 54.21875 27.980469 54.25 27.746094 54.332031 C 27 54.605469 26.265625 54.925781 25.523438 55.210938 C 25.40625 55.242188 25.300781 55.21875 25.207031 55.140625 C 24.761719 54.648438 24.421875 54.921875 24.085938 55.335938 C 23.867188 55.574219 23.734375 55.855469 23.6875 56.175781 C 23.636719 56.496094 23.683594 56.800781 23.816406 57.097656 C 24.042969 57.632812 24.46875 57.65625 24.957031 57.535156 C 25.285156 57.457031 25.71875 57.257812 25.945312 57.390625 C 26.652344 57.816406 27.078125 57.789062 27.257812 56.820312 C 27.269531 56.730469 27.433594 56.578125 27.496094 56.59375 C 28.238281 56.765625 28.75 56.191406 29.359375 55.914062 C 30.332031 55.476562 31.339844 55.132812 32.332031 54.753906 C 32.84375 54.558594 33.390625 54.261719 33.648438 55.070312 Z M -7.351562 39.214844 C -6.765625 39.617188 -6.132812 39.933594 -5.457031 40.164062 C -4.988281 39.023438 -4.945312 39.03125 -3.996094 39.503906 C -3.429688 39.785156 -2.808594 39.957031 -2.214844 40.179688 C -1.898438 40.300781 -1.46875 40.335938 -1.300781 40.574219 C -0.773438 41.335938 -0.273438 42.078125 0.804688 42.035156 L -0.160156 43.25 L 0 43.386719 C 0.539062 42.683594 0.527344 42.71875 1.382812 43.019531 C 1.777344 43.15625 2.203125 43.613281 2.648438 42.953125 C 3.269531 42.03125 3.058594 41.25 1.917969 41.214844 C 0.917969 41.1875 0.277344 40.59375 -0.511719 40.226562 C -0.910156 40.003906 -1.234375 39.699219 -1.476562 39.308594 C -1.71875 38.917969 -1.851562 38.492188 -1.871094 38.035156 C -1.96875 37.203125 -2.335938 37.203125 -2.867188 37.089844 C -3.585938 36.992188 -4.28125 36.796875 -4.945312 36.507812 M 49.617188 27.140625 C 48.9375 26.886719 48.242188 26.683594 47.53125 26.53125 C 47.203125 26.511719 46.9375 26.632812 46.734375 26.890625 C 46.617188 27.082031 46.734375 27.484375 46.835938 27.753906 C 46.980469 28.003906 47.109375 28.261719 47.210938 28.53125 C 46.027344 27.160156 44.308594 27.066406 42.792969 26.5625 C 42.054688 26.402344 41.324219 26.414062 40.59375 26.605469 C 40.390625 26.679688 40.191406 26.671875 39.996094 26.578125 C 39.804688 26.488281 39.667969 26.339844 39.597656 26.136719 C 39.582031 26.09375 39.570312 26.050781 39.5625 26.003906 C 40.132812 25.851562 40.824219 25.890625 41.121094 25.546875 C 41.679688 24.902344 42.097656 25.542969 42.710938 25.359375 C 42.71875 24.628906 43.15625 24.53125 43.742188 24.667969 C 43.933594 24.726562 44.128906 24.742188 44.324219 24.710938 C 44.488281 24.628906 44.632812 24.519531 44.75 24.382812 C 44.644531 24.269531 44.550781 24.070312 44.425781 24.058594 C 43.816406 23.980469 43.195312 23.964844 42.578125 23.898438 C 41.953125 23.835938 41.335938 23.71875 40.734375 23.546875 M 50.289062 27.605469 L 46.109375 25.503906 L 44.082031 26.269531 L 44.0625 26.53125 L 45.6875 26.636719 L 45.707031 26.210938 Z M 79.082031 56.921875 C 78.753906 56.589844 78.421875 56.261719 78.097656 55.921875 C 77.46875 55.25 77.46875 55.246094 77.6875 54.816406 C 78.460938 55.417969 78.5625 55.546875 79.414062 53.921875 C 79.589844 54.324219 79.199219 55.214844 80.058594 54.921875 C 80.53125 54.746094 80.960938 54.5 81.347656 54.1875 C 81.832031 53.808594 81.824219 53.34375 81.335938 53.019531 C 81.035156 52.734375 80.679688 52.578125 80.269531 52.546875 C 79.855469 52.515625 79.480469 52.617188 79.144531 52.855469 C 79.109375 52.878906 79.039062 52.84375 78.945312 52.828125 L 78.636719 52.195312 L 78.371094 52.191406 L 78.132812 53.527344 L 74.871094 52.824219 L 74.796875 52.996094 L 76.050781 53.925781 L 74.089844 54.628906 L 73.667969 55.636719 C 75.367188 56.214844 76.910156 57.578125 78.929688 57.199219 Z M 67.949219 65.242188 C 66.648438 65.53125 65.816406 66.554688 64.929688 67.46875 C 64.777344 67.625 64.84375 68.023438 64.8125 68.308594 C 65.054688 68.21875 65.277344 68.09375 65.472656 67.925781 C 66.183594 67.0625 66.566406 67 67.359375 67.667969 C 67.492188 67.777344 67.636719 67.855469 67.800781 67.902344 C 68.5 68.125 69.1875 68.371094 69.898438 68.53125 C 70.191406 68.554688 70.457031 68.492188 70.703125 68.332031 C 71.398438 67.945312 72.074219 67.523438 72.742188 67.082031 C 73.03125 66.917969 73.253906 66.691406 73.417969 66.40625 C 73.554688 66.105469 73.554688 65.808594 73.417969 65.507812 C 73.183594 65.265625 72.898438 65.152344 72.558594 65.164062 C 71.507812 65.199219 70.457031 65.351562 69.402344 65.375 C 69.09375 65.378906 68.785156 65.101562 68.335938 64.886719 C 62.082031 63.59375 61.929688 63.859375 61.738281 63.90625 Z M 61.730469 53.296875 C 61.960938 53.304688 62.1875 53.277344 62.40625 53.214844 C 62.261719 53.007812 62.132812 52.636719 61.964844 52.625 C 60.402344 52.523438 58.839844 52.46875 57.273438 52.429688 C 56.550781 52.410156 55.824219 52.425781 55.097656 52.472656 C 54.746094 52.515625 54.398438 52.585938 54.054688 52.683594 C 54.105469 54.128906 54.824219 54.582031 56.050781 54.109375 C 56.472656 53.921875 56.90625 53.882812 57.351562 53.988281 C 57.929688 54.203125 58.394531 54.714844 58.964844 54.957031 C 59.324219 55.03125 59.652344 54.960938 59.949219 54.75 C 60.285156 54.453125 60.582031 54.125 60.835938 53.753906 L 60.835938 52.9375 C 60.492188 52.601562 60.109375 52.320312 59.679688 52.097656 C 59.253906 51.875 58.800781 51.71875 58.328125 51.632812 C 57.855469 51.542969 57.378906 51.527344 56.898438 51.585938 C 56.421875 51.640625 55.960938 51.765625 55.519531 51.957031 Z M -9.796875 43.542969 C -8.867188 43.382812 -7.933594 43.179688 -6.996094 43.089844 C -6.316406 43.019531 -5.5625 42.863281 -5.125 43.691406 C -4.890625 44.140625 -4.59375 44.546875 -4.320312 44.976562 C -4.246094 44.605469 -4.28125 44.246094 -4.425781 43.894531 C -4.574219 43.546875 -4.804688 43.269531 -5.125 43.066406 C -5.480469 42.800781 -5.710938 42.441406 -5.167969 41.996094 C -4.835938 42.753906 -4.363281 42.445312 -4.011719 42.105469 C -3.847656 41.84375 -3.828125 41.566406 -3.953125 41.28125 C -4.074219 41.121094 -4.222656 40.992188 -4.398438 40.890625 C -4.570312 40.789062 -4.757812 40.722656 -4.957031 40.699219 C -5.160156 40.671875 -5.355469 40.683594 -5.550781 40.734375 C -5.746094 40.785156 -5.921875 40.875 -6.082031 40.996094 C -6.332031 41.132812 -6.59375 41.242188 -6.867188 41.324219 C -7.722656 41.535156 -8.558594 41.808594 -9.371094 42.148438 M 51.394531 68.40625 L 54.109375 67.878906 L 54.277344 68.132812 C 53.917969 68.675781 53.546875 69.214844 53.207031 69.777344 C 53.078125 69.984375 52.898438 70.347656 52.972656 70.460938 C 53.144531 70.683594 53.371094 70.800781 53.652344 70.808594 C 54.449219 70.78125 54.652344 70.421875 54.539062 69.425781 L 55.695312 68.382812 C 55.875 68.582031 56.070312 68.761719 56.28125 68.921875 C 56.433594 68.992188 56.59375 69.035156 56.757812 69.042969 C 56.925781 69.050781 57.089844 69.027344 57.246094 68.96875 C 57.402344 68.914062 57.542969 68.832031 57.667969 68.71875 C 57.792969 68.609375 57.894531 68.480469 57.96875 68.328125 C 58.1875 67.605469 57.535156 67.5 57.148438 67.390625 C 56.433594 67.25 55.761719 67 55.132812 66.636719 C 54.65625 66.40625 54.195312 66.152344 53.746094 65.871094 C 53.496094 65.628906 53.199219 65.484375 52.851562 65.441406 C 52.503906 65.394531 52.179688 65.457031 51.875 65.628906 C 52.316406 66.421875 53.539062 66.054688 53.609375 67.082031 L 51.296875 67.957031 Z M 24.433594 48.644531 C 24.730469 48.703125 25.027344 48.785156 25.324219 48.820312 C 25.914062 48.972656 26.515625 49.019531 27.121094 48.960938 C 27.9375 48.753906 28.65625 48.558594 29.320312 49.222656 C 29.433594 49.332031 29.695312 49.324219 29.882812 49.300781 C 30.375 49.25 30.867188 49.160156 31.390625 49.078125 C 31.445312 48.882812 31.53125 48.703125 31.652344 48.542969 C 31.777344 48.382812 31.925781 48.25 32.101562 48.148438 C 32.277344 48.046875 32.464844 47.980469 32.667969 47.953125 C 32.867188 47.925781 33.066406 47.9375 33.261719 47.988281 L 33.273438 47.992188 C 33.800781 48.046875 34.378906 48.214844 34.769531 47.546875 C 34.472656 47.277344 34.128906 47.109375 33.734375 47.042969 C 33.339844 46.976562 32.960938 47.015625 32.59375 47.171875 C 32.378906 47.246094 32.15625 47.292969 31.929688 47.3125 C 30.398438 47.371094 28.867188 47.414062 27.335938 47.46875 C 27.253906 47.46875 27.171875 47.539062 27.089844 47.546875 C 26.550781 47.632812 26.007812 47.667969 25.460938 47.648438 C 24.625 47.554688 24.421875 47.703125 24.429688 48.652344 Z M 35.808594 19.535156 L 32.476562 20.652344 L 32.484375 21.144531 C 32.777344 21.199219 33.078125 21.222656 33.378906 21.207031 C 34.0625 21.09375 34.59375 21 35.113281 21.761719 C 36.078125 23.160156 37.632812 23.660156 39.199219 24.023438 C 39.234375 24.03125 39.289062 23.957031 39.371094 23.890625 C 39.382812 23.691406 39.324219 23.515625 39.191406 23.367188 C 39.0625 23.21875 38.894531 23.136719 38.695312 23.121094 C 38.625 23.117188 38.558594 23.125 38.488281 23.140625 C 38.144531 23.113281 37.835938 23 37.558594 22.792969 C 37.230469 22.589844 36.980469 22.234375 36.636719 22.058594 C 35.96875 21.71875 35.796875 21.210938 36.054688 20.273438 L 37.367188 21.101562 C 37.253906 20.507812 37.304688 19.996094 37.089844 19.792969 M 6.859375 47.230469 C 6.609375 46.894531 6.3125 46.613281 5.957031 46.394531 C 5.214844 46.113281 4.34375 45.671875 3.652344 45.878906 C 2.828125 46.125 2.109375 46.625 1.253906 46.203125 C 1.171875 46.179688 1.097656 46.195312 1.035156 46.253906 C 0.707031 46.964844 0.527344 46.636719 0.378906 46.183594 C 0.191406 45.609375 -0.0976562 45.617188 -0.601562 45.878906 C -0.867188 46.007812 -1.054688 46.207031 -1.164062 46.476562 C -1.269531 46.75 -1.273438 47.023438 -1.167969 47.296875 C -0.902344 47.199219 -0.632812 47.003906 -0.453125 47.066406 C -0.0820312 47.230469 0.273438 47.425781 0.609375 47.648438 C 1.222656 47.976562 1.804688 48.402344 2.53125 47.726562 C 2.949219 47.394531 3.394531 47.105469 3.867188 46.859375 C 4.019531 46.730469 4.195312 46.664062 4.398438 46.660156 C 4.597656 46.652344 4.777344 46.710938 4.9375 46.832031 C 5.519531 47.125 6.125 47.347656 6.757812 47.496094 Z M 55.65625 63.347656 C 55.386719 63.179688 55.101562 63.035156 54.804688 62.914062 C 54.25 62.75 53.382812 62.835938 53.175781 62.464844 C 52.707031 61.636719 51.984375 61.960938 51.261719 61.613281 L 51.828125 62.414062 L 51.761719 62.695312 C 51.394531 62.710938 51.035156 62.671875 50.679688 62.574219 C 50.238281 62.375 49.960938 62.492188 50.003906 62.960938 C 49.996094 63.503906 50.15625 63.988281 50.488281 64.414062 C 50.8125 64.632812 51.167969 64.738281 51.558594 64.738281 C 51.949219 64.734375 52.304688 64.621094 52.625 64.402344 C 52.359375 64.226562 52.140625 64.160156 52.054688 64.003906 C 51.945312 63.738281 51.863281 63.460938 51.8125 63.171875 C 52.054688 63.164062 52.359375 63.054688 52.527344 63.167969 C 52.960938 63.484375 53.371094 63.828125 53.761719 64.195312 C 54.117188 63.058594 55.054688 63.949219 55.652344 63.347656 Z M 23.050781 57.03125 C 23.144531 56.636719 23.171875 56.234375 23.136719 55.832031 C 22.945312 55.109375 20.910156 54.136719 20.140625 54.3125 C 19.488281 54.460938 18.800781 55.003906 18.28125 54 C 17.84375 55.03125 18.355469 55.230469 18.996094 55.289062 L 18.789062 56.152344 C 20.097656 55.546875 20.097656 55.546875 20.957031 56.082031 L 21.597656 55.226562 C 21.632812 56.785156 21.960938 57.230469 23.050781 57.03125 Z M 44.203125 42.671875 C 43.492188 43.058594 42.691406 43.242188 41.964844 43.597656 C 41.117188 44.015625 40.304688 44.527344 39.296875 45.09375 C 39.972656 45.605469 40.386719 45.625 40.902344 45.300781 C 41.949219 44.492188 43.113281 43.945312 44.402344 43.65625 C 45.234375 43.484375 46.050781 43.261719 46.855469 42.988281 C 45.871094 42.5625 45.136719 42.164062 44.203125 42.671875 Z M 30.726562 22.839844 C 30.996094 23.082031 31.289062 23.289062 31.613281 23.457031 L 29.882812 20.214844 L 28.25 20.078125 C 29.011719 21.03125 28.046875 21.210938 27.304688 21.605469 L 29.476562 22.957031 C 29.9375 22.207031 30.316406 22.316406 30.726562 22.839844 Z M 50.671875 59.855469 C 50.316406 59.824219 49.960938 59.835938 49.605469 59.898438 C 49.394531 59.960938 49.246094 60.273438 49.042969 60.445312 C 48.925781 60.546875 48.714844 60.6875 48.632812 60.644531 C 47.902344 60.253906 47.46875 60.949219 46.96875 61.257812 C 46.8125 61.351562 46.804688 61.933594 46.90625 62.210938 C 46.953125 62.34375 47.449219 62.355469 47.710938 62.28125 C 48.011719 62.191406 48.269531 61.851562 48.570312 61.789062 C 49.269531 61.640625 49.980469 61.59375 50.789062 61.492188 L 50.496094 60.949219 Z M 12.636719 54.410156 C 13.0625 54.257812 13.542969 54.324219 13.976562 54.203125 C 14.25 54.082031 14.496094 53.925781 14.71875 53.730469 C 14.535156 53.503906 14.390625 53.171875 14.152344 53.066406 C 13.679688 52.894531 13.203125 52.878906 12.722656 53.027344 C 12.242188 53.171875 11.855469 53.449219 11.558594 53.855469 C 11.332031 54.125 11.046875 54.296875 10.699219 54.359375 C 10.082031 54.394531 9.46875 54.386719 8.851562 54.332031 C 9.441406 55.527344 10.738281 54.578125 11.269531 55.242188 C 11.699219 54.921875 12.15625 54.644531 12.636719 54.410156 Z M 14.492188 8.675781 C 15.367188 8.820312 16.261719 8.847656 17.148438 8.929688 C 17.394531 8.953125 17.726562 8.90625 17.859375 9.054688 C 18.398438 9.640625 19.003906 9.574219 19.882812 9.355469 L 17.105469 7.820312 L 17.082031 8.097656 C 16.816406 8.128906 16.445312 8.289062 16.3125 8.164062 C 15.285156 7.214844 14.089844 7.953125 12.976562 7.890625 C 12.898438 7.886719 12.804688 8.015625 12.722656 8.082031 C 13.300781 8.324219 13.890625 8.523438 14.5 8.671875 Z M 53.5625 55.695312 C 54.195312 56.089844 54.816406 56.527344 55.480469 56.871094 C 55.785156 57 56.097656 57.035156 56.425781 56.980469 C 56.910156 56.886719 57.386719 56.769531 57.859375 56.625 C 57.503906 55.746094 58.65625 55.972656 59.109375 55.179688 L 55.394531 55.417969 L 56.074219 55.9375 C 55.652344 56.054688 55.222656 56.0625 54.796875 55.960938 C 54.394531 55.847656 54.003906 55.71875 53.617188 55.566406 Z M 67.386719 49.242188 C 68.664062 49.859375 69.808594 51.125 71.464844 49.785156 C 69.957031 48.46875 68.214844 48.234375 67.386719 49.242188 Z M 9.769531 15.484375 C 9.558594 15.644531 9.363281 15.820312 9.183594 16.015625 C 9.003906 16.257812 8.726562 16.558594 8.742188 16.800781 C 8.859375 17.164062 9.070312 17.453125 9.382812 17.667969 C 9.691406 17.882812 10.035156 17.980469 10.414062 17.960938 C 10.703125 17.832031 10.910156 17.621094 11.042969 17.332031 C 11.085938 17.246094 10.792969 16.925781 10.601562 16.78125 C 10.34375 16.625 10.074219 16.496094 9.792969 16.394531 L 10.582031 15.757812 Z M 7.140625 15.789062 L 7.621094 14.679688 M 65.183594 56.351562 C 65.050781 56.367188 64.8125 56.566406 64.820312 56.625 C 64.855469 56.804688 64.988281 57.101562 65.082031 57.101562 C 65.695312 57.179688 66.292969 57.109375 66.875 56.898438 C 68.082031 56.167969 68.105469 55.726562 67.183594 54.992188 C 66.5 56.203125 66.5 56.195312 65.179688 56.355469 Z M 55.453125 49.367188 C 55.84375 49.488281 56.207031 49.671875 56.535156 49.914062 C 56.910156 50.296875 57.199219 50.4375 57.699219 50.109375 C 58.226562 49.761719 58.613281 49.816406 58.4375 50.667969 L 59.574219 50.515625 C 59.175781 49.449219 56.917969 48.867188 55.453125 49.367188 Z M 71.972656 49.242188 C 72.855469 49.878906 73.933594 49.070312 74.839844 49.550781 L 74.9375 49.3125 L 73.1875 47.640625 L 72.960938 47.886719 L 73.378906 48.664062 L 72.019531 48.972656 Z M 6.015625 43.542969 C 6.8125 43.929688 7.589844 44.347656 8.402344 44.699219 C 8.71875 44.832031 9.050781 44.875 9.390625 44.832031 C 9.589844 44.808594 9.769531 44.550781 9.960938 44.398438 C 9.789062 44.265625 9.605469 44.15625 9.402344 44.070312 C 9.179688 44.003906 8.921875 44.070312 8.691406 44.011719 C 7.800781 43.796875 6.917969 43.554688 6.03125 43.320312 Z M 15.273438 24.492188 L 16.023438 25.355469 L 15.90625 25.484375 L 15.027344 25.257812 C 15.839844 26.648438 16.625 25.546875 17.46875 25.089844 L 15.375 24.371094 Z M 3.074219 22.109375 L 3.066406 22.109375 M 28.855469 15.6875 C 27.902344 14.480469 27.042969 14.558594 25.996094 15.898438 Z M 51.722656 85.191406 C 51.753906 85.367188 51.835938 85.519531 51.960938 85.644531 C 52.085938 85.773438 52.238281 85.851562 52.414062 85.882812 C 52.589844 85.914062 52.761719 85.890625 52.921875 85.816406 C 53.085938 85.742188 53.210938 85.625 53.300781 85.472656 C 53.378906 85.371094 53.328125 84.976562 53.238281 84.9375 C 52.753906 84.71875 52.238281 84.570312 51.5 84.316406 C 51.609375 84.769531 51.648438 84.984375 51.71875 85.1875 Z M 70.683594 60.691406 C 70.308594 60.785156 70.050781 61.011719 69.902344 61.371094 C 69.824219 61.640625 70.105469 62.007812 70.214844 62.289062 L 71.535156 61.15625 C 71.25 60.984375 70.949219 60.648438 70.679688 60.6875 Z M 60.988281 63.019531 L 60.980469 61.980469 L 59.296875 61.40625 C 59.242188 62.835938 60.308594 62.628906 60.980469 63.015625 Z M 68.503906 61.257812 L 66.03125 61.550781 C 66.785156 62.628906 67.574219 62.242188 68.496094 61.253906 Z M 40.042969 40.101562 L 42 38.496094 C 40.515625 37.851562 40.539062 39.339844 39.871094 39.84375 Z M 36.421875 39.089844 C 36.566406 39.054688 36.667969 38.972656 36.722656 38.835938 C 36.730469 38.691406 36.679688 38.574219 36.574219 38.484375 C 36.21875 38.359375 35.859375 38.339844 35.492188 38.425781 C 35.128906 38.507812 34.8125 38.6875 34.550781 38.953125 C 35.257812 39.007812 35.839844 39.070312 36.421875 39.089844 Z M 20.292969 27.242188 C 20.058594 26.796875 19.785156 26.371094 19.476562 25.972656 C 19.339844 25.816406 18.984375 25.863281 18.726562 25.871094 C 18.695312 25.871094 18.582031 26.253906 18.632812 26.300781 C 19.113281 26.71875 19.617188 27.097656 20.117188 27.488281 Z M 37.617188 50.941406 C 38.023438 50.78125 38.40625 50.578125 38.769531 50.332031 C 38.816406 50.300781 38.6875 49.957031 38.636719 49.753906 L 37.21875 50.332031 C 37.40625 50.621094 37.566406 50.960938 37.617188 50.941406 Z M 8.03125 53.113281 C 8.148438 53.347656 8.253906 53.765625 8.390625 53.773438 C 8.726562 53.734375 9.050781 53.636719 9.355469 53.488281 L 9.078125 52.746094 Z M 36.535156 30.660156 C 37.363281 31.152344 37.863281 30.398438 38.480469 30.0625 C 37.539062 29.28125 37.207031 30.527344 36.535156 30.660156 Z M 16.046875 20.949219 C 16.414062 21.113281 16.800781 21.234375 17.195312 21.316406 C 17.390625 21.335938 17.625 21.078125 17.835938 20.945312 C 17.660156 20.796875 17.496094 20.527344 17.304688 20.519531 C 16.890625 20.539062 16.484375 20.59375 16.082031 20.6875 Z M 34.351562 50.246094 C 34.488281 50.378906 34.648438 50.445312 34.835938 50.449219 C 34.988281 50.355469 35.074219 50.21875 35.085938 50.039062 C 35.066406 49.835938 34.96875 49.679688 34.796875 49.570312 C 34.347656 49.410156 33.875 49.328125 33.210938 49.164062 C 33.679688 49.613281 34.003906 49.945312 34.351562 50.246094 Z M 37.515625 70.375 C 37.363281 70.257812 37.1875 70.011719 37.054688 70.042969 C 36.664062 70.164062 36.285156 70.3125 35.921875 70.492188 C 35.992188 70.652344 36.074219 70.957031 36.140625 70.953125 C 36.503906 70.902344 36.859375 70.832031 37.210938 70.734375 Z M 39.539062 51.609375 C 39.476562 51.335938 39.429688 51.058594 39.402344 50.777344 C 39.203125 51.027344 39 51.277344 38.808594 51.535156 C 38.753906 51.65625 38.714844 51.785156 38.691406 51.917969 L 39.914062 52.546875 C 39.769531 52.238281 39.644531 51.925781 39.539062 51.605469 Z M 80.992188 46.394531 C 81.023438 46.539062 81.109375 46.632812 81.246094 46.683594 M 61.183594 48.253906 C 61.960938 49.167969 62.347656 49.121094 62.875 47.925781 Z M 36.757812 38.183594 L 38.734375 38.019531 C 38.5 37.628906 38.152344 37.449219 37.695312 37.488281 C 37.238281 37.523438 36.925781 37.753906 36.757812 38.179688 Z M 31.261719 35.050781 C 31.140625 35.0625 31.027344 35.253906 30.910156 35.355469 C 31.011719 35.46875 31.109375 35.664062 31.226562 35.683594 C 31.703125 35.746094 32.191406 35.757812 32.765625 35.789062 C 32.628906 35.511719 32.417969 35.304688 32.140625 35.167969 C 31.863281 35.03125 31.570312 34.992188 31.265625 35.050781 Z M -6.152344 47.539062 L -3.726562 48.101562 L -3.621094 47.636719 L -6.085938 47.269531 Z M -2.035156 41.359375 C -2.316406 41.257812 -2.609375 41.179688 -2.902344 41.117188 L -2.808594 42.023438 L -1.3125 41.871094 C -1.535156 41.675781 -1.777344 41.507812 -2.035156 41.359375 Z M 24.441406 48.648438 C 24.226562 48.421875 23.988281 48.222656 23.730469 48.050781 C 23.523438 47.980469 23.320312 47.996094 23.121094 48.097656 C 22.984375 48.199219 22.902344 48.339844 22.871094 48.507812 C 22.996094 48.6875 23.164062 48.804688 23.378906 48.851562 C 23.738281 48.816406 24.089844 48.746094 24.4375 48.644531 Z M 48.953125 56.8125 L 50.691406 56.546875 C 49.921875 55.785156 49.265625 55.933594 48.953125 56.8125 Z M 31.75 51.804688 L 31.863281 51.550781 C 31.3125 51.21875 31.003906 50.304688 29.90625 50.929688 Z M 45.601562 53.503906 C 45.222656 53.410156 44.84375 53.304688 44.464844 53.242188 C 44.402344 53.375 44.355469 53.511719 44.320312 53.65625 C 44.683594 53.804688 45.050781 53.929688 45.417969 54.050781 Z M 65.097656 53.71875 C 66.394531 54.660156 66.394531 54.660156 66.957031 54.355469 Z M 64.472656 52.457031 C 64.375 52.175781 64.355469 51.78125 64.160156 51.636719 C 63.945312 51.472656 63.570312 51.535156 63.265625 51.496094 L 63.207031 51.730469 L 64.144531 52.628906 Z M 3.074219 22.109375 C 3.269531 23.214844 3.8125 23.792969 4.664062 23.5625 L 3.0625 22.109375 Z M 33.644531 55.070312 C 33.410156 55.171875 32.964844 55.304688 32.972656 55.371094 C 33.03125 55.738281 33.121094 56.09375 33.25 56.441406 L 33.613281 56.378906 L 33.636719 55.0625 Z M 35.355469 30.882812 C 35.5 30.796875 35.601562 30.671875 35.65625 30.507812 C 35.675781 30.449219 35.515625 30.269531 35.410156 30.238281 C 35.003906 30.121094 34.472656 30.691406 34.476562 31.214844 C 34.777344 31.121094 35.070312 31.007812 35.359375 30.882812 Z M 60.058594 88.238281 L 58.328125 87.644531 C 58.949219 88.6875 59.460938 88.785156 60.058594 88.238281 Z M 61.851562 61.40625 C 62.09375 61.585938 62.355469 61.722656 62.644531 61.820312 C 62.8125 61.847656 63.03125 61.621094 63.230469 61.507812 C 63.074219 61.390625 62.929688 61.199219 62.765625 61.179688 C 62.46875 61.167969 62.171875 61.183594 61.878906 61.234375 Z M 23.472656 23.863281 L 24.40625 24.695312 C 24.425781 24.285156 24.554688 23.894531 24.425781 23.75 C 24.265625 23.5625 23.90625 23.574219 23.628906 23.496094 Z M 26.65625 24.574219 L 25.308594 24.898438 L 26.074219 25.550781 L 26.71875 24.789062 Z M 28.0625 18.503906 L 29.488281 19.09375 L 29.621094 18.757812 L 28.164062 18.253906 Z M 25.78125 25.882812 L 24.410156 25.136719 C 24.574219 25.984375 25 26.179688 25.773438 25.882812 Z M 37.589844 21.808594 C 37.917969 22.617188 38.269531 22.679688 38.769531 21.957031 Z M 37.589844 21.808594 "/></g></g></g></g></g></g><mask id="8e20186ca6"><g filter="url(#4dc1cc8270)"><rect x="0" width="1125" y="0" height="577.499988" style="fill:#000000;fill-opacity:0.1;stroke:none;"/></g></mask></g></g></g></g></g></g></g></svg>