<svg xmlns="http://www.w3.org/2000/svg" xmlns:xlink="http://www.w3.org/1999/xlink" width="1500" zoomAndPan="magnify" viewBox="0 0 1125 577.499988" height="770" preserveAspectRatio="xMidYMid meet" version="1.2"><defs><clipPath id="8a0e567b5b"><path d="M 372.824219 298 L 408.792969 298 L 408.792969 352 L 372.824219 352 Z M 372.824219 298 "/></clipPath></defs><g id="3a4c9c11c4"><path style=" stroke:none;fill-rule:nonzero;fill:#000000;fill-opacity:1;" d="M 399.304688 -0.734375 C 399.335938 -0.230469 399.316406 0.269531 399.566406 0.796875 C 398.902344 1.007812 398.480469 0.703125 398.042969 0.488281 L 398.078125 0.511719 C 397.816406 0.136719 397.667969 -0.269531 397.761719 -0.734375 C 398.277344 -0.734375 398.792969 -0.734375 399.304688 -0.734375 Z M 393.855469 125.867188 C 394.316406 126.074219 394.460938 126.710938 395.042969 126.769531 C 395.15625 125.164062 394.875 123.566406 395.183594 121.96875 C 395.335938 121.1875 395.347656 120.324219 395.195312 119.542969 C 395.023438 118.660156 394.980469 117.828125 395.023438 116.925781 C 395.066406 116.117188 395.292969 115.324219 395.210938 114.492188 C 394.984375 112.253906 395.539062 109.996094 395.078125 107.757812 C 396 105.789062 394.703125 103.652344 395.53125 101.667969 C 395.640625 101.402344 395.449219 101.09375 395.332031 100.800781 C 395.148438 100.339844 394.875 99.601562 395.085938 99.347656 C 395.917969 98.320312 395.277344 97.199219 395.484375 96.152344 C 395.59375 95.605469 395.855469 94.886719 395.625 94.507812 C 395.046875 93.550781 396.257812 92.433594 395.246094 91.601562 C 395.222656 91.582031 395.300781 91.425781 395.347656 91.339844 C 395.917969 90.367188 396.113281 89.3125 396.105469 88.191406 C 396.089844 86.800781 396.011719 85.398438 396.375 84.035156 C 396.460938 83.71875 396.527344 83.390625 396.355469 83.136719 C 395.882812 82.433594 396.3125 81.75 396.304688 81.058594 C 396.289062 79.910156 397.261719 78.707031 396.140625 77.609375 C 395.910156 77.382812 396.15625 77.199219 396.296875 77.144531 C 397.015625 76.863281 396.953125 76.203125 396.882812 75.695312 C 396.601562 73.621094 397.121094 71.578125 397.039062 69.5 C 396.988281 68.230469 396.898438 66.917969 396.960938 65.609375 C 397.039062 63.992188 397.40625 62.3125 396.898438 60.679688 C 396.859375 60.546875 396.894531 60.339844 396.976562 60.234375 C 397.648438 59.363281 397.296875 58.363281 397.328125 57.417969 C 397.332031 57.167969 397.128906 56.875 397.207031 56.667969 C 397.683594 55.394531 397.464844 54.035156 397.726562 52.753906 C 397.898438 51.902344 397.421875 51.203125 397.613281 50.347656 C 397.964844 48.78125 397.296875 47.105469 397.976562 45.539062 C 397.558594 44.222656 398.058594 42.972656 398.222656 41.691406 C 398.285156 41.222656 398.402344 40.507812 397.546875 40.445312 L 397.585938 40.421875 C 397.550781 41.222656 396.464844 41.550781 396.675781 42.445312 C 396.800781 42.96875 396.625 43.449219 396.589844 43.949219 C 396.492188 45.234375 396.246094 46.542969 396.398438 47.804688 C 396.589844 49.40625 396.195312 50.972656 396.363281 52.550781 C 396.5 53.835938 395.679688 55.148438 396.480469 56.410156 C 396.59375 56.585938 396.492188 56.679688 396.355469 56.777344 C 395.796875 57.179688 395.925781 57.78125 395.925781 58.339844 C 395.925781 59.097656 395.976562 59.859375 395.9375 60.621094 C 395.863281 62.109375 395.722656 63.59375 395.648438 65.082031 C 395.496094 68.210938 395.882812 71.339844 395.597656 74.472656 C 395.367188 76.960938 395.164062 79.453125 395.003906 81.945312 C 394.871094 84.03125 394.839844 86.128906 394.722656 88.214844 C 394.542969 91.449219 394.226562 94.679688 394.167969 97.914062 C 394.128906 99.992188 394.054688 102.070312 394.039062 104.148438 C 394.023438 106.402344 393.972656 108.660156 393.898438 110.902344 C 393.832031 112.859375 393.875 114.8125 393.867188 116.765625 C 393.859375 118.253906 393.964844 119.761719 393.929688 121.21875 C 393.890625 122.765625 393.773438 124.316406 393.855469 125.871094 Z M 392.4375 264.820312 C 392.5 264.738281 392.609375 264.667969 392.621094 264.578125 C 392.976562 262.097656 392.984375 259.605469 392.78125 257.113281 C 392.753906 256.769531 392.832031 256.542969 392.933594 256.257812 C 393.050781 255.925781 393.199219 255.527344 393.121094 255.210938 C 392.761719 253.769531 393.269531 252.382812 393.300781 250.96875 C 393.332031 249.636719 393.511719 248.289062 393.375 246.972656 C 393.171875 245.015625 393.316406 243.070312 393.269531 241.125 C 393.21875 238.996094 393.328125 236.851562 392.933594 234.746094 C 392.828125 234.195312 392.816406 233.695312 392.839844 233.144531 C 392.875 232.339844 393.273438 231.53125 392.910156 230.710938 C 392.679688 230.195312 392.804688 229.679688 392.832031 229.136719 C 392.867188 228.4375 393.269531 227.714844 392.96875 227.03125 C 392.425781 225.808594 392.347656 224.625 392.90625 223.382812 C 393.042969 223.082031 392.957031 222.675781 392.972656 222.316406 C 393.050781 220.644531 392.765625 218.96875 393.054688 217.292969 C 393.175781 216.589844 393.191406 215.839844 393.09375 215.132812 C 392.996094 214.433594 393.3125 213.433594 392.992188 213.136719 C 392.4375 212.625 393.398438 211.648438 392.332031 211.511719 C 392.320312 211.511719 392.285156 211.28125 392.335938 211.234375 C 393.277344 210.347656 392.910156 209.191406 392.972656 208.121094 C 393.117188 205.566406 392.78125 203 393.101562 200.449219 C 393.171875 199.878906 392.757812 199.390625 392.925781 198.789062 C 393.28125 197.476562 393.152344 196.152344 392.851562 194.839844 C 392.671875 194.828125 392.492188 194.816406 392.316406 194.804688 C 391.640625 195.976562 391.628906 197.253906 391.667969 198.558594 C 391.769531 201.75 391.574219 204.941406 391.667969 208.132812 C 391.6875 208.867188 392.113281 209.601562 391.890625 210.246094 C 391.511719 211.335938 391.722656 212.375 391.777344 213.449219 C 391.824219 214.316406 391.910156 215.210938 391.753906 216.050781 C 391.414062 217.929688 391.636719 219.816406 391.578125 221.695312 C 391.363281 228.636719 391.851562 235.570312 391.886719 242.511719 C 391.890625 243.238281 391.867188 243.960938 391.871094 244.683594 C 391.875 245.410156 391.902344 246.132812 391.914062 246.859375 C 391.925781 247.582031 391.835938 248.320312 391.96875 249.019531 C 392.074219 249.578125 392.863281 249.933594 392.160156 250.710938 C 391.699219 251.21875 391.777344 252.082031 391.667969 252.796875 C 391.648438 252.949219 391.644531 253.113281 391.671875 253.261719 C 391.976562 255.066406 391.617188 256.863281 391.578125 258.660156 C 391.539062 260.570312 391.496094 262.476562 391.382812 264.378906 C 391.339844 265.070312 391.605469 265.308594 392.21875 265.328125 C 392.289062 265.160156 392.363281 264.988281 392.4375 264.820312 Z M 391.226562 267.53125 C 391.390625 268.839844 391.097656 270.171875 391.445312 271.480469 C 391.519531 271.761719 391.574219 272.191406 391.421875 272.375 C 390.863281 273.058594 391.085938 273.851562 390.988281 274.59375 C 390.773438 276.21875 391.269531 277.828125 391.058594 279.476562 C 390.933594 280.4375 390.679688 281.390625 390.6875 282.375 C 390.707031 284.179688 390.734375 285.992188 390.632812 287.789062 C 390.53125 289.5625 390.96875 291.304688 390.765625 293.082031 C 390.601562 294.507812 391.015625 295.910156 390.953125 297.367188 C 390.851562 299.773438 390.988281 302.199219 391.1875 304.613281 C 391.25 305.386719 391.785156 306.085938 391.527344 306.859375 C 391.0625 308.238281 391.292969 309.675781 391.472656 310.992188 C 391.703125 312.652344 391.382812 313.65625 390.035156 314.699219 C 388.972656 315.519531 388.535156 316.941406 388.796875 318.425781 C 388.902344 319.011719 389.160156 319.328125 389.746094 319.46875 C 391.175781 319.8125 391.171875 319.835938 392.605469 318.769531 C 393.542969 318.074219 394.40625 315.640625 394.070312 314.558594 C 393.996094 314.324219 393.835938 314.085938 393.652344 313.925781 C 392.625 313.03125 392.503906 311.871094 392.566406 310.609375 C 392.625 309.457031 392.902344 308.257812 392.542969 307.160156 C 392.1875 306.078125 392.410156 305.03125 392.386719 303.980469 C 392.371094 303.324219 392.429688 302.675781 392.351562 302 C 392.191406 300.667969 392.203125 299.308594 392.175781 297.964844 C 392.140625 296.378906 392.171875 294.792969 392.105469 293.207031 C 392.046875 291.699219 391.738281 290.183594 391.835938 288.691406 C 392.023438 285.765625 392.070312 282.835938 392.144531 279.90625 C 392.160156 279.242188 392.152344 278.578125 392.242188 277.914062 C 392.355469 277.117188 392.605469 276.308594 391.824219 275.652344 C 391.542969 275.417969 391.859375 275.378906 392.035156 275.332031 C 392.445312 275.214844 392.5 274.949219 392.257812 274.640625 C 392.015625 274.332031 392.167969 274.074219 392.285156 273.785156 C 392.554688 273.101562 392.507812 272.390625 392.535156 271.667969 C 392.582031 270.554688 392.34375 269.460938 392.472656 268.332031 C 392.578125 267.429688 392.371094 266.503906 392.734375 265.605469 C 392.839844 265.34375 392.792969 264.984375 392.4375 264.820312 C 392.363281 264.988281 392.289062 265.160156 392.21875 265.328125 C 391.394531 265.839844 391.105469 266.574219 391.226562 267.53125 Z M 391.90625 316.429688 C 392.160156 316.4375 392.222656 316.621094 392.210938 316.835938 C 392.195312 317.039062 392.121094 317.25 391.871094 317.175781 C 391.636719 317.109375 391.441406 316.941406 391.4375 316.648438 C 391.511719 316.394531 391.71875 316.421875 391.90625 316.429688 Z M 389.496094 318.253906 C 389.441406 318.019531 389.589844 317.851562 389.789062 317.824219 C 390.082031 317.789062 390.199219 318.039062 390.269531 318.269531 C 390.339844 318.496094 390.195312 318.632812 389.96875 318.699219 C 389.6875 318.699219 389.554688 318.507812 389.496094 318.253906 Z M 393.226562 194.453125 C 393.28125 193.835938 393.375 193.21875 393.363281 192.601562 C 393.328125 190.476562 392.941406 188.296875 393.28125 186.238281 C 393.589844 184.355469 393.125 182.515625 393.496094 180.636719 C 393.675781 179.746094 393.105469 178.632812 393.378906 177.609375 C 393.703125 176.394531 392.773438 175.226562 393.316406 174.019531 C 392.609375 173.398438 393.710938 173.109375 393.574219 172.558594 C 393.277344 171.351562 393.714844 170.101562 393.488281 168.898438 C 393.226562 167.496094 393.785156 165.96875 392.828125 164.683594 C 392.683594 164.488281 392.765625 164.304688 392.851562 164.109375 C 393 163.753906 393.359375 163.601562 393.574219 163.332031 C 393.9375 162.875 392.925781 163.105469 393.164062 162.589844 C 393.742188 161.335938 393.566406 160.015625 393.492188 158.691406 C 393.425781 157.460938 393.4375 156.207031 393.59375 154.984375 C 393.753906 153.734375 393.808594 152.460938 393.851562 151.222656 C 393.9375 148.683594 394.140625 146.136719 394.011719 143.585938 C 393.972656 142.839844 394.3125 142.082031 394.433594 141.320312 C 394.523438 140.757812 394.046875 140.65625 393.664062 140.523438 C 393.105469 140.335938 393.078125 140.800781 393.03125 141.132812 C 392.933594 141.847656 392.789062 142.578125 392.84375 143.289062 C 392.996094 145.222656 392.859375 147.140625 392.746094 149.0625 C 392.683594 150.128906 392.65625 151.207031 392.460938 152.25 C 392.277344 153.242188 393.089844 154.230469 392.347656 155.242188 C 392.164062 155.488281 392.453125 156.085938 392.421875 156.566406 C 392.261719 159.316406 392.128906 162.066406 392.164062 164.820312 C 392.195312 167.242188 392.144531 169.660156 392.128906 172.082031 C 392.113281 174.746094 392.027344 177.410156 392.105469 180.074219 C 392.160156 181.910156 392.167969 183.773438 392.070312 185.574219 C 391.953125 187.730469 392.230469 189.894531 391.910156 192.039062 C 391.816406 192.695312 391.898438 193.382812 391.914062 194.054688 C 391.917969 194.363281 391.945312 194.683594 392.316406 194.804688 C 392.496094 194.816406 392.671875 194.828125 392.851562 194.839844 C 393.109375 194.84375 393.210938 194.679688 393.226562 194.453125 Z M 397.917969 29.875 C 397.976562 29.730469 398.058594 29.585938 398.070312 29.4375 C 398.234375 27.332031 398.140625 25.214844 398.238281 23.113281 C 398.28125 22.140625 397.414062 21.039062 398.46875 20.144531 C 398.523438 20.097656 398.523438 19.949219 398.503906 19.855469 C 398.15625 17.984375 399.078125 16.035156 398.125 14.195312 C 398.011719 13.980469 398.265625 13.886719 398.503906 13.886719 C 398.65625 13.890625 398.839844 13.761719 398.769531 13.597656 C 398.429688 12.820312 398.582031 12.066406 398.761719 11.285156 C 398.824219 11.015625 398.605469 10.632812 398.261719 10.601562 C 397.851562 10.558594 397.8125 10.925781 397.792969 11.246094 C 397.582031 14.480469 397.351562 17.714844 397.1875 20.953125 C 397.140625 21.84375 397.34375 22.734375 397.207031 23.636719 C 397.109375 24.269531 396.433594 25.011719 397.441406 25.535156 C 397.5625 25.597656 397.4375 25.796875 397.34375 25.925781 C 396.566406 26.980469 396.878906 27.933594 397.589844 28.882812 C 397.792969 29.15625 397.828125 29.554688 397.941406 29.898438 C 397.941406 29.894531 397.914062 29.867188 397.917969 29.875 Z M 393.855469 125.871094 C 393.625 130.367188 393.621094 134.875 393.140625 139.359375 C 393.097656 139.742188 393.144531 140.070312 393.652344 140.132812 C 394.089844 140.1875 394.320312 140.015625 394.445312 139.621094 C 394.6875 138.871094 394.761719 138.082031 394.605469 137.339844 C 394.289062 135.808594 394.851562 134.34375 394.835938 132.832031 C 394.824219 132.085938 395 131.308594 394.941406 130.542969 C 394.878906 129.71875 395.007812 128.828125 394.261719 128.199219 C 395.078125 127.253906 393.988281 126.644531 393.855469 125.867188 C 393.855469 125.867188 393.855469 125.871094 393.855469 125.871094 Z M 398.078125 0.511719 C 396.671875 2.027344 398.480469 2.683594 398.980469 3.667969 C 398.695312 3.863281 398.417969 3.832031 398.210938 3.746094 C 398.019531 3.671875 397.929688 3.253906 397.648438 3.59375 C 397.484375 3.785156 397.632812 3.976562 397.773438 4.128906 C 398.046875 4.425781 398.425781 4.65625 398.316406 5.160156 C 398.0625 6.3125 398.355469 7.515625 398.023438 8.65625 C 397.914062 9.027344 397.976562 9.367188 398.03125 9.71875 C 398.0625 9.925781 398.148438 10.128906 398.414062 10.050781 C 398.554688 10.011719 398.785156 9.898438 398.785156 9.824219 C 398.730469 8.347656 399.703125 6.925781 399.007812 5.417969 C 398.878906 5.140625 398.820312 4.867188 398.960938 4.535156 C 399.492188 3.265625 399.421875 2.097656 398.25 1.1875 C 398 0.992188 398.164062 0.703125 398.046875 0.488281 C 398.046875 0.488281 398.078125 0.511719 398.078125 0.511719 Z M 397.550781 40.441406 C 397.765625 40.210938 398.175781 39.820312 398.144531 39.78125 C 397.578125 39.050781 398.367188 38.472656 398.316406 37.824219 C 398.300781 37.570312 398.316406 37.214844 398.164062 37.09375 C 397.695312 36.710938 397.765625 36.347656 398.019531 35.898438 C 398.175781 35.617188 398.128906 35.300781 398.003906 35.007812 C 397.949219 35.003906 397.894531 35.003906 397.839844 35 C 397.429688 35.308594 397.140625 35.625 397.066406 36.214844 C 396.914062 37.433594 397.089844 38.660156 396.960938 39.839844 C 396.863281 40.738281 397.570312 40.074219 397.589844 40.421875 C 397.585938 40.421875 397.546875 40.441406 397.550781 40.441406 Z M 398.273438 34.375 C 397.996094 33.515625 398.058594 32.652344 398.148438 31.777344 C 398.203125 31.210938 398.226562 30.648438 397.734375 30.207031 C 397.636719 30.117188 397.761719 29.933594 397.917969 29.875 C 397.914062 29.867188 397.941406 29.894531 397.933594 29.890625 C 397.566406 29.878906 397.511719 29.480469 397.222656 29.316406 C 396.699219 30.957031 397.160156 32.625 397.023438 34.261719 C 396.984375 34.714844 397.402344 34.9375 397.839844 35 C 397.894531 35.003906 397.949219 35.003906 398 35.007812 C 398.304688 34.886719 398.351562 34.621094 398.273438 34.375 Z M 398.273438 34.375 "/><g clip-rule="nonzero" clip-path="url(#8a0e567b5b)"><path style=" stroke:none;fill-rule:nonzero;fill:#000000;fill-opacity:1;" d="M 372.824219 331.011719 C 372.824219 330.746094 372.941406 330.519531 373.191406 330.449219 C 373.738281 330.304688 374.050781 329.878906 374.417969 329.507812 C 375.171875 328.742188 375.890625 327.933594 376.695312 327.222656 C 377.308594 326.679688 377.570312 325.988281 377.820312 325.265625 C 378.039062 324.625 378.066406 324.613281 378.730469 324.824219 C 379.621094 325.105469 380.375 325.679688 381.257812 325.972656 C 381.527344 326.058594 381.78125 326.199219 382.046875 326.304688 C 382.441406 326.460938 382.550781 326.386719 382.558594 325.933594 C 382.570312 325.214844 382.566406 324.492188 382.570312 323.773438 C 382.574219 323.417969 382.457031 323.140625 382.195312 322.882812 C 381.328125 322.027344 380.429688 321.195312 379.71875 320.191406 C 379.621094 320.054688 379.488281 319.945312 379.359375 319.839844 C 378.714844 319.304688 378.140625 318.699219 377.589844 318.066406 C 377.265625 317.699219 377.210938 317.492188 377.527344 317.125 C 377.800781 316.804688 377.800781 316.503906 377.742188 316.132812 C 377.503906 314.570312 377.324219 313 377.039062 311.445312 C 376.855469 310.457031 376.625 309.480469 376.53125 308.476562 C 376.496094 308.082031 376.3125 307.695312 376.191406 307.308594 C 376.101562 307.03125 376.0625 306.746094 376.085938 306.457031 C 376.113281 306.074219 376.261719 305.699219 376.628906 305.59375 C 377.160156 305.445312 377.371094 305.039062 377.472656 304.617188 C 377.636719 303.933594 378.066406 303.410156 378.441406 302.886719 C 379.0625 302.015625 379.554688 301.082031 380.03125 300.136719 C 380.085938 300.03125 380.101562 299.902344 380.195312 299.824219 C 380.332031 299.710938 380.253906 299.347656 380.519531 299.441406 C 380.765625 299.527344 380.824219 299.832031 380.710938 300.0625 C 380.347656 300.789062 380.121094 301.570312 379.773438 302.308594 C 379.425781 303.035156 378.992188 303.714844 378.730469 304.492188 C 378.472656 305.257812 378.0625 305.96875 377.6875 306.691406 C 377.523438 307.007812 377.480469 307.3125 377.507812 307.660156 C 377.605469 308.875 377.816406 310.074219 378.019531 311.277344 C 378.246094 312.644531 378.433594 314.015625 378.644531 315.382812 C 378.753906 316.09375 378.878906 316.800781 378.992188 317.507812 C 379.027344 317.726562 379.078125 317.929688 379.269531 318.070312 C 380.035156 318.628906 380.507812 319.453125 381.101562 320.164062 C 381.589844 320.75 382.039062 321.367188 382.613281 321.859375 C 382.855469 321.761719 382.847656 321.539062 382.925781 321.375 C 383.519531 320.097656 384.140625 318.8125 385.136719 317.816406 C 386.039062 316.914062 386.9375 315.988281 388.152344 315.433594 C 388.886719 315.09375 389.601562 314.824219 390.410156 314.789062 C 390.597656 314.78125 390.785156 314.71875 390.964844 314.660156 C 391.925781 314.332031 392.835938 314.574219 393.726562 314.90625 C 393.996094 315.003906 394.25 315.125 394.53125 315.183594 C 395.414062 315.367188 396.019531 316.011719 396.710938 316.511719 C 397.339844 316.964844 397.816406 317.546875 398.132812 318.273438 C 398.28125 318.613281 398.5 318.917969 398.777344 319.199219 C 399.136719 319.570312 399.269531 320.109375 399.417969 320.609375 C 399.53125 321 399.605469 321.402344 399.792969 321.769531 C 399.90625 322 400.058594 322.035156 400.222656 321.816406 C 400.292969 321.71875 400.382812 321.628906 400.429688 321.523438 C 401.019531 320.15625 401.945312 318.984375 402.597656 317.644531 C 403.105469 316.597656 403.679688 315.570312 404.242188 314.542969 C 404.394531 314.269531 404.414062 314.035156 404.339844 313.730469 C 404.074219 312.664062 403.6875 311.628906 403.648438 310.507812 C 403.636719 310.085938 403.476562 309.664062 403.34375 309.253906 C 402.984375 308.152344 402.855469 307.007812 402.726562 305.871094 C 402.664062 305.300781 402.476562 304.878906 401.988281 304.5625 C 401.390625 304.167969 400.835938 303.707031 400.238281 303.3125 C 399.460938 302.800781 399.003906 301.988281 398.34375 301.367188 C 397.664062 300.730469 397.039062 300.035156 396.390625 299.363281 C 396.125 299.085938 395.894531 298.777344 395.703125 298.441406 C 395.65625 298.359375 395.625 298.253906 395.726562 298.1875 C 395.820312 298.121094 395.902344 298.175781 395.972656 298.246094 C 396.058594 298.328125 396.160156 298.398438 396.234375 298.488281 C 396.789062 299.191406 397.5625 299.640625 398.238281 300.183594 C 399.117188 300.894531 400.015625 301.570312 400.820312 302.371094 C 401.171875 302.722656 401.617188 302.976562 402.035156 303.253906 C 402.265625 303.410156 402.539062 303.363281 402.804688 303.355469 C 403.535156 303.34375 403.695312 303.453125 403.671875 304.148438 C 403.640625 305.046875 403.976562 305.894531 403.984375 306.78125 C 403.992188 307.855469 404.335938 308.847656 404.621094 309.855469 C 404.777344 310.394531 404.636719 310.953125 404.773438 311.5 C 405.035156 312.5625 405.199219 313.65625 405.636719 314.671875 C 405.785156 315.011719 405.765625 315.332031 405.554688 315.625 C 405.039062 316.339844 404.628906 317.121094 404.117188 317.847656 C 403.726562 318.410156 403.316406 318.976562 402.988281 319.585938 C 402.757812 320.003906 402.53125 320.402344 402.074219 320.648438 C 401.726562 320.832031 401.628906 321.257812 401.464844 321.597656 C 401.210938 322.113281 400.980469 322.640625 400.617188 323.089844 C 400.167969 323.644531 400.496094 324.242188 400.523438 324.816406 C 400.53125 325.007812 400.71875 324.988281 400.855469 324.902344 C 401.132812 324.734375 401.265625 324.445312 401.425781 324.179688 C 401.722656 323.679688 402.03125 323.21875 402.625 323.011719 C 402.972656 322.890625 403.171875 322.96875 403.34375 323.25 C 403.355469 323.269531 403.371094 323.292969 403.375 323.316406 C 403.824219 324.839844 405.0625 325.707031 406.175781 326.664062 C 406.933594 327.316406 407.617188 328.0625 408.460938 328.617188 C 408.664062 328.75 408.664062 328.96875 408.699219 329.1875 C 408.796875 329.789062 408.65625 330.382812 408.652344 330.976562 C 408.648438 331.433594 408.582031 331.886719 408.628906 332.34375 C 408.644531 332.535156 408.632812 332.726562 408.503906 332.890625 C 408.355469 333.085938 408.164062 333.152344 407.9375 333.105469 C 407.699219 333.058594 407.652344 332.871094 407.652344 332.667969 C 407.660156 331.804688 407.609375 330.9375 407.792969 330.085938 C 407.90625 329.546875 407.761719 329.160156 407.292969 328.871094 C 406.945312 328.660156 406.617188 328.417969 406.277344 328.195312 C 405.835938 327.90625 405.445312 327.5625 405.183594 327.089844 C 405.101562 326.945312 405.003906 326.792969 404.875 326.699219 C 404.234375 326.226562 403.710938 325.628906 403.117188 325.109375 C 402.6875 324.734375 402.617188 324.75 402.171875 325.160156 C 401.679688 325.613281 401.25 326.121094 400.800781 326.617188 C 400.753906 326.667969 400.679688 326.71875 400.667969 326.777344 C 400.535156 327.429688 400.378906 328.078125 400.308594 328.738281 C 400.28125 328.980469 400.402344 329.242188 400.292969 329.507812 C 400.183594 329.78125 400.382812 329.957031 400.539062 330.136719 C 401.0625 330.71875 401.75 331.066406 402.429688 331.402344 C 403.183594 331.769531 403.867188 332.25 404.582031 332.679688 C 405.089844 332.984375 405.3125 333.429688 405.109375 334.023438 C 404.898438 334.648438 404.921875 335.296875 404.929688 335.945312 C 404.941406 336.714844 404.949219 337.484375 404.941406 338.25 C 404.9375 338.683594 404.964844 339.046875 405.496094 339.191406 C 405.835938 339.28125 405.835938 339.566406 405.515625 339.921875 C 405.101562 340.382812 404.597656 340.78125 404.261719 341.292969 C 403.996094 341.707031 403.652344 342.019531 403.328125 342.363281 C 403.222656 342.46875 403.089844 342.644531 402.90625 342.484375 C 402.765625 342.363281 402.742188 342.1875 402.808594 342.019531 C 403.011719 341.5 403.355469 341.066406 403.675781 340.621094 C 404 340.175781 404.222656 339.746094 404.042969 339.175781 C 403.921875 338.777344 403.964844 338.367188 404.050781 337.960938 C 404.117188 337.652344 404.117188 337.34375 404.066406 337.03125 C 403.898438 336.0625 403.988281 335.070312 403.703125 334.105469 C 403.589844 333.730469 403.441406 333.453125 403.117188 333.261719 C 402.132812 332.671875 401.25 331.933594 400.296875 331.300781 C 400.175781 331.21875 400.0625 331.140625 399.917969 331.113281 C 399.582031 331.050781 399.347656 331.207031 399.4375 331.523438 C 399.613281 332.132812 399.339844 332.4375 398.886719 332.769531 C 398.554688 333.011719 398.316406 333.394531 398.050781 333.730469 C 397.886719 333.9375 397.996094 334.136719 398.125 334.320312 C 398.972656 335.539062 399.816406 336.773438 400.96875 337.722656 C 401.453125 338.121094 401.542969 338.550781 401.445312 339.105469 C 401.414062 339.261719 401.378906 339.390625 401.21875 339.4375 C 400.910156 339.527344 400.890625 339.765625 400.828125 340.042969 C 400.585938 341.179688 400.855469 342.335938 400.648438 343.472656 C 400.601562 343.75 400.597656 344.046875 400.585938 344.332031 C 400.5625 344.757812 400.535156 345.164062 400.847656 345.554688 C 401.15625 345.933594 401.050781 346.167969 400.609375 346.488281 C 400.324219 346.695312 399.988281 346.863281 399.921875 347.269531 C 399.917969 347.292969 399.898438 347.3125 399.882812 347.332031 C 398.511719 348.882812 397.175781 350.472656 395.617188 351.835938 C 395.40625 351.699219 395.496094 351.554688 395.570312 351.449219 C 396.292969 350.414062 397.042969 349.402344 397.855469 348.429688 C 398.488281 347.667969 399.058594 346.84375 399.523438 345.960938 C 399.761719 345.511719 399.71875 345.011719 399.683594 344.542969 C 399.578125 343.03125 399.765625 341.523438 399.71875 340.011719 C 399.703125 339.492188 399.613281 338.957031 399.773438 338.4375 C 399.796875 338.359375 399.769531 338.222656 399.710938 338.167969 C 399.296875 337.789062 399.167969 337.214844 398.769531 336.820312 C 398.3125 336.367188 397.882812 335.878906 397.507812 335.351562 C 397.265625 335 396.988281 334.789062 396.554688 335.023438 C 396.394531 335.109375 396.234375 335.101562 396.066406 335.054688 C 395.972656 335.027344 395.839844 335.019531 395.847656 335.148438 C 395.863281 335.632812 395.550781 335.511719 395.265625 335.515625 C 394.910156 335.519531 394.710938 335.757812 394.832031 336.078125 C 395.066406 336.730469 394.972656 337.414062 395.042969 338.074219 C 395.097656 338.609375 394.78125 339.117188 394.464844 339.570312 C 394.027344 340.1875 393.4375 340.589844 392.777344 340.933594 C 392.09375 341.289062 391.304688 341.203125 390.667969 340.785156 C 389.449219 339.988281 389.269531 338.824219 389.40625 337.527344 C 389.464844 336.9375 389.359375 336.320312 389.6875 335.765625 C 389.769531 335.628906 389.714844 335.484375 389.570312 335.402344 C 389.425781 335.320312 389.277344 335.183594 389.125 335.175781 C 388.445312 335.148438 387.917969 334.785156 387.375 334.441406 C 387.03125 334.21875 386.925781 334.238281 386.777344 334.582031 C 386.429688 335.394531 386.066406 336.199219 385.789062 337.03125 C 385.632812 337.492188 385.304688 337.859375 385.195312 338.335938 C 385.152344 338.519531 385.058594 338.691406 385.109375 338.890625 C 385.363281 339.839844 385.363281 340.835938 385.671875 341.773438 C 385.746094 341.996094 385.742188 342.25 385.746094 342.488281 C 385.773438 343.9375 386.378906 345.171875 387.148438 346.347656 C 387.761719 347.289062 388.476562 348.15625 389.089844 349.097656 C 389.441406 349.636719 389.890625 350.109375 390.3125 350.601562 C 390.511719 350.832031 390.699219 351.066406 390.78125 351.367188 C 390.714844 351.359375 390.636719 351.363281 390.605469 351.328125 C 390.042969 350.703125 389.3125 350.28125 388.683594 349.738281 C 388.027344 349.171875 387.421875 348.511719 386.632812 348.101562 C 386.40625 347.984375 386.269531 347.761719 386.292969 347.507812 C 386.367188 346.839844 386.050781 346.292969 385.742188 345.761719 C 385.355469 345.089844 385.105469 344.398438 384.992188 343.625 C 384.796875 342.304688 384.515625 341 384.273438 339.6875 C 384.199219 339.277344 383.863281 339.050781 383.613281 338.769531 C 383.226562 338.324219 383.183594 338.246094 383.550781 337.804688 C 384.585938 336.554688 385.242188 335.09375 385.933594 333.644531 C 386.027344 333.445312 385.96875 333.328125 385.839844 333.210938 C 385.222656 332.636719 384.675781 332.011719 384.226562 331.296875 C 384.046875 331.003906 383.910156 331.011719 383.691406 331.3125 C 383.210938 331.96875 382.757812 332.644531 382.28125 333.304688 C 381.804688 333.964844 381.316406 334.613281 380.832031 335.265625 C 380.714844 335.417969 380.53125 335.550781 380.546875 335.75 C 380.601562 336.457031 380.292969 337.109375 380.292969 337.808594 C 380.289062 338.550781 380.335938 339.292969 380.089844 340.023438 C 379.960938 340.394531 380.074219 340.753906 380.34375 341.09375 C 380.753906 341.613281 381.09375 342.179688 381.5625 342.667969 C 381.929688 343.054688 382.0625 343.613281 382.257812 344.183594 C 381.148438 343.230469 380.101562 342.328125 379.046875 341.433594 C 378.863281 341.277344 378.683594 341.125 378.566406 340.910156 C 378.34375 340.515625 378.347656 340.207031 378.722656 339.964844 C 379.253906 339.621094 379.292969 339.128906 379.320312 338.589844 C 379.386719 337.296875 379.667969 336.023438 379.59375 334.71875 C 379.582031 334.453125 379.75 334.257812 379.96875 334.144531 C 380.925781 333.65625 381.503906 332.78125 382.058594 331.933594 C 382.414062 331.394531 382.824219 330.910156 383.203125 330.398438 C 383.417969 330.109375 383.449219 329.871094 383.324219 329.546875 C 383.121094 329.039062 382.925781 328.519531 382.800781 327.988281 C 382.722656 327.636719 382.496094 327.476562 382.226562 327.429688 C 381.167969 327.242188 380.183594 326.8125 379.152344 326.550781 C 378.902344 326.488281 378.738281 326.496094 378.582031 326.675781 C 377.242188 328.171875 375.671875 329.445312 374.417969 331.027344 C 374.171875 331.335938 374.050781 331.578125 374.21875 331.992188 C 374.394531 332.425781 374.355469 332.929688 374.53125 333.382812 C 374.585938 333.53125 374.546875 333.71875 374.4375 333.863281 C 374.328125 334.011719 374.257812 334.230469 374.023438 334.214844 C 373.785156 334.195312 373.640625 334.050781 373.589844 333.808594 C 373.511719 333.4375 373.273438 333.113281 373.316406 332.703125 C 373.347656 332.398438 373.152344 332.152344 373 331.914062 C 372.820312 331.628906 372.824219 331.324219 372.824219 331.011719 Z M 390.808594 351.371094 C 390.800781 351.371094 390.792969 351.371094 390.78125 351.371094 C 390.785156 351.375 390.789062 351.382812 390.792969 351.390625 Z M 390.898438 351.773438 C 391.023438 351.746094 390.988281 351.625 390.941406 351.542969 C 390.90625 351.488281 390.851562 351.445312 390.804688 351.402344 C 390.789062 351.464844 390.773438 351.523438 390.773438 351.585938 C 390.769531 351.675781 390.78125 351.800781 390.898438 351.773438 Z M 390.808594 351.375 C 390.808594 351.371094 390.792969 351.390625 390.792969 351.390625 C 390.796875 351.394531 390.796875 351.398438 390.800781 351.402344 C 390.804688 351.390625 390.808594 351.382812 390.808594 351.375 Z M 390.808594 351.375 "/></g></g></svg>