<svg xmlns="http://www.w3.org/2000/svg" xmlns:xlink="http://www.w3.org/1999/xlink" width="1500" zoomAndPan="magnify" viewBox="0 0 1125 577.499988" height="770" preserveAspectRatio="xMidYMid meet" version="1.2"><defs><clipPath id="8c22b88243"><path d="M 0.488281 0 L 225 0 L 225 326.71875 L 0.488281 326.71875 Z M 0.488281 0 "/></clipPath><clipPath id="d4578538a9"><path d="M 900 0 L 1124.511719 0 L 1124.511719 326.71875 L 900 326.71875 Z M 900 0 "/></clipPath></defs><g id="c5a4c493a0"><path style=" stroke:none;fill-rule:nonzero;fill:#000000;fill-opacity:1;" d="M 268.921875 141.480469 C 268.769531 141.292969 268.546875 141.105469 268.546875 140.902344 C 268.546875 140.136719 267.988281 139.800781 267.464844 139.484375 C 266.734375 139.015625 265.988281 138.605469 265.203125 138.214844 C 263.09375 137.167969 260.910156 136.347656 258.691406 135.5625 C 257.476562 135.132812 256.414062 135.265625 255.273438 135.621094 C 255.050781 135.695312 254.824219 135.957031 254.507812 135.710938 C 254.730469 135.527344 254.917969 135.339844 255.144531 135.171875 C 256.503906 134.03125 257.832031 132.875 258.632812 131.25 C 258.78125 130.933594 259.101562 130.839844 259.34375 130.671875 C 260.894531 129.71875 262.21875 128.507812 263.394531 127.105469 C 263.710938 126.753906 264.027344 126.453125 264.457031 126.230469 C 265.785156 125.558594 267.054688 124.753906 268.191406 123.785156 C 268.507812 123.523438 269.03125 123.207031 268.753906 122.757812 C 268.492188 122.328125 267.96875 122.589844 267.574219 122.757812 C 266.230469 123.316406 265.035156 124.140625 263.9375 125.089844 C 263.691406 125.296875 263.488281 125.539062 263.207031 125.667969 C 261.230469 126.566406 259.753906 128.078125 258.371094 129.703125 C 258.167969 129.945312 258.035156 130.242188 257.71875 130.355469 C 256.503906 130.804688 255.628906 131.71875 254.695312 132.539062 C 253.742188 133.398438 252.957031 134.441406 252.023438 135.507812 C 251.875 135.300781 251.800781 135.207031 251.726562 135.113281 C 251.074219 134.144531 251.074219 134.144531 251.765625 133.136719 C 253.722656 130.300781 255.589844 127.386719 257.382812 124.4375 C 258.128906 123.222656 258.707031 121.953125 259.117188 120.59375 C 259.210938 120.292969 259.417969 119.9375 259.195312 119.695312 C 258.726562 119.191406 258.875 118.59375 258.894531 118.035156 C 258.914062 116.542969 258.988281 115.046875 258.800781 113.574219 C 258.558594 111.574219 258.484375 109.597656 257.253906 107.769531 C 255.832031 105.660156 254.863281 103.269531 254.488281 100.691406 C 254.394531 100.078125 254.246094 99.460938 254.078125 98.863281 C 253.984375 98.527344 253.855469 98.15625 253.40625 98.15625 C 252.976562 98.15625 252.847656 98.527344 252.714844 98.84375 C 252.679688 98.917969 252.660156 98.996094 252.640625 99.070312 C 251.316406 103.136719 252.882812 107.132812 255.628906 109.671875 C 256.132812 110.136719 256.300781 110.511719 256.261719 111.128906 C 256.113281 114.207031 256.320312 117.230469 257.140625 120.21875 C 257.214844 120.5 257.234375 120.742188 257.046875 121.003906 C 256.65625 121.527344 256.28125 122.046875 255.832031 122.683594 C 255.703125 121.65625 255.648438 120.761719 255.460938 119.882812 C 254.546875 115.792969 252.511719 112.324219 249.578125 109.335938 C 249.28125 109.039062 248.925781 108.777344 248.570312 108.515625 C 247.300781 107.636719 246.015625 107.675781 244.707031 108.457031 C 243.921875 108.945312 243.308594 109.597656 242.765625 110.324219 C 241.570312 111.910156 240.769531 113.683594 240.207031 115.589844 C 239.835938 116.859375 239.628906 118.148438 239.425781 119.675781 C 238.789062 118.59375 238.003906 118.015625 237.164062 117.4375 C 234.664062 115.664062 232.292969 113.722656 229.753906 112.023438 C 227.679688 110.644531 226.019531 109.019531 224.917969 106.761719 C 224.226562 105.304688 223.238281 104.015625 222.15625 102.820312 C 221.855469 102.503906 221.503906 102.09375 221.054688 102.410156 C 220.679688 102.671875 220.867188 103.136719 221 103.511719 C 221.78125 105.902344 222.808594 108.195312 224.191406 110.308594 C 224.601562 110.941406 225.066406 111.519531 225.871094 111.707031 C 226.167969 111.78125 226.335938 111.96875 226.503906 112.191406 C 228.671875 114.953125 231.398438 117.046875 234.421875 118.746094 C 235.035156 119.082031 235.652344 119.492188 236.363281 119.566406 C 236.996094 119.621094 237.203125 119.996094 237.351562 120.515625 C 238.601562 124.828125 240.710938 128.695312 243.269531 132.332031 C 243.625 132.835938 244.015625 133.34375 244.5 133.753906 C 244.652344 133.882812 245.210938 133.863281 244.875 134.257812 C 244.613281 134.574219 244.425781 134.144531 244.222656 134.015625 C 244.183594 133.996094 244.164062 133.957031 244.148438 133.9375 C 241.738281 131.570312 239.164062 129.421875 236.121094 127.855469 C 233.859375 126.695312 231.65625 125.371094 229.175781 124.734375 C 227.941406 124.417969 226.804688 123.953125 225.703125 123.355469 C 224.84375 122.886719 224.003906 122.382812 223.144531 121.917969 C 222.808594 121.730469 222.453125 121.527344 222.117188 121.359375 C 221.820312 121.226562 221.503906 121.132812 221.257812 121.433594 C 221.015625 121.710938 221.128906 122.03125 221.277344 122.308594 C 221.410156 122.550781 221.558594 122.796875 221.726562 123 C 223.554688 125.089844 225.851562 126.339844 228.632812 126.621094 C 229.175781 126.675781 229.605469 126.808594 230.050781 127.070312 C 231.902344 128.171875 233.824219 129.160156 235.894531 129.796875 C 236.230469 129.90625 236.53125 130.039062 236.792969 130.316406 C 238.882812 132.410156 241.199219 134.21875 243.511719 136.03125 C 243.980469 136.402344 244.203125 136.71875 243.941406 137.300781 C 242.617188 136.367188 241.308594 135.453125 240.003906 134.535156 C 239.125 133.9375 238.210938 133.417969 237.183594 133.117188 C 236.550781 132.929688 235.933594 132.914062 235.222656 133.003906 C 232.871094 133.34375 230.667969 134.125 228.445312 134.890625 C 226.859375 135.433594 225.3125 135.804688 223.628906 135.394531 C 222.921875 135.226562 222.15625 135.246094 221.410156 135.171875 C 220.195312 135.058594 218.980469 134.929688 217.769531 134.855469 C 217.265625 134.816406 216.742188 134.796875 216.273438 135.078125 C 215.789062 135.359375 215.695312 135.710938 216.050781 136.140625 C 216.480469 136.664062 217.078125 137 217.710938 137.207031 C 220.214844 138.007812 222.789062 138.25 225.367188 137.746094 C 226.46875 137.523438 227.550781 137.28125 228.652344 137.09375 C 231.171875 136.683594 233.617188 135.957031 236.0625 135.285156 C 236.492188 135.171875 236.773438 135.191406 237.128906 135.453125 C 238.546875 136.496094 240.058594 137.429688 241.570312 138.308594 C 241.703125 138.382812 241.851562 138.457031 241.960938 138.550781 C 242.054688 138.625 242.242188 138.625 242.1875 138.886719 C 241.199219 138.457031 240.5625 138.960938 239.945312 139.652344 C 238.769531 140.9375 237.875 142.414062 236.996094 143.890625 C 235.785156 146 234.550781 148.109375 233.972656 150.496094 C 233.785156 151.261719 233.449219 151.859375 232.925781 152.402344 C 231.246094 154.175781 229.605469 155.949219 227.679688 157.460938 C 227.253906 157.796875 226.839844 158.1875 226.5625 158.671875 C 226.375 158.992188 226.167969 159.308594 226.429688 159.644531 C 226.671875 159.960938 227.027344 159.980469 227.402344 159.921875 C 227.980469 159.832031 228.558594 159.699219 229.082031 159.417969 C 231.320312 158.242188 233.152344 156.621094 234.496094 154.492188 C 234.886719 153.855469 235.261719 153.167969 235.128906 152.402344 C 235.054688 151.914062 235.28125 151.671875 235.523438 151.375 C 236.472656 150.273438 237.3125 149.078125 238.078125 147.847656 C 239.5 145.585938 240.769531 143.234375 241.925781 140.828125 C 242.785156 141.292969 243.585938 141.742188 244.410156 142.207031 C 244.632812 142.339844 244.800781 142.46875 244.6875 142.769531 C 244.277344 143.8125 244.707031 144.671875 245.285156 145.511719 C 245.472656 145.773438 245.601562 145.980469 245.417969 146.351562 C 244.894531 147.359375 244.894531 148.5 244.988281 149.582031 C 245.15625 151.261719 244.6875 152.664062 243.4375 153.800781 C 243.027344 154.175781 242.671875 154.585938 242.449219 155.109375 C 242.316406 155.40625 242.242188 155.742188 242.542969 155.964844 C 242.820312 156.171875 243.140625 156.117188 243.417969 155.929688 C 243.550781 155.835938 243.660156 155.742188 243.792969 155.648438 C 245.527344 154.378906 246.257812 152.570312 246.554688 150.515625 C 246.6875 149.5625 246.703125 148.554688 247.078125 147.679688 C 247.5625 147.828125 248.011719 147.957031 248.476562 148.109375 C 248.476562 149.453125 248.328125 150.757812 247.789062 152.007812 C 247.375 152.941406 247.003906 153.894531 246.628906 154.847656 C 246.519531 155.144531 246.40625 155.445312 246.351562 155.742188 C 246.257812 156.171875 246.40625 156.527344 246.761719 156.75 C 247.117188 156.972656 247.433594 156.824219 247.730469 156.601562 C 248.683594 155.910156 249.167969 154.957031 249.316406 153.820312 C 249.449219 152.832031 249.691406 151.898438 250.140625 151.019531 C 250.773438 149.769531 250.960938 148.5 250.570312 147.15625 C 250.476562 146.839844 250.457031 146.558594 250.699219 146.277344 C 251.429688 145.4375 251.875 144.449219 252.25 143.328125 C 253.164062 144.148438 254.171875 144.652344 255.253906 145.027344 C 256.1875 145.363281 256.1875 145.363281 256.132812 146.316406 C 256.132812 146.425781 256.132812 146.558594 256.09375 146.671875 C 255.796875 150.050781 255.964844 153.410156 256.898438 156.695312 C 257.007812 157.105469 256.953125 157.328125 256.65625 157.609375 C 255.179688 159.066406 254.132812 160.800781 253.183594 162.613281 C 252.699219 163.5625 252.398438 164.570312 252.25 165.636719 C 252.191406 165.992188 252.191406 166.34375 252.304688 166.679688 C 252.527344 167.335938 252.976562 167.484375 253.445312 167 C 253.761719 166.664062 254.023438 166.25 254.246094 165.839844 C 255.125 164.21875 255.945312 162.574219 256.824219 160.949219 C 257.515625 159.664062 258.539062 158.503906 258.242188 156.863281 C 258.859375 153.242188 258.800781 149.601562 258.820312 145.960938 C 258.820312 145.140625 258.484375 144.578125 257.832031 144.09375 C 256.503906 143.140625 255.03125 142.542969 253.519531 141.964844 C 252.808594 141.6875 252.042969 141.480469 251.410156 140.9375 C 251.839844 140.398438 252.25 139.914062 252.378906 139.296875 C 252.472656 138.921875 252.695312 138.792969 253.015625 138.679688 C 254.265625 138.308594 255.421875 137.746094 256.5625 137.132812 C 256.953125 136.90625 257.253906 136.945312 257.644531 137.167969 C 259.941406 138.457031 262.386719 139.410156 264.867188 140.285156 C 265.597656 140.546875 266.136719 140.882812 266.550781 141.59375 C 267.519531 143.292969 268.546875 144.972656 269.761719 146.519531 C 270.359375 147.265625 271.03125 147.941406 271.980469 148.199219 C 272.484375 148.332031 273.140625 148.59375 273.511719 148.050781 C 273.867188 147.511719 273.289062 147.136719 272.988281 146.746094 C 271.628906 144.972656 270.246094 143.214844 268.863281 141.441406 Z M 268.921875 141.480469 "/><path style=" stroke:none;fill-rule:nonzero;fill:#000000;fill-opacity:1;" d="M 624.945312 113.59375 C 625.300781 113.628906 625.65625 113.574219 625.992188 113.5 C 626.980469 113.3125 627.839844 112.863281 628.625 112.265625 C 630.433594 110.941406 631.722656 109.167969 632.710938 107.1875 C 632.9375 106.761719 633.105469 106.628906 633.570312 106.683594 C 634.1875 106.761719 634.820312 106.703125 635.457031 106.628906 C 637.417969 106.40625 639.285156 105.828125 641.113281 105.097656 C 641.652344 104.875 641.933594 104.910156 642.308594 105.359375 C 642.980469 106.164062 643.800781 106.851562 644.621094 107.523438 C 645.257812 107.824219 645.707031 108.347656 646.210938 108.832031 C 645.539062 108.589844 644.941406 108.214844 644.398438 107.75 C 643.933594 107.523438 643.484375 107.28125 643.015625 107.097656 C 642.34375 106.816406 641.730469 106.835938 641 107.1875 C 638.089844 108.589844 635.679688 110.625 633.476562 112.9375 C 633.347656 113.089844 633.199219 113.21875 633.105469 113.386719 C 632.394531 114.675781 631.332031 115.664062 630.324219 116.710938 C 628.828125 118.238281 627.128906 119.472656 625.375 120.6875 C 624.890625 121.023438 624.386719 121.339844 624.03125 121.824219 C 623.65625 122.328125 623.824219 122.71875 624.441406 122.8125 C 624.628906 122.851562 624.832031 122.832031 625.019531 122.832031 C 627.167969 122.796875 628.976562 121.953125 630.492188 120.480469 C 631.945312 119.0625 633.214844 117.457031 634.429688 115.8125 C 634.710938 115.441406 635.007812 115.03125 634.972656 114.542969 C 634.953125 114.113281 635.15625 113.945312 635.53125 113.777344 C 637.847656 112.675781 639.917969 111.183594 641.820312 109.484375 C 642.082031 109.242188 642.25 109.128906 642.605469 109.355469 C 644.0625 110.308594 645.59375 111.070312 647.21875 111.6875 C 647.757812 111.894531 647.90625 112.230469 647.945312 112.753906 C 646.453125 112.976562 645.03125 113.199219 643.597656 113.386719 C 642.511719 113.535156 641.578125 113.945312 640.757812 114.675781 C 640.308594 115.066406 639.917969 115.496094 639.601562 116 C 638.351562 118.015625 636.761719 119.808594 635.921875 122.105469 C 635.625 122.90625 635.007812 123.636719 634.691406 124.476562 C 633.757812 126.902344 632.5625 129.179688 631.011719 131.269531 C 630.84375 131.492188 630.714844 131.738281 630.582031 131.980469 C 630.453125 132.222656 630.359375 132.5 630.582031 132.746094 C 630.789062 132.988281 631.070312 132.96875 631.347656 132.914062 C 631.871094 132.835938 632.28125 132.539062 632.675781 132.183594 C 633.328125 131.605469 633.8125 130.878906 634.207031 130.113281 C 635.230469 128.132812 636.203125 126.117188 637.191406 124.121094 C 637.417969 123.671875 637.679688 123.167969 637.585938 122.664062 C 637.453125 122.046875 637.808594 121.804688 638.199219 121.449219 C 639.9375 119.921875 641.300781 118.109375 641.820312 115.8125 C 641.933594 115.328125 642.121094 115.273438 642.511719 115.253906 C 644.117188 115.179688 645.707031 114.898438 647.292969 114.601562 C 647.589844 114.542969 647.945312 114.394531 648.28125 114.5625 C 648.226562 114.695312 648.226562 114.785156 648.1875 114.84375 C 647.402344 116.355469 647.085938 117.867188 648.1875 119.378906 C 648.429688 119.714844 648.1875 119.84375 648.019531 120.050781 C 647.402344 120.703125 647.367188 121.433594 647.722656 122.214844 C 647.890625 122.609375 648.039062 123.019531 648.207031 123.410156 C 648.636719 124.363281 648.898438 125.332031 648.691406 126.378906 C 648.65625 126.601562 648.671875 126.84375 648.691406 127.089844 C 648.710938 127.367188 648.804688 127.648438 649.101562 127.742188 C 649.4375 127.855469 649.738281 127.703125 649.925781 127.441406 C 650.109375 127.183594 650.277344 126.921875 650.390625 126.621094 C 650.78125 125.578125 650.726562 124.550781 650.335938 123.523438 C 650.167969 123.074219 649.925781 122.664062 649.792969 122.214844 C 649.53125 121.414062 650.074219 120.816406 650.859375 121.023438 C 651.679688 121.246094 652.480469 121.246094 653.304688 121.058594 C 653.640625 120.984375 653.976562 120.722656 654.273438 121.097656 C 654.589844 121.488281 654.703125 121.917969 654.480469 122.402344 C 654.3125 122.757812 654.144531 123.113281 653.992188 123.46875 C 653.582031 124.53125 653.507812 125.59375 653.9375 126.675781 C 654.253906 127.441406 654.757812 127.910156 655.152344 127.722656 C 655.75 127.425781 655.675781 126.84375 655.582031 126.285156 C 655.429688 125.445312 655.542969 124.660156 655.898438 123.878906 C 656.121094 123.375 656.289062 122.851562 656.515625 122.347656 C 656.886719 121.488281 656.945312 120.667969 656.214844 119.957031 C 655.972656 119.734375 655.972656 119.546875 656.179688 119.265625 C 657.054688 117.960938 656.886719 116.597656 656.328125 115.234375 C 656.234375 115.011719 655.972656 114.824219 656.121094 114.449219 C 658.175781 114.710938 660.191406 115.199219 662.246094 115.234375 C 662.898438 117.886719 664.300781 119.996094 666.371094 121.675781 C 666.539062 121.804688 666.820312 121.878906 666.707031 122.199219 C 666.445312 122.90625 666.78125 123.523438 667.0625 124.101562 C 668.03125 126.117188 669.039062 128.113281 670.050781 130.09375 C 670.441406 130.859375 670.945312 131.570312 671.578125 132.164062 C 671.953125 132.519531 672.382812 132.820312 672.90625 132.875 C 673.167969 132.914062 673.445312 132.929688 673.671875 132.6875 C 673.914062 132.410156 673.746094 132.164062 673.632812 131.941406 C 673.429688 131.570312 673.183594 131.214844 672.941406 130.859375 C 671.765625 129.179688 670.683594 127.441406 670.011719 125.519531 C 669.433594 123.894531 668.59375 122.402344 667.828125 120.890625 C 666.820312 118.910156 665.511719 117.0625 664.132812 115.308594 C 663.234375 114.152344 662.003906 113.5 660.527344 113.332031 C 659.109375 113.164062 657.710938 112.921875 656.289062 112.695312 C 656.363281 112.117188 656.589844 111.800781 657.113281 111.613281 C 658.847656 110.980469 660.453125 110.101562 662.003906 109.113281 C 663.964844 110.828125 666.035156 112.378906 668.367188 113.554688 C 668.871094 113.816406 669.300781 113.984375 669.300781 114.691406 C 669.300781 115.140625 669.65625 115.550781 669.9375 115.925781 C 670.964844 117.308594 672.066406 118.632812 673.242188 119.902344 C 674.285156 121.039062 675.519531 121.9375 677.011719 122.421875 C 677.925781 122.71875 678.839844 122.871094 679.792969 122.777344 C 680.503906 122.703125 680.652344 122.289062 680.222656 121.730469 C 679.886719 121.300781 679.421875 120.984375 678.953125 120.683594 C 675.890625 118.613281 673.167969 116.1875 670.945312 113.164062 C 669.191406 110.773438 666.707031 109.128906 664.1875 107.5625 C 662.84375 106.742188 661.574219 106.683594 660.246094 107.488281 C 659.761719 107.824219 659.257812 108.140625 658.773438 108.476562 C 658.71875 108.402344 658.679688 108.347656 658.625 108.273438 C 659.035156 107.878906 659.445312 107.488281 659.988281 107.226562 C 660.675781 106.574219 661.386719 105.957031 662.023438 105.265625 C 662.375 104.875 662.617188 104.855469 663.105469 105.042969 C 665.605469 105.996094 668.125 106.835938 670.871094 106.628906 C 671.207031 106.609375 671.375 106.703125 671.488281 107.003906 C 671.972656 108.308594 672.832031 109.390625 673.707031 110.4375 C 674.902344 111.855469 676.339844 113.03125 678.226562 113.441406 C 678.878906 113.59375 679.550781 113.609375 680.203125 113.386719 C 680.539062 113.273438 680.933594 113.199219 680.96875 112.769531 C 680.988281 112.398438 680.691406 112.230469 680.410156 112.078125 C 680 111.855469 679.570312 111.652344 679.140625 111.464844 C 677.367188 110.734375 676.003906 109.542969 674.996094 107.953125 C 674.492188 107.171875 673.96875 106.367188 673.558594 105.527344 C 673.222656 104.835938 672.773438 104.558594 672.007812 104.558594 C 670.722656 104.558594 669.433594 104.371094 668.144531 104.203125 C 666.929688 104.035156 665.792969 103.625 664.597656 103.398438 C 663.179688 103.121094 661.871094 103.214844 660.675781 104.222656 C 659.425781 105.285156 658.15625 106.347656 656.945312 107.46875 C 656.792969 107.601562 656.664062 107.878906 656.363281 107.675781 C 656.363281 107.601562 656.363281 107.507812 656.382812 107.46875 C 659.257812 104.820312 661.722656 101.832031 663.8125 98.546875 C 663.964844 98.304688 664.148438 98.117188 664.449219 98.0625 C 666.257812 97.726562 667.769531 96.71875 669.359375 95.859375 C 669.789062 95.617188 670.125 95.503906 670.644531 95.746094 C 672.269531 96.511719 674.007812 96.734375 675.800781 96.625 C 676.226562 96.605469 676.65625 96.53125 677.050781 96.34375 C 677.554688 96.121094 677.609375 95.691406 677.160156 95.335938 C 676.863281 95.09375 676.507812 94.90625 676.136719 94.757812 C 675.183594 94.363281 674.195312 94.179688 673.183594 93.992188 C 672.757812 93.917969 672.214844 93.933594 671.953125 93.675781 C 671.394531 93.09375 670.796875 93.261719 670.21875 93.394531 C 668.554688 93.730469 666.949219 94.214844 665.457031 95.035156 C 665.25 95.148438 665.007812 95.355469 664.820312 95.316406 C 664.167969 95.1875 663.777344 95.597656 663.382812 95.96875 C 662.75 96.550781 662.191406 97.222656 661.59375 97.835938 C 661.425781 98.003906 661.367188 98.378906 660.9375 98.246094 C 661.273438 94.757812 660.0625 91.789062 657.878906 89.15625 C 656.832031 87.886719 655.75 86.65625 654.628906 85.421875 C 653.0625 83.6875 651.15625 83.707031 649.570312 85.480469 C 648.523438 86.65625 647.496094 87.832031 646.488281 89.027344 C 644.34375 91.582031 643.09375 94.457031 643.277344 97.875 C 643.277344 98.023438 643.335938 98.191406 643.074219 98.265625 C 642.328125 97.5 641.671875 96.625 640.832031 95.914062 C 640.496094 95.632812 640.199219 95.261719 639.730469 95.316406 C 639.339844 95.371094 639.058594 95.1875 638.761719 95.019531 C 637.265625 94.195312 635.644531 93.75 634 93.394531 C 633.570312 93.300781 633.03125 93.152344 632.75 93.394531 C 632.097656 93.992188 631.3125 93.933594 630.566406 94.085938 C 629.6875 94.273438 628.792969 94.441406 627.96875 94.832031 C 627.503906 95.074219 626.777344 95.222656 626.867188 95.875 C 626.960938 96.53125 627.691406 96.53125 628.214844 96.585938 C 630.042969 96.792969 631.816406 96.550781 633.515625 95.820312 C 634.074219 95.578125 634.46875 95.558594 635.007812 95.859375 C 636.578125 96.734375 638.109375 97.707031 639.917969 98.042969 C 640.253906 98.097656 640.421875 98.398438 640.589844 98.660156 C 642.625 101.792969 644.941406 104.707031 647.722656 107.226562 C 647.890625 107.394531 648.09375 107.542969 647.816406 107.84375 C 647.535156 107.582031 647.234375 107.320312 646.957031 107.039062 C 645.6875 105.882812 644.417969 104.707031 642.960938 103.753906 C 642.550781 103.472656 642.140625 103.175781 641.578125 103.195312 C 640.496094 103.25 639.414062 103.363281 638.367188 103.699219 C 636.59375 104.257812 634.746094 104.464844 632.917969 104.5 C 631.703125 104.519531 630.902344 104.855469 630.492188 106.03125 C 630.398438 106.292969 630.210938 106.5 630.078125 106.742188 C 628.847656 109.074219 627.074219 110.828125 624.554688 111.761719 C 624.050781 111.949219 623.210938 112.136719 623.378906 112.84375 C 623.546875 113.515625 624.367188 113.480469 624.984375 113.535156 Z M 624.945312 113.59375 "/><path style=" stroke:none;fill-rule:nonzero;fill:#000000;fill-opacity:1;" d="M 651.960938 42.117188 C 648.300781 42.117188 645.183594 41.949219 642.082031 42.191406 C 640.628906 42.300781 639.078125 42.957031 637.789062 43.722656 C 632.1875 47.0625 626.757812 50.683594 621.101562 53.933594 C 618.597656 55.371094 617.460938 57.085938 617.515625 59.960938 C 617.628906 67.335938 617.589844 74.707031 617.515625 82.101562 C 617.515625 83.371094 618.1875 84.992188 615.855469 85.964844 C 614.714844 81.167969 615.292969 76.464844 615.277344 71.796875 C 615.257812 67.1875 615.277344 62.574219 615.277344 57.664062 C 607.714844 61.136719 600.84375 64.480469 593.808594 67.464844 C 574.148438 75.808594 553.761719 81.765625 532.761719 85.628906 C 518.085938 88.335938 503.300781 89.828125 488.421875 90.875 C 482.226562 91.304688 476.121094 92.890625 469.941406 93.785156 C 447 97.109375 423.941406 98.601562 400.757812 97.707031 C 392.824219 97.40625 384.832031 97.425781 376.9375 96.550781 C 363.832031 95.113281 350.742188 93.429688 337.75 91.230469 C 313.070312 87.046875 289.101562 80.214844 265.726562 71.273438 C 259.269531 68.808594 252.902344 66.121094 245.957031 63.320312 C 245.585938 67.632812 245.808594 71.664062 245.769531 75.699219 C 245.734375 79.675781 245.769531 83.648438 245.769531 87.625 C 245.769531 91.75 245.753906 95.859375 245.734375 99.984375 C 245.734375 103.960938 245.753906 107.9375 245.753906 111.910156 C 245.753906 116.039062 245.847656 120.164062 245.753906 124.269531 C 245.660156 128.152344 246.257812 132.089844 245.191406 136.199219 C 242.820312 135.46875 243.269531 133.734375 243.269531 132.351562 C 243.230469 124.25 243.25 116.148438 243.25 108.066406 C 243.25 94.011719 243.25 79.933594 243.269531 65.878906 C 243.269531 64.609375 243.269531 63.339844 243.269531 61.941406 C 210.097656 46.519531 179.835938 27.144531 153.4375 1.570312 C 155.753906 0.1875 156.851562 1.664062 158.085938 2.726562 C 164.898438 8.535156 171.527344 14.527344 178.546875 20.070312 C 191.820312 30.5625 205.933594 39.800781 220.867188 47.773438 C 227.363281 51.242188 233.972656 54.546875 240.527344 57.925781 C 241.121094 58.242188 241.792969 58.429688 242.449219 58.671875 C 243.476562 55.40625 243.921875 15.199219 243.140625 1.308594 C 245.117188 0.132812 246.238281 1.589844 247.453125 2.746094 C 256.503906 11.390625 266.136719 19.324219 276.292969 26.601562 C 294.214844 39.464844 313.296875 50.292969 333.476562 59.234375 C 357.316406 69.800781 382.050781 77.398438 407.609375 82.398438 C 423.234375 85.460938 439.007812 87.328125 454.894531 88.113281 C 456.800781 88.203125 458.851562 87.699219 460.664062 87.046875 C 472.292969 82.828125 483.253906 77.152344 494.117188 71.3125 C 508.378906 63.65625 522.363281 55.574219 535.597656 46.222656 C 547.210938 38.027344 558.484375 29.402344 568.042969 18.78125 C 570.675781 15.851562 573.011719 12.621094 575.492188 9.523438 C 573.066406 6.703125 570.863281 4.164062 568.605469 1.550781 C 570.917969 0.28125 571.777344 1.777344 572.917969 2.839844 C 578.929688 8.457031 584.753906 14.28125 591.0625 19.527344 C 598.378906 25.632812 606.667969 30.300781 616.097656 33.882812 C 620.371094 30.46875 625 27.183594 629.128906 23.375 C 636.109375 16.933594 642.753906 10.121094 649.605469 3.53125 C 650.800781 2.375 651.605469 0.132812 654.535156 1.476562 L 654.535156 28.023438 C 663.140625 21.132812 670.367188 13.984375 677.199219 6.425781 C 678.523438 4.949219 679.71875 3.34375 681.175781 1.980469 C 681.882812 1.347656 682.984375 1.160156 683.902344 0.769531 L 684.480469 1.589844 C 683.546875 2.765625 682.726562 4.054688 681.660156 5.097656 C 673.933594 12.808594 666.410156 20.761719 658.269531 28.039062 C 654.851562 31.101562 653.621094 34.03125 654.683594 38.699219 C 655.804688 38.625 657.035156 38.699219 658.195312 38.4375 C 674.023438 35.058594 687.128906 27.089844 697.527344 14.75 C 700.628906 11.074219 703.261719 7.003906 706.078125 3.101562 C 706.976562 1.851562 707.609375 0.207031 710.054688 1.496094 C 697.453125 22.925781 680.035156 37.429688 654.40625 41.667969 C 654.328125 53.296875 654.125 64.984375 654.199219 76.6875 C 654.273438 88.296875 654.21875 99.910156 653.285156 111.5 C 651.269531 103.976562 652.144531 96.34375 651.941406 88.785156 C 651.734375 81 651.921875 73.214844 651.921875 65.429688 C 651.921875 57.703125 651.921875 49.957031 651.921875 42.132812 Z M 245.789062 4.914062 C 245.789062 23.46875 245.828125 40.773438 245.753906 58.074219 C 245.753906 60.074219 246.796875 60.820312 248.308594 61.453125 C 253.554688 63.601562 258.78125 65.785156 264.046875 67.933594 C 286.449219 77.042969 309.671875 83.425781 333.34375 88.054688 C 349.753906 91.265625 366.351562 93.488281 383.097656 94.53125 C 400.8125 95.652344 418.527344 95.765625 436.246094 94.867188 C 437.214844 94.8125 438.242188 94.664062 439.15625 94.347656 C 441.398438 93.542969 443.601562 92.609375 445.804688 91.734375 C 446.511719 91.453125 447.203125 91.191406 447.914062 90.929688 C 371.652344 83.800781 303.792969 57.273438 245.789062 4.949219 Z M 615.015625 38.496094 C 603.664062 45.234375 592.722656 52.046875 581.503906 58.335938 C 570.246094 64.648438 558.410156 69.835938 546.257812 74.167969 C 534.3125 78.441406 522.175781 82.230469 510.136719 86.246094 C 547.003906 82.210938 582.046875 72.246094 614.976562 54.640625 C 615.277344 49.097656 615.628906 43.703125 615.015625 38.496094 Z M 619.550781 35.078125 C 625.675781 37.636719 631.945312 38.644531 638.292969 39.335938 C 639.375 39.445312 640.722656 38.738281 641.691406 38.066406 C 644.359375 36.21875 646.824219 34.050781 649.550781 32.257812 C 651.605469 30.898438 652.109375 29.085938 652.089844 26.847656 C 652.050781 20.761719 652.089844 14.695312 652.035156 8.609375 C 652.035156 7.710938 651.679688 6.816406 651.546875 6.164062 C 640.871094 15.8125 630.304688 25.351562 619.550781 35.058594 Z M 592.628906 24.402344 C 585.109375 30.597656 577.863281 36.554688 570.433594 42.675781 C 571.253906 43.03125 571.871094 43.496094 572.507812 43.535156 C 580.121094 43.925781 587.738281 44.503906 595.355469 44.5625 C 602.582031 44.617188 607.660156 39.933594 612.980469 35.957031 C 605.886719 31.921875 599.164062 28.117188 592.613281 24.402344 Z M 577.660156 11.578125 C 572.019531 17.644531 566.308594 23.503906 560.96875 29.703125 C 557.8125 33.359375 558.730469 40.882812 562.5 44.261719 C 572.375 37.953125 582.101562 31.324219 590.222656 22.347656 C 585.6875 18.445312 581.636719 14.972656 577.675781 11.578125 Z M 543.253906 58.597656 C 532.964844 64.144531 522.417969 69.835938 511.328125 75.792969 C 517.003906 77.84375 522.175781 77.957031 527.382812 77.359375 C 535.09375 76.464844 542.058594 73.140625 549.1875 70.433594 C 552.960938 69.015625 556.621094 67.355469 560.410156 65.765625 C 559.289062 63.5625 557.964844 62.632812 555.964844 62.164062 C 551.859375 61.210938 547.84375 59.90625 543.253906 58.582031 Z M 554.957031 51.992188 C 555.722656 55.554688 557.066406 59.195312 560.089844 60.109375 C 564.460938 61.417969 569.40625 61.660156 573.792969 59.476562 C 579.75 56.507812 585.554688 53.277344 591.417969 50.105469 C 592.574219 49.46875 593.601562 48.613281 594.683594 47.863281 C 593.339844 47.25 592.257812 47.285156 591.175781 47.25 C 583.539062 46.949219 575.886719 47.117188 568.457031 44.824219 C 567.578125 44.542969 566.269531 45.046875 565.375 45.570312 C 561.957031 47.566406 558.636719 49.714844 554.976562 52.007812 Z M 531.210938 62.035156 C 540.917969 57.3125 550.199219 51.691406 559.007812 46.539062 C 557.890625 42.042969 556.898438 38.082031 555.890625 33.996094 C 555.183594 34.5 554.492188 34.964844 553.820312 35.46875 C 546.652344 40.789062 539.5 46.148438 532.292969 51.410156 C 528.167969 54.417969 527.738281 57.3125 531.230469 62.035156 Z M 501.210938 70.394531 C 505.914062 74.800781 506.980469 75.027344 511.984375 72.503906 C 515.398438 70.789062 518.742188 68.921875 522.101562 67.109375 C 524.285156 65.933594 526.453125 64.742188 528.355469 63.695312 C 527.496094 60.78125 526.804688 58.410156 526.023438 55.742188 C 517.75 60.613281 509.648438 65.394531 501.210938 70.378906 Z M 617.851562 52.738281 C 624.460938 49.769531 629.875 45.90625 635.867188 41.984375 C 629.425781 40.453125 623.769531 39.109375 617.851562 37.710938 Z M 485.472656 87.589844 C 485.472656 87.738281 485.472656 87.886719 485.492188 88.035156 C 486.894531 88.035156 488.367188 88.296875 489.691406 88 C 498.503906 85.925781 507.277344 83.761719 516.054688 81.558594 C 516.875 81.355469 517.582031 80.773438 518.535156 80.253906 C 515.363281 79.429688 512.65625 78.664062 509.929688 78.070312 C 508.882812 77.84375 507.613281 77.675781 506.699219 78.070312 C 499.585938 81.148438 492.550781 84.378906 485.492188 87.570312 Z M 498.46875 71.742188 C 493.109375 74.578125 487.9375 77.320312 482.765625 80.085938 C 482.878906 80.382812 482.992188 80.683594 483.101562 80.960938 C 490.140625 80.027344 497.292969 79.5625 504.292969 76.296875 C 502.070312 74.558594 500.410156 73.269531 498.46875 71.742188 Z M 466.019531 88.148438 C 474.179688 90.015625 480.824219 86.972656 487.828125 83.519531 C 479.707031 81.96875 472.722656 83.558594 466.019531 88.148438 Z M 546.222656 56.863281 C 549.675781 58.1875 552.0625 59.605469 555.273438 59.140625 C 554.230469 57.144531 553.332031 55.445312 552.308594 53.484375 C 550.476562 54.511719 548.816406 55.425781 546.222656 56.863281 Z M 452.523438 93.542969 C 457.152344 92.925781 461.800781 92.3125 466.433594 91.695312 C 461.578125 90.539062 456.835938 90.238281 452.523438 93.542969 Z M 651.828125 33.660156 C 649.234375 35.582031 647.03125 37.207031 644.847656 38.832031 C 644.976562 39.089844 645.109375 39.351562 645.238281 39.613281 C 647.386719 39.519531 649.550781 39.425781 651.828125 39.316406 Z M 651.828125 33.660156 "/><path style=" stroke:none;fill-rule:nonzero;fill:#000000;fill-opacity:1;" d="M 674.117188 1.066406 C 675.949219 0.1875 676.507812 1.457031 677.347656 2.335938 C 681.792969 7.078125 686.085938 11.988281 690.753906 16.484375 C 699.972656 25.351562 710.785156 31.960938 722.226562 37.5625 C 724.039062 38.4375 725.886719 39.242188 727.714844 40.082031 C 730.964844 41.59375 734.175781 42.714844 737.984375 42.285156 C 740.410156 42.023438 743.023438 43.03125 745.46875 43.722656 C 747.054688 44.1875 748.699219 44.878906 750.003906 45.886719 C 754.46875 49.320312 759.75 50.21875 765.050781 51.113281 C 781.628906 53.855469 798.246094 54.4375 814.992188 52.738281 C 835.46875 50.664062 855.089844 45.476562 873.816406 37 C 875.90625 36.050781 877.976562 34.722656 879.601562 33.117188 C 888.171875 24.660156 895.695312 15.347656 901.722656 4.875 C 902.453125 3.625 902.957031 2.261719 903.628906 0.84375 L 906.335938 0.84375 C 906.503906 6.089844 906.671875 11.296875 906.859375 16.972656 C 913.296875 12.472656 918.394531 7.023438 923.882812 1.871094 C 925.097656 3.511719 924.015625 4.425781 923.0625 5.285156 C 918.414062 9.503906 913.804688 13.777344 909.042969 17.867188 C 907.492188 19.191406 906.558594 20.425781 906.539062 22.589844 C 906.464844 29.554688 906.222656 36.496094 905.90625 43.460938 C 905.308594 56.453125 904.804688 69.445312 903.945312 82.4375 C 902.695312 101.441406 901.445312 120.480469 897.207031 139.128906 C 895.546875 146.464844 893.417969 153.652344 889.683594 160.277344 C 888.152344 163.003906 886.097656 165.132812 883.503906 166.699219 C 880.050781 168.789062 875.699219 168.042969 872.078125 164.757812 C 870.101562 162.964844 868.382812 160.894531 866.367188 158.730469 C 865.824219 159.417969 865.246094 160.035156 864.78125 160.746094 C 860.019531 168.101562 854.902344 168.0625 850.683594 160.316406 C 848.761719 156.804688 847.34375 152.960938 846.203125 149.117188 C 843.234375 139.089844 841.816406 128.75 840.734375 118.371094 C 839.988281 111.351562 839.519531 104.296875 838.90625 97.277344 C 838.832031 96.398438 838.679688 95.449219 838.269531 94.71875 C 833.695312 86.65625 827.683594 79.992188 819.488281 75.472656 C 819.210938 75.324219 818.875 75.25 818.203125 75.042969 C 818.109375 76.089844 817.976562 77.003906 817.976562 77.9375 C 817.976562 103.214844 817.976562 128.46875 817.960938 153.746094 C 817.960938 166.214844 817.960938 178.664062 817.921875 191.136719 C 817.921875 192.367188 818.425781 193.824219 817.101562 194.832031 C 815.550781 194.234375 816 192.964844 816 191.957031 C 815.960938 184.882812 815.960938 177.808594 815.960938 170.730469 C 815.960938 138.738281 815.980469 106.722656 816 74.726562 C 816 74.503906 815.90625 74.296875 815.8125 73.8125 C 812.507812 71.984375 808.753906 70.898438 804.929688 70.171875 C 799.886719 69.21875 794.792969 68.511719 789.730469 67.613281 C 779.839844 65.878906 771.027344 61.546875 762.644531 56.191406 C 761.261719 55.292969 759.863281 54.4375 758.070312 53.316406 C 757.996094 54.605469 757.902344 55.445312 757.902344 56.285156 C 757.902344 77.265625 757.941406 98.246094 757.902344 119.230469 C 757.902344 121.003906 758.460938 123 756.613281 125.128906 C 755.511719 122.046875 756.074219 119.378906 755.960938 116.804688 C 755.847656 114.113281 755.960938 111.40625 755.960938 108.71875 C 755.960938 106.03125 755.921875 103.324219 755.90625 100.636719 C 755.90625 97.949219 755.941406 95.242188 755.941406 92.554688 C 755.941406 89.753906 755.941406 86.933594 755.941406 84.136719 C 755.941406 81.449219 755.921875 78.757812 755.921875 76.050781 C 755.921875 73.363281 755.960938 70.65625 755.960938 67.96875 C 755.960938 65.28125 755.960938 62.574219 755.960938 59.886719 C 755.960938 57.199219 755.960938 54.53125 755.960938 51.746094 C 755.066406 51.355469 754.394531 50.945312 753.644531 50.757812 C 742.054688 47.957031 730.851562 44.074219 720.171875 38.773438 C 702.550781 30.039062 687.261719 18.332031 675.164062 2.652344 C 674.828125 2.207031 674.53125 1.738281 674.082031 1.066406 Z M 846.109375 106.535156 C 848.144531 107.171875 849.582031 106.425781 851.019531 105.453125 C 855.558594 102.375 858.9375 98.171875 862.164062 93.859375 C 864.78125 90.390625 867.5625 87.027344 867.859375 82.304688 C 867.972656 80.53125 869.167969 78.871094 870.941406 78.144531 C 872.433594 77.527344 873.144531 76.40625 873.832031 75.082031 C 880.589844 62.386719 886.304688 49.226562 891.660156 35.898438 C 892.558594 33.679688 893.285156 31.382812 894.273438 28.582031 C 888.617188 31.625 883.597656 34.332031 878.574219 37.058594 C 878.089844 37.316406 877.679688 37.730469 877.25 38.082031 C 873.085938 41.5 869.089844 45.140625 864.761719 48.292969 C 851.46875 57.964844 837.039062 65.207031 820.648438 68.007812 C 819.789062 68.15625 818.984375 68.492188 818.183594 68.734375 L 818.183594 72.503906 C 832.761719 79.675781 840.511719 92.292969 846.109375 106.480469 Z M 889.460938 156.023438 C 889.945312 155.332031 890.1875 155.089844 890.316406 154.789062 C 890.636719 154.082031 890.914062 153.351562 891.195312 152.605469 C 895.824219 140.25 897.804688 127.3125 899.316406 114.300781 C 900.53125 103.847656 895.226562 98.996094 887.742188 95.1875 C 886.453125 94.53125 884.847656 94.476562 883.449219 94.160156 C 879.546875 104.445312 875.90625 120.179688 876.074219 125.835938 C 880.945312 129.703125 884.566406 134.367188 885.910156 140.601562 C 886.996094 145.625 888.207031 150.609375 889.457031 156.023438 Z M 842.300781 102.335938 C 842.023438 102.390625 841.742188 102.449219 841.445312 102.503906 C 841.445312 103.382812 841.386719 104.257812 841.445312 105.117188 C 842.320312 116.28125 843.386719 127.441406 845.699219 138.402344 C 846.875 143.964844 848.425781 149.488281 850.253906 154.882812 C 851.207031 157.664062 853.054688 160.183594 854.71875 162.6875 C 855.539062 163.917969 857.011719 164.589844 858.582031 163.972656 C 861.625 162.761719 863.042969 160.054688 864.5 157.386719 C 865.488281 155.554688 863.789062 154.527344 863.210938 153.183594 C 862.914062 152.476562 862.425781 151.824219 862.148438 151.09375 C 857.722656 140.34375 853.296875 129.570312 848.890625 118.820312 C 846.652344 113.347656 844.488281 107.859375 842.285156 102.375 Z M 847.492188 109.597656 C 849.265625 114.226562 850.964844 118.726562 852.699219 123.222656 C 854.472656 127.816406 856.246094 132.425781 858.132812 136.980469 C 859.121094 139.390625 860.523438 139.6875 862.519531 138.082031 C 863.210938 137.523438 863.828125 136.851562 864.425781 136.179688 C 867.355469 132.855469 869.335938 128.957031 871.070312 124.921875 C 873.722656 118.78125 871.574219 111.820312 865.863281 108.234375 C 861.25 105.339844 856.453125 106.050781 851.675781 107.859375 C 850.347656 108.367188 849.042969 108.945312 847.511719 109.597656 Z M 815.8125 54.660156 C 797.441406 56.472656 779.578125 55.875 761.785156 52.738281 C 777.894531 64.757812 795.96875 68.902344 815.8125 66.664062 Z M 900.4375 103.34375 C 900.699219 100.246094 901.015625 97.144531 901.21875 94.027344 C 901.628906 87.757812 902.023438 81.503906 902.320312 75.230469 C 902.378906 74.167969 902.097656 72.992188 901.667969 72 C 899.988281 67.949219 896.8125 65.394531 892.988281 63.527344 C 892.539062 63.304688 891.941406 63.378906 891.234375 63.304688 C 888.785156 72.992188 886.378906 82.472656 883.988281 91.976562 C 891.066406 93.636719 896.273438 97.558594 900.453125 103.34375 Z M 818.183594 66.402344 C 838.605469 63.359375 855.425781 53.613281 870.808594 40.863281 C 853.820312 47.695312 836.308594 52.34375 818.183594 54.398438 Z M 873.738281 79.394531 C 868.71875 88.28125 863.191406 96.734375 855.761719 104.351562 C 856.828125 104.425781 857.347656 104.539062 857.851562 104.484375 C 862.351562 104.109375 866.140625 105.566406 869.558594 108.515625 C 871.351562 110.0625 873.515625 111.203125 875.757812 112.675781 C 877.53125 106.722656 879.117188 101.027344 880.910156 95.390625 C 882.347656 90.855469 881.339844 86.785156 878.949219 82.921875 C 877.867188 81.1875 876.464844 79.75 873.738281 79.375 Z M 867.523438 156.824219 C 869.351562 158.824219 871.3125 161.25 873.570312 163.359375 C 875.980469 165.617188 878.835938 166.757812 882.160156 165.167969 C 885.855469 163.394531 887.59375 160.597656 887.386719 156.695312 C 887.332031 155.6875 887.347656 154.640625 887.050781 153.6875 C 885.894531 150.011719 884.886719 146.277344 883.355469 142.75 C 881.597656 138.71875 878.386719 136.046875 874.1875 134.574219 C 872.003906 141.890625 869.875 148.929688 867.523438 156.804688 Z M 882.699219 86.1875 C 882.960938 86.1875 883.222656 86.1875 883.484375 86.1875 C 884.53125 81.894531 885.820312 77.621094 886.566406 73.269531 C 887.144531 69.910156 884.472656 66.625 880.945312 65.617188 C 878.984375 69.425781 877.007812 73.269531 874.933594 77.285156 C 879.078125 79 881.246094 82.289062 882.699219 86.1875 Z M 902.863281 65.730469 C 903.066406 62.035156 903.105469 58.933594 903.441406 55.875 C 903.703125 53.445312 902.527344 52.101562 900.566406 51.167969 C 898.585938 50.234375 896.570312 49.957031 894.367188 50.738281 C 893.511719 54.230469 892.6875 57.628906 891.847656 61.042969 C 895.601562 62.648438 899 64.085938 902.882812 65.75 Z M 871.984375 133.734375 C 870.378906 133.433594 869.109375 132.949219 868.160156 134.441406 C 866.140625 137.578125 863.695312 140.25 859.945312 141.722656 C 861.90625 145.847656 863.324219 149.9375 866.125 153.746094 C 868.832031 147.097656 870.605469 140.585938 872.003906 133.734375 Z M 903.574219 50.066406 C 903.777344 46.109375 903.925781 42.226562 904.1875 38.328125 C 904.28125 36.871094 903.609375 35.957031 902.414062 35.414062 C 901.089844 34.796875 899.6875 34.351562 898.066406 35.226562 C 897.113281 39.410156 896.140625 43.722656 895.226562 47.808594 C 898.121094 48.59375 900.679688 49.285156 903.574219 50.066406 Z M 882.046875 63.078125 C 884.027344 65.429688 886.324219 64.890625 888.785156 64.496094 C 889.589844 61.417969 890.375 58.335938 891.195312 55.109375 C 889.683594 54.285156 888.449219 53.597656 886.902344 52.757812 C 885.183594 56.394531 883.597656 59.792969 882.046875 63.078125 Z M 899.949219 12.714844 C 899.839844 12.675781 899.746094 12.621094 899.632812 12.585938 C 894.6875 18.800781 889.738281 24.996094 884.792969 31.214844 C 888.28125 29.554688 891.605469 27.628906 894.890625 25.632812 C 895.339844 25.371094 895.730469 24.847656 895.898438 24.363281 C 897.28125 20.5 898.605469 16.617188 899.949219 12.734375 Z M 892.183594 41.3125 C 890.390625 43.777344 888.207031 49.042969 888.113281 51.242188 C 889.234375 51.785156 890.410156 52.34375 891.792969 53.015625 C 892.519531 48.929688 894.890625 45.25 892.183594 41.3125 Z M 903.832031 33.695312 C 905.085938 28.488281 904.355469 25.277344 900.828125 23.933594 C 900.136719 26.734375 899.464844 29.515625 898.757812 32.390625 C 900.640625 32.875 902.246094 33.285156 903.832031 33.695312 Z M 882.289062 137.167969 C 881.765625 134.015625 878.539062 129.832031 875.269531 128.320312 C 874.992188 129.628906 874.710938 130.914062 874.449219 132.109375 C 877.210938 133.902344 879.789062 135.5625 882.289062 137.167969 Z M 897.992188 26.847656 L 897.28125 26.511719 C 896.179688 29.496094 895.039062 32.484375 893.957031 35.46875 C 893.15625 37.691406 893.175781 37.691406 894.835938 40.285156 C 895.9375 35.621094 896.964844 31.25 897.992188 26.863281 Z M 902.863281 15.292969 C 902.507812 17.007812 902.191406 18.539062 901.796875 20.351562 C 905.328125 18.59375 905.382812 18.257812 902.863281 15.292969 Z M 870.210938 131.15625 C 873.066406 131.234375 873.441406 130.503906 872.695312 126.417969 C 871.761719 128.191406 871.03125 129.609375 870.210938 131.15625 Z M 815.8125 68.773438 C 814.335938 68.902344 812.898438 69.035156 811.480469 69.164062 C 811.480469 69.386719 811.480469 69.59375 811.460938 69.816406 C 812.824219 70.320312 814.207031 70.84375 815.832031 71.441406 L 815.832031 68.753906 Z M 739.328125 43.8125 C 739.234375 44.058594 739.140625 44.28125 739.027344 44.523438 C 741.230469 45.175781 743.433594 45.847656 745.617188 46.503906 C 745.691406 46.261719 745.75 46.035156 745.824219 45.792969 C 743.660156 45.140625 741.472656 44.46875 739.308594 43.8125 Z M 904.804688 9.914062 C 903.964844 10.847656 903.273438 11.820312 904.503906 13.519531 C 904.636719 11.894531 904.710938 10.90625 904.804688 9.914062 Z M 904.804688 9.914062 "/><g clip-rule="nonzero" clip-path="url(#8c22b88243)"><path style=" stroke:none;fill-rule:nonzero;fill:#000000;fill-opacity:1;" d="M 18.726562 62.816406 C 21.863281 78.554688 25.015625 94.289062 22.441406 110.457031 C 21.039062 119.265625 18.96875 127.855469 14.582031 135.75 C 13.554688 137.597656 12.171875 138.8125 10.195312 139.503906 C 7.765625 140.34375 5.394531 141.367188 3.007812 142.320312 C 2.351562 142.582031 1.699219 142.84375 1.121094 143.214844 C 0.691406 143.496094 0.65625 144.058594 0.804688 144.484375 C 0.972656 145.007812 1.476562 145.066406 1.960938 144.878906 C 2.839844 144.542969 3.699219 144.207031 4.574219 143.871094 C 7.1875 142.84375 9.820312 141.910156 12.378906 140.753906 C 14.003906 140.007812 15.179688 140.304688 16.523438 141.386719 C 18.578125 143.046875 20.292969 144.933594 21.265625 147.378906 C 23.449219 152.847656 25.183594 158.394531 23.933594 164.421875 C 23.523438 166.4375 22.644531 168.101562 21.300781 169.667969 C 14.65625 177.394531 8.457031 185.480469 2.613281 193.84375 C 0.824219 196.398438 0.785156 196.378906 0.972656 199.890625 C 8.53125 188.765625 16.261719 178.386719 25.035156 168.546875 C 28.433594 171.515625 29.722656 175.417969 30.710938 179.355469 C 33.324219 189.792969 33.15625 200.355469 30.039062 210.550781 C 26.828125 221.039062 23.429688 231.476562 20.125 241.929688 C 14.804688 258.765625 10.363281 275.847656 6.199219 292.984375 C 4.296875 300.824219 2.691406 308.699219 1.175781 316.617188 C 0.5625 319.863281 0.898438 323.09375 0.804688 326.414062 C 1.71875 325.558594 1.8125 324.550781 2 323.503906 C 4.949219 306.925781 8.851562 290.554688 13.070312 274.242188 C 18.164062 254.546875 24.382812 235.207031 30.46875 215.8125 C 32.242188 210.195312 35.414062 205.230469 38.214844 200.09375 C 46.039062 185.703125 54.363281 171.589844 63.136719 157.757812 C 72.601562 142.824219 82.738281 128.375 93.492188 114.339844 C 100.828125 104.761719 108.371094 95.371094 116.605469 86.542969 C 116.976562 86.152344 117.238281 85.554688 118.136719 85.535156 C 117.875 88.316406 117.667969 91.042969 117.371094 93.785156 C 115.894531 107.394531 114.925781 121.039062 114.382812 134.742188 C 113.933594 145.867188 113.878906 156.972656 114.699219 168.082031 C 115.054688 172.972656 115.613281 177.863281 116.960938 182.605469 C 117.539062 184.640625 118.246094 186.617188 119.683594 188.242188 C 121.160156 189.902344 122.785156 190.238281 124.613281 189.027344 C 126.515625 187.773438 127.824219 186.019531 128.886719 184.003906 C 132.996094 176.183594 135.554688 167.800781 137.941406 159.363281 C 141.339844 147.324219 143.972656 135.097656 146.230469 122.796875 C 148.488281 110.492188 150.355469 98.117188 152.035156 85.722656 C 153.472656 75.0625 154.574219 64.347656 155.566406 53.652344 C 155.695312 52.328125 156.199219 51.5625 157.191406 50.777344 C 164.003906 45.4375 170.722656 39.96875 177.558594 34.667969 C 187.617188 26.847656 197.792969 19.15625 208.285156 11.914062 C 213.101562 8.589844 218.011719 5.433594 222.882812 2.207031 C 223.351562 1.886719 223.964844 1.738281 224.058594 1.03125 C 222.230469 0.46875 220.792969 1.140625 219.242188 2.128906 C 206.289062 10.34375 193.984375 19.492188 181.832031 28.84375 C 174.214844 34.6875 166.710938 40.679688 159.148438 46.613281 C 158.347656 47.25 157.601562 47.996094 156.59375 48.292969 C 155.828125 47.734375 156.125 46.988281 156.179688 46.371094 C 157.339844 33.882812 157.65625 21.359375 157.917969 8.8125 C 157.953125 6.59375 157.804688 4.390625 157.730469 2.167969 C 157.710938 1.609375 157.804688 0.9375 156.945312 0.898438 C 156.03125 0.863281 155.695312 1.421875 155.734375 2.222656 C 155.863281 4.914062 155.882812 7.601562 155.84375 10.289062 C 155.675781 20.105469 155.265625 29.925781 154.6875 39.746094 C 154.5 42.898438 154.148438 46.035156 154.035156 49.191406 C 153.976562 50.851562 152.894531 51.691406 151.832031 52.570312 C 146.960938 56.601562 142.050781 60.578125 137.214844 64.664062 C 132.117188 68.976562 127.078125 73.363281 122.074219 77.789062 C 118.003906 81.371094 116.324219 81.410156 112.105469 77.824219 C 107.214844 73.664062 104.171875 68.324219 102.417969 62.257812 C 100.417969 55.371094 99.261719 48.351562 100.605469 41.125 C 101.054688 38.679688 101.707031 36.386719 102.902344 34.183594 C 108.613281 23.5625 114.328125 12.957031 120.507812 2.597656 C 120.75 2.207031 120.933594 1.777344 121.160156 1.347656 C 119.144531 1.03125 119.070312 0.972656 118.042969 2.710938 C 115.839844 6.441406 113.710938 10.195312 111.621094 13.984375 C 108.167969 20.21875 104.730469 26.472656 101.390625 32.78125 C 100.699219 34.089844 99.746094 34.59375 98.402344 34.855469 C 94.78125 35.542969 91.179688 35.394531 87.539062 35.039062 C 77.585938 34.050781 68.308594 31.175781 60.132812 25.222656 C 56.976562 22.925781 54.234375 20.257812 52.253906 16.839844 C 51.582031 15.664062 51.339844 14.582031 51.695312 13.199219 C 52.609375 9.691406 53.300781 6.125 54.046875 2.578125 C 54.175781 1.980469 54.644531 1.140625 53.542969 0.917969 C 52.871094 0.785156 52.367188 1.214844 52.234375 1.8125 C 51.5625 4.746094 49.230469 6.515625 47.363281 8.515625 C 39.765625 16.617188 31.195312 23.449219 20.648438 27.40625 C 17.363281 28.636719 13.984375 29.496094 10.398438 29.273438 C 8.867188 29.179688 8.066406 28.675781 7.691406 27.164062 C 5.527344 18.707031 2.390625 10.585938 1.847656 1.871094 C 1.832031 1.515625 1.699219 1.214844 1.328125 1.085938 C 0.597656 3.25 0.410156 7.5625 1.101562 10.398438 C 4.386719 24.046875 8.347656 37.484375 13.703125 50.480469 C 15.214844 54.15625 16.710938 57.832031 18.222656 61.511719 C 18.410156 61.941406 18.652344 62.371094 18.746094 62.816406 Z M 120.078125 85.722656 C 120.339844 82.828125 121.609375 80.960938 123.511719 79.226562 C 126.628906 76.386719 129.765625 73.570312 132.957031 70.824219 C 139.527344 65.246094 146.136719 59.71875 152.746094 54.15625 C 152.96875 54.269531 153.214844 54.363281 153.4375 54.472656 C 152.523438 62.816406 151.699219 71.179688 150.65625 79.523438 C 149.347656 90.070312 147.929688 100.617188 146.117188 111.070312 C 143.582031 125.6875 140.835938 140.265625 137.027344 154.621094 C 134.863281 162.761719 132.527344 170.84375 129.222656 178.589844 C 128.121094 181.167969 126.851562 183.707031 125.0625 185.871094 C 122.914062 188.464844 121.664062 188.316406 120.171875 185.367188 C 119.589844 184.226562 119.144531 183.015625 118.808594 181.78125 C 116.847656 174.746094 116.53125 167.503906 116.230469 160.277344 C 115.78125 149.285156 116.101562 138.289062 116.679688 127.292969 C 117.386719 113.386719 118.789062 99.554688 120.078125 85.703125 Z M 45.367188 17.324219 C 43.722656 18.410156 42.191406 19.714844 40.492188 20.722656 C 37.730469 22.367188 34.96875 24.046875 31.664062 24.53125 C 38.363281 19.789062 44.507812 14.488281 50.183594 8.550781 C 50.761719 12.921875 48.410156 15.308594 45.347656 17.324219 Z M 48.484375 17.71875 C 48.320312 19.90625 46.617188 21.171875 43.367188 21.507812 C 45.085938 20.3125 46.28125 18.425781 48.484375 17.71875 Z M 98.886719 37.113281 C 95.414062 44.132812 91.886719 51.226562 88.394531 58.355469 C 87.929688 59.328125 87.125 59.570312 86.210938 59.90625 C 78.875 62.480469 71.371094 63.042969 63.792969 61.621094 C 58.640625 60.652344 53.503906 59.457031 48.949219 56.582031 C 47.625 55.742188 47.0625 54.941406 47.082031 53.277344 C 47.175781 46.128906 47.980469 39.054688 48.6875 31.980469 C 49.136719 27.59375 49.695312 23.207031 50.667969 18.820312 C 63.363281 33.941406 80.125 37.953125 98.886719 37.132812 Z M 84.605469 66.085938 C 81.84375 72.078125 79.007812 77.976562 76.449219 84.003906 C 75.476562 86.28125 74.003906 87.441406 71.820312 88.28125 C 64.40625 91.117188 55.949219 89.34375 50.5 83.632812 C 49.097656 82.175781 48.074219 80.4375 47.960938 78.367188 C 47.679688 73.011719 46.972656 67.671875 47.214844 61.773438 C 49.230469 63.414062 50.78125 64.816406 52.476562 66.027344 C 58.359375 70.265625 64.875 71.945312 72.042969 70.414062 C 75.703125 69.632812 79.15625 68.25 82.496094 66.511719 C 83.113281 66.195312 83.710938 65.355469 84.605469 66.085938 Z M 48.667969 59.160156 C 63.195312 64.703125 69.953125 65.5625 84.121094 62.929688 C 71.726562 71.871094 56.453125 70.769531 48.667969 59.160156 Z M 49.585938 104.015625 C 50.667969 108.140625 51.621094 111.742188 52.570312 115.367188 C 52.683594 115.8125 52.777344 116.28125 52.8125 116.746094 C 52.890625 117.660156 52.515625 118.351562 51.675781 118.726562 C 50.742188 119.136719 50.089844 118.726562 49.640625 117.921875 C 47.625 114.300781 45.046875 110.996094 43.238281 106.964844 C 45.644531 106.40625 47.867188 106.050781 49.601562 104.015625 Z M 40.847656 103.304688 C 42.9375 103.417969 44.359375 103.511719 46.523438 103.640625 C 44.207031 105.210938 42.789062 105.171875 40.847656 103.304688 Z M 46.746094 129.683594 C 48.277344 127.667969 49.695312 125.855469 50.835938 123.617188 C 52.308594 125.632812 53.65625 127.441406 55.296875 129.683594 Z M 49.527344 132.820312 C 50.703125 136.125 49.378906 140.324219 46 142.9375 C 45.535156 139.539062 46.09375 136.441406 44.9375 133.546875 C 44.46875 132.371094 45.441406 132.089844 46.261719 132.074219 C 47.382812 132.035156 48.820312 130.859375 49.511719 132.835938 Z M 60.859375 136.199219 C 60.039062 137.898438 59.253906 139.503906 58.453125 141.105469 C 58.359375 141.273438 58.023438 141.460938 57.875 141.425781 C 56.546875 141.050781 55.222656 140.601562 53.914062 140.191406 C 53.597656 140.097656 53.261719 140.007812 52.90625 139.914062 C 54.886719 137.375 57.480469 136.214844 60.859375 136.199219 Z M 58.9375 134.367188 C 57.203125 135.078125 56.269531 134.292969 56.304688 132.425781 C 56.359375 129.757812 59.160156 125.894531 61.550781 125.148438 C 63.4375 124.550781 64.816406 125.464844 64.445312 127.238281 C 63.773438 130.46875 62.074219 133.0625 58.917969 134.367188 Z M 51.5625 138.046875 L 51.5625 131.792969 C 52.664062 131.699219 53.824219 131.140625 54.308594 132.914062 C 55.015625 135.488281 55.109375 135.46875 51.5625 138.046875 Z M 52.8125 122.925781 C 52.609375 122.644531 52.402344 122.347656 52.234375 122.046875 C 51.917969 121.527344 51.636719 120.964844 52.367188 120.59375 C 52.871094 120.332031 53.449219 120.105469 53.972656 120.59375 C 54.550781 121.132812 55.875 125.59375 55.800781 126.921875 C 54.738281 125.5 53.765625 124.214844 52.8125 122.90625 Z M 49.175781 85.554688 C 56.398438 91.734375 64.351562 93.226562 73.796875 89.71875 C 68.644531 101.066406 64.035156 111.800781 59.871094 122.71875 C 59.535156 123.617188 59.253906 124.511719 57.761719 124.660156 C 52.757812 112.230469 50.890625 99.03125 49.175781 85.554688 Z M 74.394531 93.449219 C 76.46875 99.5 78.96875 104.835938 83.503906 109 C 80.367188 107.9375 77.738281 106.144531 76.019531 103.511719 C 74.191406 100.691406 72.191406 97.648438 74.394531 93.449219 Z M 84.664062 70.84375 C 85.242188 69.613281 85.613281 68.25 86.847656 67.109375 C 88.992188 78.21875 93.0625 88 102.171875 95.296875 C 97.824219 99.367188 93.546875 103.175781 89.496094 107.1875 C 87.707031 108.960938 87.21875 108.980469 85.109375 107.28125 C 80.648438 103.71875 78.109375 98.9375 76.746094 93.488281 C 76.074219 90.800781 76.449219 88.335938 77.753906 85.757812 C 80.257812 80.886719 82.347656 75.808594 84.679688 70.84375 Z M 84.160156 112.15625 C 80.332031 115.8125 76.746094 119.324219 73.089844 122.757812 C 70.960938 124.753906 68.738281 126.660156 66.273438 128.863281 C 66.460938 126.324219 66.648438 123.914062 63.960938 123.113281 C 62.261719 122.609375 62.410156 121.917969 62.914062 120.59375 C 65.359375 114.152344 68.046875 107.804688 70.8125 101.496094 C 71.035156 100.992188 71.089844 100.320312 72.0625 100.1875 C 73.910156 106.164062 78.839844 109.222656 84.160156 112.15625 Z M 78.425781 120.855469 C 70.25 133.753906 61.253906 146.054688 52.945312 158.765625 C 55.914062 151.28125 59.125 144.058594 62.746094 137.019531 C 66.347656 130.054688 73.125 126.210938 78.410156 120.871094 Z M 46.09375 146.257812 C 50.761719 141.105469 52.21875 140.769531 57.164062 143.722656 C 56.042969 146.109375 54.921875 148.519531 53.578125 151.355469 C 51.246094 148.871094 48.914062 147.210938 46.09375 146.242188 Z M 52.125 154.359375 C 52.125 154.585938 52.085938 154.847656 52.011719 155.050781 C 50.050781 159.570312 48.074219 164.105469 45.90625 169.050781 C 43.984375 163.453125 41.6875 158.636719 37.078125 155.292969 C 38.664062 152.921875 40.792969 151.242188 42.695312 149.394531 C 44.246094 147.882812 46.222656 148.292969 47.886719 149.265625 C 49.863281 150.421875 52.050781 151.578125 52.140625 154.359375 Z M 39.1875 160.390625 C 37.597656 159.71875 36.441406 159.269531 35.339844 158.730469 C 34.929688 158.523438 34.050781 158.394531 34.648438 157.589844 C 35.003906 157.105469 35.527344 156.75 36.144531 157.105469 C 37.339844 157.777344 38.273438 158.710938 39.167969 160.390625 Z M 32.859375 134.351562 C 35.714844 133.285156 38.53125 133.210938 41.238281 132.6875 C 42.265625 132.5 42.601562 133.210938 43.011719 133.996094 C 43.796875 135.527344 43.628906 137.1875 43.871094 138.792969 C 44.75 144.746094 42.566406 148.59375 36.925781 151.355469 C 37.710938 145.289062 36.421875 139.652344 32.875 134.351562 Z M 33.941406 131.753906 C 39.074219 124.585938 41.257812 117.121094 41.484375 108.960938 C 44.113281 112.714844 46.429688 116.449219 48.761719 120.179688 C 49.082031 120.703125 49.25 121.246094 49.117188 121.84375 C 48.425781 125.074219 44.058594 130.261719 41.238281 130.652344 C 39.054688 130.953125 36.871094 131.324219 33.941406 131.773438 Z M 37.824219 97.59375 C 34.613281 90.855469 31.121094 84.246094 27.796875 77.566406 C 26.210938 74.371094 24.792969 71.085938 23.132812 67.539062 C 32.019531 69.5 39.1875 67.484375 44.972656 59.644531 C 44.9375 74.167969 46.878906 87.71875 49.210938 101.121094 C 47.101562 101.980469 45.289062 101.738281 43.40625 101.550781 C 40.699219 101.289062 39.019531 100.113281 37.824219 97.59375 Z M 116.324219 82.714844 C 112.703125 85.925781 109.117188 89.082031 105.570312 92.253906 C 104.414062 93.28125 103.21875 93.1875 102.0625 92.421875 C 101.203125 91.84375 100.417969 91.117188 99.710938 90.351562 C 93.996094 84.136719 91.046875 76.632812 89.179688 68.53125 C 88.285156 64.648438 88.84375 61.15625 90.972656 57.832031 C 91.476562 57.050781 91.71875 56.132812 92.148438 55.292969 C 93.847656 51.898438 95.546875 48.5 97.5625 44.503906 C 98.347656 49.210938 98.253906 53.261719 99.054688 57.21875 C 101.277344 68.027344 105.683594 77.359375 116.324219 82.714844 Z M 37.859375 195.222656 C 41.726562 183.890625 46.1875 173.046875 52.738281 163.132812 C 61.589844 149.769531 70.566406 136.515625 79.585938 123.28125 C 82.8125 118.558594 86.304688 114.019531 89.984375 109.671875 C 93.042969 106.050781 96.910156 103.082031 100.417969 99.835938 C 102.023438 97.988281 103.628906 96.136719 106.226562 95.390625 C 104.621094 97.164062 103.015625 98.957031 101.40625 100.730469 C 100.996094 101.289062 100.625 101.886719 100.195312 102.429688 C 89.628906 115.253906 79.941406 128.730469 70.625 142.46875 C 59.925781 158.242188 50.050781 174.539062 40.734375 191.171875 C 40.34375 191.882812 39.914062 192.589844 39.503906 193.300781 C 39.113281 193.972656 38.980469 194.867188 37.878906 195.222656 Z M 27.480469 165.46875 C 29.253906 163.621094 30.46875 160.597656 32.839844 160.167969 C 35.003906 159.753906 37.355469 161.734375 39.503906 162.910156 C 39.710938 163.023438 39.914062 163.132812 40.121094 163.246094 C 42.828125 164.890625 45.140625 170.808594 43.984375 173.757812 C 41.035156 181.355469 37.953125 188.894531 34.929688 196.457031 C 34.371094 192.628906 34.351562 188.800781 33.808594 184.992188 C 32.933594 178.777344 31.550781 172.804688 27.386719 167.855469 C 26.585938 166.886719 26.714844 166.253906 27.460938 165.46875 Z M 16.894531 138.867188 C 20.3125 137.785156 23.449219 136.871094 26.511719 135.769531 C 30.5625 134.3125 31.34375 135.246094 33.042969 138.679688 C 35.117188 142.84375 35.65625 147.34375 34.648438 151.933594 C 34.332031 153.390625 34.296875 154.957031 33.15625 156.152344 C 31.027344 158.429688 28.9375 160.746094 26.585938 163.300781 C 26.007812 153.96875 24.832031 145.15625 16.894531 138.886719 Z M 22.441406 71.609375 C 23.167969 72.839844 23.503906 73.308594 23.746094 73.8125 C 28.265625 83.425781 32.988281 92.925781 38.027344 102.261719 C 38.363281 102.878906 38.683594 103.457031 38.792969 104.183594 C 40.136719 114.003906 38.066406 122.964844 32 130.894531 C 31.4375 131.644531 30.933594 132.425781 29.945312 132.707031 C 25.613281 133.976562 21.285156 135.265625 16.636719 136.644531 C 26.511719 115.644531 27.425781 94.289062 22.441406 71.589844 Z M 20.332031 61.285156 C 18.089844 55.519531 15.644531 49.824219 13.441406 44.058594 C 11.835938 39.875 10.175781 35.695312 9.054688 31.121094 C 14.769531 32 20.015625 31.234375 25.148438 29.535156 C 32.445312 27.125 39.429688 23.730469 47.585938 23.300781 C 47.605469 23.652344 47.699219 23.988281 47.660156 24.308594 C 46.28125 33.921875 45.347656 43.554688 45.085938 53.277344 C 45.066406 53.988281 44.863281 54.621094 44.617188 55.292969 C 41.484375 63.675781 34.5 67.09375 26.324219 66.046875 C 23.484375 65.691406 21.433594 64.105469 20.351562 61.304688 Z M 20.332031 61.285156 "/></g><g clip-rule="nonzero" clip-path="url(#d4578538a9)"><path style=" stroke:none;fill-rule:nonzero;fill:#000000;fill-opacity:1;" d="M 1106.703125 61.511719 C 1108.214844 57.832031 1109.710938 54.15625 1111.222656 50.480469 C 1116.578125 37.484375 1120.535156 24.046875 1123.824219 10.398438 C 1124.496094 7.5625 1124.308594 3.25 1123.578125 1.066406 C 1123.207031 1.199219 1123.074219 1.515625 1123.058594 1.851562 C 1122.515625 10.566406 1119.378906 18.707031 1117.269531 27.070312 C 1116.898438 28.582031 1116.074219 29.066406 1114.5625 29.179688 C 1110.960938 29.402344 1107.601562 28.5625 1104.3125 27.3125 C 1093.765625 23.355469 1085.199219 16.523438 1077.597656 8.421875 C 1075.734375 6.425781 1073.398438 4.652344 1072.726562 1.71875 C 1072.597656 1.121094 1072.09375 0.695312 1071.421875 0.824219 C 1070.320312 1.046875 1070.785156 1.871094 1070.917969 2.484375 C 1071.664062 6.03125 1072.371094 9.597656 1073.269531 13.105469 C 1073.625 14.507812 1073.378906 15.570312 1072.707031 16.746094 C 1070.75 20.164062 1067.984375 22.832031 1064.832031 25.128906 C 1056.652344 31.082031 1047.375 33.957031 1037.425781 34.949219 C 1033.804688 35.300781 1030.183594 35.46875 1026.558594 34.761719 C 1025.234375 34.5 1024.265625 33.996094 1023.574219 32.6875 C 1020.230469 26.398438 1016.796875 20.125 1013.34375 13.890625 C 1011.253906 10.101562 1009.105469 6.347656 1006.921875 2.617188 C 1005.894531 0.878906 1005.820312 0.917969 1003.804688 1.253906 C 1004.027344 1.683594 1004.234375 2.113281 1004.457031 2.503906 C 1010.636719 12.863281 1016.347656 23.46875 1022.0625 34.089844 C 1023.238281 36.292969 1023.890625 38.585938 1024.355469 41.03125 C 1025.703125 48.257812 1024.542969 55.277344 1022.546875 62.164062 C 1020.792969 68.210938 1017.75 73.570312 1012.859375 77.734375 C 1008.636719 81.316406 1006.941406 81.28125 1002.886719 77.695312 C 997.886719 73.269531 992.84375 68.882812 987.75 64.570312 C 982.933594 60.484375 978.003906 56.527344 973.132812 52.476562 C 972.066406 51.578125 970.984375 50.757812 970.929688 49.097656 C 970.816406 45.941406 970.460938 42.804688 970.273438 39.652344 C 969.714844 29.832031 969.304688 20.03125 969.117188 10.195312 C 969.0625 7.507812 969.078125 4.820312 969.230469 2.128906 C 969.265625 1.328125 968.929688 0.769531 968.015625 0.804688 C 967.15625 0.84375 967.25 1.535156 967.230469 2.074219 C 967.15625 4.296875 966.988281 6.5 967.046875 8.71875 C 967.289062 21.246094 967.625 33.789062 968.78125 46.277344 C 968.835938 46.894531 969.15625 47.640625 968.371094 48.203125 C 967.363281 47.902344 966.617188 47.15625 965.8125 46.519531 C 958.253906 40.605469 950.746094 34.613281 943.132812 28.75 C 930.976562 19.417969 918.695312 10.269531 905.71875 2.039062 C 904.171875 1.046875 902.734375 0.375 900.902344 0.9375 C 900.996094 1.644531 901.613281 1.792969 902.078125 2.113281 C 906.953125 5.339844 911.863281 8.515625 916.679688 11.820312 C 927.167969 19.0625 937.34375 26.753906 947.40625 34.574219 C 954.238281 39.875 960.960938 45.34375 967.773438 50.683594 C 968.761719 51.449219 969.285156 52.234375 969.398438 53.558594 C 970.386719 64.273438 971.488281 74.96875 972.925781 85.628906 C 974.605469 98.023438 976.472656 110.398438 978.730469 122.703125 C 980.992188 135.003906 983.640625 147.230469 987.019531 159.269531 C 989.410156 167.726562 991.949219 176.089844 996.074219 183.910156 C 997.140625 185.925781 998.445312 187.683594 1000.351562 188.933594 C 1002.179688 190.144531 1003.804688 189.808594 1005.277344 188.148438 C 1006.714844 186.523438 1007.445312 184.546875 1008.003906 182.511719 C 1009.347656 177.769531 1009.90625 172.878906 1010.261719 167.988281 C 1011.066406 156.882812 1011.007812 145.773438 1010.578125 134.648438 C 1010.039062 120.964844 1009.050781 107.320312 1007.59375 93.691406 C 1007.292969 90.96875 1007.089844 88.222656 1006.828125 85.441406 C 1007.722656 85.441406 1007.984375 86.058594 1008.359375 86.449219 C 1016.589844 95.28125 1024.152344 104.667969 1031.46875 114.246094 C 1042.203125 128.28125 1052.339844 142.75 1061.824219 157.664062 C 1070.597656 171.496094 1078.925781 185.609375 1086.746094 200.003906 C 1089.527344 205.136719 1092.722656 210.101562 1094.496094 215.71875 C 1100.582031 235.113281 1106.816406 254.453125 1111.894531 274.148438 C 1116.113281 290.464844 1119.996094 306.832031 1122.964844 323.410156 C 1123.152344 324.4375 1123.246094 325.445312 1124.160156 326.324219 C 1124.066406 322.980469 1124.421875 319.769531 1123.785156 316.523438 C 1122.273438 308.605469 1120.667969 300.710938 1118.765625 292.890625 C 1114.601562 275.734375 1110.15625 258.671875 1104.835938 241.835938 C 1101.53125 231.382812 1098.136719 220.929688 1094.925781 210.457031 C 1091.804688 200.261719 1091.636719 189.679688 1094.253906 179.261719 C 1095.242188 175.34375 1096.53125 171.421875 1099.925781 168.453125 C 1108.703125 178.292969 1116.429688 188.671875 1123.992188 199.796875 C 1124.160156 196.304688 1124.140625 196.324219 1122.347656 193.75 C 1116.503906 185.40625 1110.308594 177.304688 1103.660156 169.574219 C 1102.316406 168.007812 1101.457031 166.34375 1101.027344 164.328125 C 1099.777344 158.300781 1101.53125 152.753906 1103.699219 147.285156 C 1104.667969 144.839844 1106.386719 142.957031 1108.441406 141.292969 C 1109.785156 140.210938 1110.960938 139.914062 1112.585938 140.660156 C 1115.125 141.816406 1117.773438 142.75 1120.386719 143.777344 C 1121.246094 144.113281 1122.125 144.46875 1123 144.785156 C 1123.488281 144.972656 1123.972656 144.914062 1124.160156 144.394531 C 1124.308594 143.964844 1124.269531 143.386719 1123.839844 143.125 C 1123.261719 142.75 1122.589844 142.488281 1121.957031 142.226562 C 1119.566406 141.277344 1117.195312 140.265625 1114.769531 139.410156 C 1112.789062 138.71875 1111.410156 137.503906 1110.382812 135.65625 C 1105.996094 127.761719 1103.921875 119.171875 1102.523438 110.363281 C 1099.945312 94.195312 1103.101562 78.460938 1106.238281 62.722656 C 1106.332031 62.277344 1106.574219 61.847656 1106.761719 61.417969 Z M 1008.246094 127.3125 C 1008.804688 138.308594 1009.140625 149.300781 1008.695312 160.296875 C 1008.394531 167.519531 1008.078125 174.765625 1006.117188 181.800781 C 1005.78125 183.035156 1005.335938 184.246094 1004.753906 185.386719 C 1003.261719 188.316406 1002.011719 188.484375 999.863281 185.890625 C 998.070312 183.722656 996.785156 181.1875 995.703125 178.609375 C 992.398438 170.84375 990.0625 162.78125 987.898438 154.640625 C 984.089844 140.285156 981.328125 125.707031 978.804688 111.089844 C 976.996094 100.617188 975.59375 90.089844 974.269531 79.542969 C 973.222656 71.199219 972.402344 62.855469 971.488281 54.492188 C 971.710938 54.378906 971.953125 54.285156 972.179688 54.175781 C 978.769531 59.71875 985.394531 65.246094 991.96875 70.84375 C 995.179688 73.570312 998.316406 76.40625 1001.414062 79.246094 C 1003.316406 80.980469 1004.570312 82.847656 1004.847656 85.742188 C 1006.136719 99.589844 1007.535156 113.425781 1008.246094 127.332031 Z M 1074.742188 8.535156 C 1080.417969 14.46875 1086.558594 19.789062 1093.261719 24.511719 C 1089.957031 24.027344 1087.195312 22.347656 1084.433594 20.703125 C 1082.734375 19.695312 1081.222656 18.390625 1079.558594 17.308594 C 1076.515625 15.292969 1074.164062 12.902344 1074.726562 8.535156 Z M 1081.574219 21.488281 C 1078.328125 21.152344 1076.621094 19.890625 1076.460938 17.699219 C 1078.664062 18.425781 1079.878906 20.292969 1081.574219 21.488281 Z M 1074.257812 18.800781 C 1075.230469 23.1875 1075.789062 27.574219 1076.238281 31.960938 C 1076.945312 39.054688 1077.769531 46.128906 1077.84375 53.261719 C 1077.859375 54.921875 1077.300781 55.722656 1075.976562 56.5625 C 1071.421875 59.4375 1066.285156 60.632812 1061.132812 61.605469 C 1053.554688 63.042969 1046.03125 62.460938 1038.714844 59.886719 C 1037.796875 59.570312 1037.015625 59.308594 1036.527344 58.335938 C 1033.039062 51.207031 1029.507812 44.113281 1026.039062 37.09375 C 1044.78125 37.933594 1061.5625 33.902344 1074.257812 18.78125 Z M 1042.445312 66.511719 C 1045.769531 68.230469 1049.222656 69.632812 1052.902344 70.414062 C 1060.070312 71.945312 1066.585938 70.265625 1072.464844 66.027344 C 1074.144531 64.816406 1075.714844 63.414062 1077.730469 61.773438 C 1077.972656 67.691406 1077.261719 73.011719 1076.984375 78.367188 C 1076.871094 80.4375 1075.863281 82.15625 1074.445312 83.632812 C 1068.976562 89.34375 1060.535156 91.117188 1053.125 88.28125 C 1050.941406 87.441406 1049.464844 86.28125 1048.496094 84.003906 C 1045.957031 77.976562 1043.101562 72.078125 1040.335938 66.085938 C 1041.253906 65.355469 1041.847656 66.195312 1042.445312 66.511719 Z M 1040.824219 62.929688 C 1054.972656 65.5625 1061.75 64.703125 1076.273438 59.160156 C 1068.507812 70.769531 1053.238281 71.871094 1040.824219 62.929688 Z M 1081.726562 106.964844 C 1079.894531 110.996094 1077.339844 114.300781 1075.320312 117.921875 C 1074.875 118.726562 1074.21875 119.136719 1073.289062 118.726562 C 1072.445312 118.351562 1072.074219 117.644531 1072.148438 116.746094 C 1072.1875 116.28125 1072.277344 115.8125 1072.390625 115.367188 C 1073.324219 111.742188 1074.277344 108.140625 1075.378906 104.015625 C 1077.09375 106.050781 1079.316406 106.40625 1081.742188 106.964844 Z M 1078.421875 103.640625 C 1080.605469 103.511719 1082.023438 103.4375 1084.097656 103.304688 C 1082.15625 105.171875 1080.734375 105.210938 1078.421875 103.640625 Z M 1069.648438 129.703125 C 1071.289062 127.460938 1072.632812 125.652344 1074.109375 123.636719 C 1075.265625 125.875 1076.667969 127.6875 1078.195312 129.703125 Z M 1078.683594 132.074219 C 1079.523438 132.089844 1080.472656 132.371094 1080.007812 133.546875 C 1078.851562 136.441406 1079.410156 139.539062 1078.945312 142.9375 C 1075.566406 140.34375 1074.238281 136.140625 1075.414062 132.820312 C 1076.125 130.839844 1077.542969 132.035156 1078.664062 132.054688 Z M 1072.054688 139.929688 C 1071.699219 140.023438 1071.363281 140.117188 1071.046875 140.210938 C 1069.722656 140.621094 1068.414062 141.050781 1067.089844 141.445312 C 1066.941406 141.480469 1066.605469 141.292969 1066.511719 141.125 C 1065.707031 139.539062 1064.941406 137.914062 1064.101562 136.214844 C 1067.5 136.214844 1070.078125 137.375 1072.054688 139.929688 Z M 1060.5 127.273438 C 1060.125 125.5 1061.507812 124.585938 1063.394531 125.183594 C 1065.800781 125.929688 1068.582031 129.796875 1068.640625 132.464844 C 1068.675781 134.332031 1067.742188 135.117188 1066.007812 134.40625 C 1062.851562 133.097656 1061.152344 130.503906 1060.480469 127.273438 Z M 1070.65625 132.949219 C 1071.140625 131.195312 1072.296875 131.738281 1073.398438 131.828125 L 1073.398438 138.082031 C 1069.871094 135.488281 1069.945312 135.507812 1070.65625 132.949219 Z M 1069.160156 126.996094 C 1069.085938 125.652344 1070.429688 121.207031 1070.992188 120.667969 C 1071.515625 120.164062 1072.09375 120.40625 1072.597656 120.667969 C 1073.324219 121.039062 1073.042969 121.601562 1072.726562 122.121094 C 1072.539062 122.421875 1072.355469 122.71875 1072.148438 123 C 1071.175781 124.308594 1070.226562 125.59375 1069.160156 127.015625 Z M 1067.203125 124.71875 C 1065.707031 124.566406 1065.429688 123.671875 1065.089844 122.777344 C 1060.949219 111.855469 1056.335938 101.121094 1051.164062 89.773438 C 1060.609375 93.28125 1068.5625 91.769531 1075.789062 85.609375 C 1074.070312 99.085938 1072.203125 112.285156 1067.203125 124.71875 Z M 1048.945312 103.566406 C 1047.226562 106.179688 1044.613281 107.992188 1041.457031 109.054688 C 1045.992188 104.910156 1048.496094 99.574219 1050.566406 93.507812 C 1052.769531 97.707031 1050.773438 100.75 1048.945312 103.566406 Z M 1047.226562 85.816406 C 1048.53125 88.371094 1048.90625 90.855469 1048.234375 93.542969 C 1046.871094 98.996094 1044.332031 103.792969 1039.871094 107.339844 C 1037.761719 109.019531 1037.277344 109.019531 1035.484375 107.246094 C 1031.414062 103.230469 1027.15625 99.40625 1022.808594 95.355469 C 1031.917969 88.035156 1035.988281 78.253906 1038.132812 67.167969 C 1039.367188 68.304688 1039.738281 69.6875 1040.320312 70.902344 C 1042.632812 75.867188 1044.742188 80.941406 1047.246094 85.816406 Z M 1052.902344 100.246094 C 1053.871094 100.375 1053.929688 101.046875 1054.152344 101.550781 C 1056.914062 107.859375 1059.601562 114.207031 1062.046875 120.648438 C 1062.554688 121.972656 1062.683594 122.683594 1061.003906 123.167969 C 1058.296875 123.972656 1058.5 126.378906 1058.6875 128.917969 C 1056.222656 126.714844 1054.003906 124.828125 1051.875 122.8125 C 1048.214844 119.378906 1044.632812 115.871094 1040.804688 112.210938 C 1046.125 109.28125 1051.054688 106.199219 1052.902344 100.246094 Z M 1062.214844 137.074219 C 1065.855469 144.113281 1069.066406 151.355469 1072.019531 158.824219 C 1063.710938 146.128906 1054.710938 133.808594 1046.535156 120.910156 C 1051.820312 126.265625 1058.613281 130.09375 1062.199219 137.054688 Z M 1071.382812 151.449219 C 1070.058594 148.613281 1068.917969 146.203125 1067.796875 143.8125 C 1072.746094 140.863281 1074.203125 141.183594 1078.867188 146.351562 C 1076.050781 147.324219 1073.714844 148.984375 1071.382812 151.46875 Z M 1077.113281 149.320312 C 1078.757812 148.351562 1080.753906 147.941406 1082.304688 149.453125 C 1084.207031 151.316406 1086.335938 152.980469 1087.921875 155.351562 C 1083.3125 158.691406 1081.015625 163.507812 1079.09375 169.109375 C 1076.925781 164.160156 1074.949219 159.644531 1072.988281 155.109375 C 1072.894531 154.902344 1072.859375 154.640625 1072.875 154.417969 C 1072.988281 151.636719 1075.171875 150.476562 1077.132812 149.320312 Z M 1088.820312 157.179688 C 1089.433594 156.824219 1089.976562 157.179688 1090.3125 157.664062 C 1090.910156 158.46875 1090.03125 158.617188 1089.621094 158.804688 C 1088.519531 159.34375 1087.363281 159.792969 1085.777344 160.464844 C 1086.671875 158.785156 1087.605469 157.851562 1088.800781 157.179688 Z M 1088.089844 151.429688 C 1082.433594 148.667969 1080.25 144.820312 1081.148438 138.867188 C 1081.390625 137.261719 1081.222656 135.601562 1082.003906 134.070312 C 1082.398438 133.285156 1082.753906 132.578125 1083.777344 132.761719 C 1086.484375 133.285156 1089.285156 133.359375 1092.160156 134.425781 C 1088.613281 139.726562 1087.324219 145.34375 1088.109375 151.429688 Z M 1083.761719 130.726562 C 1080.941406 130.335938 1076.574219 125.164062 1075.882812 121.917969 C 1075.75 121.320312 1075.917969 120.777344 1076.238281 120.257812 C 1078.550781 116.523438 1080.886719 112.789062 1083.515625 109.039062 C 1083.742188 117.195312 1085.925781 124.660156 1091.058594 131.828125 C 1088.128906 131.382812 1085.945312 131.027344 1083.761719 130.710938 Z M 1081.574219 101.644531 C 1079.691406 101.832031 1077.878906 102.074219 1075.769531 101.214844 C 1078.105469 87.792969 1080.027344 74.261719 1080.007812 59.738281 C 1085.796875 67.578125 1092.964844 69.613281 1101.851562 67.632812 C 1100.207031 71.179688 1098.769531 74.464844 1097.183594 77.65625 C 1093.878906 84.339844 1090.386719 90.949219 1087.15625 97.6875 C 1085.964844 100.207031 1084.28125 101.382812 1081.574219 101.644531 Z M 1025.945312 57.3125 C 1026.746094 53.371094 1026.652344 49.320312 1027.4375 44.597656 C 1029.453125 48.59375 1031.152344 51.992188 1032.851562 55.386719 C 1033.261719 56.226562 1033.523438 57.144531 1034.027344 57.925781 C 1036.15625 61.25 1036.695312 64.742188 1035.820312 68.621094 C 1033.972656 76.707031 1031.003906 84.230469 1025.289062 90.445312 C 1024.582031 91.210938 1023.796875 91.9375 1022.9375 92.515625 C 1021.78125 93.300781 1020.585938 93.394531 1019.429688 92.347656 C 1015.882812 89.175781 1012.296875 86.019531 1008.675781 82.808594 C 1019.316406 77.433594 1023.722656 68.117188 1025.945312 57.3125 Z M 1085.515625 193.394531 C 1085.105469 192.683594 1084.675781 191.992188 1084.28125 191.265625 C 1074.96875 174.632812 1065.089844 158.335938 1054.394531 142.5625 C 1045.078125 128.824219 1035.371094 115.347656 1024.824219 102.523438 C 1024.375 101.980469 1024.003906 101.382812 1023.609375 100.824219 C 1022.003906 99.050781 1020.398438 97.257812 1018.792969 95.484375 C 1021.371094 96.230469 1022.996094 98.078125 1024.601562 99.925781 C 1028.109375 103.175781 1031.972656 106.144531 1035.035156 109.765625 C 1038.714844 114.113281 1042.203125 118.632812 1045.433594 123.375 C 1054.449219 136.609375 1063.449219 149.863281 1072.277344 163.226562 C 1078.851562 173.140625 1083.3125 183.984375 1087.15625 195.316406 C 1086.054688 194.941406 1085.925781 194.066406 1085.535156 193.394531 Z M 1097.613281 167.96875 C 1093.449219 172.917969 1092.066406 178.890625 1091.191406 185.105469 C 1090.648438 188.933594 1090.648438 192.757812 1090.070312 196.566406 C 1087.046875 189.007812 1083.964844 181.464844 1081.015625 173.867188 C 1079.878906 170.917969 1082.171875 165 1084.878906 163.359375 C 1085.085938 163.226562 1085.289062 163.132812 1085.496094 163.023438 C 1087.644531 161.828125 1089.976562 159.867188 1092.160156 160.277344 C 1094.53125 160.726562 1095.746094 163.730469 1097.519531 165.578125 C 1098.265625 166.363281 1098.394531 167.015625 1097.59375 167.96875 Z M 1098.433594 163.394531 C 1096.082031 160.839844 1093.992188 158.523438 1091.863281 156.246094 C 1090.742188 155.050781 1090.703125 153.484375 1090.367188 152.027344 C 1089.359375 147.417969 1089.902344 142.917969 1091.972656 138.773438 C 1093.671875 135.359375 1094.476562 134.40625 1098.507812 135.863281 C 1101.570312 136.964844 1104.707031 137.878906 1108.121094 138.960938 C 1100.1875 145.25 1099.011719 154.042969 1098.433594 163.378906 Z M 1108.382812 136.777344 C 1103.734375 135.394531 1099.402344 134.105469 1095.074219 132.835938 C 1094.082031 132.558594 1093.578125 131.753906 1093.019531 131.027344 C 1086.953125 123.09375 1084.878906 114.152344 1086.222656 104.316406 C 1086.316406 103.585938 1086.652344 102.988281 1086.988281 102.390625 C 1092.050781 93.058594 1096.753906 83.558594 1101.269531 73.941406 C 1101.515625 73.421875 1101.851562 72.953125 1102.578125 71.742188 C 1097.59375 94.441406 1098.527344 115.792969 1108.382812 136.796875 Z M 1098.714844 66.140625 C 1090.519531 67.1875 1083.554688 63.769531 1080.417969 55.386719 C 1080.175781 54.714844 1079.96875 54.082031 1079.953125 53.371094 C 1079.691406 43.664062 1078.757812 34.015625 1077.375 24.402344 C 1077.339844 24.082031 1077.414062 23.730469 1077.449219 23.394531 C 1085.589844 23.820312 1092.589844 27.238281 1099.890625 29.628906 C 1105.023438 31.324219 1110.269531 32.089844 1115.980469 31.214844 C 1114.878906 35.789062 1113.199219 39.96875 1111.59375 44.152344 C 1109.390625 49.9375 1106.945312 55.613281 1104.707031 61.378906 C 1103.605469 64.179688 1101.570312 65.765625 1098.730469 66.121094 Z M 1098.714844 66.140625 "/></g><path style=" stroke:none;fill-rule:nonzero;fill:#000000;fill-opacity:1;" d="M 831.996094 183.59375 C 831.773438 183.21875 831.753906 182.882812 831.867188 182.472656 C 832.070312 181.800781 832.277344 181.128906 832.425781 180.4375 C 832.894531 178.273438 832.914062 176.257812 831.476562 174.296875 C 830.128906 172.46875 828.898438 170.5625 827.40625 168.828125 C 826.566406 167.839844 825.574219 167 824.378906 166.4375 C 824.007812 166.269531 823.632812 166.101562 823.296875 166.4375 C 822.960938 166.757812 823.113281 167.167969 823.261719 167.539062 C 823.726562 168.714844 824.363281 169.796875 825.164062 170.769531 C 826.828125 172.785156 828.355469 174.949219 830.375 176.667969 C 830.617188 176.875 830.726562 177.058594 830.578125 177.378906 C 830.261719 178.085938 829.945312 178.796875 829.625 179.523438 C 829.121094 179.167969 828.84375 178.683594 828.507812 178.273438 C 826.917969 176.386719 824.886719 175.175781 822.589844 174.390625 C 822.160156 174.242188 821.730469 174.222656 821.320312 174.351562 C 820.910156 174.464844 820.851562 174.914062 820.683594 175.25 C 820.40625 175.0625 820.160156 174.914062 819.9375 174.78125 C 818.613281 174 817.285156 173.960938 815.90625 174.671875 C 814.746094 175.269531 813.851562 176.144531 813.199219 177.226562 C 810.433594 181.839844 808.921875 186.785156 809.390625 192.238281 C 809.425781 192.648438 809.445312 193.058594 809.464844 193.488281 C 809.296875 193.429688 809.222656 193.429688 809.164062 193.394531 C 806.496094 190.800781 803.808594 188.203125 801.15625 185.589844 C 800.617188 185.050781 800.597656 184.359375 801.082031 183.707031 C 801.980469 182.511719 802.875 181.316406 803.769531 180.140625 C 804.722656 178.890625 805.601562 177.582031 806.214844 176.125 C 806.347656 175.808594 806.496094 175.472656 806.570312 175.136719 C 806.664062 174.800781 806.738281 174.429688 806.367188 174.167969 C 805.972656 173.90625 805.675781 174.167969 805.433594 174.410156 C 805.113281 174.707031 804.855469 175.042969 804.574219 175.378906 C 803.023438 177.394531 801.585938 179.523438 800.167969 181.632812 C 799.960938 181.949219 799.851562 182.363281 799.382812 182.492188 C 799.363281 182.378906 799.308594 182.269531 799.328125 182.175781 C 800.464844 178.589844 801.34375 174.933594 801.921875 171.199219 C 801.960938 170.9375 802.070312 170.808594 802.316406 170.695312 C 804.910156 169.386719 806.796875 167.316406 808.457031 164.984375 C 808.71875 164.609375 808.921875 164.160156 809.109375 163.730469 C 809.242188 163.433594 809.257812 163.117188 809.015625 162.855469 C 808.753906 162.59375 808.4375 162.667969 808.140625 162.761719 C 807.578125 162.949219 807.09375 163.285156 806.589844 163.601562 C 805.097656 164.554688 803.84375 165.824219 802.425781 166.847656 C 802.238281 166.980469 802.148438 167.242188 801.847656 167.148438 C 801.136719 166.925781 800.859375 167.445312 800.558594 167.894531 C 800.128906 168.546875 799.832031 169.277344 799.570312 170.023438 C 798.300781 173.589844 797.5 177.246094 797.105469 181.019531 C 796.9375 182.566406 797.085938 183.984375 798.078125 185.238281 C 798.355469 185.589844 798.449219 185.984375 798.414062 186.429688 C 798.246094 188.707031 798.414062 190.984375 798.339844 193.261719 C 798.320312 193.953125 798.5625 194.363281 799.011719 194.773438 C 800.09375 195.765625 801.289062 196.566406 802.519531 197.351562 C 805.695312 199.367188 809.074219 201.046875 812.414062 202.785156 C 812.789062 202.96875 813.199219 203.082031 813.535156 203.53125 C 811.890625 203.25 810.378906 202.894531 808.886719 202.410156 C 807.578125 202 806.515625 202.242188 805.433594 203.15625 C 803.078125 205.136719 800.988281 207.355469 799.046875 209.726562 C 798.710938 210.121094 798.355469 210.457031 797.910156 210.71875 C 796.488281 211.558594 795.144531 212.507812 793.894531 213.589844 C 793.539062 213.890625 793.167969 214.1875 792.925781 214.617188 C 792.605469 215.195312 792.851562 215.664062 793.503906 215.664062 C 793.839844 215.664062 794.210938 215.570312 794.53125 215.441406 C 795.257812 215.140625 795.96875 214.824219 796.65625 214.46875 C 798.226562 213.648438 799.871094 212.957031 801.214844 211.820312 C 803.566406 209.859375 805.730469 207.675781 807.652344 205.304688 C 808.046875 204.816406 808.324219 204.835938 808.8125 205.0625 C 810.265625 205.734375 811.796875 206.253906 813.367188 206.628906 C 814.152344 206.816406 814.878906 207.003906 815.082031 207.9375 C 815.121094 208.105469 815.289062 208.273438 815.421875 208.421875 C 816.035156 209.113281 815.980469 209.578125 815.121094 209.953125 C 813.496094 210.679688 812.265625 211.835938 811.277344 213.3125 C 810.265625 214.804688 809.277344 216.316406 808.402344 217.886719 C 807.765625 219.003906 807.113281 220.144531 806.796875 221.414062 C 806.644531 222.03125 806.308594 222.441406 805.863281 222.832031 C 804.386719 224.121094 802.988281 225.5 801.699219 226.996094 C 801.511719 227.21875 801.136719 227.441406 801.34375 227.761719 C 801.605469 228.132812 801.996094 227.835938 802.316406 227.742188 C 802.613281 227.628906 802.875 227.460938 803.136719 227.292969 C 804.6875 226.339844 806.03125 225.148438 807.222656 223.785156 C 807.746094 223.1875 808.289062 222.625 808.289062 221.75 C 808.289062 221.449219 808.53125 221.265625 808.699219 221.058594 C 809.894531 219.601562 810.976562 218.054688 812.039062 216.523438 C 813.105469 215.011719 814.300781 213.609375 815.699219 212.398438 C 816.035156 212.640625 816.074219 213.011719 816.242188 213.3125 C 817.511719 215.609375 819.097656 215.886719 821.09375 214.152344 C 821.84375 213.5 822.421875 212.714844 822.941406 211.835938 C 824.304688 212.789062 825.574219 213.722656 826.882812 214.582031 C 827.945312 215.289062 828.265625 216.242188 828.003906 217.417969 C 827.871094 217.996094 827.667969 218.539062 827.480469 219.097656 C 826.917969 220.648438 826.265625 222.160156 825.875 223.765625 C 825.632812 224.753906 825.425781 225.761719 825.558594 226.789062 C 825.59375 227.125 825.707031 227.5 826.136719 227.59375 C 826.492188 227.667969 826.734375 227.441406 826.9375 227.199219 C 827.480469 226.601562 827.816406 225.894531 828.003906 225.128906 C 828.507812 222.980469 829.308594 220.945312 830.1875 218.929688 C 830.464844 218.296875 830.691406 217.605469 830.894531 216.933594 C 831.34375 215.53125 831.457031 214.207031 830 213.347656 C 831.53125 209.839844 832.109375 206.199219 832.539062 202.539062 C 832.632812 201.757812 832.238281 201.308594 831.457031 201.105469 C 830.859375 200.953125 830.28125 201.066406 829.703125 201.195312 C 827.3125 201.699219 824.976562 202.355469 822.8125 203.492188 C 822.664062 203.566406 822.476562 203.71875 822.289062 203.605469 C 822.011719 202.96875 822.234375 202.539062 822.738281 202.09375 C 825.128906 199.871094 827.460938 197.613281 829.8125 195.355469 C 830.859375 194.347656 831.828125 193.261719 832.726562 192.125 C 833.417969 191.265625 834.015625 190.351562 834.40625 189.304688 C 834.535156 188.953125 834.6875 188.597656 834.425781 188.1875 C 833.472656 186.75 832.914062 185.085938 832.035156 183.613281 Z M 810.902344 199.589844 C 807.691406 197.726562 804.519531 195.785156 801.15625 194.179688 C 800.765625 193.992188 800.632812 193.765625 800.710938 193.375 C 800.953125 192.03125 801.007812 190.667969 800.988281 189.007812 C 804.554688 192.890625 808.121094 196.417969 811.816406 199.890625 C 811.367188 200.003906 811.144531 199.742188 810.902344 199.589844 Z M 822.308594 205.863281 C 824.304688 205.957031 826.171875 205.414062 828.039062 204.761719 C 828.300781 204.667969 828.5625 204.613281 828.859375 204.519531 C 828.710938 207.132812 828.523438 209.710938 828.601562 212.378906 C 826.75 211.574219 825.054688 210.734375 823.671875 209.371094 C 823.503906 209.203125 823.355469 209.054688 823.296875 208.792969 C 823.09375 207.917969 822.605469 207.226562 821.804688 206.777344 C 821.636719 206.683594 821.429688 206.574219 821.523438 206.347656 C 821.597656 206.144531 821.691406 205.902344 821.992188 205.882812 C 822.101562 205.882812 822.234375 205.882812 822.347656 205.882812 Z M 821.488281 175.941406 C 822.589844 176.59375 823.464844 177.359375 824.457031 177.65625 C 825.816406 178.066406 826.414062 178.945312 826.863281 180.160156 C 827.164062 181 827.648438 181.765625 828.097656 182.546875 C 828.300781 182.902344 828.394531 183.238281 828.265625 183.648438 C 827.851562 184.863281 827.441406 186.09375 826.996094 187.4375 C 825.667969 183.296875 824.417969 179.320312 821.488281 175.921875 Z M 825.949219 195.09375 C 827.425781 192.273438 829.046875 189.546875 830.355469 186.46875 C 830.988281 187.421875 831.511719 188.203125 832.109375 189.082031 C 829.945312 190.96875 828.003906 193.058594 825.949219 195.109375 Z M 825.949219 195.09375 "/></g></svg>