<svg xmlns="http://www.w3.org/2000/svg" xmlns:xlink="http://www.w3.org/1999/xlink" width="1500" zoomAndPan="magnify" viewBox="0 0 1125 577.499988" height="770" preserveAspectRatio="xMidYMid meet" version="1.2"><defs><clipPath id="6c7a092254"><path d="M 975 478 L 1088 478 L 1088 577 L 975 577 Z M 975 478 "/></clipPath></defs><g id="52e7afe5cb"><path style=" stroke:none;fill-rule:nonzero;fill:#000000;fill-opacity:1;" d="M 1083.851562 177.855469 C 1083.917969 179.472656 1082.972656 181.0625 1082.636719 182.644531 C 1072.519531 215.675781 1062.609375 248.8125 1049.835938 280.9375 C 1035.171875 319.320312 1019.332031 357.230469 1004.246094 395.441406 C 990.347656 429.308594 978.222656 464.957031 955.277344 493.988281 C 934.40625 519.324219 906.175781 537.496094 877.0625 552.035156 C 869.925781 555.527344 862.621094 558.679688 855.199219 561.523438 C 854.902344 561.621094 854.605469 561.71875 854.304688 561.824219 C 851.167969 562.175781 848.027344 562.515625 844.886719 562.859375 C 854.800781 559.480469 864.476562 555.503906 873.929688 551.015625 C 902.308594 537.140625 929.734375 519.773438 950.734375 495.867188 C 964.808594 479.640625 974.457031 460.222656 983.15625 440.730469 C 1000.949219 398.835938 1017.300781 356.332031 1034.402344 314.144531 C 1052.632812 269.667969 1068.167969 224.203125 1081.636719 178.09375 C 1081.796875 177.042969 1083.617188 176.445312 1083.851562 177.855469 Z M 1083.851562 177.855469 "/><path style=" stroke:none;fill-rule:nonzero;fill:#000000;fill-opacity:1;" d="M 738.535156 559.441406 C 734.976562 556.558594 744.523438 556.652344 745.910156 556.222656 C 751.578125 555.527344 757.25 554.800781 762.882812 553.832031 C 781.683594 550.402344 799.917969 544.601562 817.839844 538.054688 C 863.265625 519.882812 909.652344 504.367188 955.347656 486.933594 C 1011.296875 463.332031 1066.214844 437.238281 1121.105469 411.269531 C 1121.96875 410.484375 1124.613281 410.3125 1123.75 412.1875 C 1117.609375 416.105469 1110.453125 418.683594 1103.929688 422.058594 C 1055.1875 444.5625 1006.753906 467.886719 957.234375 488.628906 C 930.203125 499.390625 902.523438 508.507812 875.238281 518.570312 C 830.605469 535.019531 786.546875 555.789062 738.535156 559.441406 Z M 738.535156 559.441406 "/><path style=" stroke:none;fill-rule:nonzero;fill:#000000;fill-opacity:1;" d="M 977.230469 570.828125 C 976.917969 570.351562 977.121094 569.832031 977.339844 569.386719 C 977.832031 567.46875 978.125 565.335938 978.460938 563.429688 C 980.019531 554.105469 981.035156 544.609375 980.773438 535.175781 C 980.589844 525.933594 979.03125 516.765625 976.554688 507.867188 C 974.859375 501.910156 973.050781 495.730469 970.074219 490.3125 C 969.378906 488.988281 968.691406 487.683594 967.980469 486.375 C 967.539062 485.269531 966.328125 484.238281 966.6875 482.976562 C 966.859375 482.492188 967.339844 482.261719 967.828125 482.382812 C 969.175781 482.878906 969.53125 484.824219 970.328125 485.925781 C 970.949219 487.078125 971.496094 488.125 972.066406 489.210938 C 975.226562 494.964844 977.058594 501.296875 978.839844 507.582031 C 983.683594 524.292969 984.109375 541.964844 981.441406 559.097656 C 980.996094 562.160156 980.496094 565.21875 979.929688 568.261719 C 979.65625 569.257812 979.691406 570.535156 978.800781 571.203125 C 978.273438 571.523438 977.5625 571.363281 977.230469 570.828125 Z M 977.230469 570.828125 "/><g clip-rule="nonzero" clip-path="url(#6c7a092254)"><path style=" stroke:none;fill-rule:nonzero;fill:#000000;fill-opacity:1;" d="M 1085.714844 577.105469 C 1068.671875 558.769531 1050.699219 540.910156 1031.613281 524.539062 C 1015.890625 510.832031 1000.101562 497.039062 982.808594 485.324219 C 980.667969 483.851562 978.59375 482.363281 976.410156 480.976562 C 975.550781 480.625 974.605469 479.351562 975.65625 478.675781 C 976.625 478.136719 977.535156 479.027344 978.328125 479.5 C 980.246094 480.761719 982.136719 482.09375 983.964844 483.355469 C 996.5 491.8125 1008.207031 501.367188 1019.671875 511.203125 C 1032.679688 522.292969 1045.527344 533.609375 1057.925781 545.359375 C 1065.128906 552.199219 1072.011719 559.363281 1078.863281 566.550781 C 1081.289062 569.09375 1083.714844 571.636719 1086.015625 574.296875 C 1086.390625 574.792969 1086.953125 575.195312 1087.066406 575.839844 C 1087.171875 576.625 1086.363281 577.34375 1085.613281 577.085938 C 1085.613281 577.085938 1085.714844 577.105469 1085.714844 577.105469 Z M 1085.714844 577.105469 "/></g><path style=" stroke:none;fill-rule:nonzero;fill:#000000;fill-opacity:1;" d="M 961.113281 486.542969 C 960.3125 485.984375 960.714844 484.859375 961.375 484.355469 C 967.519531 478 973.527344 471.515625 979.90625 465.394531 C 992.105469 453.953125 1004.363281 442.554688 1015.613281 430.160156 C 1034.003906 409.933594 1051.867188 388.914062 1067.277344 366.320312 C 1078.414062 349.113281 1086.972656 330.339844 1094.789062 311.449219 C 1097.917969 303.832031 1100.605469 296.050781 1103.347656 288.289062 C 1103.523438 287.742188 1103.695312 287.109375 1104.328125 286.953125 C 1105.898438 286.828125 1106.019531 288.0625 1105.390625 289.328125 C 1104.179688 292.648438 1103.042969 295.996094 1101.859375 299.328125 C 1092.332031 324.824219 1081.214844 350.074219 1065.796875 372.597656 C 1040.550781 407.574219 1011.597656 439.664062 979.769531 468.703125 C 974.070312 474.242188 968.683594 480.082031 963.160156 485.792969 C 962.648438 486.382812 961.898438 486.941406 961.113281 486.542969 Z M 961.113281 486.542969 "/><path style=" stroke:none;fill-rule:nonzero;fill:#000000;fill-opacity:1;" d="M 980.089844 567.382812 C 980.035156 567.675781 979.980469 567.96875 979.925781 568.261719 C 979.816406 568.671875 979.753906 569.132812 979.660156 569.582031 C 957.523438 560.484375 933.558594 556.546875 909.648438 557.089844 C 891.175781 557.824219 872.742188 559.675781 854.394531 561.8125 C 847.867188 562.546875 841.335938 563.226562 834.816406 563.976562 C 833.6875 564.378906 831.675781 563.1875 833.402344 561.980469 C 841.101562 560.703125 849 560.261719 856.765625 559.25 C 875.324219 557.15625 893.882812 555.226562 912.546875 554.773438 C 931.441406 554.808594 950.453125 557.019531 968.414062 563.078125 C 972.371094 564.335938 976.238281 565.839844 980.089844 567.382812 Z M 980.089844 567.382812 "/><path style=" stroke:none;fill-rule:nonzero;fill:#000000;fill-opacity:1;" d="M 981.472656 558.894531 C 981.460938 558.960938 981.449219 559.03125 981.441406 559.097656 C 981.335938 559.816406 981.226562 560.535156 981.117188 561.25 C 970.917969 556.132812 960.449219 551.449219 949.257812 548.960938 C 928.917969 544.589844 907.820312 543.183594 887.085938 544.929688 C 860.15625 547.585938 833.039062 547.980469 806 547.261719 C 801.386719 547.082031 796.769531 546.882812 792.15625 546.679688 C 794.316406 546.03125 796.472656 545.363281 798.621094 544.671875 C 800.703125 544.765625 802.777344 544.851562 804.839844 544.941406 C 827.503906 545.625 850.222656 545.375 872.851562 543.867188 C 898.78125 541.011719 925.226562 541.011719 950.746094 546.976562 C 959.179688 549.019531 967.378906 551.976562 975.144531 555.855469 C 977.253906 556.867188 979.367188 557.871094 981.472656 558.894531 Z M 981.472656 558.894531 "/><path style=" stroke:none;fill-rule:nonzero;fill:#000000;fill-opacity:1;" d="M 982.429688 551.339844 C 982.347656 552.132812 982.265625 552.921875 982.171875 553.714844 C 974.550781 550.257812 967.664062 545.367188 960.136719 541.707031 C 946.921875 535.183594 932.386719 529.328125 917.417969 530.390625 C 911.707031 530.949219 906.222656 532.734375 900.6875 534.132812 C 892.386719 536.226562 883.875 537.421875 875.328125 537.796875 C 861.933594 538.628906 848.683594 535.683594 836.253906 530.847656 C 837.335938 530.429688 838.417969 530.015625 839.5 529.601562 C 846.875 532.289062 854.460938 534.402344 862.285156 535.1875 C 874.214844 536.316406 886.484375 535.046875 898.109375 532.417969 C 909.367188 529.414062 919.632812 526.226562 931.394531 529.003906 C 946.101562 531.640625 959.667969 538.460938 972.480469 545.90625 C 975.738281 547.820312 979 549.753906 982.429688 551.339844 Z M 982.429688 551.339844 "/><path style=" stroke:none;fill-rule:nonzero;fill:#000000;fill-opacity:1;" d="M 904.171875 532.417969 C 902.992188 532.121094 903.339844 530.691406 903.875 529.953125 C 904.710938 528.335938 905.464844 526.667969 906.222656 525.011719 C 909.527344 517.925781 912.355469 510.632812 915.058594 503.300781 C 915.273438 502.1875 916.40625 501.214844 917.339844 502.308594 C 917.9375 503.117188 917.101562 503.996094 916.921875 504.8125 C 916.300781 506.496094 915.667969 508.171875 915.027344 509.851562 C 912.605469 516.25 909.953125 522.558594 907.011719 528.730469 C 906.273438 529.867188 905.808594 532.519531 904.171875 532.417969 Z M 904.171875 532.417969 "/><path style=" stroke:none;fill-rule:nonzero;fill:#000000;fill-opacity:1;" d="M 1040.789062 529.609375 C 1041.859375 530.5625 1042.925781 531.523438 1043.992188 532.484375 C 1039.882812 531.652344 1035.703125 531.21875 1031.570312 530.925781 C 1018.085938 530.257812 1004.617188 531.988281 991.433594 534.582031 C 989.234375 535.054688 987.039062 535.554688 984.9375 536.296875 C 983.484375 536.566406 981.820312 538.367188 980.445312 537.238281 C 976.738281 531.023438 966.765625 528.277344 960.269531 525.765625 C 949.183594 521.910156 937.519531 520.066406 925.839844 519.261719 C 926.71875 518.574219 927.585938 517.878906 928.453125 517.171875 C 939.578125 518.074219 950.636719 519.972656 961.175781 523.671875 C 968.074219 526.292969 977.324219 528.957031 981.816406 535.109375 C 987.0625 532.761719 992.804688 532 998.40625 530.984375 C 1009.144531 529.253906 1020.160156 528.101562 1031.019531 528.609375 C 1034.222656 528.800781 1037.566406 529.117188 1040.789062 529.609375 Z M 1040.789062 529.609375 "/><path style=" stroke:none;fill-rule:nonzero;fill:#000000;fill-opacity:1;" d="M 1011.691406 376.746094 C 1010.3125 380.175781 1008.941406 383.609375 1007.574219 387.046875 C 985.875 418.839844 961.507812 448.828125 935.019531 476.730469 C 924.355469 487.457031 913.242188 497.773438 901.375 507.160156 C 899.769531 508.382812 898.15625 509.625 896.550781 510.882812 C 894.324219 511.671875 892.101562 512.464844 889.878906 513.261719 C 890.265625 512.960938 890.554688 512.722656 890.691406 512.570312 C 902.621094 503.566406 914.066406 493.941406 924.828125 483.566406 C 957.511719 451.269531 986.3125 415.082031 1011.691406 376.746094 Z M 1011.691406 376.746094 "/><path style=" stroke:none;fill-rule:nonzero;fill:#000000;fill-opacity:1;" d="M 999.882812 406.230469 C 998.742188 409.078125 997.605469 411.933594 996.464844 414.789062 C 983.90625 432.332031 971.269531 449.824219 958.21875 466.984375 C 949.269531 478.277344 939.359375 488.75 929.414062 499.164062 L 929.410156 499.164062 C 927.796875 499.75 926.179688 500.335938 924.5625 500.917969 C 925.320312 500.128906 926.082031 499.335938 926.847656 498.550781 C 935.359375 489.605469 943.917969 480.671875 951.847656 471.195312 C 962.953125 458.054688 972.460938 443.699219 982.644531 429.855469 C 988.488281 422.054688 994.230469 414.175781 999.882812 406.230469 Z M 999.882812 406.230469 "/><path style=" stroke:none;fill-rule:nonzero;fill:#000000;fill-opacity:1;" d="M 981.613281 519.945312 C 981.824219 521.242188 982.007812 522.539062 982.171875 523.839844 C 981.324219 522.9375 980.46875 522.042969 979.605469 521.152344 C 971.152344 512.523438 962.210938 503.566406 950.5625 499.511719 C 949.054688 499.292969 949.136719 497.125 950.726562 497.195312 C 957.316406 499.269531 963.21875 503.179688 968.53125 507.472656 C 973.113281 511.390625 977.433594 515.605469 981.613281 519.945312 Z M 981.613281 519.945312 "/><path style=" stroke:none;fill-rule:nonzero;fill:#000000;fill-opacity:1;" d="M 977.445312 502.769531 C 977.828125 504.042969 978.195312 505.320312 978.558594 506.597656 C 972.167969 500.414062 965.464844 494.464844 957.0625 491.515625 C 955.066406 491.597656 955.546875 488.730469 957.472656 489.269531 C 963.632812 491.070312 968.898438 495.128906 973.777344 499.160156 C 975.101562 500.289062 976.398438 501.453125 977.675781 502.632812 C 977.597656 502.679688 977.519531 502.722656 977.445312 502.769531 Z M 977.445312 502.769531 "/><path style=" stroke:none;fill-rule:nonzero;fill:#000000;fill-opacity:1;" d="M 1000.703125 495.574219 C 1001.734375 496.378906 1002.761719 497.1875 1003.78125 498 C 1001.09375 497.808594 998.394531 497.707031 995.703125 497.902344 C 991.617188 498.382812 987.457031 498.765625 983.496094 499.921875 C 981.390625 500.722656 979.316406 501.640625 977.386719 502.804688 C 976.867188 503.246094 976.238281 503.8125 975.53125 503.386719 C 972.941406 501.386719 979.679688 499.207031 980.984375 498.457031 C 983.15625 497.441406 985.515625 497.007812 987.871094 496.636719 C 992.113281 495.796875 996.410156 495.496094 1000.703125 495.574219 Z M 1000.703125 495.574219 "/><path style=" stroke:none;fill-rule:nonzero;fill:#000000;fill-opacity:1;" d="M 982.460938 530.371094 C 982.488281 530.359375 982.515625 530.355469 982.542969 530.347656 C 981.972656 530.578125 981.28125 530.253906 981.074219 529.675781 C 980.65625 528.460938 982.046875 528.066406 982.894531 527.667969 C 984.496094 526.921875 986.132812 526.242188 987.800781 525.660156 C 997.097656 522.191406 1006.988281 520.730469 1016.875 520.445312 C 1021.148438 520.304688 1025.417969 520.0625 1029.6875 519.820312 C 1030.523438 520.546875 1031.359375 521.273438 1032.191406 522.003906 C 1023.96875 522.453125 1015.722656 522.589844 1007.523438 523.390625 C 998.949219 524.316406 990.484375 526.585938 982.683594 530.28125 C 982.683594 530.28125 982.679688 530.28125 982.679688 530.277344 C 982.609375 530.316406 982.535156 530.347656 982.460938 530.371094 Z M 982.460938 530.371094 "/><path style=" stroke:none;fill-rule:nonzero;fill:#000000;fill-opacity:1;" d="M 1012.410156 505.050781 C 1013.375 505.855469 1014.339844 506.667969 1015.300781 507.480469 C 1011 507.257812 1006.691406 506.972656 1002.390625 507.3125 C 995.585938 507.941406 988.773438 509.757812 982.855469 513.234375 C 982.125 513.699219 981.425781 514.203125 980.75 514.746094 C 980.332031 515.214844 979.65625 515.273438 979.160156 514.894531 C 978.695312 514.546875 978.617188 513.847656 978.921875 513.40625 C 978.917969 513.40625 978.917969 513.410156 978.914062 513.410156 C 984.136719 508.757812 991.503906 506.820312 998.214844 505.53125 C 1002.902344 504.683594 1007.667969 504.824219 1012.410156 505.050781 Z M 1012.410156 505.050781 "/><path style=" stroke:none;fill-rule:nonzero;fill:#000000;fill-opacity:1;" d="M 1043.15625 447.898438 C 1044.09375 447.464844 1045.03125 447.03125 1045.972656 446.59375 C 1045.867188 446.933594 1045.757812 447.269531 1045.652344 447.59375 C 1042.835938 455.871094 1040.40625 464.203125 1039.40625 472.90625 C 1038.101562 485.609375 1037.964844 498.59375 1039.496094 511.246094 C 1040.289062 516.746094 1041.085938 522.28125 1042.648438 527.625 C 1043.199219 529.3125 1043.742188 530.964844 1044.382812 532.59375 C 1045.007812 533.378906 1044.128906 534.667969 1043.167969 534.355469 C 1042.082031 534.304688 1041.191406 530.023438 1040.699219 529 C 1039.355469 524.914062 1038.691406 520.660156 1037.964844 516.4375 C 1036.519531 507.667969 1035.941406 498.761719 1036.167969 489.878906 C 1036.324219 482.585938 1036.527344 475.265625 1037.824219 468.066406 C 1038.910156 461.199219 1040.925781 454.476562 1043.15625 447.898438 Z M 1043.15625 447.898438 "/><path style=" stroke:none;fill-rule:nonzero;fill:#000000;fill-opacity:1;" d="M 1029.652344 519.523438 C 1030.425781 520.285156 1029.59375 521.710938 1028.542969 521.402344 C 1027.316406 521.183594 1026.066406 516.546875 1025.546875 515.308594 C 1024.074219 510.628906 1022.59375 505.941406 1021.378906 501.183594 C 1018.871094 492.230469 1018.6875 482.839844 1019.972656 473.671875 C 1020.636719 468.015625 1021.417969 462.316406 1023.421875 456.960938 C 1024.398438 456.515625 1025.375 456.070312 1026.347656 455.625 C 1025.808594 457.078125 1025.277344 458.535156 1024.796875 460.007812 C 1022.898438 466.320312 1022.316406 472.945312 1021.667969 479.480469 C 1020.886719 487.683594 1022.09375 495.914062 1024.425781 503.777344 C 1025.5625 507.671875 1026.714844 511.570312 1027.992188 515.421875 C 1028.503906 516.808594 1029.003906 518.199219 1029.652344 519.523438 Z M 1029.652344 519.523438 "/><path style=" stroke:none;fill-rule:nonzero;fill:#000000;fill-opacity:1;" d="M 1009.152344 463.429688 C 1010.261719 462.929688 1011.371094 462.429688 1012.480469 461.925781 C 1011.832031 463.207031 1011.195312 464.488281 1010.558594 465.773438 C 1006.886719 473.890625 1004.785156 484.320312 1007.40625 493.007812 C 1008.636719 497.070312 1010.253906 501.023438 1012.058594 504.863281 C 1012.878906 505.777344 1011.722656 507.230469 1010.644531 506.613281 C 1010.011719 506.265625 1009.878906 505.460938 1009.550781 504.867188 C 1009.136719 503.964844 1008.726562 503.054688 1008.339844 502.136719 C 1006.605469 497.929688 1004.90625 493.683594 1004.226562 489.167969 C 1003.496094 484.292969 1004.171875 479.339844 1005.21875 474.5625 C 1005.992188 470.667969 1007.414062 466.976562 1009.152344 463.429688 Z M 1009.152344 463.429688 "/><path style=" stroke:none;fill-rule:nonzero;fill:#000000;fill-opacity:1;" d="M 991.4375 471.332031 C 992.414062 470.898438 993.390625 470.46875 994.363281 470.035156 C 993.289062 472.753906 992.398438 475.535156 991.917969 478.425781 C 991.300781 481.96875 991.128906 485.285156 991.371094 488.800781 C 991.382812 490.277344 989.132812 490.324219 989.089844 488.828125 C 988.636719 482.898438 989.527344 476.9375 991.4375 471.332031 Z M 991.4375 471.332031 "/><path style=" stroke:none;fill-rule:nonzero;fill:#000000;fill-opacity:1;" d="M 1073.292969 562.707031 C 1073.460938 563.113281 1073.53125 563.539062 1073.378906 563.964844 C 1073.367188 563.996094 1073.351562 564.03125 1073.339844 564.0625 C 1072.234375 562.921875 1071.125 561.78125 1070.007812 560.648438 C 1069.410156 558.957031 1068.917969 557.203125 1068.347656 555.523438 C 1066.742188 550.117188 1065.332031 544.652344 1063.945312 539.183594 C 1056.207031 508.390625 1055.960938 475.773438 1064.289062 445.089844 C 1064.964844 442.449219 1065.6875 439.8125 1066.519531 437.21875 C 1066.558594 437.140625 1066.59375 437.058594 1066.628906 436.96875 C 1067.582031 436.523438 1068.53125 436.078125 1069.484375 435.632812 C 1067.320312 441.695312 1065.863281 447.957031 1064.449219 454.226562 C 1059.421875 476.691406 1059.152344 500 1062.875 522.675781 C 1064.96875 535.050781 1068.089844 547.261719 1071.941406 559.199219 C 1072.363281 560.378906 1072.804688 561.554688 1073.292969 562.707031 Z M 1073.292969 562.707031 "/><path style=" stroke:none;fill-rule:nonzero;fill:#000000;fill-opacity:1;" d="M 1083.496094 342.265625 C 1083.132812 342.996094 1082.765625 343.722656 1082.390625 344.453125 C 1074.613281 343.199219 1066.910156 341.574219 1059.496094 338.878906 C 1048.972656 335.066406 1039.503906 328.53125 1031.921875 320.289062 C 1032.230469 319.515625 1032.542969 318.742188 1032.859375 317.96875 C 1042.808594 329.144531 1056.324219 336.792969 1070.972656 339.929688 C 1070.980469 339.933594 1070.988281 339.9375 1071 339.9375 C 1075.132812 340.9375 1079.304688 341.613281 1083.496094 342.265625 Z M 1083.496094 342.265625 "/><path style=" stroke:none;fill-rule:nonzero;fill:#000000;fill-opacity:1;" d="M 1068.382812 368.726562 C 1067.921875 369.4375 1067.453125 370.144531 1066.980469 370.847656 C 1063.738281 370.351562 1060.515625 369.761719 1057.320312 369.011719 C 1044.484375 365.5 1033.539062 357.175781 1024.941406 347.199219 C 1024.546875 346.714844 1023.53125 345.527344 1022.382812 344.070312 C 1022.710938 343.25 1023.039062 342.429688 1023.367188 341.609375 C 1023.722656 342.09375 1024.078125 342.5625 1024.410156 342.996094 C 1031.449219 351.699219 1040 359.496094 1050.324219 364.050781 C 1056.011719 366.785156 1062.1875 367.875 1068.382812 368.726562 Z M 1068.382812 368.726562 "/><path style=" stroke:none;fill-rule:nonzero;fill:#000000;fill-opacity:1;" d="M 1046.453125 397.945312 C 1045.894531 398.640625 1045.335938 399.332031 1044.773438 400.023438 C 1040.925781 399.484375 1037.09375 398.871094 1033.269531 398.15625 C 1023.277344 395.984375 1013.484375 391.421875 1006.445312 384.027344 C 1006.761719 383.242188 1007.074219 382.460938 1007.386719 381.679688 C 1016.882812 392.730469 1032.34375 396.34375 1046.453125 397.945312 Z M 1046.453125 397.945312 "/><path style=" stroke:none;fill-rule:nonzero;fill:#000000;fill-opacity:1;" d="M 1030.1875 417.304688 C 1029.292969 418.328125 1028.398438 419.34375 1027.496094 420.359375 C 1025.054688 420.921875 1022.613281 421.457031 1020.230469 422.054688 C 1015.171875 423.175781 1010.171875 424.046875 1005.007812 424.066406 C 1001.328125 424.039062 997.5 423.566406 994.230469 421.769531 C 993.054688 420.957031 990.027344 419.457031 991.644531 417.824219 C 992.183594 417.398438 993.042969 417.652344 993.324219 418.257812 C 999.148438 423.300781 1007.800781 421.824219 1014.824219 420.820312 C 1019.984375 419.835938 1025.113281 418.671875 1030.1875 417.304688 Z M 1030.1875 417.304688 "/><path style=" stroke:none;fill-rule:nonzero;fill:#000000;fill-opacity:1;" d="M 1016.199219 432.753906 C 1015.539062 433.460938 1014.878906 434.167969 1014.210938 434.871094 C 1008.03125 434.265625 1001.894531 433.203125 995.925781 431.496094 C 993.777344 430.738281 991.347656 430.234375 989.542969 428.796875 C 988.972656 428.050781 989.644531 426.910156 990.566406 426.992188 C 991.351562 427.160156 992 427.769531 992.789062 428 C 1000.296875 430.777344 1008.230469 432.113281 1016.199219 432.753906 Z M 1016.199219 432.753906 "/><path style=" stroke:none;fill-rule:nonzero;fill:#000000;fill-opacity:1;" d="M 1001.613281 446.273438 C 1002.03125 446.382812 1002.441406 446.492188 1002.84375 446.597656 C 1002.226562 447.21875 1001.605469 447.84375 1000.984375 448.464844 C 996.363281 447.269531 991.777344 445.9375 987.246094 444.433594 C 986.230469 444.105469 985.21875 443.757812 984.191406 443.460938 C 983.546875 443.378906 983.003906 442.808594 983.074219 442.203125 C 983.074219 441.582031 983.695312 441.097656 984.285156 441.136719 C 984.871094 441.253906 985.445312 441.464844 986.019531 441.640625 C 987.757812 442.199219 989.492188 442.773438 991.230469 443.328125 C 994.660156 444.417969 998.136719 445.351562 1001.613281 446.273438 Z M 1001.613281 446.273438 "/><path style=" stroke:none;fill-rule:nonzero;fill:#000000;fill-opacity:1;" d="M 995.363281 454.007812 C 994.597656 454.75 993.835938 455.492188 993.066406 456.234375 C 991.246094 456.1875 989.425781 456.140625 987.609375 456.070312 C 985.199219 455.972656 982.792969 455.820312 980.382812 455.816406 C 979.480469 455.734375 978.210938 456.214844 977.679688 455.230469 C 977.257812 454.445312 977.9375 453.488281 978.789062 453.574219 C 983.414062 453.460938 988.03125 453.890625 992.65625 453.941406 C 993.558594 453.964844 994.460938 453.984375 995.363281 454.007812 Z M 995.363281 454.007812 "/><path style=" stroke:none;fill-rule:nonzero;fill:#000000;fill-opacity:1;" d="M 996.742188 470.050781 C 993.359375 467.507812 989.617188 465.109375 985.929688 463.113281 C 984.125 462.542969 985.21875 460.023438 986.816406 461.042969 C 986.808594 461.039062 986.804688 461.03125 986.796875 461.027344 C 986.761719 461.003906 986.726562 460.980469 986.691406 460.960938 C 988.570312 461.839844 990.308594 462.996094 992.0625 464.101562 C 994.207031 465.558594 996.605469 466.796875 998.457031 468.621094 C 999.246094 469.921875 997.886719 470.867188 996.742188 470.050781 Z M 996.742188 470.050781 "/><path style=" stroke:none;fill-rule:nonzero;fill:#000000;fill-opacity:1;" d="M 1010.988281 463.675781 C 1010.359375 463.523438 1009.96875 462.964844 1009.488281 462.570312 C 1006.296875 459.640625 1003.078125 456.742188 999.789062 453.921875 C 999.164062 453.390625 998.519531 452.878906 997.867188 452.382812 C 997.433594 452.015625 996.769531 451.714844 996.605469 451.148438 L 996.597656 451.140625 C 996.585938 451.078125 996.539062 450.9375 996.5625 450.90625 C 996.421875 449.855469 997.859375 449.234375 998.546875 450.046875 C 1000.300781 451.324219 1001.9375 452.75 1003.5625 454.1875 C 1006.007812 456.328125 1008.425781 458.496094 1010.816406 460.695312 C 1011.203125 461.074219 1011.652344 461.402344 1012.007812 461.8125 C 1012.726562 462.691406 1012.207031 463.976562 1010.988281 463.675781 Z M 1010.988281 463.675781 "/><path style=" stroke:none;fill-rule:nonzero;fill:#000000;fill-opacity:1;" d="M 1028.070312 456.40625 C 1026.164062 455.652344 1024.519531 454.386719 1022.96875 453.074219 C 1018.035156 449.019531 1013.9375 443.5625 1012.671875 437.199219 C 1012.542969 435.996094 1011.867188 434.242188 1012.9375 433.328125 C 1013.9375 432.664062 1015.089844 433.699219 1014.648438 434.765625 C 1015.214844 441.996094 1020.132812 448.082031 1025.683594 452.335938 C 1026.761719 453.285156 1028.089844 453.835938 1029.300781 454.554688 C 1030.390625 455.5625 1029.390625 456.851562 1028.070312 456.40625 Z M 1013.730469 435.390625 C 1013.902344 435.386719 1014.0625 435.316406 1014.207031 435.222656 C 1014.207031 435.226562 1014.203125 435.226562 1014.203125 435.226562 C 1014.214844 435.21875 1014.222656 435.210938 1014.234375 435.207031 C 1014.085938 435.300781 1013.914062 435.363281 1013.730469 435.390625 Z M 1013.730469 435.390625 "/><path style=" stroke:none;fill-rule:nonzero;fill:#000000;fill-opacity:1;" d="M 1038.316406 451.261719 C 1033.636719 447.597656 1030.203125 442.347656 1027.703125 437.035156 C 1025.222656 431.328125 1024.851562 424.792969 1026.269531 418.761719 C 1026.507812 417.902344 1027.65625 417.605469 1028.246094 418.292969 C 1028.542969 418.621094 1028.621094 419.140625 1028.417969 419.53125 C 1028.265625 420.261719 1028.128906 421 1028.007812 421.738281 C 1027.378906 426.335938 1027.792969 431.101562 1029.5 435.4375 C 1031.480469 440.058594 1034.359375 444.328125 1037.882812 447.914062 C 1038.46875 448.566406 1039.222656 449.046875 1039.867188 449.621094 C 1040.941406 450.824219 1039.585938 452.039062 1038.316406 451.261719 Z M 1038.316406 451.261719 "/><path style=" stroke:none;fill-rule:nonzero;fill:#000000;fill-opacity:1;" d="M 1062.070312 441.125 C 1051 439.464844 1039.574219 430.152344 1035.5 419.75 C 1034.476562 417.089844 1033.921875 414.257812 1033.789062 411.414062 C 1033.730469 410.726562 1033.734375 409.757812 1034.464844 409.464844 C 1035.164062 409.109375 1036.074219 409.632812 1036.101562 410.433594 C 1035.996094 411.300781 1036.117188 412.183594 1036.203125 413.054688 C 1036.957031 420.707031 1041.820312 427.171875 1047.589844 431.941406 C 1050.066406 434 1052.957031 435.707031 1055.886719 436.941406 C 1057.941406 437.800781 1060.0625 438.664062 1062.296875 438.855469 C 1064.507812 438.898438 1064.261719 441.402344 1062.070312 441.125 Z M 1062.070312 441.125 "/></g></svg>