<svg xmlns="http://www.w3.org/2000/svg" xmlns:xlink="http://www.w3.org/1999/xlink" width="1500" zoomAndPan="magnify" viewBox="0 0 1125 577.499988" height="770" preserveAspectRatio="xMidYMid meet" version="1.2"><defs><clipPath id="8b2c3d84d3"><path d="M 390.917969 347 L 549.78125 347 L 549.78125 576 L 390.917969 576 Z M 390.917969 347 "/></clipPath></defs><g id="af3e51404a"><g clip-rule="nonzero" clip-path="url(#8b2c3d84d3)"><path style=" stroke:none;fill-rule:nonzero;fill:#000000;fill-opacity:1;" d="M 549.09375 392.90625 C 548.777344 392.558594 548.375 392.359375 548 392.332031 C 547.542969 392.273438 547.195312 392.386719 546.96875 392.445312 C 546.851562 392.472656 546.765625 392.503906 546.707031 392.503906 C 546.019531 392.160156 545.300781 391.929688 544.613281 391.84375 C 543.605469 391.699219 542.65625 391.816406 541.738281 392.015625 C 540.820312 392.214844 539.929688 392.503906 539.039062 392.789062 C 536.738281 393.535156 534.15625 393.765625 531.625 393.851562 C 528.007812 393.996094 524.761719 395.054688 521.628906 396.460938 C 519.761719 397.292969 517.808594 398.011719 515.882812 398.785156 C 513.097656 399.875 510.28125 400.9375 507.46875 401.996094 C 506.203125 402.484375 505.054688 403.03125 503.960938 403.203125 C 502.839844 403.375 501.835938 403.746094 500.886719 404.207031 L 499.710938 404.347656 L 500.054688 404.636719 C 499.25 405.09375 498.503906 405.640625 497.785156 406.183594 L 497.269531 405.753906 L 496.75 406.183594 C 494.742188 407.90625 492.816406 409.570312 490.863281 411.234375 C 489.425781 412.464844 487.902344 413.699219 486.496094 415.046875 C 482.847656 418.488281 479.257812 421.988281 475.664062 425.460938 C 474.890625 426.207031 474.285156 427.066406 473.683594 427.753906 C 471.5 430.277344 469.316406 432.800781 467.164062 435.328125 L 466.988281 435.527344 L 466.988281 435.785156 C 466.730469 438.28125 466.328125 440.921875 466.300781 443.617188 C 466.242188 449.554688 466.359375 455.460938 466.414062 461.371094 C 466.273438 460.683594 466.128906 459.964844 465.957031 459.277344 C 465.8125 458.730469 465.640625 458.273438 465.351562 457.871094 C 465.207031 457.671875 465.035156 457.5 464.808594 457.355469 C 464.605469 457.210938 464.347656 457.125 464.117188 457.097656 C 463.773438 457.039062 463.457031 457.097656 463.140625 457.15625 C 462.824219 457.242188 462.507812 457.355469 462.136719 457.5 C 461.300781 457.84375 460.582031 458.359375 460.007812 458.960938 C 459.664062 459.335938 459.347656 459.765625 459.0625 460.195312 C 458.746094 459.679688 458.542969 459.132812 458.402344 458.503906 C 458.226562 457.757812 458.113281 456.925781 457.855469 456.066406 C 454.636719 445.910156 453.34375 435.414062 452.769531 424.769531 C 452.769531 424.542969 452.769531 424.339844 452.769531 424.167969 C 452.828125 423.710938 452.972656 423.453125 453.34375 423.109375 C 454.175781 422.332031 455.011719 421.617188 455.902344 420.871094 C 456.101562 420.699219 456.273438 420.496094 456.417969 420.296875 C 456.5625 420.097656 456.675781 419.839844 456.707031 419.578125 C 456.761719 419.179688 456.648438 418.777344 456.445312 418.460938 C 456.246094 418.144531 455.988281 417.917969 455.671875 417.6875 L 455.296875 417.398438 L 454.867188 417.570312 C 453.949219 417.945312 453 418.347656 452.050781 418.71875 C 451.734375 417.570312 451.535156 416.769531 451.449219 416.109375 C 451.332031 415.304688 451.332031 414.703125 451.449219 413.785156 C 451.535156 413.097656 451.707031 412.265625 451.90625 411.089844 C 453.515625 402.167969 455.011719 393.21875 456.621094 383.957031 L 456.933594 382.089844 C 457.710938 380.742188 458.542969 379.394531 459.40625 378.105469 C 460.355469 376.671875 461.503906 375.292969 462.507812 373.714844 C 465.007812 369.816406 467.824219 366.257812 471.328125 363.304688 C 472.648438 362.15625 473.683594 360.78125 474.71875 359.546875 C 476.441406 357.480469 477.820312 355.359375 479.917969 353.980469 C 480.664062 353.496094 481.238281 352.835938 481.785156 352.175781 C 482.300781 351.515625 482.761719 350.855469 483.25 350.3125 L 485.980469 347.183594 L 482.273438 349.078125 L 482.214844 349.078125 C 482.214844 349.078125 482.101562 348.960938 482.015625 348.875 C 481.957031 348.820312 481.929688 348.761719 481.84375 348.703125 C 481.753906 348.648438 481.640625 348.503906 481.324219 348.445312 C 481.210938 348.445312 481.09375 348.445312 480.980469 348.445312 C 480.347656 348.617188 479.574219 348.703125 478.738281 348.960938 C 477.933594 349.191406 477.042969 349.679688 476.382812 350.597656 C 474.660156 353.007812 472.707031 355.273438 470.78125 357.566406 C 464.691406 364.679688 458.542969 371.792969 453.199219 379.597656 C 452.484375 380.628906 451.707031 381.691406 451.046875 382.867188 C 450.386719 384.042969 449.8125 385.304688 449.582031 386.765625 C 449.207031 389.234375 448.71875 391.699219 448.347656 394.222656 C 448.289062 394.683594 448.230469 395.171875 448.171875 395.628906 C 447.800781 398.929688 447.570312 402.226562 447.425781 405.523438 C 447.371094 406.929688 447.28125 408.277344 447.082031 409.625 C 446.824219 411.433594 446.421875 413.210938 445.761719 414.933594 C 445.558594 415.476562 445.386719 416.023438 445.328125 416.597656 C 445.214844 417.371094 445.242188 418.144531 445.445312 418.949219 C 445.761719 420.355469 446.046875 421.816406 446.363281 423.25 C 445.328125 424.113281 444.351562 424.945312 443.375 425.746094 C 439.8125 428.613281 436.222656 431.453125 432.660156 434.324219 C 432.375 434.550781 432.199219 434.808594 432.058594 435.039062 C 431.914062 435.269531 431.769531 435.46875 431.65625 435.671875 L 431.023438 436.558594 L 432.058594 436.90625 C 432.316406 436.992188 432.546875 437.078125 432.746094 437.132812 C 432.574219 437.9375 432.429688 438.710938 432.316406 439.515625 C 431.597656 444.621094 432 449.695312 432.660156 454.714844 C 432.804688 455.664062 432.949219 456.550781 432.890625 457.328125 C 432.832031 458.128906 432.863281 458.933594 433.207031 459.679688 C 433.378906 460.050781 433.636719 460.394531 433.980469 460.652344 C 434.328125 460.941406 434.730469 461.140625 435.21875 461.3125 C 435.21875 461.3125 435.417969 461.542969 435.589844 461.773438 C 435.734375 462.03125 435.90625 462.316406 436.078125 462.632812 C 438.605469 466.761719 441.480469 470.691406 445.101562 474.046875 C 444.957031 474.046875 444.839844 474.019531 444.699219 473.992188 C 440.53125 473.273438 436.367188 472.527344 432.230469 471.78125 C 432 471.753906 431.800781 471.695312 431.570312 471.667969 C 430.132812 471.46875 428.695312 471.496094 427.230469 471.78125 C 426.023438 472.039062 424.960938 472.328125 423.957031 472.183594 C 423.785156 472.183594 423.582031 472.125 423.382812 472.070312 C 423.382812 472.070312 423.125 472.011719 422.980469 471.984375 C 422.519531 471.925781 422.03125 471.984375 421.570312 472.183594 C 421.113281 472.386719 420.710938 472.757812 420.421875 473.21875 C 420.335938 473.390625 420.050781 473.617188 419.820312 473.734375 C 416.230469 475.425781 413.039062 477.691406 409.851562 479.871094 C 406.664062 482.050781 403.503906 484.144531 399.96875 485.578125 C 399.566406 485.75 399.25 486.007812 399.019531 486.210938 C 398.90625 486.324219 398.792969 486.441406 398.703125 486.582031 C 398.648438 486.640625 398.617188 486.726562 398.5625 486.8125 C 398.53125 486.898438 398.476562 486.984375 398.445312 487.183594 C 398.445312 487.300781 398.417969 487.53125 398.589844 487.789062 C 398.589844 487.789062 398.703125 487.988281 398.703125 488.046875 L 398.648438 488.132812 C 398.648438 488.132812 398.417969 488.332031 398.214844 488.476562 C 398.042969 488.621094 397.8125 488.792969 397.613281 489.078125 C 397.238281 489.566406 396.808594 490.082031 396.378906 490.65625 C 395.945312 491.230469 395.546875 491.832031 395.257812 492.550781 C 393.707031 496.621094 391.667969 500.667969 391.035156 505.253906 C 390.917969 506.058594 390.863281 506.890625 390.832031 507.75 L 390.832031 508.210938 L 391.234375 508.441406 C 391.550781 508.640625 391.867188 508.785156 392.269531 508.839844 C 392.472656 508.839844 392.699219 508.839844 392.929688 508.785156 C 393.277344 508.667969 393.535156 508.441406 393.707031 508.179688 C 393.878906 507.921875 393.992188 507.636719 394.109375 507.292969 C 395.746094 501.957031 398.042969 496.824219 400.542969 491.804688 C 400.746094 491.429688 400.945312 491.027344 401.175781 490.683594 C 401.40625 490.371094 401.664062 490.109375 401.894531 489.96875 C 406.664062 486.957031 411.515625 484.03125 416.34375 481.046875 C 417.722656 480.1875 418.988281 479.242188 420.277344 478.410156 C 420.539062 478.238281 420.769531 478.09375 420.96875 477.976562 C 421.167969 477.863281 421.3125 477.835938 421.34375 477.835938 C 424.789062 477.75 428.207031 477.605469 431.570312 477.777344 C 431.800781 477.777344 432.027344 477.804688 432.257812 477.835938 C 433.464844 478.007812 434.757812 478.4375 436.136719 478.636719 C 436.683594 478.722656 437.226562 478.753906 437.804688 478.695312 C 438.234375 478.667969 438.664062 478.695312 439.066406 478.722656 C 439.898438 478.839844 440.789062 479.125 441.824219 479.382812 C 441.625 479.5 441.421875 479.613281 441.25 479.726562 C 439.066406 481.046875 436.855469 482.367188 434.671875 483.742188 C 433.320312 484.605469 432.230469 485.609375 431.050781 486.210938 C 429.070312 487.242188 426.914062 488.015625 424.816406 489.050781 C 422.289062 490.253906 419.789062 491.515625 417.347656 492.894531 C 415.597656 493.867188 414.246094 495.390625 413.5 497.253906 C 410.167969 505.484375 406.921875 513.71875 403.644531 521.949219 C 403.53125 522.265625 403.300781 522.667969 403.242188 523.210938 C 403.242188 523.296875 403.242188 523.355469 403.242188 523.441406 C 403.242188 523.757812 403.214844 524.128906 403.15625 524.5 C 403.015625 525.5625 402.699219 526.796875 402.296875 527.914062 C 401.894531 529.035156 401.40625 530.066406 400.945312 530.726562 C 400.285156 531.644531 399.855469 532.621094 399.25 533.679688 L 398.589844 534.828125 L 399.910156 534.886719 L 400.171875 534.886719 C 400.226562 535.371094 400.257812 535.890625 400.34375 536.375 C 400.542969 537.4375 400.773438 538.527344 401.03125 539.589844 C 401.949219 543.347656 402.554688 547.304688 404.277344 551.0625 C 405.425781 553.558594 406.375 556.109375 406.71875 558.777344 C 406.804688 559.4375 407.035156 560.183594 407.554688 560.757812 C 408.960938 562.363281 409.59375 564.429688 410.195312 566.578125 C 410.855469 568.902344 411.171875 571.371094 411.691406 573.867188 C 411.777344 574.210938 411.917969 574.46875 412.0625 574.667969 C 412.207031 574.871094 412.320312 575.011719 412.378906 575.097656 L 412.867188 575.875 L 413.585938 575.328125 C 414.1875 574.839844 414.734375 574.4375 415.25 574.039062 C 415.769531 574.09375 416.285156 573.953125 416.660156 573.691406 C 417.089844 573.433594 417.40625 573.089844 417.722656 572.746094 L 418.269531 572.144531 L 417.894531 571.828125 L 418.066406 571.683594 L 417.609375 571.570312 C 416.945312 570.996094 416.488281 570.335938 416.140625 569.621094 C 415.796875 568.875 415.539062 568.015625 415.308594 567.125 C 414.851562 565.347656 414.449219 563.339844 413.355469 561.644531 C 411.691406 559.121094 410.769531 556.3125 410.023438 553.386719 C 408.5 547.476562 406.71875 541.710938 406.921875 535.6875 C 406.921875 535.113281 406.804688 534.65625 406.804688 534.367188 C 406.777344 533.394531 406.605469 532.476562 406.691406 531.84375 C 406.691406 531.730469 406.71875 531.617188 406.777344 531.5 C 408.15625 527.113281 409.421875 522.722656 411.171875 518.59375 C 413.558594 512.972656 416.34375 507.492188 418.988281 501.929688 C 419.300781 501.269531 419.476562 500.609375 419.675781 500.0625 C 419.761719 499.863281 419.820312 499.664062 419.847656 499.460938 C 419.878906 499.203125 419.847656 498.945312 419.789062 498.6875 C 419.648438 498.285156 419.359375 498 419.042969 497.828125 L 418.929688 497.769531 L 418.988281 497.484375 C 420.566406 497.597656 421.945312 497.222656 423.265625 496.707031 C 423.957031 496.421875 424.617188 496.105469 425.304688 495.789062 L 425.304688 495.847656 C 424.90625 496.480469 424.445312 497.167969 424.101562 498 C 423.179688 500.179688 422.546875 502.386719 422.261719 504.625 C 421.773438 508.066406 422.058594 511.539062 423.125 515.066406 C 423.46875 516.210938 423.753906 517.417969 424.214844 518.59375 C 424.960938 520.628906 425.566406 522.867188 426.742188 524.875 C 428.8125 528.460938 431.398438 531.789062 434.613281 534.539062 C 437.226562 536.75 440.042969 538.613281 442.484375 540.792969 C 444.152344 542.285156 446.046875 543.488281 448.316406 543.804688 L 448.460938 543.804688 C 449.238281 543.921875 450.011719 544.0625 450.816406 544.179688 C 451.820312 544.320312 452.855469 544.40625 453.949219 544.320312 C 455.039062 544.234375 456.160156 543.976562 457.28125 543.402344 C 459.808594 542.113281 462.59375 541.050781 464.691406 538.644531 C 466.359375 536.75 467.910156 534.742188 469.433594 532.761719 C 470.234375 531.730469 471.039062 530.667969 471.703125 529.492188 C 472.9375 527.285156 474.058594 525.046875 475.207031 522.839844 C 475.378906 522.523438 475.609375 522.148438 475.839844 521.75 C 476.066406 521.347656 476.296875 520.886719 476.382812 520.3125 L 476.382812 520.257812 C 476.382812 520.257812 476.414062 520.027344 476.441406 519.914062 C 476.640625 518.363281 477.074219 516.785156 477.304688 515.121094 C 477.445312 514.089844 477.53125 513 477.417969 511.882812 C 477.273438 510.304688 477.503906 508.613281 477.476562 506.804688 C 477.476562 505.542969 477.273438 504.335938 477.128906 503.160156 C 477.015625 502.242188 476.871094 501.355469 476.730469 500.4375 C 477.761719 501.183594 478.738281 501.898438 479.601562 502.703125 C 480.003906 503.074219 480.40625 503.507812 480.722656 503.9375 C 481.039062 504.367188 481.265625 504.824219 481.382812 505.226562 C 482.761719 510.847656 483.105469 514.492188 482.761719 520.027344 C 482.703125 520.800781 482.847656 521.519531 483.105469 522.09375 C 483.394531 522.667969 483.765625 523.125 484.199219 523.585938 C 485.03125 524.472656 485.777344 525.476562 486.351562 526.507812 C 487.875 529.207031 489.140625 532.132812 490.832031 534.855469 C 493.304688 538.84375 496.0625 542.542969 497.902344 546.703125 C 498.214844 547.363281 498.617188 547.820312 498.847656 548.25 C 499.539062 549.398438 500.542969 550.257812 501.863281 550.71875 C 501.953125 550.71875 502.125 550.832031 502.238281 550.976562 C 502.382812 551.089844 502.46875 551.261719 502.527344 551.347656 C 504.796875 556.511719 507.007812 561.730469 509.246094 566.925781 C 509.910156 568.445312 510.570312 569.964844 511.316406 571.457031 C 511.515625 571.855469 511.746094 572.34375 512.09375 572.832031 C 512.4375 573.320312 512.984375 573.777344 513.730469 573.980469 L 514.449219 574.179688 L 514.707031 573.492188 C 515.164062 572.316406 515.453125 571.542969 515.566406 570.738281 C 515.625 570.335938 515.597656 569.9375 515.566406 569.535156 L 515.683594 569.449219 L 515.539062 569.363281 C 515.453125 568.902344 515.28125 568.445312 515.050781 567.929688 C 512.953125 563.050781 510.714844 558.261719 508.53125 553.441406 C 508.386719 553.15625 508.214844 552.984375 508.097656 552.871094 C 507.984375 552.753906 507.898438 552.667969 507.867188 552.640625 C 507.035156 551.578125 506.71875 550.375 506.664062 548.941406 L 506.664062 548.078125 L 505.773438 548.164062 L 505.167969 548.222656 C 503.875 545.613281 502.613281 543.03125 501.347656 540.421875 C 500.113281 537.925781 498.90625 535.429688 497.671875 532.933594 L 497.355469 532.304688 L 496.695312 532.503906 L 496.523438 532.5625 C 496.378906 532.332031 496.261719 532.101562 496.148438 531.902344 C 493.449219 526.996094 490.746094 522.121094 488.132812 517.214844 C 487.875 516.785156 487.789062 516.039062 487.703125 515.265625 C 487.445312 513.058594 487.558594 510.707031 487.386719 508.351562 C 487.214844 506 486.695312 503.5625 485.203125 501.296875 C 484.773438 500.667969 484.457031 499.890625 484.082031 499.058594 C 484.285156 498.945312 484.542969 498.800781 484.828125 498.660156 L 485.777344 498.140625 L 485.03125 497.398438 C 484.140625 496.480469 483.394531 495.703125 482.617188 494.929688 C 480.289062 492.722656 478.136719 489.996094 475.261719 488.160156 C 474.199219 487.472656 473.625 486.667969 473.136719 485.695312 C 472.878906 485.175781 472.621094 484.574219 472.363281 483.972656 C 472.621094 484.058594 472.878906 484.144531 473.167969 484.203125 C 475.4375 484.804688 477.761719 485.664062 480.203125 485.980469 C 480.375 485.980469 480.578125 486.039062 480.75 486.039062 C 480.921875 486.039062 481.09375 486.066406 481.265625 486.09375 C 481.667969 486.152344 482.015625 486.238281 482.332031 486.324219 C 482.644531 486.441406 482.90625 486.582031 483.164062 486.8125 C 485.835938 489.050781 488.449219 491.402344 491.234375 493.582031 C 494.65625 496.21875 498.160156 498.6875 501.605469 501.183594 C 502.039062 501.5 502.382812 501.84375 502.640625 502.242188 C 502.898438 502.644531 503.101562 503.105469 503.242188 503.648438 C 504.25 507.980469 505.398438 512.253906 506.519531 516.558594 C 506.605469 516.902344 506.75 517.246094 506.976562 517.53125 C 507.207031 517.820312 507.582031 518.019531 507.925781 518.078125 C 508.242188 518.105469 508.53125 518.078125 508.816406 517.992188 C 509.105469 517.90625 509.363281 517.789062 509.621094 517.617188 L 510.050781 517.359375 L 510.050781 516.871094 C 509.964844 515.265625 510.023438 513.515625 509.765625 511.738281 C 509.507812 509.960938 508.816406 508.410156 508.617188 506.949219 C 508.386719 505.253906 507.78125 503.765625 507.640625 502.328125 C 507.640625 502.128906 507.582031 501.871094 507.496094 501.613281 C 507.46875 501.46875 507.410156 501.355469 507.324219 501.183594 C 507.238281 501.039062 507.09375 500.839844 506.777344 500.695312 C 506.632812 500.636719 506.578125 500.582031 506.519531 500.523438 C 506.460938 500.4375 506.375 500.292969 506.347656 500.035156 C 506.289062 499.777344 506.261719 499.433594 506.117188 499.03125 C 505.945312 498.515625 505.773438 498 505.511719 497.253906 L 505.140625 496.132812 L 504.21875 496.878906 C 504.21875 496.878906 503.992188 497.023438 503.960938 497.050781 L 503.90625 497.050781 C 503.90625 497.050781 503.847656 497.050781 503.730469 496.964844 C 503.617188 496.910156 503.472656 496.765625 503.300781 496.621094 C 498.703125 492.636719 494.050781 488.707031 489.398438 484.777344 C 489.28125 484.691406 489.109375 484.519531 488.910156 484.347656 C 488.824219 484.261719 488.707031 484.171875 488.5625 484.085938 C 488.421875 484 488.277344 483.914062 488.019531 483.886719 C 487.875 483.886719 487.730469 483.886719 487.558594 483.945312 C 487.273438 484.03125 487.042969 484.058594 486.871094 484.03125 C 486.582031 484 486.324219 483.828125 486.007812 483.542969 C 485.691406 483.257812 485.402344 482.855469 485.03125 482.453125 C 483.851562 481.191406 482.417969 480.472656 480.835938 480.246094 C 480.40625 480.1875 479.945312 480.15625 479.457031 480.15625 C 478.941406 480.15625 478.453125 480.128906 477.933594 480.042969 C 476.183594 479.8125 474.402344 479.152344 472.363281 478.695312 C 473.222656 477.320312 474 476.085938 474.804688 474.964844 C 479.34375 468.542969 483.9375 462.175781 488.449219 455.71875 C 488.707031 455.347656 488.9375 455.148438 489.195312 454.972656 C 489.453125 454.800781 489.769531 454.714844 490.171875 454.628906 C 491.0625 454.457031 492.125 454.402344 493.1875 453.941406 C 495.546875 452.878906 498.015625 452.335938 500.628906 452.019531 C 502.753906 451.761719 504.9375 451.5625 507.09375 451.101562 C 510.484375 450.386719 513.785156 449.382812 517.089844 448.691406 C 521.570312 447.746094 525.191406 445.367188 528.953125 443.15625 L 529.902344 442.613281 L 529.070312 441.867188 C 528.695312 441.523438 528.265625 441.320312 527.863281 441.265625 C 527.460938 441.207031 527.117188 441.265625 526.859375 441.351562 C 526.597656 441.4375 526.371094 441.492188 526.226562 441.523438 C 524.070312 442.039062 521.917969 442.554688 519.761719 443.015625 C 517.320312 443.558594 514.648438 443.816406 512.121094 444.707031 C 508.070312 446.140625 504.019531 446.941406 499.796875 446.800781 C 497.238281 446.714844 494.828125 447.402344 492.585938 448.378906 C 491.550781 448.808594 490.519531 449.265625 489.511719 449.726562 L 489.195312 449.867188 L 489.082031 450.183594 C 489.023438 450.328125 488.964844 450.414062 488.9375 450.472656 C 488.878906 450.527344 488.878906 450.527344 488.824219 450.558594 C 488.792969 450.558594 488.707031 450.558594 488.5625 450.558594 C 488.335938 450.558594 488.019531 450.441406 487.644531 450.328125 L 487.242188 450.242188 L 486.925781 450.5 C 486.382812 450.929688 485.777344 451.359375 485.144531 451.820312 C 484.515625 452.277344 483.910156 452.792969 483.394531 453.453125 C 479.832031 458.042969 476.328125 462.691406 473.539062 467.910156 C 473.308594 468.3125 473.082031 468.570312 472.792969 468.742188 L 472.734375 468.742188 C 472.851562 468.082031 472.964844 467.421875 473.050781 466.734375 C 473.710938 461.914062 473.796875 457.183594 473.253906 452.394531 C 473.195312 451.847656 473.082031 451.332031 472.992188 450.84375 C 472.90625 450.355469 472.878906 449.925781 472.9375 449.554688 C 472.992188 449.210938 473.082031 448.921875 473.308594 448.578125 C 473.425781 448.378906 473.453125 448.234375 473.480469 448.121094 C 473.480469 447.890625 473.480469 447.746094 473.453125 447.574219 C 473.394531 447.402344 473.367188 447.230469 473.195312 447.03125 C 472.820312 446.570312 472.648438 446.140625 472.5625 445.652344 C 472.476562 445.164062 472.476562 444.648438 472.5625 444.105469 C 472.621094 443.644531 472.734375 443.15625 472.851562 442.667969 C 473.394531 440.117188 474.058594 437.5625 474.804688 435.039062 C 474.976562 434.410156 475.40625 433.71875 475.867188 433.203125 C 479.285156 429.5625 482.734375 425.949219 486.207031 422.304688 C 489.714844 418.660156 493.390625 415.191406 497.414062 412.179688 C 497.613281 412.007812 497.957031 411.808594 498.273438 411.546875 C 498.417969 411.433594 498.589844 411.289062 498.734375 411.117188 C 498.878906 410.945312 499.019531 410.714844 499.078125 410.402344 L 499.078125 410.285156 C 499.078125 410.285156 499.078125 410.144531 499.078125 410.085938 C 499.105469 409.855469 499.164062 409.710938 499.25 409.597656 C 499.367188 409.425781 499.566406 409.253906 499.882812 409.082031 C 500.199219 408.910156 500.574219 408.738281 501.003906 408.507812 C 501.953125 407.964844 502.984375 407.53125 504.019531 407.074219 C 508.558594 405.066406 512.925781 402.945312 517.722656 401.996094 C 520.710938 401.394531 523.4375 400.160156 526.195312 399.273438 C 526.828125 399.070312 527.402344 398.8125 527.949219 398.640625 C 528.496094 398.46875 528.984375 398.355469 529.414062 398.355469 C 533.378906 398.496094 537.171875 397.753906 540.820312 396.316406 C 541.59375 396.03125 542.285156 395.886719 543.203125 395.886719 C 544.984375 395.832031 546.652344 395.257812 548.203125 394.882812 C 548.460938 394.828125 548.632812 394.683594 548.75 394.566406 C 548.921875 394.394531 549.007812 394.253906 549.09375 394.136719 C 549.179688 394.023438 549.238281 393.910156 549.265625 393.878906 L 549.695312 393.335938 L 549.207031 392.820312 Z M 439.238281 510.015625 C 439.324219 510.535156 439.410156 511.050781 439.410156 511.539062 C 439.324219 511.308594 439.238281 511.050781 439.238281 510.761719 C 439.238281 510.503906 439.238281 510.246094 439.238281 509.988281 Z M 460.410156 521.175781 C 460.238281 521.316406 460.09375 521.433594 459.980469 521.492188 C 459.578125 521.691406 459.261719 521.949219 459.003906 522.292969 C 458.773438 522.609375 458.628906 522.980469 458.574219 523.355469 C 458.515625 523.84375 458.574219 524.328125 458.714844 524.789062 C 459.089844 526.164062 459.550781 527.542969 459.980469 529.003906 L 460.066406 529.292969 L 459.894531 529.347656 C 459.464844 529.519531 459.003906 529.808594 458.660156 530.296875 C 458.542969 530.296875 458.371094 530.296875 458.285156 530.296875 C 456.445312 530.09375 454.609375 529.835938 452.683594 529.578125 C 453.6875 528.460938 454.609375 527.339844 455.671875 526.625 C 456.503906 526.078125 457.078125 525.363281 457.539062 524.675781 C 458 523.984375 458.34375 523.296875 458.714844 522.667969 C 458.859375 522.40625 458.945312 522.179688 458.976562 521.921875 C 459.003906 521.632812 459.003906 521.316406 458.917969 521.003906 C 458.085938 518.277344 457.222656 515.582031 456.332031 512.886719 C 456.1875 512.457031 456.160156 512.167969 456.1875 512.082031 C 456.1875 512.082031 456.246094 512.054688 456.332031 512.054688 C 456.445312 512.054688 456.648438 512.054688 456.90625 512.054688 L 456.933594 512.054688 C 457.421875 512.140625 458 512.3125 458.601562 512.542969 C 460.496094 513.171875 462.394531 513.773438 464.289062 514.433594 C 464.808594 514.605469 465.296875 514.808594 465.695312 515.035156 C 466.042969 515.238281 466.414062 515.496094 466.730469 515.726562 C 464.863281 517.332031 462.9375 518.964844 460.984375 520.628906 C 460.757812 520.832031 460.582031 521.003906 460.410156 521.175781 Z M 447.167969 428.328125 C 447.167969 428.328125 447.253906 428.214844 447.398438 428.128906 C 447.371094 428.816406 447.339844 429.476562 447.398438 430.164062 C 447.828125 436.332031 448.605469 442.496094 450.5 448.492188 C 451.015625 450.097656 451.132812 451.675781 450.902344 453.425781 C 450.441406 456.953125 451.390625 460.253906 452.082031 463.4375 C 452.683594 466.160156 453.375 468.855469 453.976562 471.582031 C 454.0625 471.925781 454.121094 472.214844 454.148438 472.414062 C 454.148438 472.613281 454.148438 472.757812 454.148438 472.871094 C 454.148438 473.015625 454.089844 473.128906 453.976562 473.359375 C 453.949219 473.445312 453.890625 473.53125 453.832031 473.617188 C 451.332031 471.925781 449.148438 470.0625 447.484375 467.796875 C 444.839844 464.210938 442.457031 460.367188 439.757812 456.722656 C 438.550781 455.03125 438.089844 453.484375 438.089844 451.359375 C 438.117188 447.230469 437.746094 443.15625 437.515625 439.113281 C 437.488281 438.683594 437.316406 438.394531 437.171875 438.167969 C 437.027344 437.9375 436.914062 437.765625 436.882812 437.679688 C 436.769531 437.449219 436.683594 437.191406 436.566406 436.933594 C 436.828125 436.875 437.085938 436.789062 437.285156 436.675781 C 437.6875 436.445312 438.003906 436.128906 438.292969 435.84375 C 439.613281 434.464844 441.019531 433.175781 442.457031 431.886719 C 443.03125 431.367188 443.691406 430.882812 444.382812 430.535156 C 444.8125 430.308594 445.300781 430.078125 445.789062 429.761719 C 446.277344 429.445312 446.792969 429.015625 447.167969 428.386719 Z M 461.558594 468.3125 L 461.558594 468.511719 C 461.558594 468.511719 461.503906 468.742188 461.332031 469 C 460.957031 469.488281 460.699219 470.003906 460.46875 470.519531 L 460.46875 470.378906 C 460.382812 469.660156 460.296875 468.941406 460.210938 468.226562 C 460.699219 468.253906 461.128906 468.285156 461.558594 468.3125 Z M 469.402344 439.6875 L 469.605469 439.773438 C 469.546875 440.03125 469.488281 440.261719 469.433594 440.519531 C 469.433594 440.230469 469.433594 439.945312 469.433594 439.6875 Z M 546.792969 392.558594 Z M 546.792969 392.558594 "/></g><path style=" stroke:none;fill-rule:nonzero;fill:#000000;fill-opacity:1;" d="M 508.414062 553.328125 L 508.445312 553.386719 Z M 508.414062 553.328125 "/></g></svg>