<svg xmlns="http://www.w3.org/2000/svg" xmlns:xlink="http://www.w3.org/1999/xlink" width="1500" zoomAndPan="magnify" viewBox="0 0 1125 577.499988" height="770" preserveAspectRatio="xMidYMid meet" version="1.2"><defs><clipPath id="b158b9cdfa"><path d="M 626 80 L 812 80 L 812 160 L 626 160 Z M 626 80 "/></clipPath><clipPath id="e96f5d48b0"><path d="M 628.839844 54.3125 L 845.460938 85.199219 L 823.5625 238.761719 L 606.945312 207.871094 Z M 628.839844 54.3125 "/></clipPath><clipPath id="f8becf5155"><path d="M 628.839844 54.3125 L 845.460938 85.199219 L 823.5625 238.761719 L 606.945312 207.871094 Z M 628.839844 54.3125 "/></clipPath><clipPath id="ee34748574"><path d="M 628.839844 54.3125 L 845.460938 85.199219 L 823.5625 238.761719 L 606.945312 207.871094 Z M 628.839844 54.3125 "/></clipPath><clipPath id="80c7647cfb"><path d="M 607 85 L 846 85 L 846 208 L 607 208 Z M 607 85 "/></clipPath><clipPath id="d7809d999e"><path d="M 628.839844 54.3125 L 845.460938 85.199219 L 823.5625 238.761719 L 606.945312 207.871094 Z M 628.839844 54.3125 "/></clipPath><clipPath id="d37a47c53a"><path d="M 628.839844 54.3125 L 845.460938 85.199219 L 823.5625 238.761719 L 606.945312 207.871094 Z M 628.839844 54.3125 "/></clipPath><clipPath id="4f10e08138"><path d="M 628.839844 54.3125 L 845.460938 85.199219 L 823.5625 238.761719 L 606.945312 207.871094 Z M 628.839844 54.3125 "/></clipPath><clipPath id="779f9287fe"><path d="M 500 235 L 610 235 L 610 296 L 500 296 Z M 500 235 "/></clipPath><clipPath id="658c727898"><path d="M 609.921875 235.371094 L 621.042969 255.765625 L 511.164062 315.664062 L 500.046875 295.265625 Z M 609.921875 235.371094 "/></clipPath><clipPath id="26d26b434a"><path d="M 609.921875 235.371094 L 621.042969 255.765625 L 511.164062 315.664062 L 500.046875 295.265625 Z M 609.921875 235.371094 "/></clipPath><clipPath id="4921e7e9e9"><path d="M 609.921875 235.371094 L 621.042969 255.765625 L 511.164062 315.664062 L 500.046875 295.265625 Z M 609.921875 235.371094 "/></clipPath><clipPath id="fc9fcd1562"><path d="M 532 389 L 872 389 L 872 499 L 532 499 Z M 532 389 "/></clipPath><clipPath id="b002946246"><path d="M 756.535156 613.433594 L 532.398438 389.296875 L 695.601562 226.097656 L 919.734375 450.230469 Z M 756.535156 613.433594 "/></clipPath><clipPath id="001492dd86"><path d="M 756.535156 613.433594 L 532.398438 389.296875 L 695.601562 226.097656 L 919.734375 450.230469 Z M 756.535156 613.433594 "/></clipPath><clipPath id="46f393ecc2"><path d="M 756.535156 613.433594 L 532.398438 389.296875 L 695.601562 226.097656 L 919.734375 450.230469 Z M 756.535156 613.433594 "/></clipPath><clipPath id="bc53bf6e2f"><path d="M 684 392 L 862 392 L 862 422 L 684 422 Z M 684 392 "/></clipPath><clipPath id="8792bd93c3"><path d="M 756.535156 613.433594 L 532.398438 389.296875 L 695.601562 226.097656 L 919.734375 450.230469 Z M 756.535156 613.433594 "/></clipPath><clipPath id="62cfffb887"><path d="M 756.535156 613.433594 L 532.398438 389.296875 L 695.601562 226.097656 L 919.734375 450.230469 Z M 756.535156 613.433594 "/></clipPath><clipPath id="b9f6eba514"><path d="M 756.535156 613.433594 L 532.398438 389.296875 L 695.601562 226.097656 L 919.734375 450.230469 Z M 756.535156 613.433594 "/></clipPath></defs><g id="ce9f7d855f"><g clip-rule="nonzero" clip-path="url(#b158b9cdfa)"><g clip-rule="nonzero" clip-path="url(#e96f5d48b0)"><g clip-rule="nonzero" clip-path="url(#f8becf5155)"><g clip-rule="nonzero" clip-path="url(#ee34748574)"><path style=" stroke:none;fill-rule:nonzero;fill:#000000;fill-opacity:1;" d="M 811.515625 80.816406 L 719.136719 120.195312 L 626.753906 159.574219 C 651.683594 142.585938 676.609375 125.601562 701.539062 108.613281 C 685.355469 106.386719 669.175781 104.15625 652.992188 101.929688 L 811.515625 80.816406 "/></g></g></g></g><g clip-rule="nonzero" clip-path="url(#80c7647cfb)"><g clip-rule="nonzero" clip-path="url(#d7809d999e)"><g clip-rule="nonzero" clip-path="url(#d37a47c53a)"><g clip-rule="nonzero" clip-path="url(#4f10e08138)"><path style=" stroke:none;fill-rule:nonzero;fill:#000000;fill-opacity:1;" d="M 706.609375 137.777344 L 607.164062 207.894531 C 686.507812 166.980469 765.851562 126.066406 845.195312 85.148438 L 706.609375 137.777344 "/></g></g></g></g><g clip-rule="nonzero" clip-path="url(#779f9287fe)"><g clip-rule="nonzero" clip-path="url(#658c727898)"><g clip-rule="nonzero" clip-path="url(#26d26b434a)"><g clip-rule="nonzero" clip-path="url(#4921e7e9e9)"><path style=" stroke:none;fill-rule:nonzero;fill:#1d1d1b;fill-opacity:1;" d="M 600.871094 266.75 L 609.613281 235.539062 L 500.355469 295.097656 Z M 600.871094 266.75 "/></g></g></g></g><g clip-rule="nonzero" clip-path="url(#fc9fcd1562)"><g clip-rule="nonzero" clip-path="url(#b002946246)"><g clip-rule="nonzero" clip-path="url(#001492dd86)"><g clip-rule="nonzero" clip-path="url(#46f393ecc2)"><path style=" stroke:none;fill-rule:nonzero;fill:#000000;fill-opacity:1;" d="M 871.613281 498.101562 L 854.121094 471.742188 L 836.625 445.382812 C 735.238281 426.722656 633.851562 408.0625 532.46875 389.402344 L 871.613281 498.101562 "/></g></g></g></g><g clip-rule="nonzero" clip-path="url(#bc53bf6e2f)"><g clip-rule="nonzero" clip-path="url(#8792bd93c3)"><g clip-rule="nonzero" clip-path="url(#62cfffb887)"><g clip-rule="nonzero" clip-path="url(#b9f6eba514)"><path style=" stroke:none;fill-rule:nonzero;fill:#000000;fill-opacity:1;" d="M 794.574219 421.058594 L 828.109375 406.578125 L 861.644531 392.101562 C 802.527344 396.386719 743.414062 400.671875 684.300781 404.957031 L 794.574219 421.058594 "/></g></g></g></g></g></svg>